%TF.GenerationSoftware,KiCad,Pcbnew,9.0.7*%
%TF.CreationDate,2026-06-16T00:02:30-07:00*%
%TF.ProjectId,Self Balancing Robot,53656c66-2042-4616-9c61-6e63696e6720,rev?*%
%TF.SameCoordinates,Original*%
%TF.FileFunction,Copper,L2,Bot*%
%TF.FilePolarity,Positive*%
%FSLAX46Y46*%
G04 Gerber Fmt 4.6, Leading zero omitted, Abs format (unit mm)*
G04 Created by KiCad (PCBNEW 9.0.7) date 2026-06-16 00:02:30*
%MOMM*%
%LPD*%
G01*
G04 APERTURE LIST*
G04 Aperture macros list*
%AMRoundRect*
0 Rectangle with rounded corners*
0 $1 Rounding radius*
0 $2 $3 $4 $5 $6 $7 $8 $9 X,Y pos of 4 corners*
0 Add a 4 corners polygon primitive as box body*
4,1,4,$2,$3,$4,$5,$6,$7,$8,$9,$2,$3,0*
0 Add four circle primitives for the rounded corners*
1,1,$1+$1,$2,$3*
1,1,$1+$1,$4,$5*
1,1,$1+$1,$6,$7*
1,1,$1+$1,$8,$9*
0 Add four rect primitives between the rounded corners*
20,1,$1+$1,$2,$3,$4,$5,0*
20,1,$1+$1,$4,$5,$6,$7,0*
20,1,$1+$1,$6,$7,$8,$9,0*
20,1,$1+$1,$8,$9,$2,$3,0*%
G04 Aperture macros list end*
%TA.AperFunction,ComponentPad*%
%ADD10C,1.600000*%
%TD*%
%TA.AperFunction,ComponentPad*%
%ADD11RoundRect,0.250000X0.550000X0.550000X-0.550000X0.550000X-0.550000X-0.550000X0.550000X-0.550000X0*%
%TD*%
%TA.AperFunction,ComponentPad*%
%ADD12RoundRect,0.250000X0.600000X0.725000X-0.600000X0.725000X-0.600000X-0.725000X0.600000X-0.725000X0*%
%TD*%
%TA.AperFunction,ComponentPad*%
%ADD13O,1.700000X1.950000*%
%TD*%
%TA.AperFunction,ComponentPad*%
%ADD14R,1.500000X2.500000*%
%TD*%
%TA.AperFunction,ComponentPad*%
%ADD15O,1.500000X2.500000*%
%TD*%
%TA.AperFunction,ComponentPad*%
%ADD16RoundRect,0.250001X1.149999X1.149999X-1.149999X1.149999X-1.149999X-1.149999X1.149999X-1.149999X0*%
%TD*%
%TA.AperFunction,ComponentPad*%
%ADD17C,2.800000*%
%TD*%
%TA.AperFunction,ComponentPad*%
%ADD18R,1.600000X1.600000*%
%TD*%
%TA.AperFunction,ComponentPad*%
%ADD19O,1.600000X1.600000*%
%TD*%
%TA.AperFunction,ComponentPad*%
%ADD20R,2.000000X2.000000*%
%TD*%
%TA.AperFunction,ComponentPad*%
%ADD21C,2.000000*%
%TD*%
%TA.AperFunction,ComponentPad*%
%ADD22C,1.905000*%
%TD*%
%TA.AperFunction,ViaPad*%
%ADD23C,0.600000*%
%TD*%
G04 APERTURE END LIST*
D10*
%TO.P,C2,N*%
%TO.N,GND*%
X162500000Y-86700000D03*
D11*
%TO.P,C2,P*%
%TO.N,+12V*%
X165000000Y-86700000D03*
%TD*%
D12*
%TO.P,M2,1*%
%TO.N,/R_2B*%
X133800000Y-85600000D03*
D13*
%TO.P,M2,2,-*%
%TO.N,/R_2A*%
X131300000Y-85600000D03*
%TO.P,M2,3*%
%TO.N,/R_1A*%
X128800000Y-85600000D03*
%TO.P,M2,4*%
%TO.N,/R_1B*%
X126300000Y-85600000D03*
%TD*%
D14*
%TO.P,U2,1,Vin*%
%TO.N,+12V*%
X126417500Y-46782500D03*
D15*
%TO.P,U2,2,GND*%
%TO.N,GND*%
X128957500Y-46782500D03*
%TO.P,U2,3,Vout*%
%TO.N,VDD*%
X131497500Y-46782500D03*
%TD*%
D12*
%TO.P,M1,1*%
%TO.N,/L_2B*%
X156850000Y-85600000D03*
D13*
%TO.P,M1,2,-*%
%TO.N,/L_2A*%
X154350000Y-85600000D03*
%TO.P,M1,3*%
%TO.N,/L_1A*%
X151850000Y-85600000D03*
%TO.P,M1,4*%
%TO.N,/L_1B*%
X149350000Y-85600000D03*
%TD*%
D16*
%TO.P,J1,1,Pin_1*%
%TO.N,+12V*%
X144500000Y-45000000D03*
D17*
%TO.P,J1,2,Pin_2*%
%TO.N,GND*%
X139500000Y-45000000D03*
%TD*%
D18*
%TO.P,A2,1,GND*%
%TO.N,GND*%
X124800000Y-81700000D03*
D19*
%TO.P,A2,2,VDD*%
%TO.N,VDD*%
X127340000Y-81700000D03*
%TO.P,A2,3,1B*%
%TO.N,/R_1B*%
X129880000Y-81700000D03*
%TO.P,A2,4,1A*%
%TO.N,/R_1A*%
X132420000Y-81700000D03*
%TO.P,A2,5,2A*%
%TO.N,/R_2A*%
X134960000Y-81700000D03*
%TO.P,A2,6,2B*%
%TO.N,/R_2B*%
X137500000Y-81700000D03*
%TO.P,A2,7,GND*%
%TO.N,GND*%
X140040000Y-81700000D03*
%TO.P,A2,8,VMOT*%
%TO.N,+12V*%
X142580000Y-81700000D03*
%TO.P,A2,9,~{ENABLE}*%
%TO.N,unconnected-(A2-~{ENABLE}-Pad9)*%
X142580000Y-69000000D03*
%TO.P,A2,10,MS1*%
%TO.N,VDD*%
X140040000Y-69000000D03*
%TO.P,A2,11,MS2*%
X137500000Y-69000000D03*
%TO.P,A2,12,MS3*%
X134960000Y-69000000D03*
%TO.P,A2,13,~{RESET}*%
X132420000Y-69000000D03*
%TO.P,A2,14,~{SLEEP}*%
X129880000Y-69000000D03*
%TO.P,A2,15,STEP*%
%TO.N,/Step2*%
X127340000Y-69000000D03*
%TO.P,A2,16,DIR*%
%TO.N,/Direc2*%
X124800000Y-69000000D03*
%TD*%
D18*
%TO.P,A1,1,GND*%
%TO.N,GND*%
X147860000Y-81700000D03*
D19*
%TO.P,A1,2,VDD*%
%TO.N,VDD*%
X150400000Y-81700000D03*
%TO.P,A1,3,1B*%
%TO.N,/L_1B*%
X152940000Y-81700000D03*
%TO.P,A1,4,1A*%
%TO.N,/L_1A*%
X155480000Y-81700000D03*
%TO.P,A1,5,2A*%
%TO.N,/L_2A*%
X158020000Y-81700000D03*
%TO.P,A1,6,2B*%
%TO.N,/L_2B*%
X160560000Y-81700000D03*
%TO.P,A1,7,GND*%
%TO.N,GND*%
X163100000Y-81700000D03*
%TO.P,A1,8,VMOT*%
%TO.N,+12V*%
X165640000Y-81700000D03*
%TO.P,A1,9,~{ENABLE}*%
%TO.N,unconnected-(A1-~{ENABLE}-Pad9)*%
X165640000Y-69000000D03*
%TO.P,A1,10,MS1*%
%TO.N,VDD*%
X163100000Y-69000000D03*
%TO.P,A1,11,MS2*%
X160560000Y-69000000D03*
%TO.P,A1,12,MS3*%
X158020000Y-69000000D03*
%TO.P,A1,13,~{RESET}*%
X155480000Y-69000000D03*
%TO.P,A1,14,~{SLEEP}*%
X152940000Y-69000000D03*
%TO.P,A1,15,STEP*%
%TO.N,/Step1*%
X150400000Y-69000000D03*
%TO.P,A1,16,DIR*%
%TO.N,/Direc1*%
X147860000Y-69000000D03*
%TD*%
D20*
%TO.P,ESP32,1,3V3*%
%TO.N,unconnected-(U1-3V3-Pad1)*%
X95600000Y-51700000D03*
D21*
%TO.P,ESP32,2,GND*%
%TO.N,GND*%
X95600000Y-54240000D03*
%TO.P,ESP32,3,D15*%
%TO.N,unconnected-(U1-D15-Pad3)*%
X95600000Y-56780000D03*
%TO.P,ESP32,4,D2*%
%TO.N,unconnected-(U1-D2-Pad4)*%
X95600000Y-59320000D03*
%TO.P,ESP32,5,D4*%
%TO.N,unconnected-(U1-D4-Pad5)*%
X95600000Y-61860000D03*
%TO.P,ESP32,6,RX2*%
%TO.N,unconnected-(U1-RX2-Pad6)*%
X95600000Y-64400000D03*
%TO.P,ESP32,7,TX2*%
%TO.N,unconnected-(U1-TX2-Pad7)*%
X95600000Y-66940000D03*
%TO.P,ESP32,8,D5*%
%TO.N,unconnected-(U1-D5-Pad8)*%
X95600000Y-69480000D03*
%TO.P,ESP32,9,D18*%
%TO.N,/Step1*%
X95600000Y-72020000D03*
%TO.P,ESP32,10,D19*%
%TO.N,/Direc1*%
X95600000Y-74560000D03*
%TO.P,ESP32,11,D21*%
%TO.N,/SDA*%
X95600000Y-77100000D03*
%TO.P,ESP32,12,RX0*%
%TO.N,unconnected-(U1-RX0-Pad12)*%
X95600000Y-79640000D03*
%TO.P,ESP32,13,TX0*%
%TO.N,unconnected-(U1-TX0-Pad13)*%
X95600000Y-82180000D03*
%TO.P,ESP32,14,D22*%
%TO.N,/SCL*%
X95600000Y-84720000D03*
%TO.P,ESP32,15,D23*%
%TO.N,unconnected-(U1-D23-Pad15)*%
X95600000Y-87260000D03*
%TO.P,ESP32,16,EN*%
%TO.N,unconnected-(U1-EN-Pad16)*%
X121000000Y-87260000D03*
%TO.P,ESP32,17,VP*%
%TO.N,unconnected-(U1-VP-Pad17)*%
X121000000Y-84720000D03*
%TO.P,ESP32,18,VN*%
%TO.N,unconnected-(U1-VN-Pad18)*%
X121000000Y-82180000D03*
%TO.P,ESP32,19,D34*%
%TO.N,unconnected-(U1-D34-Pad19)*%
X121000000Y-79640000D03*
%TO.P,ESP32,20,D35*%
%TO.N,unconnected-(U1-D35-Pad20)*%
X121000000Y-77100000D03*
%TO.P,ESP32,21,D32*%
%TO.N,unconnected-(U1-D32-Pad21)*%
X121000000Y-74560000D03*
%TO.P,ESP32,22,D33*%
%TO.N,unconnected-(U1-D33-Pad22)*%
X121000000Y-72020000D03*
%TO.P,ESP32,23,D25*%
%TO.N,/Step2*%
X121000000Y-69480000D03*
%TO.P,ESP32,24,D26*%
%TO.N,/Direc2*%
X121000000Y-66940000D03*
%TO.P,ESP32,25,D27*%
%TO.N,/D27*%
X121000000Y-64400000D03*
%TO.P,ESP32,26,D14*%
%TO.N,unconnected-(U1-D14-Pad26)*%
X121000000Y-61860000D03*
%TO.P,ESP32,27,D12*%
%TO.N,unconnected-(U1-D12-Pad27)*%
X121000000Y-59320000D03*
%TO.P,ESP32,28,D13*%
%TO.N,unconnected-(U1-D13-Pad28)*%
X121000000Y-56780000D03*
%TO.P,ESP32,29,GND*%
%TO.N,GND*%
X121000000Y-54240000D03*
%TO.P,ESP32,30,VIN*%
%TO.N,VDD*%
X121000000Y-51700000D03*
%TD*%
D22*
%TO.P,MPU6050,1,VCC*%
%TO.N,VDD*%
X152080000Y-52690000D03*
%TO.P,MPU6050,2,GND*%
%TO.N,GND*%
X149540000Y-52690000D03*
%TO.P,MPU6050,3,SCL*%
%TO.N,/SCL*%
X147000000Y-52690000D03*
%TO.P,MPU6050,4,SDA*%
%TO.N,/SDA*%
X144460000Y-52690000D03*
%TO.P,MPU6050,5,XDA*%
%TO.N,unconnected-(MPU1-XDA-Pad5)*%
X141920000Y-52690000D03*
%TO.P,MPU6050,6,XCL*%
%TO.N,unconnected-(MPU1-XCL-Pad6)*%
X139380000Y-52690000D03*
%TO.P,MPU6050,7,ADO*%
%TO.N,unconnected-(MPU1-ADO-Pad7)*%
X136840000Y-52690000D03*
%TO.P,MPU6050,8,INT*%
%TO.N,unconnected-(MPU1-INT-Pad8)*%
X134300000Y-52690000D03*
%TD*%
D10*
%TO.P,C1,N*%
%TO.N,GND*%
X139450000Y-86700000D03*
D11*
%TO.P,C1,P*%
%TO.N,+12V*%
X141950000Y-86700000D03*
%TD*%
D23*
%TO.N,GND*%
X127627300Y-65484300D03*
X127482400Y-56946800D03*
%TD*%
%TA.AperFunction,Conductor*%
%TO.N,GND*%
G36*
X154504418Y-40500816D02*
G01*
X154704561Y-40515130D01*
X154722063Y-40517647D01*
X154913797Y-40559355D01*
X154930755Y-40564334D01*
X155114609Y-40632909D01*
X155130701Y-40640259D01*
X155302904Y-40734288D01*
X155317784Y-40743849D01*
X155474867Y-40861441D01*
X155488237Y-40873027D01*
X155626972Y-41011762D01*
X155638558Y-41025132D01*
X155756146Y-41182210D01*
X155765711Y-41197095D01*
X155859740Y-41369298D01*
X155867090Y-41385390D01*
X155935662Y-41569236D01*
X155940646Y-41586212D01*
X155982351Y-41777931D01*
X155984869Y-41795442D01*
X155999184Y-41995580D01*
X155999500Y-42004427D01*
X155999500Y-63151254D01*
X156008729Y-63227262D01*
X156035963Y-63451551D01*
X156075896Y-63613566D01*
X156108358Y-63745272D01*
X156215628Y-64028117D01*
X156356206Y-64295964D01*
X156356212Y-64295973D01*
X156528047Y-64544921D01*
X156528052Y-64544927D01*
X156728646Y-64771351D01*
X156728648Y-64771353D01*
X156955072Y-64971947D01*
X156955078Y-64971952D01*
X157204026Y-65143787D01*
X157204035Y-65143793D01*
X157471882Y-65284371D01*
X157754727Y-65391641D01*
X157754731Y-65391642D01*
X157754734Y-65391643D01*
X158048449Y-65464037D01*
X158299661Y-65494539D01*
X158348746Y-65500500D01*
X158348748Y-65500500D01*
X158434108Y-65500500D01*
X166934108Y-65500500D01*
X166995572Y-65500500D01*
X167004418Y-65500816D01*
X167204561Y-65515130D01*
X167222063Y-65517647D01*
X167413797Y-65559355D01*
X167430755Y-65564334D01*
X167593439Y-65625013D01*
X167614609Y-65632909D01*
X167630701Y-65640259D01*
X167802904Y-65734288D01*
X167817784Y-65743849D01*
X167951924Y-65844266D01*
X167974867Y-65861441D01*
X167988237Y-65873027D01*
X168126972Y-66011762D01*
X168138558Y-66025132D01*
X168256146Y-66182210D01*
X168265711Y-66197095D01*
X168359740Y-66369298D01*
X168367090Y-66385390D01*
X168435662Y-66569236D01*
X168440646Y-66586212D01*
X168482351Y-66777931D01*
X168484869Y-66795442D01*
X168499184Y-66995580D01*
X168499500Y-67004427D01*
X168499500Y-91495572D01*
X168499184Y-91504419D01*
X168484869Y-91704557D01*
X168482351Y-91722068D01*
X168440646Y-91913787D01*
X168435662Y-91930763D01*
X168367090Y-92114609D01*
X168359740Y-92130701D01*
X168265711Y-92302904D01*
X168256146Y-92317789D01*
X168138558Y-92474867D01*
X168126972Y-92488237D01*
X167988237Y-92626972D01*
X167974867Y-92638558D01*
X167817789Y-92756146D01*
X167802904Y-92765711D01*
X167630701Y-92859740D01*
X167614609Y-92867090D01*
X167430763Y-92935662D01*
X167413787Y-92940646D01*
X167222068Y-92982351D01*
X167204557Y-92984869D01*
X167023779Y-92997799D01*
X167004417Y-92999184D01*
X166995572Y-92999500D01*
X88504428Y-92999500D01*
X88495582Y-92999184D01*
X88473622Y-92997613D01*
X88295442Y-92984869D01*
X88277931Y-92982351D01*
X88086212Y-92940646D01*
X88069236Y-92935662D01*
X87885390Y-92867090D01*
X87869298Y-92859740D01*
X87697095Y-92765711D01*
X87682210Y-92756146D01*
X87593850Y-92690000D01*
X99390000Y-92690000D01*
X117080000Y-92690000D01*
X117080000Y-90575258D01*
X118779500Y-90575258D01*
X118779500Y-90804741D01*
X118804446Y-90994215D01*
X118809452Y-91032238D01*
X118856724Y-91208660D01*
X118868842Y-91253887D01*
X118956650Y-91465876D01*
X118956657Y-91465890D01*
X119071392Y-91664617D01*
X119211081Y-91846661D01*
X119211089Y-91846670D01*
X119373330Y-92008911D01*
X119373338Y-92008918D01*
X119555382Y-92148607D01*
X119555385Y-92148608D01*
X119555388Y-92148611D01*
X119754112Y-92263344D01*
X119754117Y-92263346D01*
X119754123Y-92263349D01*
X119845480Y-92301190D01*
X119966113Y-92351158D01*
X120187762Y-92410548D01*
X120415266Y-92440500D01*
X120415273Y-92440500D01*
X120644727Y-92440500D01*
X120644734Y-92440500D01*
X120872238Y-92410548D01*
X121093887Y-92351158D01*
X121305888Y-92263344D01*
X121504612Y-92148611D01*
X121686661Y-92008919D01*
X121686665Y-92008914D01*
X121686670Y-92008911D01*
X121848911Y-91846670D01*
X121848914Y-91846665D01*
X121848919Y-91846661D01*
X121988611Y-91664612D01*
X122103344Y-91465888D01*
X122191158Y-91253887D01*
X122250548Y-91032238D01*
X122280500Y-90804734D01*
X122280500Y-90575266D01*
X122250548Y-90347762D01*
X122191158Y-90126113D01*
X122103344Y-89914112D01*
X121988611Y-89715388D01*
X121988608Y-89715385D01*
X121988607Y-89715382D01*
X121848918Y-89533338D01*
X121848911Y-89533330D01*
X121686670Y-89371089D01*
X121686661Y-89371081D01*
X121504617Y-89231392D01*
X121305890Y-89116657D01*
X121305876Y-89116650D01*
X121093887Y-89028842D01*
X121002197Y-89004274D01*
X120942538Y-88967910D01*
X120912009Y-88905063D01*
X120920304Y-88835688D01*
X120964789Y-88781810D01*
X121031341Y-88760535D01*
X121034292Y-88760500D01*
X121118097Y-88760500D01*
X121351368Y-88723553D01*
X121431338Y-88697569D01*
X121575992Y-88650568D01*
X121786433Y-88543343D01*
X121977510Y-88404517D01*
X122144517Y-88237510D01*
X122283343Y-88046433D01*
X122390568Y-87835992D01*
X122463553Y-87611368D01*
X122470210Y-87569336D01*
X122500500Y-87378097D01*
X122500500Y-87141902D01*
X122463553Y-86908631D01*
X122426195Y-86793656D01*
X122390568Y-86684008D01*
X122390566Y-86684005D01*
X122390566Y-86684003D01*
X122285498Y-86477797D01*
X122283343Y-86473567D01*
X122144517Y-86282490D01*
X121977510Y-86115483D01*
X121942872Y-86090317D01*
X121900207Y-86034989D01*
X121894228Y-85965375D01*
X121926833Y-85903580D01*
X121942873Y-85889682D01*
X121977510Y-85864517D01*
X122144517Y-85697510D01*
X122283343Y-85506433D01*
X122353515Y-85368713D01*
X124949500Y-85368713D01*
X124949500Y-85831287D01*
X124958749Y-85889682D01*
X124979174Y-86018644D01*
X124982754Y-86041243D01*
X125046644Y-86237876D01*
X125048444Y-86243414D01*
X125144951Y-86432820D01*
X125269890Y-86604786D01*
X125420213Y-86755109D01*
X125592179Y-86880048D01*
X125592181Y-86880049D01*
X125592184Y-86880051D01*
X125781588Y-86976557D01*
X125983757Y-87042246D01*
X126193713Y-87075500D01*
X126193714Y-87075500D01*
X126406286Y-87075500D01*
X126406287Y-87075500D01*
X126616243Y-87042246D01*
X126818412Y-86976557D01*
X127007816Y-86880051D01*
X127043130Y-86854394D01*
X127179786Y-86755109D01*
X127179788Y-86755106D01*
X127179792Y-86755104D01*
X127330104Y-86604792D01*
X127449683Y-86440204D01*
X127505011Y-86397540D01*
X127574624Y-86391561D01*
X127636420Y-86424166D01*
X127650313Y-86440199D01*
X127726895Y-86545606D01*
X127769896Y-86604792D01*
X127920213Y-86755109D01*
X128092179Y-86880048D01*
X128092181Y-86880049D01*
X128092184Y-86880051D01*
X128281588Y-86976557D01*
X128483757Y-87042246D01*
X128693713Y-87075500D01*
X128693714Y-87075500D01*
X128906286Y-87075500D01*
X128906287Y-87075500D01*
X129116243Y-87042246D01*
X129318412Y-86976557D01*
X129507816Y-86880051D01*
X129543130Y-86854394D01*
X129679786Y-86755109D01*
X129679788Y-86755106D01*
X129679792Y-86755104D01*
X129830104Y-86604792D01*
X129949683Y-86440204D01*
X130005011Y-86397540D01*
X130074624Y-86391561D01*
X130136420Y-86424166D01*
X130150313Y-86440199D01*
X130226895Y-86545606D01*
X130269896Y-86604792D01*
X130420213Y-86755109D01*
X130592179Y-86880048D01*
X130592181Y-86880049D01*
X130592184Y-86880051D01*
X130781588Y-86976557D01*
X130983757Y-87042246D01*
X131193713Y-87075500D01*
X131193714Y-87075500D01*
X131406286Y-87075500D01*
X131406287Y-87075500D01*
X131616243Y-87042246D01*
X131818412Y-86976557D01*
X132007816Y-86880051D01*
X132065141Y-86838402D01*
X132179784Y-86755110D01*
X132179784Y-86755109D01*
X132179792Y-86755104D01*
X132318604Y-86616291D01*
X132379923Y-86582809D01*
X132449615Y-86587793D01*
X132505549Y-86629664D01*
X132511821Y-86638878D01*
X132515185Y-86644333D01*
X132515186Y-86644334D01*
X132607288Y-86793656D01*
X132731344Y-86917712D01*
X132880666Y-87009814D01*
X133047203Y-87064999D01*
X133149991Y-87075500D01*
X134450008Y-87075499D01*
X134552797Y-87064999D01*
X134719334Y-87009814D01*
X134868656Y-86917712D01*
X134992712Y-86793656D01*
X135084814Y-86644334D01*
X135100273Y-86597682D01*
X138150000Y-86597682D01*
X138150000Y-86802317D01*
X138182009Y-87004417D01*
X138245244Y-87199031D01*
X138338141Y-87381350D01*
X138338147Y-87381359D01*
X138370523Y-87425921D01*
X138370524Y-87425922D01*
X139050000Y-86746446D01*
X139050000Y-86752661D01*
X139077259Y-86854394D01*
X139129920Y-86945606D01*
X139204394Y-87020080D01*
X139295606Y-87072741D01*
X139397339Y-87100000D01*
X139403553Y-87100000D01*
X138724076Y-87779474D01*
X138768650Y-87811859D01*
X138950968Y-87904755D01*
X139145582Y-87967990D01*
X139347683Y-88000000D01*
X139552317Y-88000000D01*
X139754417Y-87967990D01*
X139949031Y-87904755D01*
X140131349Y-87811859D01*
X140175921Y-87779474D01*
X139496447Y-87100000D01*
X139502661Y-87100000D01*
X139604394Y-87072741D01*
X139695606Y-87020080D01*
X139770080Y-86945606D01*
X139822741Y-86854394D01*
X139850000Y-86752661D01*
X139850000Y-86746447D01*
X140529473Y-87425921D01*
X140567280Y-87422946D01*
X140635658Y-87437310D01*
X140685415Y-87486361D01*
X140694714Y-87507556D01*
X140715186Y-87569334D01*
X140807288Y-87718656D01*
X140931344Y-87842712D01*
X141080666Y-87934814D01*
X141247203Y-87989999D01*
X141349991Y-88000500D01*
X142550008Y-88000499D01*
X142652797Y-87989999D01*
X142819334Y-87934814D01*
X142968656Y-87842712D01*
X143092712Y-87718656D01*
X143184814Y-87569334D01*
X143239999Y-87402797D01*
X143250500Y-87300009D01*
X143250499Y-86099992D01*
X143242391Y-86020624D01*
X143239999Y-85997203D01*
X143239998Y-85997200D01*
X143224622Y-85950799D01*
X143184814Y-85830666D01*
X143092712Y-85681344D01*
X142968656Y-85557288D01*
X142826132Y-85469379D01*
X142826131Y-85469378D01*
X142819340Y-85465190D01*
X142819334Y-85465186D01*
X142652797Y-85410001D01*
X142652795Y-85410000D01*
X142550010Y-85399500D01*
X141349998Y-85399500D01*
X141349981Y-85399501D01*
X141247203Y-85410000D01*
X141247200Y-85410001D01*
X141080668Y-85465185D01*
X141080663Y-85465187D01*
X140931342Y-85557289D01*
X140807289Y-85681342D01*
X140715187Y-85830663D01*
X140715185Y-85830668D01*
X140694717Y-85892438D01*
X140654944Y-85949883D01*
X140590428Y-85976706D01*
X140567283Y-85977052D01*
X140529474Y-85974076D01*
X139850000Y-86653551D01*
X139850000Y-86647339D01*
X139822741Y-86545606D01*
X139770080Y-86454394D01*
X139695606Y-86379920D01*
X139604394Y-86327259D01*
X139502661Y-86300000D01*
X139496446Y-86300000D01*
X140175922Y-85620524D01*
X140175921Y-85620523D01*
X140131359Y-85588147D01*
X140131350Y-85588141D01*
X139949031Y-85495244D01*
X139754417Y-85432009D01*
X139552317Y-85400000D01*
X139347683Y-85400000D01*
X139145582Y-85432009D01*
X138950968Y-85495244D01*
X138768644Y-85588143D01*
X138724077Y-85620523D01*
X138724077Y-85620524D01*
X139403554Y-86300000D01*
X139397339Y-86300000D01*
X139295606Y-86327259D01*
X139204394Y-86379920D01*
X139129920Y-86454394D01*
X139077259Y-86545606D01*
X139050000Y-86647339D01*
X139050000Y-86653553D01*
X138370524Y-85974077D01*
X138370523Y-85974077D01*
X138338143Y-86018644D01*
X138245244Y-86200968D01*
X138182009Y-86395582D01*
X138150000Y-86597682D01*
X135100273Y-86597682D01*
X135139999Y-86477797D01*
X135150500Y-86375009D01*
X135150499Y-85588147D01*
X135150499Y-85368713D01*
X147999500Y-85368713D01*
X147999500Y-85831287D01*
X148008749Y-85889682D01*
X148029174Y-86018644D01*
X148032754Y-86041243D01*
X148096644Y-86237876D01*
X148098444Y-86243414D01*
X148194951Y-86432820D01*
X148319890Y-86604786D01*
X148470213Y-86755109D01*
X148642179Y-86880048D01*
X148642181Y-86880049D01*
X148642184Y-86880051D01*
X148831588Y-86976557D01*
X149033757Y-87042246D01*
X149243713Y-87075500D01*
X149243714Y-87075500D01*
X149456286Y-87075500D01*
X149456287Y-87075500D01*
X149666243Y-87042246D01*
X149868412Y-86976557D01*
X150057816Y-86880051D01*
X150093130Y-86854394D01*
X150229786Y-86755109D01*
X150229788Y-86755106D01*
X150229792Y-86755104D01*
X150380104Y-86604792D01*
X150499683Y-86440204D01*
X150555011Y-86397540D01*
X150624624Y-86391561D01*
X150686420Y-86424166D01*
X150700313Y-86440199D01*
X150776895Y-86545606D01*
X150819896Y-86604792D01*
X150970213Y-86755109D01*
X151142179Y-86880048D01*
X151142181Y-86880049D01*
X151142184Y-86880051D01*
X151331588Y-86976557D01*
X151533757Y-87042246D01*
X151743713Y-87075500D01*
X151743714Y-87075500D01*
X151956286Y-87075500D01*
X151956287Y-87075500D01*
X152166243Y-87042246D01*
X152368412Y-86976557D01*
X152557816Y-86880051D01*
X152593130Y-86854394D01*
X152729786Y-86755109D01*
X152729788Y-86755106D01*
X152729792Y-86755104D01*
X152880104Y-86604792D01*
X152999683Y-86440204D01*
X153055011Y-86397540D01*
X153124624Y-86391561D01*
X153186420Y-86424166D01*
X153200313Y-86440199D01*
X153276895Y-86545606D01*
X153319896Y-86604792D01*
X153470213Y-86755109D01*
X153642179Y-86880048D01*
X153642181Y-86880049D01*
X153642184Y-86880051D01*
X153831588Y-86976557D01*
X154033757Y-87042246D01*
X154243713Y-87075500D01*
X154243714Y-87075500D01*
X154456286Y-87075500D01*
X154456287Y-87075500D01*
X154666243Y-87042246D01*
X154868412Y-86976557D01*
X155057816Y-86880051D01*
X155115141Y-86838402D01*
X155229784Y-86755110D01*
X155229784Y-86755109D01*
X155229792Y-86755104D01*
X155368604Y-86616291D01*
X155429923Y-86582809D01*
X155499615Y-86587793D01*
X155555549Y-86629664D01*
X155561821Y-86638878D01*
X155565185Y-86644333D01*
X155565186Y-86644334D01*
X155657288Y-86793656D01*
X155781344Y-86917712D01*
X155930666Y-87009814D01*
X156097203Y-87064999D01*
X156199991Y-87075500D01*
X157500008Y-87075499D01*
X157602797Y-87064999D01*
X157769334Y-87009814D01*
X157918656Y-86917712D01*
X158042712Y-86793656D01*
X158134814Y-86644334D01*
X158150273Y-86597682D01*
X161200000Y-86597682D01*
X161200000Y-86802317D01*
X161232009Y-87004417D01*
X161295244Y-87199031D01*
X161388141Y-87381350D01*
X161388147Y-87381359D01*
X161420523Y-87425921D01*
X161420524Y-87425922D01*
X162100000Y-86746446D01*
X162100000Y-86752661D01*
X162127259Y-86854394D01*
X162179920Y-86945606D01*
X162254394Y-87020080D01*
X162345606Y-87072741D01*
X162447339Y-87100000D01*
X162453553Y-87100000D01*
X161774076Y-87779474D01*
X161818650Y-87811859D01*
X162000968Y-87904755D01*
X162195582Y-87967990D01*
X162397683Y-88000000D01*
X162602317Y-88000000D01*
X162804417Y-87967990D01*
X162999031Y-87904755D01*
X163181349Y-87811859D01*
X163225921Y-87779474D01*
X162546447Y-87100000D01*
X162552661Y-87100000D01*
X162654394Y-87072741D01*
X162745606Y-87020080D01*
X162820080Y-86945606D01*
X162872741Y-86854394D01*
X162900000Y-86752661D01*
X162900000Y-86746447D01*
X163579473Y-87425921D01*
X163617280Y-87422946D01*
X163685658Y-87437310D01*
X163735415Y-87486361D01*
X163744714Y-87507556D01*
X163765186Y-87569334D01*
X163857288Y-87718656D01*
X163981344Y-87842712D01*
X164130666Y-87934814D01*
X164297203Y-87989999D01*
X164399991Y-88000500D01*
X165600008Y-88000499D01*
X165702797Y-87989999D01*
X165869334Y-87934814D01*
X166018656Y-87842712D01*
X166142712Y-87718656D01*
X166234814Y-87569334D01*
X166289999Y-87402797D01*
X166300500Y-87300009D01*
X166300499Y-86099992D01*
X166292391Y-86020624D01*
X166289999Y-85997203D01*
X166289998Y-85997200D01*
X166274622Y-85950799D01*
X166234814Y-85830666D01*
X166142712Y-85681344D01*
X166018656Y-85557288D01*
X165876134Y-85469380D01*
X165869336Y-85465187D01*
X165869331Y-85465185D01*
X165867862Y-85464698D01*
X165702797Y-85410001D01*
X165702795Y-85410000D01*
X165600010Y-85399500D01*
X164399998Y-85399500D01*
X164399981Y-85399501D01*
X164297203Y-85410000D01*
X164297200Y-85410001D01*
X164130668Y-85465185D01*
X164130663Y-85465187D01*
X163981342Y-85557289D01*
X163857289Y-85681342D01*
X163765187Y-85830663D01*
X163765185Y-85830668D01*
X163744717Y-85892438D01*
X163704944Y-85949883D01*
X163640428Y-85976706D01*
X163617283Y-85977052D01*
X163579474Y-85974076D01*
X162900000Y-86653551D01*
X162900000Y-86647339D01*
X162872741Y-86545606D01*
X162820080Y-86454394D01*
X162745606Y-86379920D01*
X162654394Y-86327259D01*
X162552661Y-86300000D01*
X162546446Y-86300000D01*
X163225922Y-85620524D01*
X163225921Y-85620523D01*
X163181359Y-85588147D01*
X163181350Y-85588141D01*
X162999031Y-85495244D01*
X162804417Y-85432009D01*
X162602317Y-85400000D01*
X162397683Y-85400000D01*
X162195582Y-85432009D01*
X162000968Y-85495244D01*
X161818644Y-85588143D01*
X161774077Y-85620523D01*
X161774077Y-85620524D01*
X162453554Y-86300000D01*
X162447339Y-86300000D01*
X162345606Y-86327259D01*
X162254394Y-86379920D01*
X162179920Y-86454394D01*
X162127259Y-86545606D01*
X162100000Y-86647339D01*
X162100000Y-86653553D01*
X161420524Y-85974077D01*
X161420523Y-85974077D01*
X161388143Y-86018644D01*
X161295244Y-86200968D01*
X161232009Y-86395582D01*
X161200000Y-86597682D01*
X158150273Y-86597682D01*
X158189999Y-86477797D01*
X158200500Y-86375009D01*
X158200499Y-85588147D01*
X158200499Y-84824998D01*
X158200498Y-84824981D01*
X158189999Y-84722203D01*
X158189998Y-84722200D01*
X158150135Y-84601902D01*
X158134814Y-84555666D01*
X158042712Y-84406344D01*
X157918656Y-84282288D01*
X157769334Y-84190186D01*
X157602797Y-84135001D01*
X157602795Y-84135000D01*
X157500010Y-84124500D01*
X156199998Y-84124500D01*
X156199981Y-84124501D01*
X156097203Y-84135000D01*
X156097200Y-84135001D01*
X155930668Y-84190185D01*
X155930663Y-84190187D01*
X155781342Y-84282289D01*
X155657289Y-84406342D01*
X155561821Y-84561121D01*
X155509873Y-84607845D01*
X155440910Y-84619068D01*
X155376828Y-84591224D01*
X155368601Y-84583705D01*
X155229786Y-84444890D01*
X155057820Y-84319951D01*
X154868414Y-84223444D01*
X154868413Y-84223443D01*
X154868412Y-84223443D01*
X154666243Y-84157754D01*
X154666241Y-84157753D01*
X154666240Y-84157753D01*
X154504957Y-84132208D01*
X154456287Y-84124500D01*
X154243713Y-84124500D01*
X154195042Y-84132208D01*
X154033760Y-84157753D01*
X153831585Y-84223444D01*
X153642179Y-84319951D01*
X153470213Y-84444890D01*
X153319894Y-84595209D01*
X153319890Y-84595214D01*
X153200318Y-84759793D01*
X153144989Y-84802459D01*
X153075375Y-84808438D01*
X153013580Y-84775833D01*
X152999682Y-84759793D01*
X152880109Y-84595214D01*
X152880105Y-84595209D01*
X152729786Y-84444890D01*
X152557820Y-84319951D01*
X152368414Y-84223444D01*
X152368413Y-84223443D01*
X152368412Y-84223443D01*
X152166243Y-84157754D01*
X152166241Y-84157753D01*
X152166240Y-84157753D01*
X152004957Y-84132208D01*
X151956287Y-84124500D01*
X151743713Y-84124500D01*
X151695042Y-84132208D01*
X151533760Y-84157753D01*
X151331585Y-84223444D01*
X151142179Y-84319951D01*
X150970213Y-84444890D01*
X150819894Y-84595209D01*
X150819890Y-84595214D01*
X150700318Y-84759793D01*
X150644989Y-84802459D01*
X150575375Y-84808438D01*
X150513580Y-84775833D01*
X150499682Y-84759793D01*
X150380109Y-84595214D01*
X150380105Y-84595209D01*
X150229786Y-84444890D01*
X150057820Y-84319951D01*
X149868414Y-84223444D01*
X149868413Y-84223443D01*
X149868412Y-84223443D01*
X149666243Y-84157754D01*
X149666241Y-84157753D01*
X149666240Y-84157753D01*
X149504957Y-84132208D01*
X149456287Y-84124500D01*
X149243713Y-84124500D01*
X149195042Y-84132208D01*
X149033760Y-84157753D01*
X148831585Y-84223444D01*
X148642179Y-84319951D01*
X148470213Y-84444890D01*
X148319890Y-84595213D01*
X148194951Y-84767179D01*
X148098444Y-84956585D01*
X148032753Y-85158760D01*
X148011018Y-85295992D01*
X147999500Y-85368713D01*
X135150499Y-85368713D01*
X135150499Y-84824998D01*
X135150498Y-84824981D01*
X135139999Y-84722203D01*
X135139998Y-84722200D01*
X135100135Y-84601902D01*
X135084814Y-84555666D01*
X134992712Y-84406344D01*
X134868656Y-84282288D01*
X134719334Y-84190186D01*
X134552797Y-84135001D01*
X134552795Y-84135000D01*
X134450010Y-84124500D01*
X133149998Y-84124500D01*
X133149981Y-84124501D01*
X133047203Y-84135000D01*
X133047200Y-84135001D01*
X132880668Y-84190185D01*
X132880663Y-84190187D01*
X132731342Y-84282289D01*
X132607289Y-84406342D01*
X132511821Y-84561121D01*
X132459873Y-84607845D01*
X132390910Y-84619068D01*
X132326828Y-84591224D01*
X132318601Y-84583705D01*
X132179786Y-84444890D01*
X132007820Y-84319951D01*
X131818414Y-84223444D01*
X131818413Y-84223443D01*
X131818412Y-84223443D01*
X131616243Y-84157754D01*
X131616241Y-84157753D01*
X131616240Y-84157753D01*
X131454957Y-84132208D01*
X131406287Y-84124500D01*
X131193713Y-84124500D01*
X131145042Y-84132208D01*
X130983760Y-84157753D01*
X130781585Y-84223444D01*
X130592179Y-84319951D01*
X130420213Y-84444890D01*
X130269894Y-84595209D01*
X130269890Y-84595214D01*
X130150318Y-84759793D01*
X130094989Y-84802459D01*
X130025375Y-84808438D01*
X129963580Y-84775833D01*
X129949682Y-84759793D01*
X129830109Y-84595214D01*
X129830105Y-84595209D01*
X129679786Y-84444890D01*
X129507820Y-84319951D01*
X129318414Y-84223444D01*
X129318413Y-84223443D01*
X129318412Y-84223443D01*
X129116243Y-84157754D01*
X129116241Y-84157753D01*
X129116240Y-84157753D01*
X128954957Y-84132208D01*
X128906287Y-84124500D01*
X128693713Y-84124500D01*
X128645042Y-84132208D01*
X128483760Y-84157753D01*
X128281585Y-84223444D01*
X128092179Y-84319951D01*
X127920213Y-84444890D01*
X127769894Y-84595209D01*
X127769890Y-84595214D01*
X127650318Y-84759793D01*
X127594989Y-84802459D01*
X127525375Y-84808438D01*
X127463580Y-84775833D01*
X127449682Y-84759793D01*
X127330109Y-84595214D01*
X127330105Y-84595209D01*
X127179786Y-84444890D01*
X127007820Y-84319951D01*
X126818414Y-84223444D01*
X126818413Y-84223443D01*
X126818412Y-84223443D01*
X126616243Y-84157754D01*
X126616241Y-84157753D01*
X126616240Y-84157753D01*
X126454957Y-84132208D01*
X126406287Y-84124500D01*
X126193713Y-84124500D01*
X126145042Y-84132208D01*
X125983760Y-84157753D01*
X125781585Y-84223444D01*
X125592179Y-84319951D01*
X125420213Y-84444890D01*
X125269890Y-84595213D01*
X125144951Y-84767179D01*
X125048444Y-84956585D01*
X124982753Y-85158760D01*
X124961018Y-85295992D01*
X124949500Y-85368713D01*
X122353515Y-85368713D01*
X122390568Y-85295992D01*
X122463553Y-85071368D01*
X122500500Y-84838097D01*
X122500500Y-84601902D01*
X122463553Y-84368631D01*
X122416378Y-84223443D01*
X122390568Y-84144008D01*
X122390566Y-84144005D01*
X122390566Y-84144003D01*
X122283342Y-83933566D01*
X122144517Y-83742490D01*
X121977510Y-83575483D01*
X121942872Y-83550317D01*
X121900207Y-83494989D01*
X121894228Y-83425375D01*
X121926833Y-83363580D01*
X121942873Y-83349682D01*
X121977510Y-83324517D01*
X122144517Y-83157510D01*
X122283343Y-82966433D01*
X122390568Y-82755992D01*
X122463553Y-82531368D01*
X122487272Y-82381613D01*
X122500500Y-82298097D01*
X122500500Y-82061902D01*
X122477714Y-81918036D01*
X122467633Y-81854394D01*
X122463553Y-81828632D01*
X122390568Y-81604008D01*
X122390566Y-81604005D01*
X122390566Y-81604003D01*
X122312097Y-81450000D01*
X122283343Y-81393567D01*
X122144517Y-81202490D01*
X121977510Y-81035483D01*
X121942872Y-81010317D01*
X121928267Y-80991378D01*
X121910434Y-80975443D01*
X121907322Y-80964215D01*
X121900207Y-80954989D01*
X121898160Y-80931161D01*
X121891772Y-80908112D01*
X121895224Y-80896982D01*
X121894228Y-80885375D01*
X121905387Y-80864224D01*
X121909132Y-80852155D01*
X123500000Y-80852155D01*
X123500000Y-81450000D01*
X124484314Y-81450000D01*
X124479920Y-81454394D01*
X124427259Y-81545606D01*
X124400000Y-81647339D01*
X124400000Y-81752661D01*
X124427259Y-81854394D01*
X124479920Y-81945606D01*
X124484314Y-81950000D01*
X123500000Y-81950000D01*
X123500000Y-82547844D01*
X123506401Y-82607372D01*
X123506403Y-82607379D01*
X123556645Y-82742086D01*
X123556649Y-82742093D01*
X123642809Y-82857187D01*
X123642812Y-82857190D01*
X123757906Y-82943350D01*
X123757913Y-82943354D01*
X123892620Y-82993596D01*
X123892627Y-82993598D01*
X123952155Y-82999999D01*
X123952172Y-83000000D01*
X124550000Y-83000000D01*
X124550000Y-82015686D01*
X124554394Y-82020080D01*
X124645606Y-82072741D01*
X124747339Y-82100000D01*
X124852661Y-82100000D01*
X124954394Y-82072741D01*
X125045606Y-82020080D01*
X125050000Y-82015686D01*
X125050000Y-83000000D01*
X125647828Y-83000000D01*
X125647844Y-82999999D01*
X125707372Y-82993598D01*
X125707379Y-82993596D01*
X125842086Y-82943354D01*
X125842093Y-82943350D01*
X125957187Y-82857190D01*
X125957190Y-82857187D01*
X126043350Y-82742093D01*
X126043354Y-82742086D01*
X126093596Y-82607379D01*
X126097620Y-82569956D01*
X126124358Y-82505404D01*
X126181750Y-82465556D01*
X126251575Y-82463062D01*
X126311664Y-82498714D01*
X126321228Y-82510325D01*
X126348028Y-82547212D01*
X126348032Y-82547217D01*
X126492786Y-82691971D01*
X126580911Y-82755996D01*
X126658390Y-82812287D01*
X126746517Y-82857190D01*
X126840776Y-82905218D01*
X126840778Y-82905218D01*
X126840781Y-82905220D01*
X126945137Y-82939127D01*
X127035465Y-82968477D01*
X127136557Y-82984488D01*
X127237648Y-83000500D01*
X127237649Y-83000500D01*
X127442351Y-83000500D01*
X127442352Y-83000500D01*
X127644534Y-82968477D01*
X127839219Y-82905220D01*
X128021610Y-82812287D01*
X128118234Y-82742086D01*
X128187213Y-82691971D01*
X128187215Y-82691968D01*
X128187219Y-82691966D01*
X128331966Y-82547219D01*
X128331968Y-82547215D01*
X128331971Y-82547213D01*
X128452284Y-82381614D01*
X128452286Y-82381611D01*
X128452287Y-82381610D01*
X128499516Y-82288917D01*
X128547489Y-82238123D01*
X128615310Y-82221328D01*
X128681445Y-82243865D01*
X128720483Y-82288917D01*
X128725161Y-82298097D01*
X128767715Y-82381614D01*
X128888028Y-82547213D01*
X129032786Y-82691971D01*
X129120911Y-82755996D01*
X129198390Y-82812287D01*
X129286517Y-82857190D01*
X129380776Y-82905218D01*
X129380778Y-82905218D01*
X129380781Y-82905220D01*
X129485137Y-82939127D01*
X129575465Y-82968477D01*
X129676557Y-82984488D01*
X129777648Y-83000500D01*
X129777649Y-83000500D01*
X129982351Y-83000500D01*
X129982352Y-83000500D01*
X130184534Y-82968477D01*
X130379219Y-82905220D01*
X130561610Y-82812287D01*
X130658234Y-82742086D01*
X130727213Y-82691971D01*
X130727215Y-82691968D01*
X130727219Y-82691966D01*
X130871966Y-82547219D01*
X130871968Y-82547215D01*
X130871971Y-82547213D01*
X130992284Y-82381614D01*
X130992286Y-82381611D01*
X130992287Y-82381610D01*
X131039516Y-82288917D01*
X131087489Y-82238123D01*
X131155310Y-82221328D01*
X131221445Y-82243865D01*
X131260483Y-82288917D01*
X131265161Y-82298097D01*
X131307715Y-82381614D01*
X131428028Y-82547213D01*
X131572786Y-82691971D01*
X131660911Y-82755996D01*
X131738390Y-82812287D01*
X131826517Y-82857190D01*
X131920776Y-82905218D01*
X131920778Y-82905218D01*
X131920781Y-82905220D01*
X132025137Y-82939127D01*
X132115465Y-82968477D01*
X132216557Y-82984488D01*
X132317648Y-83000500D01*
X132317649Y-83000500D01*
X132522351Y-83000500D01*
X132522352Y-83000500D01*
X132724534Y-82968477D01*
X132919219Y-82905220D01*
X133101610Y-82812287D01*
X133198234Y-82742086D01*
X133267213Y-82691971D01*
X133267215Y-82691968D01*
X133267219Y-82691966D01*
X133411966Y-82547219D01*
X133411968Y-82547215D01*
X133411971Y-82547213D01*
X133532284Y-82381614D01*
X133532286Y-82381611D01*
X133532287Y-82381610D01*
X133579516Y-82288917D01*
X133627489Y-82238123D01*
X133695310Y-82221328D01*
X133761445Y-82243865D01*
X133800483Y-82288917D01*
X133805161Y-82298097D01*
X133847715Y-82381614D01*
X133968028Y-82547213D01*
X134112786Y-82691971D01*
X134200911Y-82755996D01*
X134278390Y-82812287D01*
X134366517Y-82857190D01*
X134460776Y-82905218D01*
X134460778Y-82905218D01*
X134460781Y-82905220D01*
X134565137Y-82939127D01*
X134655465Y-82968477D01*
X134756557Y-82984488D01*
X134857648Y-83000500D01*
X134857649Y-83000500D01*
X135062351Y-83000500D01*
X135062352Y-83000500D01*
X135264534Y-82968477D01*
X135459219Y-82905220D01*
X135641610Y-82812287D01*
X135738234Y-82742086D01*
X135807213Y-82691971D01*
X135807215Y-82691968D01*
X135807219Y-82691966D01*
X135951966Y-82547219D01*
X135951968Y-82547215D01*
X135951971Y-82547213D01*
X136072284Y-82381614D01*
X136072286Y-82381611D01*
X136072287Y-82381610D01*
X136119516Y-82288917D01*
X136167489Y-82238123D01*
X136235310Y-82221328D01*
X136301445Y-82243865D01*
X136340483Y-82288917D01*
X136345161Y-82298097D01*
X136387715Y-82381614D01*
X136508028Y-82547213D01*
X136652786Y-82691971D01*
X136740911Y-82755996D01*
X136818390Y-82812287D01*
X136906517Y-82857190D01*
X137000776Y-82905218D01*
X137000778Y-82905218D01*
X137000781Y-82905220D01*
X137105137Y-82939127D01*
X137195465Y-82968477D01*
X137296557Y-82984488D01*
X137397648Y-83000500D01*
X137397649Y-83000500D01*
X137602351Y-83000500D01*
X137602352Y-83000500D01*
X137804534Y-82968477D01*
X137999219Y-82905220D01*
X138181610Y-82812287D01*
X138278234Y-82742086D01*
X138347213Y-82691971D01*
X138347215Y-82691968D01*
X138347219Y-82691966D01*
X138491966Y-82547219D01*
X138491968Y-82547215D01*
X138491971Y-82547213D01*
X138612284Y-82381614D01*
X138612286Y-82381611D01*
X138612287Y-82381610D01*
X138659795Y-82288369D01*
X138707770Y-82237574D01*
X138775591Y-82220779D01*
X138841725Y-82243316D01*
X138880765Y-82288370D01*
X138928140Y-82381349D01*
X139048417Y-82546894D01*
X139048417Y-82546895D01*
X139193104Y-82691582D01*
X139358650Y-82811859D01*
X139540968Y-82904754D01*
X139735578Y-82967988D01*
X139790000Y-82976607D01*
X139790000Y-82015686D01*
X139794394Y-82020080D01*
X139885606Y-82072741D01*
X139987339Y-82100000D01*
X140092661Y-82100000D01*
X140194394Y-82072741D01*
X140285606Y-82020080D01*
X140290000Y-82015686D01*
X140290000Y-82976606D01*
X140344421Y-82967988D01*
X140539031Y-82904754D01*
X140721349Y-82811859D01*
X140886894Y-82691582D01*
X140886895Y-82691582D01*
X141031582Y-82546895D01*
X141031582Y-82546894D01*
X141151861Y-82381347D01*
X141199234Y-82288371D01*
X141247208Y-82237575D01*
X141315028Y-82220779D01*
X141381164Y-82243316D01*
X141420203Y-82288369D01*
X141467713Y-82381611D01*
X141588028Y-82547213D01*
X141732786Y-82691971D01*
X141820911Y-82755996D01*
X141898390Y-82812287D01*
X141986517Y-82857190D01*
X142080776Y-82905218D01*
X142080778Y-82905218D01*
X142080781Y-82905220D01*
X142185137Y-82939127D01*
X142275465Y-82968477D01*
X142376557Y-82984488D01*
X142477648Y-83000500D01*
X142477649Y-83000500D01*
X142682351Y-83000500D01*
X142682352Y-83000500D01*
X142884534Y-82968477D01*
X143079219Y-82905220D01*
X143261610Y-82812287D01*
X143358234Y-82742086D01*
X143427213Y-82691971D01*
X143427215Y-82691968D01*
X143427219Y-82691966D01*
X143571966Y-82547219D01*
X143571968Y-82547215D01*
X143571971Y-82547213D01*
X143633109Y-82463062D01*
X143692287Y-82381610D01*
X143785220Y-82199219D01*
X143848477Y-82004534D01*
X143850000Y-81994918D01*
X143868322Y-81879240D01*
X143880500Y-81802351D01*
X143880500Y-81597648D01*
X143848477Y-81395465D01*
X143785775Y-81202490D01*
X143785220Y-81200781D01*
X143785218Y-81200778D01*
X143785218Y-81200776D01*
X143700997Y-81035485D01*
X143692287Y-81018390D01*
X143672662Y-80991378D01*
X143622067Y-80921739D01*
X143622064Y-80921736D01*
X143613537Y-80910000D01*
X143571966Y-80852781D01*
X143571340Y-80852155D01*
X146560000Y-80852155D01*
X146560000Y-81450000D01*
X147544314Y-81450000D01*
X147539920Y-81454394D01*
X147487259Y-81545606D01*
X147460000Y-81647339D01*
X147460000Y-81752661D01*
X147487259Y-81854394D01*
X147539920Y-81945606D01*
X147544314Y-81950000D01*
X146560000Y-81950000D01*
X146560000Y-82547844D01*
X146566401Y-82607372D01*
X146566403Y-82607379D01*
X146616645Y-82742086D01*
X146616649Y-82742093D01*
X146702809Y-82857187D01*
X146702812Y-82857190D01*
X146817906Y-82943350D01*
X146817913Y-82943354D01*
X146952620Y-82993596D01*
X146952627Y-82993598D01*
X147012155Y-82999999D01*
X147012172Y-83000000D01*
X147610000Y-83000000D01*
X147610000Y-82015686D01*
X147614394Y-82020080D01*
X147705606Y-82072741D01*
X147807339Y-82100000D01*
X147912661Y-82100000D01*
X148014394Y-82072741D01*
X148105606Y-82020080D01*
X148110000Y-82015686D01*
X148110000Y-83000000D01*
X148707828Y-83000000D01*
X148707844Y-82999999D01*
X148767372Y-82993598D01*
X148767379Y-82993596D01*
X148902086Y-82943354D01*
X148902093Y-82943350D01*
X149017187Y-82857190D01*
X149017190Y-82857187D01*
X149103350Y-82742093D01*
X149103354Y-82742086D01*
X149153596Y-82607379D01*
X149157620Y-82569956D01*
X149184358Y-82505404D01*
X149241750Y-82465556D01*
X149311575Y-82463062D01*
X149371664Y-82498714D01*
X149381228Y-82510325D01*
X149408028Y-82547212D01*
X149408032Y-82547217D01*
X149552786Y-82691971D01*
X149640911Y-82755996D01*
X149718390Y-82812287D01*
X149806517Y-82857190D01*
X149900776Y-82905218D01*
X149900778Y-82905218D01*
X149900781Y-82905220D01*
X150005137Y-82939127D01*
X150095465Y-82968477D01*
X150196557Y-82984488D01*
X150297648Y-83000500D01*
X150297649Y-83000500D01*
X150502351Y-83000500D01*
X150502352Y-83000500D01*
X150704534Y-82968477D01*
X150899219Y-82905220D01*
X151081610Y-82812287D01*
X151178234Y-82742086D01*
X151247213Y-82691971D01*
X151247215Y-82691968D01*
X151247219Y-82691966D01*
X151391966Y-82547219D01*
X151391968Y-82547215D01*
X151391971Y-82547213D01*
X151512284Y-82381614D01*
X151512286Y-82381611D01*
X151512287Y-82381610D01*
X151559516Y-82288917D01*
X151607489Y-82238123D01*
X151675310Y-82221328D01*
X151741445Y-82243865D01*
X151780483Y-82288917D01*
X151785161Y-82298097D01*
X151827715Y-82381614D01*
X151948028Y-82547213D01*
X152092786Y-82691971D01*
X152180911Y-82755996D01*
X152258390Y-82812287D01*
X152346517Y-82857190D01*
X152440776Y-82905218D01*
X152440778Y-82905218D01*
X152440781Y-82905220D01*
X152545137Y-82939127D01*
X152635465Y-82968477D01*
X152736557Y-82984488D01*
X152837648Y-83000500D01*
X152837649Y-83000500D01*
X153042351Y-83000500D01*
X153042352Y-83000500D01*
X153244534Y-82968477D01*
X153439219Y-82905220D01*
X153621610Y-82812287D01*
X153718234Y-82742086D01*
X153787213Y-82691971D01*
X153787215Y-82691968D01*
X153787219Y-82691966D01*
X153931966Y-82547219D01*
X153931968Y-82547215D01*
X153931971Y-82547213D01*
X154052284Y-82381614D01*
X154052286Y-82381611D01*
X154052287Y-82381610D01*
X154099516Y-82288917D01*
X154147489Y-82238123D01*
X154215310Y-82221328D01*
X154281445Y-82243865D01*
X154320483Y-82288917D01*
X154325161Y-82298097D01*
X154367715Y-82381614D01*
X154488028Y-82547213D01*
X154632786Y-82691971D01*
X154720911Y-82755996D01*
X154798390Y-82812287D01*
X154886517Y-82857190D01*
X154980776Y-82905218D01*
X154980778Y-82905218D01*
X154980781Y-82905220D01*
X155085137Y-82939127D01*
X155175465Y-82968477D01*
X155276557Y-82984488D01*
X155377648Y-83000500D01*
X155377649Y-83000500D01*
X155582351Y-83000500D01*
X155582352Y-83000500D01*
X155784534Y-82968477D01*
X155979219Y-82905220D01*
X156161610Y-82812287D01*
X156258234Y-82742086D01*
X156327213Y-82691971D01*
X156327215Y-82691968D01*
X156327219Y-82691966D01*
X156471966Y-82547219D01*
X156471968Y-82547215D01*
X156471971Y-82547213D01*
X156592284Y-82381614D01*
X156592286Y-82381611D01*
X156592287Y-82381610D01*
X156639516Y-82288917D01*
X156687489Y-82238123D01*
X156755310Y-82221328D01*
X156821445Y-82243865D01*
X156860483Y-82288917D01*
X156865161Y-82298097D01*
X156907715Y-82381614D01*
X157028028Y-82547213D01*
X157172786Y-82691971D01*
X157260911Y-82755996D01*
X157338390Y-82812287D01*
X157426517Y-82857190D01*
X157520776Y-82905218D01*
X157520778Y-82905218D01*
X157520781Y-82905220D01*
X157625137Y-82939127D01*
X157715465Y-82968477D01*
X157816557Y-82984488D01*
X157917648Y-83000500D01*
X157917649Y-83000500D01*
X158122351Y-83000500D01*
X158122352Y-83000500D01*
X158324534Y-82968477D01*
X158519219Y-82905220D01*
X158701610Y-82812287D01*
X158798234Y-82742086D01*
X158867213Y-82691971D01*
X158867215Y-82691968D01*
X158867219Y-82691966D01*
X159011966Y-82547219D01*
X159011968Y-82547215D01*
X159011971Y-82547213D01*
X159132284Y-82381614D01*
X159132286Y-82381611D01*
X159132287Y-82381610D01*
X159179516Y-82288917D01*
X159227489Y-82238123D01*
X159295310Y-82221328D01*
X159361445Y-82243865D01*
X159400483Y-82288917D01*
X159405161Y-82298097D01*
X159447715Y-82381614D01*
X159568028Y-82547213D01*
X159712786Y-82691971D01*
X159800911Y-82755996D01*
X159878390Y-82812287D01*
X159966517Y-82857190D01*
X160060776Y-82905218D01*
X160060778Y-82905218D01*
X160060781Y-82905220D01*
X160165137Y-82939127D01*
X160255465Y-82968477D01*
X160356557Y-82984488D01*
X160457648Y-83000500D01*
X160457649Y-83000500D01*
X160662351Y-83000500D01*
X160662352Y-83000500D01*
X160864534Y-82968477D01*
X161059219Y-82905220D01*
X161241610Y-82812287D01*
X161338234Y-82742086D01*
X161407213Y-82691971D01*
X161407215Y-82691968D01*
X161407219Y-82691966D01*
X161551966Y-82547219D01*
X161551968Y-82547215D01*
X161551971Y-82547213D01*
X161672284Y-82381614D01*
X161672286Y-82381611D01*
X161672287Y-82381610D01*
X161719795Y-82288369D01*
X161767770Y-82237574D01*
X161835591Y-82220779D01*
X161901725Y-82243316D01*
X161940765Y-82288370D01*
X161988140Y-82381349D01*
X162108417Y-82546894D01*
X162108417Y-82546895D01*
X162253104Y-82691582D01*
X162418650Y-82811859D01*
X162600968Y-82904754D01*
X162795578Y-82967988D01*
X162850000Y-82976607D01*
X162850000Y-82015686D01*
X162854394Y-82020080D01*
X162945606Y-82072741D01*
X163047339Y-82100000D01*
X163152661Y-82100000D01*
X163254394Y-82072741D01*
X163345606Y-82020080D01*
X163350000Y-82015686D01*
X163350000Y-82976606D01*
X163404421Y-82967988D01*
X163599031Y-82904754D01*
X163781349Y-82811859D01*
X163946894Y-82691582D01*
X163946895Y-82691582D01*
X164091582Y-82546895D01*
X164091582Y-82546894D01*
X164211861Y-82381347D01*
X164259234Y-82288371D01*
X164307208Y-82237575D01*
X164375028Y-82220779D01*
X164441164Y-82243316D01*
X164480203Y-82288369D01*
X164527713Y-82381611D01*
X164648028Y-82547213D01*
X164792786Y-82691971D01*
X164880911Y-82755996D01*
X164958390Y-82812287D01*
X165046517Y-82857190D01*
X165140776Y-82905218D01*
X165140778Y-82905218D01*
X165140781Y-82905220D01*
X165245137Y-82939127D01*
X165335465Y-82968477D01*
X165436557Y-82984488D01*
X165537648Y-83000500D01*
X165537649Y-83000500D01*
X165742351Y-83000500D01*
X165742352Y-83000500D01*
X165944534Y-82968477D01*
X166139219Y-82905220D01*
X166321610Y-82812287D01*
X166418234Y-82742086D01*
X166487213Y-82691971D01*
X166487215Y-82691968D01*
X166487219Y-82691966D01*
X166631966Y-82547219D01*
X166631968Y-82547215D01*
X166631971Y-82547213D01*
X166693109Y-82463062D01*
X166752287Y-82381610D01*
X166845220Y-82199219D01*
X166908477Y-82004534D01*
X166940500Y-81802352D01*
X166940500Y-81597648D01*
X166932257Y-81545606D01*
X166908477Y-81395465D01*
X166845775Y-81202490D01*
X166845220Y-81200781D01*
X166845218Y-81200778D01*
X166845218Y-81200776D01*
X166760997Y-81035485D01*
X166752287Y-81018390D01*
X166732662Y-80991378D01*
X166631971Y-80852786D01*
X166487213Y-80708028D01*
X166321613Y-80587715D01*
X166321612Y-80587714D01*
X166321610Y-80587713D01*
X166233487Y-80542812D01*
X166139223Y-80494781D01*
X165944534Y-80431522D01*
X165769995Y-80403878D01*
X165742352Y-80399500D01*
X165537648Y-80399500D01*
X165513329Y-80403351D01*
X165335465Y-80431522D01*
X165140776Y-80494781D01*
X164958386Y-80587715D01*
X164792786Y-80708028D01*
X164648028Y-80852786D01*
X164527713Y-81018388D01*
X164480203Y-81111630D01*
X164432228Y-81162426D01*
X164364407Y-81179220D01*
X164298272Y-81156682D01*
X164259234Y-81111628D01*
X164211861Y-81018652D01*
X164091582Y-80853105D01*
X164091582Y-80853104D01*
X163946895Y-80708417D01*
X163781349Y-80588140D01*
X163599029Y-80495244D01*
X163404413Y-80432009D01*
X163350000Y-80423390D01*
X163350000Y-81384314D01*
X163345606Y-81379920D01*
X163254394Y-81327259D01*
X163152661Y-81300000D01*
X163047339Y-81300000D01*
X162945606Y-81327259D01*
X162854394Y-81379920D01*
X162850000Y-81384314D01*
X162850000Y-80423390D01*
X162795586Y-80432009D01*
X162600970Y-80495244D01*
X162418650Y-80588140D01*
X162253105Y-80708417D01*
X162253104Y-80708417D01*
X162108417Y-80853104D01*
X162108417Y-80853105D01*
X161988140Y-81018650D01*
X161940765Y-81111629D01*
X161892790Y-81162425D01*
X161824969Y-81179220D01*
X161758834Y-81156682D01*
X161719795Y-81111629D01*
X161680997Y-81035485D01*
X161672287Y-81018390D01*
X161652662Y-80991378D01*
X161551971Y-80852786D01*
X161407213Y-80708028D01*
X161241613Y-80587715D01*
X161241612Y-80587714D01*
X161241610Y-80587713D01*
X161153487Y-80542812D01*
X161059223Y-80494781D01*
X160864534Y-80431522D01*
X160689995Y-80403878D01*
X160662352Y-80399500D01*
X160457648Y-80399500D01*
X160433329Y-80403351D01*
X160255465Y-80431522D01*
X160060776Y-80494781D01*
X159878386Y-80587715D01*
X159712786Y-80708028D01*
X159568028Y-80852786D01*
X159447715Y-81018386D01*
X159400485Y-81111080D01*
X159352510Y-81161876D01*
X159284689Y-81178671D01*
X159218554Y-81156134D01*
X159179515Y-81111080D01*
X159140997Y-81035485D01*
X159132287Y-81018390D01*
X159112662Y-80991378D01*
X159011971Y-80852786D01*
X158867213Y-80708028D01*
X158701613Y-80587715D01*
X158701612Y-80587714D01*
X158701610Y-80587713D01*
X158613487Y-80542812D01*
X158519223Y-80494781D01*
X158324534Y-80431522D01*
X158149995Y-80403878D01*
X158122352Y-80399500D01*
X157917648Y-80399500D01*
X157893329Y-80403351D01*
X157715465Y-80431522D01*
X157520776Y-80494781D01*
X157338386Y-80587715D01*
X157172786Y-80708028D01*
X157028028Y-80852786D01*
X156907715Y-81018386D01*
X156860485Y-81111080D01*
X156812510Y-81161876D01*
X156744689Y-81178671D01*
X156678554Y-81156134D01*
X156639515Y-81111080D01*
X156600997Y-81035485D01*
X156592287Y-81018390D01*
X156572662Y-80991378D01*
X156471971Y-80852786D01*
X156327213Y-80708028D01*
X156161613Y-80587715D01*
X156161612Y-80587714D01*
X156161610Y-80587713D01*
X156073487Y-80542812D01*
X155979223Y-80494781D01*
X155784534Y-80431522D01*
X155609995Y-80403878D01*
X155582352Y-80399500D01*
X155377648Y-80399500D01*
X155353329Y-80403351D01*
X155175465Y-80431522D01*
X154980776Y-80494781D01*
X154798386Y-80587715D01*
X154632786Y-80708028D01*
X154488028Y-80852786D01*
X154367715Y-81018386D01*
X154320485Y-81111080D01*
X154272510Y-81161876D01*
X154204689Y-81178671D01*
X154138554Y-81156134D01*
X154099515Y-81111080D01*
X154060997Y-81035485D01*
X154052287Y-81018390D01*
X154032662Y-80991378D01*
X153931971Y-80852786D01*
X153787213Y-80708028D01*
X153621613Y-80587715D01*
X153621612Y-80587714D01*
X153621610Y-80587713D01*
X153533487Y-80542812D01*
X153439223Y-80494781D01*
X153244534Y-80431522D01*
X153069995Y-80403878D01*
X153042352Y-80399500D01*
X152837648Y-80399500D01*
X152813329Y-80403351D01*
X152635465Y-80431522D01*
X152440776Y-80494781D01*
X152258386Y-80587715D01*
X152092786Y-80708028D01*
X151948028Y-80852786D01*
X151827715Y-81018386D01*
X151780485Y-81111080D01*
X151732510Y-81161876D01*
X151664689Y-81178671D01*
X151598554Y-81156134D01*
X151559515Y-81111080D01*
X151520997Y-81035485D01*
X151512287Y-81018390D01*
X151492662Y-80991378D01*
X151391971Y-80852786D01*
X151247213Y-80708028D01*
X151081613Y-80587715D01*
X151081612Y-80587714D01*
X151081610Y-80587713D01*
X150993487Y-80542812D01*
X150899223Y-80494781D01*
X150704534Y-80431522D01*
X150529995Y-80403878D01*
X150502352Y-80399500D01*
X150297648Y-80399500D01*
X150273329Y-80403351D01*
X150095465Y-80431522D01*
X149900776Y-80494781D01*
X149718386Y-80587715D01*
X149552786Y-80708028D01*
X149408032Y-80852782D01*
X149408026Y-80852789D01*
X149381227Y-80889675D01*
X149325897Y-80932341D01*
X149256284Y-80938319D01*
X149194489Y-80905712D01*
X149160132Y-80844873D01*
X149157620Y-80830043D01*
X149153596Y-80792620D01*
X149103354Y-80657913D01*
X149103350Y-80657906D01*
X149017190Y-80542812D01*
X149017187Y-80542809D01*
X148902093Y-80456649D01*
X148902086Y-80456645D01*
X148767379Y-80406403D01*
X148767372Y-80406401D01*
X148707844Y-80400000D01*
X148110000Y-80400000D01*
X148110000Y-81384314D01*
X148105606Y-81379920D01*
X148014394Y-81327259D01*
X147912661Y-81300000D01*
X147807339Y-81300000D01*
X147705606Y-81327259D01*
X147614394Y-81379920D01*
X147610000Y-81384314D01*
X147610000Y-80400000D01*
X147012155Y-80400000D01*
X146952627Y-80406401D01*
X146952620Y-80406403D01*
X146817913Y-80456645D01*
X146817906Y-80456649D01*
X146702812Y-80542809D01*
X146702809Y-80542812D01*
X146616649Y-80657906D01*
X146616645Y-80657913D01*
X146566403Y-80792620D01*
X146566401Y-80792627D01*
X146560000Y-80852155D01*
X143571340Y-80852155D01*
X143427219Y-80708034D01*
X143427213Y-80708028D01*
X143261613Y-80587715D01*
X143261612Y-80587714D01*
X143261610Y-80587713D01*
X143173487Y-80542812D01*
X143079223Y-80494781D01*
X142884534Y-80431522D01*
X142709995Y-80403878D01*
X142682352Y-80399500D01*
X142477648Y-80399500D01*
X142453329Y-80403351D01*
X142275465Y-80431522D01*
X142080776Y-80494781D01*
X141898386Y-80587715D01*
X141732786Y-80708028D01*
X141588028Y-80852786D01*
X141467713Y-81018388D01*
X141420203Y-81111630D01*
X141372228Y-81162426D01*
X141304407Y-81179220D01*
X141238272Y-81156682D01*
X141199234Y-81111628D01*
X141151861Y-81018652D01*
X141031582Y-80853105D01*
X141031582Y-80853104D01*
X140886895Y-80708417D01*
X140721349Y-80588140D01*
X140539029Y-80495244D01*
X140344413Y-80432009D01*
X140290000Y-80423390D01*
X140290000Y-81384314D01*
X140285606Y-81379920D01*
X140194394Y-81327259D01*
X140092661Y-81300000D01*
X139987339Y-81300000D01*
X139885606Y-81327259D01*
X139794394Y-81379920D01*
X139790000Y-81384314D01*
X139790000Y-80423390D01*
X139735586Y-80432009D01*
X139540970Y-80495244D01*
X139358650Y-80588140D01*
X139193105Y-80708417D01*
X139193104Y-80708417D01*
X139048417Y-80853104D01*
X139048417Y-80853105D01*
X138928140Y-81018650D01*
X138880765Y-81111629D01*
X138832790Y-81162425D01*
X138764969Y-81179220D01*
X138698834Y-81156682D01*
X138659795Y-81111629D01*
X138620997Y-81035485D01*
X138612287Y-81018390D01*
X138592662Y-80991378D01*
X138491971Y-80852786D01*
X138347213Y-80708028D01*
X138181613Y-80587715D01*
X138181612Y-80587714D01*
X138181610Y-80587713D01*
X138093487Y-80542812D01*
X137999223Y-80494781D01*
X137804534Y-80431522D01*
X137629995Y-80403878D01*
X137602352Y-80399500D01*
X137397648Y-80399500D01*
X137373329Y-80403351D01*
X137195465Y-80431522D01*
X137000776Y-80494781D01*
X136818386Y-80587715D01*
X136652786Y-80708028D01*
X136508028Y-80852786D01*
X136387715Y-81018386D01*
X136340485Y-81111080D01*
X136292510Y-81161876D01*
X136224689Y-81178671D01*
X136158554Y-81156134D01*
X136119515Y-81111080D01*
X136080997Y-81035485D01*
X136072287Y-81018390D01*
X136052662Y-80991378D01*
X135951971Y-80852786D01*
X135807213Y-80708028D01*
X135641613Y-80587715D01*
X135641612Y-80587714D01*
X135641610Y-80587713D01*
X135553487Y-80542812D01*
X135459223Y-80494781D01*
X135264534Y-80431522D01*
X135089995Y-80403878D01*
X135062352Y-80399500D01*
X134857648Y-80399500D01*
X134833329Y-80403351D01*
X134655465Y-80431522D01*
X134460776Y-80494781D01*
X134278386Y-80587715D01*
X134112786Y-80708028D01*
X133968028Y-80852786D01*
X133847715Y-81018386D01*
X133800485Y-81111080D01*
X133752510Y-81161876D01*
X133684689Y-81178671D01*
X133618554Y-81156134D01*
X133579515Y-81111080D01*
X133540997Y-81035485D01*
X133532287Y-81018390D01*
X133512662Y-80991378D01*
X133411971Y-80852786D01*
X133267213Y-80708028D01*
X133101613Y-80587715D01*
X133101612Y-80587714D01*
X133101610Y-80587713D01*
X133013487Y-80542812D01*
X132919223Y-80494781D01*
X132724534Y-80431522D01*
X132549995Y-80403878D01*
X132522352Y-80399500D01*
X132317648Y-80399500D01*
X132293329Y-80403351D01*
X132115465Y-80431522D01*
X131920776Y-80494781D01*
X131738386Y-80587715D01*
X131572786Y-80708028D01*
X131428028Y-80852786D01*
X131307715Y-81018386D01*
X131260485Y-81111080D01*
X131212510Y-81161876D01*
X131144689Y-81178671D01*
X131078554Y-81156134D01*
X131039515Y-81111080D01*
X131000997Y-81035485D01*
X130992287Y-81018390D01*
X130972662Y-80991378D01*
X130871971Y-80852786D01*
X130727213Y-80708028D01*
X130561613Y-80587715D01*
X130561612Y-80587714D01*
X130561610Y-80587713D01*
X130473487Y-80542812D01*
X130379223Y-80494781D01*
X130184534Y-80431522D01*
X130009995Y-80403878D01*
X129982352Y-80399500D01*
X129777648Y-80399500D01*
X129753329Y-80403351D01*
X129575465Y-80431522D01*
X129380776Y-80494781D01*
X129198386Y-80587715D01*
X129032786Y-80708028D01*
X128888028Y-80852786D01*
X128767715Y-81018386D01*
X128720485Y-81111080D01*
X128672510Y-81161876D01*
X128604689Y-81178671D01*
X128538554Y-81156134D01*
X128499515Y-81111080D01*
X128460997Y-81035485D01*
X128452287Y-81018390D01*
X128432662Y-80991378D01*
X128331971Y-80852786D01*
X128187213Y-80708028D01*
X128021613Y-80587715D01*
X128021612Y-80587714D01*
X128021610Y-80587713D01*
X127933487Y-80542812D01*
X127839223Y-80494781D01*
X127644534Y-80431522D01*
X127469995Y-80403878D01*
X127442352Y-80399500D01*
X127237648Y-80399500D01*
X127213329Y-80403351D01*
X127035465Y-80431522D01*
X126840776Y-80494781D01*
X126658386Y-80587715D01*
X126492786Y-80708028D01*
X126348032Y-80852782D01*
X126348026Y-80852789D01*
X126321227Y-80889675D01*
X126265897Y-80932341D01*
X126196284Y-80938319D01*
X126134489Y-80905712D01*
X126100132Y-80844873D01*
X126097620Y-80830043D01*
X126093596Y-80792620D01*
X126043354Y-80657913D01*
X126043350Y-80657906D01*
X125957190Y-80542812D01*
X125957187Y-80542809D01*
X125842093Y-80456649D01*
X125842086Y-80456645D01*
X125707379Y-80406403D01*
X125707372Y-80406401D01*
X125647844Y-80400000D01*
X125050000Y-80400000D01*
X125050000Y-81384314D01*
X125045606Y-81379920D01*
X124954394Y-81327259D01*
X124852661Y-81300000D01*
X124747339Y-81300000D01*
X124645606Y-81327259D01*
X124554394Y-81379920D01*
X124550000Y-81384314D01*
X124550000Y-80400000D01*
X123952155Y-80400000D01*
X123892627Y-80406401D01*
X123892620Y-80406403D01*
X123757913Y-80456645D01*
X123757906Y-80456649D01*
X123642812Y-80542809D01*
X123642809Y-80542812D01*
X123556649Y-80657906D01*
X123556645Y-80657913D01*
X123506403Y-80792620D01*
X123506401Y-80792627D01*
X123500000Y-80852155D01*
X121909132Y-80852155D01*
X121912475Y-80841380D01*
X121923515Y-80829867D01*
X121926833Y-80823580D01*
X121935992Y-80815061D01*
X121939329Y-80812256D01*
X121977510Y-80784517D01*
X122144517Y-80617510D01*
X122283343Y-80426433D01*
X122390568Y-80215992D01*
X122463553Y-79991368D01*
X122500500Y-79758097D01*
X122500500Y-79521902D01*
X122463553Y-79288631D01*
X122390566Y-79064003D01*
X122283342Y-78853566D01*
X122144517Y-78662490D01*
X121977510Y-78495483D01*
X121942872Y-78470317D01*
X121900207Y-78414989D01*
X121894228Y-78345375D01*
X121926833Y-78283580D01*
X121942873Y-78269682D01*
X121977510Y-78244517D01*
X122144517Y-78077510D01*
X122283343Y-77886433D01*
X122390568Y-77675992D01*
X122463553Y-77451368D01*
X122500500Y-77218097D01*
X122500500Y-76981902D01*
X122463553Y-76748631D01*
X122390566Y-76524003D01*
X122283342Y-76313566D01*
X122144517Y-76122490D01*
X121977510Y-75955483D01*
X121942872Y-75930317D01*
X121900207Y-75874989D01*
X121894228Y-75805375D01*
X121926833Y-75743580D01*
X121942873Y-75729682D01*
X121977510Y-75704517D01*
X122144517Y-75537510D01*
X122283343Y-75346433D01*
X122390568Y-75135992D01*
X122463553Y-74911368D01*
X122500500Y-74678097D01*
X122500500Y-74441902D01*
X122463553Y-74208631D01*
X122390566Y-73984003D01*
X122283342Y-73773566D01*
X122144517Y-73582490D01*
X121977510Y-73415483D01*
X121942872Y-73390317D01*
X121900207Y-73334989D01*
X121894228Y-73265375D01*
X121926833Y-73203580D01*
X121942873Y-73189682D01*
X121977510Y-73164517D01*
X122144517Y-72997510D01*
X122283343Y-72806433D01*
X122390568Y-72595992D01*
X122463553Y-72371368D01*
X122500500Y-72138097D01*
X122500500Y-71901902D01*
X122463553Y-71668631D01*
X122390566Y-71444003D01*
X122283342Y-71233566D01*
X122144517Y-71042490D01*
X121977510Y-70875483D01*
X121942872Y-70850317D01*
X121900207Y-70794989D01*
X121894228Y-70725375D01*
X121926833Y-70663580D01*
X121942873Y-70649682D01*
X121977510Y-70624517D01*
X122144517Y-70457510D01*
X122283343Y-70266433D01*
X122390568Y-70055992D01*
X122463553Y-69831368D01*
X122487272Y-69681613D01*
X122500500Y-69598097D01*
X122500500Y-69361902D01*
X122479005Y-69226197D01*
X122463553Y-69128632D01*
X122463552Y-69128628D01*
X122463552Y-69128627D01*
X122399369Y-68931094D01*
X122399368Y-68931092D01*
X122390568Y-68904007D01*
X122387328Y-68897648D01*
X123499500Y-68897648D01*
X123499500Y-69102351D01*
X123531522Y-69304534D01*
X123594781Y-69499223D01*
X123687715Y-69681613D01*
X123808028Y-69847213D01*
X123952786Y-69991971D01*
X124040911Y-70055996D01*
X124118390Y-70112287D01*
X124234607Y-70171503D01*
X124300776Y-70205218D01*
X124300778Y-70205218D01*
X124300781Y-70205220D01*
X124405137Y-70239127D01*
X124495465Y-70268477D01*
X124596557Y-70284488D01*
X124697648Y-70300500D01*
X124697649Y-70300500D01*
X124902351Y-70300500D01*
X124902352Y-70300500D01*
X125104534Y-70268477D01*
X125299219Y-70205220D01*
X125481610Y-70112287D01*
X125574590Y-70044732D01*
X125647213Y-69991971D01*
X125647215Y-69991968D01*
X125647219Y-69991966D01*
X125791966Y-69847219D01*
X125791968Y-69847215D01*
X125791971Y-69847213D01*
X125912284Y-69681614D01*
X125912285Y-69681613D01*
X125912287Y-69681610D01*
X125959516Y-69588917D01*
X126007489Y-69538123D01*
X126075310Y-69521328D01*
X126141445Y-69543865D01*
X126180483Y-69588917D01*
X126185161Y-69598097D01*
X126227715Y-69681614D01*
X126348028Y-69847213D01*
X126492786Y-69991971D01*
X126580911Y-70055996D01*
X126658390Y-70112287D01*
X126774607Y-70171503D01*
X126840776Y-70205218D01*
X126840778Y-70205218D01*
X126840781Y-70205220D01*
X126945137Y-70239127D01*
X127035465Y-70268477D01*
X127136557Y-70284488D01*
X127237648Y-70300500D01*
X127237649Y-70300500D01*
X127442351Y-70300500D01*
X127442352Y-70300500D01*
X127644534Y-70268477D01*
X127839219Y-70205220D01*
X128021610Y-70112287D01*
X128114590Y-70044732D01*
X128187213Y-69991971D01*
X128187215Y-69991968D01*
X128187219Y-69991966D01*
X128331966Y-69847219D01*
X128331968Y-69847215D01*
X128331971Y-69847213D01*
X128452284Y-69681614D01*
X128452285Y-69681613D01*
X128452287Y-69681610D01*
X128499516Y-69588917D01*
X128547489Y-69538123D01*
X128615310Y-69521328D01*
X128681445Y-69543865D01*
X128720483Y-69588917D01*
X128725161Y-69598097D01*
X128767715Y-69681614D01*
X128888028Y-69847213D01*
X129032786Y-69991971D01*
X129120911Y-70055996D01*
X129198390Y-70112287D01*
X129314607Y-70171503D01*
X129380776Y-70205218D01*
X129380778Y-70205218D01*
X129380781Y-70205220D01*
X129485137Y-70239127D01*
X129575465Y-70268477D01*
X129676557Y-70284488D01*
X129777648Y-70300500D01*
X129777649Y-70300500D01*
X129982351Y-70300500D01*
X129982352Y-70300500D01*
X130184534Y-70268477D01*
X130379219Y-70205220D01*
X130561610Y-70112287D01*
X130654590Y-70044732D01*
X130727213Y-69991971D01*
X130727215Y-69991968D01*
X130727219Y-69991966D01*
X130871966Y-69847219D01*
X130871968Y-69847215D01*
X130871971Y-69847213D01*
X130992284Y-69681614D01*
X130992285Y-69681613D01*
X130992287Y-69681610D01*
X131039516Y-69588917D01*
X131087489Y-69538123D01*
X131155310Y-69521328D01*
X131221445Y-69543865D01*
X131260483Y-69588917D01*
X131265161Y-69598097D01*
X131307715Y-69681614D01*
X131428028Y-69847213D01*
X131572786Y-69991971D01*
X131660911Y-70055996D01*
X131738390Y-70112287D01*
X131854607Y-70171503D01*
X131920776Y-70205218D01*
X131920778Y-70205218D01*
X131920781Y-70205220D01*
X132025137Y-70239127D01*
X132115465Y-70268477D01*
X132216557Y-70284488D01*
X132317648Y-70300500D01*
X132317649Y-70300500D01*
X132522351Y-70300500D01*
X132522352Y-70300500D01*
X132724534Y-70268477D01*
X132919219Y-70205220D01*
X133101610Y-70112287D01*
X133194590Y-70044732D01*
X133267213Y-69991971D01*
X133267215Y-69991968D01*
X133267219Y-69991966D01*
X133411966Y-69847219D01*
X133411968Y-69847215D01*
X133411971Y-69847213D01*
X133532284Y-69681614D01*
X133532285Y-69681613D01*
X133532287Y-69681610D01*
X133579516Y-69588917D01*
X133627489Y-69538123D01*
X133695310Y-69521328D01*
X133761445Y-69543865D01*
X133800483Y-69588917D01*
X133805161Y-69598097D01*
X133847715Y-69681614D01*
X133968028Y-69847213D01*
X134112786Y-69991971D01*
X134200911Y-70055996D01*
X134278390Y-70112287D01*
X134394607Y-70171503D01*
X134460776Y-70205218D01*
X134460778Y-70205218D01*
X134460781Y-70205220D01*
X134565137Y-70239127D01*
X134655465Y-70268477D01*
X134756557Y-70284488D01*
X134857648Y-70300500D01*
X134857649Y-70300500D01*
X135062351Y-70300500D01*
X135062352Y-70300500D01*
X135264534Y-70268477D01*
X135459219Y-70205220D01*
X135641610Y-70112287D01*
X135734590Y-70044732D01*
X135807213Y-69991971D01*
X135807215Y-69991968D01*
X135807219Y-69991966D01*
X135951966Y-69847219D01*
X135951968Y-69847215D01*
X135951971Y-69847213D01*
X136072284Y-69681614D01*
X136072285Y-69681613D01*
X136072287Y-69681610D01*
X136119516Y-69588917D01*
X136167489Y-69538123D01*
X136235310Y-69521328D01*
X136301445Y-69543865D01*
X136340483Y-69588917D01*
X136345161Y-69598097D01*
X136387715Y-69681614D01*
X136508028Y-69847213D01*
X136652786Y-69991971D01*
X136740911Y-70055996D01*
X136818390Y-70112287D01*
X136934607Y-70171503D01*
X137000776Y-70205218D01*
X137000778Y-70205218D01*
X137000781Y-70205220D01*
X137105137Y-70239127D01*
X137195465Y-70268477D01*
X137296557Y-70284488D01*
X137397648Y-70300500D01*
X137397649Y-70300500D01*
X137602351Y-70300500D01*
X137602352Y-70300500D01*
X137804534Y-70268477D01*
X137999219Y-70205220D01*
X138181610Y-70112287D01*
X138274590Y-70044732D01*
X138347213Y-69991971D01*
X138347215Y-69991968D01*
X138347219Y-69991966D01*
X138491966Y-69847219D01*
X138491968Y-69847215D01*
X138491971Y-69847213D01*
X138612284Y-69681614D01*
X138612285Y-69681613D01*
X138612287Y-69681610D01*
X138659516Y-69588917D01*
X138707489Y-69538123D01*
X138775310Y-69521328D01*
X138841445Y-69543865D01*
X138880483Y-69588917D01*
X138885161Y-69598097D01*
X138927715Y-69681614D01*
X139048028Y-69847213D01*
X139192786Y-69991971D01*
X139280911Y-70055996D01*
X139358390Y-70112287D01*
X139474607Y-70171503D01*
X139540776Y-70205218D01*
X139540778Y-70205218D01*
X139540781Y-70205220D01*
X139645137Y-70239127D01*
X139735465Y-70268477D01*
X139836557Y-70284488D01*
X139937648Y-70300500D01*
X139937649Y-70300500D01*
X140142351Y-70300500D01*
X140142352Y-70300500D01*
X140344534Y-70268477D01*
X140539219Y-70205220D01*
X140721610Y-70112287D01*
X140814590Y-70044732D01*
X140887213Y-69991971D01*
X140887215Y-69991968D01*
X140887219Y-69991966D01*
X141031966Y-69847219D01*
X141031968Y-69847215D01*
X141031971Y-69847213D01*
X141152284Y-69681614D01*
X141152285Y-69681613D01*
X141152287Y-69681610D01*
X141199516Y-69588917D01*
X141247489Y-69538123D01*
X141315310Y-69521328D01*
X141381445Y-69543865D01*
X141420483Y-69588917D01*
X141425161Y-69598097D01*
X141467715Y-69681614D01*
X141588028Y-69847213D01*
X141732786Y-69991971D01*
X141820911Y-70055996D01*
X141898390Y-70112287D01*
X142014607Y-70171503D01*
X142080776Y-70205218D01*
X142080778Y-70205218D01*
X142080781Y-70205220D01*
X142185137Y-70239127D01*
X142275465Y-70268477D01*
X142376557Y-70284488D01*
X142477648Y-70300500D01*
X142477649Y-70300500D01*
X142682351Y-70300500D01*
X142682352Y-70300500D01*
X142884534Y-70268477D01*
X143079219Y-70205220D01*
X143261610Y-70112287D01*
X143354590Y-70044732D01*
X143427213Y-69991971D01*
X143427215Y-69991968D01*
X143427219Y-69991966D01*
X143571966Y-69847219D01*
X143571968Y-69847215D01*
X143571971Y-69847213D01*
X143624732Y-69774590D01*
X143692287Y-69681610D01*
X143785220Y-69499219D01*
X143848477Y-69304534D01*
X143880500Y-69102352D01*
X143880500Y-68897648D01*
X146559500Y-68897648D01*
X146559500Y-69102351D01*
X146591522Y-69304534D01*
X146654781Y-69499223D01*
X146747715Y-69681613D01*
X146868028Y-69847213D01*
X147012786Y-69991971D01*
X147100911Y-70055996D01*
X147178390Y-70112287D01*
X147294607Y-70171503D01*
X147360776Y-70205218D01*
X147360778Y-70205218D01*
X147360781Y-70205220D01*
X147465137Y-70239127D01*
X147555465Y-70268477D01*
X147656557Y-70284488D01*
X147757648Y-70300500D01*
X147757649Y-70300500D01*
X147962351Y-70300500D01*
X147962352Y-70300500D01*
X148164534Y-70268477D01*
X148359219Y-70205220D01*
X148541610Y-70112287D01*
X148634590Y-70044732D01*
X148707213Y-69991971D01*
X148707215Y-69991968D01*
X148707219Y-69991966D01*
X148851966Y-69847219D01*
X148851968Y-69847215D01*
X148851971Y-69847213D01*
X148972284Y-69681614D01*
X148972285Y-69681613D01*
X148972287Y-69681610D01*
X149019516Y-69588917D01*
X149067489Y-69538123D01*
X149135310Y-69521328D01*
X149201445Y-69543865D01*
X149240483Y-69588917D01*
X149245161Y-69598097D01*
X149287715Y-69681614D01*
X149408028Y-69847213D01*
X149552786Y-69991971D01*
X149640911Y-70055996D01*
X149718390Y-70112287D01*
X149834607Y-70171503D01*
X149900776Y-70205218D01*
X149900778Y-70205218D01*
X149900781Y-70205220D01*
X150005137Y-70239127D01*
X150095465Y-70268477D01*
X150196557Y-70284488D01*
X150297648Y-70300500D01*
X150297649Y-70300500D01*
X150502351Y-70300500D01*
X150502352Y-70300500D01*
X150704534Y-70268477D01*
X150899219Y-70205220D01*
X151081610Y-70112287D01*
X151174590Y-70044732D01*
X151247213Y-69991971D01*
X151247215Y-69991968D01*
X151247219Y-69991966D01*
X151391966Y-69847219D01*
X151391968Y-69847215D01*
X151391971Y-69847213D01*
X151512284Y-69681614D01*
X151512285Y-69681613D01*
X151512287Y-69681610D01*
X151559516Y-69588917D01*
X151607489Y-69538123D01*
X151675310Y-69521328D01*
X151741445Y-69543865D01*
X151780483Y-69588917D01*
X151785161Y-69598097D01*
X151827715Y-69681614D01*
X151948028Y-69847213D01*
X152092786Y-69991971D01*
X152180911Y-70055996D01*
X152258390Y-70112287D01*
X152374607Y-70171503D01*
X152440776Y-70205218D01*
X152440778Y-70205218D01*
X152440781Y-70205220D01*
X152545137Y-70239127D01*
X152635465Y-70268477D01*
X152736557Y-70284488D01*
X152837648Y-70300500D01*
X152837649Y-70300500D01*
X153042351Y-70300500D01*
X153042352Y-70300500D01*
X153244534Y-70268477D01*
X153439219Y-70205220D01*
X153621610Y-70112287D01*
X153714590Y-70044732D01*
X153787213Y-69991971D01*
X153787215Y-69991968D01*
X153787219Y-69991966D01*
X153931966Y-69847219D01*
X153931968Y-69847215D01*
X153931971Y-69847213D01*
X154052284Y-69681614D01*
X154052285Y-69681613D01*
X154052287Y-69681610D01*
X154099516Y-69588917D01*
X154147489Y-69538123D01*
X154215310Y-69521328D01*
X154281445Y-69543865D01*
X154320483Y-69588917D01*
X154325161Y-69598097D01*
X154367715Y-69681614D01*
X154488028Y-69847213D01*
X154632786Y-69991971D01*
X154720911Y-70055996D01*
X154798390Y-70112287D01*
X154914607Y-70171503D01*
X154980776Y-70205218D01*
X154980778Y-70205218D01*
X154980781Y-70205220D01*
X155085137Y-70239127D01*
X155175465Y-70268477D01*
X155276557Y-70284488D01*
X155377648Y-70300500D01*
X155377649Y-70300500D01*
X155582351Y-70300500D01*
X155582352Y-70300500D01*
X155784534Y-70268477D01*
X155979219Y-70205220D01*
X156161610Y-70112287D01*
X156254590Y-70044732D01*
X156327213Y-69991971D01*
X156327215Y-69991968D01*
X156327219Y-69991966D01*
X156471966Y-69847219D01*
X156471968Y-69847215D01*
X156471971Y-69847213D01*
X156592284Y-69681614D01*
X156592285Y-69681613D01*
X156592287Y-69681610D01*
X156639516Y-69588917D01*
X156687489Y-69538123D01*
X156755310Y-69521328D01*
X156821445Y-69543865D01*
X156860483Y-69588917D01*
X156865161Y-69598097D01*
X156907715Y-69681614D01*
X157028028Y-69847213D01*
X157172786Y-69991971D01*
X157260911Y-70055996D01*
X157338390Y-70112287D01*
X157454607Y-70171503D01*
X157520776Y-70205218D01*
X157520778Y-70205218D01*
X157520781Y-70205220D01*
X157625137Y-70239127D01*
X157715465Y-70268477D01*
X157816557Y-70284488D01*
X157917648Y-70300500D01*
X157917649Y-70300500D01*
X158122351Y-70300500D01*
X158122352Y-70300500D01*
X158324534Y-70268477D01*
X158519219Y-70205220D01*
X158701610Y-70112287D01*
X158794590Y-70044732D01*
X158867213Y-69991971D01*
X158867215Y-69991968D01*
X158867219Y-69991966D01*
X159011966Y-69847219D01*
X159011968Y-69847215D01*
X159011971Y-69847213D01*
X159132284Y-69681614D01*
X159132285Y-69681613D01*
X159132287Y-69681610D01*
X159179516Y-69588917D01*
X159227489Y-69538123D01*
X159295310Y-69521328D01*
X159361445Y-69543865D01*
X159400483Y-69588917D01*
X159405161Y-69598097D01*
X159447715Y-69681614D01*
X159568028Y-69847213D01*
X159712786Y-69991971D01*
X159800911Y-70055996D01*
X159878390Y-70112287D01*
X159994607Y-70171503D01*
X160060776Y-70205218D01*
X160060778Y-70205218D01*
X160060781Y-70205220D01*
X160165137Y-70239127D01*
X160255465Y-70268477D01*
X160356557Y-70284488D01*
X160457648Y-70300500D01*
X160457649Y-70300500D01*
X160662351Y-70300500D01*
X160662352Y-70300500D01*
X160864534Y-70268477D01*
X161059219Y-70205220D01*
X161241610Y-70112287D01*
X161334590Y-70044732D01*
X161407213Y-69991971D01*
X161407215Y-69991968D01*
X161407219Y-69991966D01*
X161551966Y-69847219D01*
X161551968Y-69847215D01*
X161551971Y-69847213D01*
X161672284Y-69681614D01*
X161672285Y-69681613D01*
X161672287Y-69681610D01*
X161719516Y-69588917D01*
X161767489Y-69538123D01*
X161835310Y-69521328D01*
X161901445Y-69543865D01*
X161940483Y-69588917D01*
X161945161Y-69598097D01*
X161987715Y-69681614D01*
X162108028Y-69847213D01*
X162252786Y-69991971D01*
X162340911Y-70055996D01*
X162418390Y-70112287D01*
X162534607Y-70171503D01*
X162600776Y-70205218D01*
X162600778Y-70205218D01*
X162600781Y-70205220D01*
X162705137Y-70239127D01*
X162795465Y-70268477D01*
X162896557Y-70284488D01*
X162997648Y-70300500D01*
X162997649Y-70300500D01*
X163202351Y-70300500D01*
X163202352Y-70300500D01*
X163404534Y-70268477D01*
X163599219Y-70205220D01*
X163781610Y-70112287D01*
X163874590Y-70044732D01*
X163947213Y-69991971D01*
X163947215Y-69991968D01*
X163947219Y-69991966D01*
X164091966Y-69847219D01*
X164091968Y-69847215D01*
X164091971Y-69847213D01*
X164212284Y-69681614D01*
X164212285Y-69681613D01*
X164212287Y-69681610D01*
X164259516Y-69588917D01*
X164307489Y-69538123D01*
X164375310Y-69521328D01*
X164441445Y-69543865D01*
X164480483Y-69588917D01*
X164485161Y-69598097D01*
X164527715Y-69681614D01*
X164648028Y-69847213D01*
X164792786Y-69991971D01*
X164880911Y-70055996D01*
X164958390Y-70112287D01*
X165074607Y-70171503D01*
X165140776Y-70205218D01*
X165140778Y-70205218D01*
X165140781Y-70205220D01*
X165245137Y-70239127D01*
X165335465Y-70268477D01*
X165436557Y-70284488D01*
X165537648Y-70300500D01*
X165537649Y-70300500D01*
X165742351Y-70300500D01*
X165742352Y-70300500D01*
X165944534Y-70268477D01*
X166139219Y-70205220D01*
X166321610Y-70112287D01*
X166414590Y-70044732D01*
X166487213Y-69991971D01*
X166487215Y-69991968D01*
X166487219Y-69991966D01*
X166631966Y-69847219D01*
X166631968Y-69847215D01*
X166631971Y-69847213D01*
X166684732Y-69774590D01*
X166752287Y-69681610D01*
X166845220Y-69499219D01*
X166908477Y-69304534D01*
X166940500Y-69102352D01*
X166940500Y-68897648D01*
X166908477Y-68695466D01*
X166845220Y-68500781D01*
X166845218Y-68500778D01*
X166845218Y-68500776D01*
X166760997Y-68335485D01*
X166752287Y-68318390D01*
X166706224Y-68254989D01*
X166631971Y-68152786D01*
X166487213Y-68008028D01*
X166321613Y-67887715D01*
X166321612Y-67887714D01*
X166321610Y-67887713D01*
X166264653Y-67858691D01*
X166139223Y-67794781D01*
X165944534Y-67731522D01*
X165769995Y-67703878D01*
X165742352Y-67699500D01*
X165537648Y-67699500D01*
X165513329Y-67703351D01*
X165335465Y-67731522D01*
X165140776Y-67794781D01*
X164958386Y-67887715D01*
X164792786Y-68008028D01*
X164648028Y-68152786D01*
X164527715Y-68318386D01*
X164480485Y-68411080D01*
X164432510Y-68461876D01*
X164364689Y-68478671D01*
X164298554Y-68456134D01*
X164259515Y-68411080D01*
X164220997Y-68335485D01*
X164212287Y-68318390D01*
X164166224Y-68254989D01*
X164091971Y-68152786D01*
X163947213Y-68008028D01*
X163781613Y-67887715D01*
X163781612Y-67887714D01*
X163781610Y-67887713D01*
X163724653Y-67858691D01*
X163599223Y-67794781D01*
X163404534Y-67731522D01*
X163229995Y-67703878D01*
X163202352Y-67699500D01*
X162997648Y-67699500D01*
X162973329Y-67703351D01*
X162795465Y-67731522D01*
X162600776Y-67794781D01*
X162418386Y-67887715D01*
X162252786Y-68008028D01*
X162108028Y-68152786D01*
X161987715Y-68318386D01*
X161940485Y-68411080D01*
X161892510Y-68461876D01*
X161824689Y-68478671D01*
X161758554Y-68456134D01*
X161719515Y-68411080D01*
X161680997Y-68335485D01*
X161672287Y-68318390D01*
X161626224Y-68254989D01*
X161551971Y-68152786D01*
X161407213Y-68008028D01*
X161241613Y-67887715D01*
X161241612Y-67887714D01*
X161241610Y-67887713D01*
X161184653Y-67858691D01*
X161059223Y-67794781D01*
X160864534Y-67731522D01*
X160689995Y-67703878D01*
X160662352Y-67699500D01*
X160457648Y-67699500D01*
X160433329Y-67703351D01*
X160255465Y-67731522D01*
X160060776Y-67794781D01*
X159878386Y-67887715D01*
X159712786Y-68008028D01*
X159568028Y-68152786D01*
X159447715Y-68318386D01*
X159400485Y-68411080D01*
X159352510Y-68461876D01*
X159284689Y-68478671D01*
X159218554Y-68456134D01*
X159179515Y-68411080D01*
X159140997Y-68335485D01*
X159132287Y-68318390D01*
X159086224Y-68254989D01*
X159011971Y-68152786D01*
X158867213Y-68008028D01*
X158701613Y-67887715D01*
X158701612Y-67887714D01*
X158701610Y-67887713D01*
X158644653Y-67858691D01*
X158519223Y-67794781D01*
X158324534Y-67731522D01*
X158149995Y-67703878D01*
X158122352Y-67699500D01*
X157917648Y-67699500D01*
X157893329Y-67703351D01*
X157715465Y-67731522D01*
X157520776Y-67794781D01*
X157338386Y-67887715D01*
X157172786Y-68008028D01*
X157028028Y-68152786D01*
X156907715Y-68318386D01*
X156860485Y-68411080D01*
X156812510Y-68461876D01*
X156744689Y-68478671D01*
X156678554Y-68456134D01*
X156639515Y-68411080D01*
X156600997Y-68335485D01*
X156592287Y-68318390D01*
X156546224Y-68254989D01*
X156471971Y-68152786D01*
X156327213Y-68008028D01*
X156161613Y-67887715D01*
X156161612Y-67887714D01*
X156161610Y-67887713D01*
X156104653Y-67858691D01*
X155979223Y-67794781D01*
X155784534Y-67731522D01*
X155609995Y-67703878D01*
X155582352Y-67699500D01*
X155377648Y-67699500D01*
X155353329Y-67703351D01*
X155175465Y-67731522D01*
X154980776Y-67794781D01*
X154798386Y-67887715D01*
X154632786Y-68008028D01*
X154488028Y-68152786D01*
X154367715Y-68318386D01*
X154320485Y-68411080D01*
X154272510Y-68461876D01*
X154204689Y-68478671D01*
X154138554Y-68456134D01*
X154099515Y-68411080D01*
X154060997Y-68335485D01*
X154052287Y-68318390D01*
X154006224Y-68254989D01*
X153931971Y-68152786D01*
X153787213Y-68008028D01*
X153621613Y-67887715D01*
X153621612Y-67887714D01*
X153621610Y-67887713D01*
X153564653Y-67858691D01*
X153439223Y-67794781D01*
X153244534Y-67731522D01*
X153069995Y-67703878D01*
X153042352Y-67699500D01*
X152837648Y-67699500D01*
X152813329Y-67703351D01*
X152635465Y-67731522D01*
X152440776Y-67794781D01*
X152258386Y-67887715D01*
X152092786Y-68008028D01*
X151948028Y-68152786D01*
X151827715Y-68318386D01*
X151780485Y-68411080D01*
X151732510Y-68461876D01*
X151664689Y-68478671D01*
X151598554Y-68456134D01*
X151559515Y-68411080D01*
X151520997Y-68335485D01*
X151512287Y-68318390D01*
X151466224Y-68254989D01*
X151391971Y-68152786D01*
X151247213Y-68008028D01*
X151081613Y-67887715D01*
X151081612Y-67887714D01*
X151081610Y-67887713D01*
X151024653Y-67858691D01*
X150899223Y-67794781D01*
X150704534Y-67731522D01*
X150529995Y-67703878D01*
X150502352Y-67699500D01*
X150297648Y-67699500D01*
X150273329Y-67703351D01*
X150095465Y-67731522D01*
X149900776Y-67794781D01*
X149718386Y-67887715D01*
X149552786Y-68008028D01*
X149408028Y-68152786D01*
X149287715Y-68318386D01*
X149240485Y-68411080D01*
X149192510Y-68461876D01*
X149124689Y-68478671D01*
X149058554Y-68456134D01*
X149019515Y-68411080D01*
X148980997Y-68335485D01*
X148972287Y-68318390D01*
X148926224Y-68254989D01*
X148851971Y-68152786D01*
X148707213Y-68008028D01*
X148541613Y-67887715D01*
X148541612Y-67887714D01*
X148541610Y-67887713D01*
X148484653Y-67858691D01*
X148359223Y-67794781D01*
X148164534Y-67731522D01*
X147989995Y-67703878D01*
X147962352Y-67699500D01*
X147757648Y-67699500D01*
X147733329Y-67703351D01*
X147555465Y-67731522D01*
X147360776Y-67794781D01*
X147178386Y-67887715D01*
X147012786Y-68008028D01*
X146868028Y-68152786D01*
X146747715Y-68318386D01*
X146654781Y-68500776D01*
X146591522Y-68695465D01*
X146559500Y-68897648D01*
X143880500Y-68897648D01*
X143848477Y-68695466D01*
X143785220Y-68500781D01*
X143785218Y-68500778D01*
X143785218Y-68500776D01*
X143700997Y-68335485D01*
X143692287Y-68318390D01*
X143646224Y-68254989D01*
X143571971Y-68152786D01*
X143427213Y-68008028D01*
X143261613Y-67887715D01*
X143261612Y-67887714D01*
X143261610Y-67887713D01*
X143204653Y-67858691D01*
X143079223Y-67794781D01*
X142884534Y-67731522D01*
X142709995Y-67703878D01*
X142682352Y-67699500D01*
X142477648Y-67699500D01*
X142453329Y-67703351D01*
X142275465Y-67731522D01*
X142080776Y-67794781D01*
X141898386Y-67887715D01*
X141732786Y-68008028D01*
X141588028Y-68152786D01*
X141467715Y-68318386D01*
X141420485Y-68411080D01*
X141372510Y-68461876D01*
X141304689Y-68478671D01*
X141238554Y-68456134D01*
X141199515Y-68411080D01*
X141160997Y-68335485D01*
X141152287Y-68318390D01*
X141106224Y-68254989D01*
X141031971Y-68152786D01*
X140887213Y-68008028D01*
X140721613Y-67887715D01*
X140721612Y-67887714D01*
X140721610Y-67887713D01*
X140664653Y-67858691D01*
X140539223Y-67794781D01*
X140344534Y-67731522D01*
X140169995Y-67703878D01*
X140142352Y-67699500D01*
X139937648Y-67699500D01*
X139913329Y-67703351D01*
X139735465Y-67731522D01*
X139540776Y-67794781D01*
X139358386Y-67887715D01*
X139192786Y-68008028D01*
X139048028Y-68152786D01*
X138927715Y-68318386D01*
X138880485Y-68411080D01*
X138832510Y-68461876D01*
X138764689Y-68478671D01*
X138698554Y-68456134D01*
X138659515Y-68411080D01*
X138620997Y-68335485D01*
X138612287Y-68318390D01*
X138566224Y-68254989D01*
X138491971Y-68152786D01*
X138347213Y-68008028D01*
X138181613Y-67887715D01*
X138181612Y-67887714D01*
X138181610Y-67887713D01*
X138124653Y-67858691D01*
X137999223Y-67794781D01*
X137804534Y-67731522D01*
X137629995Y-67703878D01*
X137602352Y-67699500D01*
X137397648Y-67699500D01*
X137373329Y-67703351D01*
X137195465Y-67731522D01*
X137000776Y-67794781D01*
X136818386Y-67887715D01*
X136652786Y-68008028D01*
X136508028Y-68152786D01*
X136387715Y-68318386D01*
X136340485Y-68411080D01*
X136292510Y-68461876D01*
X136224689Y-68478671D01*
X136158554Y-68456134D01*
X136119515Y-68411080D01*
X136080997Y-68335485D01*
X136072287Y-68318390D01*
X136026224Y-68254989D01*
X135951971Y-68152786D01*
X135807213Y-68008028D01*
X135641613Y-67887715D01*
X135641612Y-67887714D01*
X135641610Y-67887713D01*
X135584653Y-67858691D01*
X135459223Y-67794781D01*
X135264534Y-67731522D01*
X135089995Y-67703878D01*
X135062352Y-67699500D01*
X134857648Y-67699500D01*
X134833329Y-67703351D01*
X134655465Y-67731522D01*
X134460776Y-67794781D01*
X134278386Y-67887715D01*
X134112786Y-68008028D01*
X133968028Y-68152786D01*
X133847715Y-68318386D01*
X133800485Y-68411080D01*
X133752510Y-68461876D01*
X133684689Y-68478671D01*
X133618554Y-68456134D01*
X133579515Y-68411080D01*
X133540997Y-68335485D01*
X133532287Y-68318390D01*
X133486224Y-68254989D01*
X133411971Y-68152786D01*
X133267213Y-68008028D01*
X133101613Y-67887715D01*
X133101612Y-67887714D01*
X133101610Y-67887713D01*
X133044653Y-67858691D01*
X132919223Y-67794781D01*
X132724534Y-67731522D01*
X132549995Y-67703878D01*
X132522352Y-67699500D01*
X132317648Y-67699500D01*
X132293329Y-67703351D01*
X132115465Y-67731522D01*
X131920776Y-67794781D01*
X131738386Y-67887715D01*
X131572786Y-68008028D01*
X131428028Y-68152786D01*
X131307715Y-68318386D01*
X131260485Y-68411080D01*
X131212510Y-68461876D01*
X131144689Y-68478671D01*
X131078554Y-68456134D01*
X131039515Y-68411080D01*
X131000997Y-68335485D01*
X130992287Y-68318390D01*
X130946224Y-68254989D01*
X130871971Y-68152786D01*
X130727213Y-68008028D01*
X130561613Y-67887715D01*
X130561612Y-67887714D01*
X130561610Y-67887713D01*
X130504653Y-67858691D01*
X130379223Y-67794781D01*
X130184534Y-67731522D01*
X130009995Y-67703878D01*
X129982352Y-67699500D01*
X129777648Y-67699500D01*
X129753329Y-67703351D01*
X129575465Y-67731522D01*
X129380776Y-67794781D01*
X129198386Y-67887715D01*
X129032786Y-68008028D01*
X128888028Y-68152786D01*
X128767715Y-68318386D01*
X128720485Y-68411080D01*
X128672510Y-68461876D01*
X128604689Y-68478671D01*
X128538554Y-68456134D01*
X128499515Y-68411080D01*
X128460997Y-68335485D01*
X128452287Y-68318390D01*
X128406224Y-68254989D01*
X128331971Y-68152786D01*
X128187213Y-68008028D01*
X128021613Y-67887715D01*
X128021612Y-67887714D01*
X128021610Y-67887713D01*
X127964653Y-67858691D01*
X127839223Y-67794781D01*
X127644534Y-67731522D01*
X127469995Y-67703878D01*
X127442352Y-67699500D01*
X127237648Y-67699500D01*
X127213329Y-67703351D01*
X127035465Y-67731522D01*
X126840776Y-67794781D01*
X126658386Y-67887715D01*
X126492786Y-68008028D01*
X126348028Y-68152786D01*
X126227715Y-68318386D01*
X126180485Y-68411080D01*
X126132510Y-68461876D01*
X126064689Y-68478671D01*
X125998554Y-68456134D01*
X125959515Y-68411080D01*
X125920997Y-68335485D01*
X125912287Y-68318390D01*
X125866224Y-68254989D01*
X125791971Y-68152786D01*
X125647213Y-68008028D01*
X125481613Y-67887715D01*
X125481612Y-67887714D01*
X125481610Y-67887713D01*
X125424653Y-67858691D01*
X125299223Y-67794781D01*
X125104534Y-67731522D01*
X124929995Y-67703878D01*
X124902352Y-67699500D01*
X124697648Y-67699500D01*
X124673329Y-67703351D01*
X124495465Y-67731522D01*
X124300776Y-67794781D01*
X124118386Y-67887715D01*
X123952786Y-68008028D01*
X123808028Y-68152786D01*
X123687715Y-68318386D01*
X123594781Y-68500776D01*
X123531522Y-68695465D01*
X123499500Y-68897648D01*
X122387328Y-68897648D01*
X122335933Y-68796782D01*
X122283343Y-68693567D01*
X122144517Y-68502490D01*
X121977510Y-68335483D01*
X121942872Y-68310317D01*
X121900207Y-68254989D01*
X121894228Y-68185375D01*
X121926833Y-68123580D01*
X121942873Y-68109682D01*
X121977510Y-68084517D01*
X122144517Y-67917510D01*
X122283343Y-67726433D01*
X122390568Y-67515992D01*
X122463553Y-67291368D01*
X122500500Y-67058097D01*
X122500500Y-66821902D01*
X122463553Y-66588631D01*
X122394817Y-66377085D01*
X122390568Y-66364008D01*
X122390566Y-66364005D01*
X122390566Y-66364003D01*
X122310085Y-66206052D01*
X122283343Y-66153567D01*
X122144517Y-65962490D01*
X121977510Y-65795483D01*
X121942872Y-65770317D01*
X121900207Y-65714989D01*
X121894228Y-65645375D01*
X121926833Y-65583580D01*
X121942873Y-65569682D01*
X121950230Y-65564337D01*
X121977510Y-65544517D01*
X122144517Y-65377510D01*
X122283343Y-65186433D01*
X122390568Y-64975992D01*
X122463553Y-64751368D01*
X122496250Y-64544927D01*
X122500500Y-64518097D01*
X122500500Y-64328711D01*
X133279500Y-64328711D01*
X133279500Y-64571288D01*
X133311161Y-64811785D01*
X133373947Y-65046104D01*
X133466773Y-65270205D01*
X133466776Y-65270212D01*
X133588064Y-65480289D01*
X133588066Y-65480292D01*
X133588067Y-65480293D01*
X133735733Y-65672736D01*
X133735739Y-65672743D01*
X133907256Y-65844260D01*
X133907262Y-65844265D01*
X134099711Y-65991936D01*
X134309788Y-66113224D01*
X134533900Y-66206054D01*
X134768211Y-66268838D01*
X134948586Y-66292584D01*
X135008711Y-66300500D01*
X135008712Y-66300500D01*
X135251289Y-66300500D01*
X135299388Y-66294167D01*
X135491789Y-66268838D01*
X135726100Y-66206054D01*
X135950212Y-66113224D01*
X136160289Y-65991936D01*
X136352738Y-65844265D01*
X136524265Y-65672738D01*
X136671936Y-65480289D01*
X136793224Y-65270212D01*
X136886054Y-65046100D01*
X136948838Y-64811789D01*
X136980500Y-64571288D01*
X136980500Y-64328712D01*
X136980500Y-64328711D01*
X149399500Y-64328711D01*
X149399500Y-64571288D01*
X149431161Y-64811785D01*
X149493947Y-65046104D01*
X149586773Y-65270205D01*
X149586776Y-65270212D01*
X149708064Y-65480289D01*
X149708066Y-65480292D01*
X149708067Y-65480293D01*
X149855733Y-65672736D01*
X149855739Y-65672743D01*
X150027256Y-65844260D01*
X150027262Y-65844265D01*
X150219711Y-65991936D01*
X150429788Y-66113224D01*
X150653900Y-66206054D01*
X150888211Y-66268838D01*
X151068586Y-66292584D01*
X151128711Y-66300500D01*
X151128712Y-66300500D01*
X151371289Y-66300500D01*
X151419388Y-66294167D01*
X151611789Y-66268838D01*
X151846100Y-66206054D01*
X152070212Y-66113224D01*
X152280289Y-65991936D01*
X152472738Y-65844265D01*
X152644265Y-65672738D01*
X152791936Y-65480289D01*
X152913224Y-65270212D01*
X153006054Y-65046100D01*
X153068838Y-64811789D01*
X153100500Y-64571288D01*
X153100500Y-64328712D01*
X153068838Y-64088211D01*
X153006054Y-63853900D01*
X152913224Y-63629788D01*
X152791936Y-63419711D01*
X152665921Y-63255485D01*
X152644266Y-63227263D01*
X152644260Y-63227256D01*
X152472743Y-63055739D01*
X152472736Y-63055733D01*
X152280293Y-62908067D01*
X152280292Y-62908066D01*
X152280289Y-62908064D01*
X152070212Y-62786776D01*
X152070205Y-62786773D01*
X151846104Y-62693947D01*
X151611785Y-62631161D01*
X151371289Y-62599500D01*
X151371288Y-62599500D01*
X151128712Y-62599500D01*
X151128711Y-62599500D01*
X150888214Y-62631161D01*
X150653895Y-62693947D01*
X150429794Y-62786773D01*
X150429785Y-62786777D01*
X150219706Y-62908067D01*
X150027263Y-63055733D01*
X150027256Y-63055739D01*
X149855739Y-63227256D01*
X149855733Y-63227263D01*
X149708067Y-63419706D01*
X149586777Y-63629785D01*
X149586773Y-63629794D01*
X149493947Y-63853895D01*
X149431161Y-64088214D01*
X149399500Y-64328711D01*
X136980500Y-64328711D01*
X136948838Y-64088211D01*
X136886054Y-63853900D01*
X136793224Y-63629788D01*
X136671936Y-63419711D01*
X136545921Y-63255485D01*
X136524266Y-63227263D01*
X136524260Y-63227256D01*
X136352743Y-63055739D01*
X136352736Y-63055733D01*
X136160293Y-62908067D01*
X136160292Y-62908066D01*
X136160289Y-62908064D01*
X135950212Y-62786776D01*
X135950205Y-62786773D01*
X135726104Y-62693947D01*
X135491785Y-62631161D01*
X135251289Y-62599500D01*
X135251288Y-62599500D01*
X135008712Y-62599500D01*
X135008711Y-62599500D01*
X134768214Y-62631161D01*
X134533895Y-62693947D01*
X134309794Y-62786773D01*
X134309785Y-62786777D01*
X134099706Y-62908067D01*
X133907263Y-63055733D01*
X133907256Y-63055739D01*
X133735739Y-63227256D01*
X133735733Y-63227263D01*
X133588067Y-63419706D01*
X133466777Y-63629785D01*
X133466773Y-63629794D01*
X133373947Y-63853895D01*
X133311161Y-64088214D01*
X133279500Y-64328711D01*
X122500500Y-64328711D01*
X122500500Y-64281902D01*
X122463553Y-64048631D01*
X122429689Y-63944412D01*
X122390568Y-63824008D01*
X122390566Y-63824005D01*
X122390566Y-63824003D01*
X122283342Y-63613566D01*
X122144517Y-63422490D01*
X121977510Y-63255483D01*
X121942872Y-63230317D01*
X121900207Y-63174989D01*
X121894228Y-63105375D01*
X121926833Y-63043580D01*
X121942873Y-63029682D01*
X121977510Y-63004517D01*
X122144517Y-62837510D01*
X122283343Y-62646433D01*
X122390568Y-62435992D01*
X122463553Y-62211368D01*
X122500500Y-61978097D01*
X122500500Y-61741902D01*
X122463553Y-61508631D01*
X122390566Y-61284003D01*
X122283342Y-61073566D01*
X122144517Y-60882490D01*
X121977510Y-60715483D01*
X121942872Y-60690317D01*
X121900207Y-60634989D01*
X121894228Y-60565375D01*
X121926833Y-60503580D01*
X121942873Y-60489682D01*
X121977510Y-60464517D01*
X122144517Y-60297510D01*
X122283343Y-60106433D01*
X122390568Y-59895992D01*
X122463553Y-59671368D01*
X122500500Y-59438097D01*
X122500500Y-59201902D01*
X122463553Y-58968631D01*
X122390566Y-58744003D01*
X122283342Y-58533566D01*
X122144517Y-58342490D01*
X121977510Y-58175483D01*
X121942872Y-58150317D01*
X121900207Y-58094989D01*
X121894228Y-58025375D01*
X121926833Y-57963580D01*
X121942873Y-57949682D01*
X121977510Y-57924517D01*
X122144517Y-57757510D01*
X122283343Y-57566433D01*
X122390568Y-57355992D01*
X122463553Y-57131368D01*
X122500500Y-56898097D01*
X122500500Y-56661902D01*
X122463553Y-56428631D01*
X122390566Y-56204003D01*
X122283342Y-55993566D01*
X122144517Y-55802490D01*
X121977510Y-55635483D01*
X121918282Y-55592451D01*
X121875617Y-55537122D01*
X121867550Y-55482404D01*
X121869104Y-55462657D01*
X121137574Y-54731128D01*
X121196853Y-54715245D01*
X121313147Y-54648102D01*
X121408102Y-54553147D01*
X121475245Y-54436853D01*
X121491128Y-54377575D01*
X122222658Y-55109105D01*
X122222658Y-55109104D01*
X122282914Y-55026169D01*
X122282918Y-55026163D01*
X122390102Y-54815802D01*
X122463065Y-54591247D01*
X122500000Y-54358052D01*
X122500000Y-54121947D01*
X122463065Y-53888752D01*
X122390102Y-53664197D01*
X122282914Y-53453828D01*
X122222658Y-53370894D01*
X122222658Y-53370893D01*
X121491128Y-54102424D01*
X121475245Y-54043147D01*
X121408102Y-53926853D01*
X121313147Y-53831898D01*
X121196853Y-53764755D01*
X121137574Y-53748871D01*
X121869105Y-53017340D01*
X121867551Y-52997594D01*
X121881915Y-52929216D01*
X121918284Y-52887547D01*
X121977510Y-52844517D01*
X122144517Y-52677510D01*
X122218526Y-52575646D01*
X132847000Y-52575646D01*
X132847000Y-52804354D01*
X132860177Y-52887547D01*
X132882778Y-53030246D01*
X132882778Y-53030249D01*
X132953450Y-53247755D01*
X132995367Y-53330021D01*
X133057283Y-53451538D01*
X133191714Y-53636566D01*
X133353434Y-53798286D01*
X133538462Y-53932717D01*
X133741327Y-54036082D01*
X133742244Y-54036549D01*
X133959751Y-54107221D01*
X133959752Y-54107221D01*
X133959755Y-54107222D01*
X134185646Y-54143000D01*
X134185647Y-54143000D01*
X134414353Y-54143000D01*
X134414354Y-54143000D01*
X134640245Y-54107222D01*
X134640248Y-54107221D01*
X134640249Y-54107221D01*
X134857755Y-54036549D01*
X134857755Y-54036548D01*
X134857758Y-54036548D01*
X135061538Y-53932717D01*
X135246566Y-53798286D01*
X135408286Y-53636566D01*
X135469683Y-53552059D01*
X135525012Y-53509396D01*
X135594625Y-53503417D01*
X135656420Y-53536023D01*
X135670314Y-53552056D01*
X135731714Y-53636566D01*
X135893434Y-53798286D01*
X136078462Y-53932717D01*
X136281327Y-54036082D01*
X136282244Y-54036549D01*
X136499751Y-54107221D01*
X136499752Y-54107221D01*
X136499755Y-54107222D01*
X136725646Y-54143000D01*
X136725647Y-54143000D01*
X136954353Y-54143000D01*
X136954354Y-54143000D01*
X137180245Y-54107222D01*
X137180248Y-54107221D01*
X137180249Y-54107221D01*
X137397755Y-54036549D01*
X137397755Y-54036548D01*
X137397758Y-54036548D01*
X137601538Y-53932717D01*
X137786566Y-53798286D01*
X137948286Y-53636566D01*
X138009683Y-53552059D01*
X138065012Y-53509396D01*
X138134625Y-53503417D01*
X138196420Y-53536023D01*
X138210314Y-53552056D01*
X138271714Y-53636566D01*
X138433434Y-53798286D01*
X138618462Y-53932717D01*
X138821327Y-54036082D01*
X138822244Y-54036549D01*
X139039751Y-54107221D01*
X139039752Y-54107221D01*
X139039755Y-54107222D01*
X139265646Y-54143000D01*
X139265647Y-54143000D01*
X139494353Y-54143000D01*
X139494354Y-54143000D01*
X139720245Y-54107222D01*
X139720248Y-54107221D01*
X139720249Y-54107221D01*
X139937755Y-54036549D01*
X139937755Y-54036548D01*
X139937758Y-54036548D01*
X140141538Y-53932717D01*
X140326566Y-53798286D01*
X140488286Y-53636566D01*
X140549683Y-53552059D01*
X140605012Y-53509396D01*
X140674625Y-53503417D01*
X140736420Y-53536023D01*
X140750314Y-53552056D01*
X140811714Y-53636566D01*
X140973434Y-53798286D01*
X141158462Y-53932717D01*
X141361327Y-54036082D01*
X141362244Y-54036549D01*
X141579751Y-54107221D01*
X141579752Y-54107221D01*
X141579755Y-54107222D01*
X141805646Y-54143000D01*
X141805647Y-54143000D01*
X142034353Y-54143000D01*
X142034354Y-54143000D01*
X142260245Y-54107222D01*
X142260248Y-54107221D01*
X142260249Y-54107221D01*
X142477755Y-54036549D01*
X142477755Y-54036548D01*
X142477758Y-54036548D01*
X142681538Y-53932717D01*
X142866566Y-53798286D01*
X143028286Y-53636566D01*
X143089683Y-53552059D01*
X143145012Y-53509396D01*
X143214625Y-53503417D01*
X143276420Y-53536023D01*
X143290314Y-53552056D01*
X143351714Y-53636566D01*
X143513434Y-53798286D01*
X143698462Y-53932717D01*
X143901327Y-54036082D01*
X143902244Y-54036549D01*
X144119751Y-54107221D01*
X144119752Y-54107221D01*
X144119755Y-54107222D01*
X144345646Y-54143000D01*
X144345647Y-54143000D01*
X144574353Y-54143000D01*
X144574354Y-54143000D01*
X144800245Y-54107222D01*
X144800248Y-54107221D01*
X144800249Y-54107221D01*
X145017755Y-54036549D01*
X145017755Y-54036548D01*
X145017758Y-54036548D01*
X145221538Y-53932717D01*
X145406566Y-53798286D01*
X145568286Y-53636566D01*
X145629683Y-53552059D01*
X145685012Y-53509396D01*
X145754625Y-53503417D01*
X145816420Y-53536023D01*
X145830314Y-53552056D01*
X145891714Y-53636566D01*
X146053434Y-53798286D01*
X146238462Y-53932717D01*
X146441327Y-54036082D01*
X146442244Y-54036549D01*
X146659751Y-54107221D01*
X146659752Y-54107221D01*
X146659755Y-54107222D01*
X146885646Y-54143000D01*
X146885647Y-54143000D01*
X147114353Y-54143000D01*
X147114354Y-54143000D01*
X147340245Y-54107222D01*
X147340248Y-54107221D01*
X147340249Y-54107221D01*
X147557755Y-54036549D01*
X147557755Y-54036548D01*
X147557758Y-54036548D01*
X147761538Y-53932717D01*
X147946566Y-53798286D01*
X148108286Y-53636566D01*
X148169991Y-53551635D01*
X148225321Y-53508970D01*
X148294934Y-53502991D01*
X148334290Y-53523756D01*
X148351347Y-53525099D01*
X148950439Y-52926007D01*
X148977271Y-52990785D01*
X149046764Y-53094789D01*
X149135211Y-53183236D01*
X149239215Y-53252729D01*
X149303991Y-53279560D01*
X148704899Y-53878651D01*
X148778725Y-53932288D01*
X148778731Y-53932292D01*
X148982431Y-54036082D01*
X149199875Y-54106734D01*
X149425687Y-54142500D01*
X149654313Y-54142500D01*
X149880124Y-54106734D01*
X149880125Y-54106734D01*
X150097568Y-54036082D01*
X150301276Y-53932288D01*
X150375098Y-53878651D01*
X149776007Y-53279560D01*
X149840785Y-53252729D01*
X149944789Y-53183236D01*
X150033236Y-53094789D01*
X150102729Y-52990785D01*
X150129560Y-52926008D01*
X150728651Y-53525099D01*
X150745503Y-53523772D01*
X150764699Y-53508970D01*
X150834312Y-53502989D01*
X150896107Y-53535594D01*
X150910007Y-53551634D01*
X150910317Y-53552061D01*
X150971714Y-53636566D01*
X151133434Y-53798286D01*
X151318462Y-53932717D01*
X151521327Y-54036082D01*
X151522244Y-54036549D01*
X151739751Y-54107221D01*
X151739752Y-54107221D01*
X151739755Y-54107222D01*
X151965646Y-54143000D01*
X151965647Y-54143000D01*
X152194353Y-54143000D01*
X152194354Y-54143000D01*
X152420245Y-54107222D01*
X152420248Y-54107221D01*
X152420249Y-54107221D01*
X152637755Y-54036549D01*
X152637755Y-54036548D01*
X152637758Y-54036548D01*
X152841538Y-53932717D01*
X153026566Y-53798286D01*
X153188286Y-53636566D01*
X153322717Y-53451538D01*
X153426548Y-53247758D01*
X153441903Y-53200499D01*
X153497221Y-53030249D01*
X153497221Y-53030248D01*
X153497222Y-53030245D01*
X153533000Y-52804354D01*
X153533000Y-52575646D01*
X153497222Y-52349755D01*
X153497221Y-52349751D01*
X153497221Y-52349750D01*
X153426549Y-52132244D01*
X153387191Y-52055000D01*
X153322717Y-51928462D01*
X153188286Y-51743434D01*
X153026566Y-51581714D01*
X152841538Y-51447283D01*
X152637755Y-51343450D01*
X152420248Y-51272778D01*
X152250826Y-51245944D01*
X152194354Y-51237000D01*
X151965646Y-51237000D01*
X151890349Y-51248926D01*
X151739753Y-51272778D01*
X151739750Y-51272778D01*
X151522244Y-51343450D01*
X151318461Y-51447283D01*
X151244051Y-51501346D01*
X151133434Y-51581714D01*
X151133432Y-51581716D01*
X151133431Y-51581716D01*
X150971716Y-51743431D01*
X150971709Y-51743440D01*
X150910007Y-51828364D01*
X150854677Y-51871030D01*
X150785063Y-51877008D01*
X150745710Y-51856242D01*
X150728651Y-51854899D01*
X150129560Y-52453990D01*
X150102729Y-52389215D01*
X150033236Y-52285211D01*
X149944789Y-52196764D01*
X149840785Y-52127271D01*
X149776006Y-52100438D01*
X150375099Y-51501347D01*
X150301276Y-51447711D01*
X150097568Y-51343917D01*
X149880124Y-51273265D01*
X149654313Y-51237500D01*
X149425687Y-51237500D01*
X149199875Y-51273265D01*
X149199874Y-51273265D01*
X148982431Y-51343917D01*
X148778719Y-51447713D01*
X148704900Y-51501346D01*
X148704899Y-51501347D01*
X149303991Y-52100439D01*
X149239215Y-52127271D01*
X149135211Y-52196764D01*
X149046764Y-52285211D01*
X148977271Y-52389215D01*
X148950439Y-52453991D01*
X148351347Y-51854899D01*
X148334490Y-51856226D01*
X148315293Y-51871029D01*
X148245679Y-51877007D01*
X148183885Y-51844399D01*
X148169990Y-51828362D01*
X148108288Y-51743437D01*
X148108283Y-51743431D01*
X147946568Y-51581716D01*
X147946566Y-51581714D01*
X147761538Y-51447283D01*
X147557755Y-51343450D01*
X147340248Y-51272778D01*
X147170826Y-51245944D01*
X147114354Y-51237000D01*
X146885646Y-51237000D01*
X146810349Y-51248926D01*
X146659753Y-51272778D01*
X146659750Y-51272778D01*
X146442244Y-51343450D01*
X146238461Y-51447283D01*
X146164051Y-51501346D01*
X146053434Y-51581714D01*
X146053432Y-51581716D01*
X146053431Y-51581716D01*
X145891715Y-51743432D01*
X145830318Y-51827938D01*
X145774987Y-51870603D01*
X145705374Y-51876582D01*
X145643579Y-51843976D01*
X145629682Y-51827938D01*
X145568288Y-51743437D01*
X145568286Y-51743434D01*
X145406566Y-51581714D01*
X145221538Y-51447283D01*
X145017755Y-51343450D01*
X144800248Y-51272778D01*
X144630826Y-51245944D01*
X144574354Y-51237000D01*
X144345646Y-51237000D01*
X144270349Y-51248926D01*
X144119753Y-51272778D01*
X144119750Y-51272778D01*
X143902244Y-51343450D01*
X143698461Y-51447283D01*
X143624051Y-51501346D01*
X143513434Y-51581714D01*
X143513432Y-51581716D01*
X143513431Y-51581716D01*
X143351715Y-51743432D01*
X143290318Y-51827938D01*
X143234987Y-51870603D01*
X143165374Y-51876582D01*
X143103579Y-51843976D01*
X143089682Y-51827938D01*
X143028288Y-51743437D01*
X143028286Y-51743434D01*
X142866566Y-51581714D01*
X142681538Y-51447283D01*
X142477755Y-51343450D01*
X142260248Y-51272778D01*
X142090826Y-51245944D01*
X142034354Y-51237000D01*
X141805646Y-51237000D01*
X141730349Y-51248926D01*
X141579753Y-51272778D01*
X141579750Y-51272778D01*
X141362244Y-51343450D01*
X141158461Y-51447283D01*
X141084051Y-51501346D01*
X140973434Y-51581714D01*
X140973432Y-51581716D01*
X140973431Y-51581716D01*
X140811715Y-51743432D01*
X140750318Y-51827938D01*
X140694987Y-51870603D01*
X140625374Y-51876582D01*
X140563579Y-51843976D01*
X140549682Y-51827938D01*
X140488288Y-51743437D01*
X140488286Y-51743434D01*
X140326566Y-51581714D01*
X140141538Y-51447283D01*
X139937755Y-51343450D01*
X139720248Y-51272778D01*
X139550826Y-51245944D01*
X139494354Y-51237000D01*
X139265646Y-51237000D01*
X139190349Y-51248926D01*
X139039753Y-51272778D01*
X139039750Y-51272778D01*
X138822244Y-51343450D01*
X138618461Y-51447283D01*
X138544051Y-51501346D01*
X138433434Y-51581714D01*
X138433432Y-51581716D01*
X138433431Y-51581716D01*
X138271715Y-51743432D01*
X138210318Y-51827938D01*
X138154987Y-51870603D01*
X138085374Y-51876582D01*
X138023579Y-51843976D01*
X138009682Y-51827938D01*
X137948288Y-51743437D01*
X137948286Y-51743434D01*
X137786566Y-51581714D01*
X137601538Y-51447283D01*
X137397755Y-51343450D01*
X137180248Y-51272778D01*
X137010826Y-51245944D01*
X136954354Y-51237000D01*
X136725646Y-51237000D01*
X136650349Y-51248926D01*
X136499753Y-51272778D01*
X136499750Y-51272778D01*
X136282244Y-51343450D01*
X136078461Y-51447283D01*
X136004051Y-51501346D01*
X135893434Y-51581714D01*
X135893432Y-51581716D01*
X135893431Y-51581716D01*
X135731715Y-51743432D01*
X135670318Y-51827938D01*
X135614987Y-51870603D01*
X135545374Y-51876582D01*
X135483579Y-51843976D01*
X135469682Y-51827938D01*
X135408288Y-51743437D01*
X135408286Y-51743434D01*
X135246566Y-51581714D01*
X135061538Y-51447283D01*
X134857755Y-51343450D01*
X134640248Y-51272778D01*
X134470826Y-51245944D01*
X134414354Y-51237000D01*
X134185646Y-51237000D01*
X134110349Y-51248926D01*
X133959753Y-51272778D01*
X133959750Y-51272778D01*
X133742244Y-51343450D01*
X133538461Y-51447283D01*
X133464051Y-51501346D01*
X133353434Y-51581714D01*
X133353432Y-51581716D01*
X133353431Y-51581716D01*
X133191716Y-51743431D01*
X133191716Y-51743432D01*
X133191714Y-51743434D01*
X133191712Y-51743437D01*
X133057283Y-51928461D01*
X132953450Y-52132244D01*
X132882778Y-52349750D01*
X132882778Y-52349753D01*
X132882778Y-52349755D01*
X132847000Y-52575646D01*
X122218526Y-52575646D01*
X122283343Y-52486433D01*
X122390568Y-52275992D01*
X122463553Y-52051368D01*
X122474539Y-51982007D01*
X122500500Y-51818097D01*
X122500500Y-51581902D01*
X122463553Y-51348631D01*
X122390566Y-51124003D01*
X122283342Y-50913566D01*
X122144517Y-50722490D01*
X121977510Y-50555483D01*
X121786433Y-50416657D01*
X121575996Y-50309433D01*
X121351368Y-50236446D01*
X121118097Y-50199500D01*
X121118092Y-50199500D01*
X120881908Y-50199500D01*
X120881903Y-50199500D01*
X120648631Y-50236446D01*
X120424003Y-50309433D01*
X120213566Y-50416657D01*
X120157119Y-50457669D01*
X120022490Y-50555483D01*
X120022488Y-50555485D01*
X120022487Y-50555485D01*
X119855485Y-50722487D01*
X119855485Y-50722488D01*
X119855483Y-50722490D01*
X119795862Y-50804550D01*
X119716657Y-50913566D01*
X119609433Y-51124003D01*
X119536446Y-51348631D01*
X119499500Y-51581902D01*
X119499500Y-51818097D01*
X119536446Y-52051368D01*
X119609433Y-52275996D01*
X119716657Y-52486433D01*
X119855483Y-52677510D01*
X120022490Y-52844517D01*
X120081716Y-52887547D01*
X120124381Y-52942875D01*
X120132448Y-52997593D01*
X120130893Y-53017340D01*
X120862425Y-53748871D01*
X120803147Y-53764755D01*
X120686853Y-53831898D01*
X120591898Y-53926853D01*
X120524755Y-54043147D01*
X120508871Y-54102425D01*
X119777340Y-53370894D01*
X119717084Y-53453830D01*
X119609897Y-53664197D01*
X119536934Y-53888752D01*
X119500000Y-54121947D01*
X119500000Y-54358052D01*
X119536934Y-54591247D01*
X119609897Y-54815802D01*
X119717087Y-55026174D01*
X119777338Y-55109104D01*
X119777340Y-55109105D01*
X120508871Y-54377574D01*
X120524755Y-54436853D01*
X120591898Y-54553147D01*
X120686853Y-54648102D01*
X120803147Y-54715245D01*
X120862425Y-54731128D01*
X120130893Y-55462658D01*
X120132448Y-55482405D01*
X120118084Y-55550783D01*
X120081717Y-55592451D01*
X120022490Y-55635482D01*
X119855485Y-55802487D01*
X119855485Y-55802488D01*
X119855483Y-55802490D01*
X119795862Y-55884550D01*
X119716657Y-55993566D01*
X119609433Y-56204003D01*
X119536446Y-56428631D01*
X119499500Y-56661902D01*
X119499500Y-56898097D01*
X119536446Y-57131368D01*
X119609433Y-57355996D01*
X119716657Y-57566433D01*
X119855483Y-57757510D01*
X120022490Y-57924517D01*
X120057127Y-57949683D01*
X120099792Y-58005013D01*
X120105771Y-58074626D01*
X120073165Y-58136421D01*
X120057130Y-58150315D01*
X120039365Y-58163222D01*
X120022488Y-58175484D01*
X119855485Y-58342487D01*
X119855485Y-58342488D01*
X119855483Y-58342490D01*
X119795862Y-58424550D01*
X119716657Y-58533566D01*
X119609433Y-58744003D01*
X119536446Y-58968631D01*
X119499500Y-59201902D01*
X119499500Y-59438097D01*
X119536446Y-59671368D01*
X119609433Y-59895996D01*
X119716657Y-60106433D01*
X119855483Y-60297510D01*
X120022490Y-60464517D01*
X120057127Y-60489683D01*
X120099792Y-60545013D01*
X120105771Y-60614626D01*
X120073165Y-60676421D01*
X120057130Y-60690315D01*
X120039365Y-60703222D01*
X120022488Y-60715484D01*
X119855485Y-60882487D01*
X119855485Y-60882488D01*
X119855483Y-60882490D01*
X119795862Y-60964550D01*
X119716657Y-61073566D01*
X119609433Y-61284003D01*
X119536446Y-61508631D01*
X119499500Y-61741902D01*
X119499500Y-61978097D01*
X119536446Y-62211368D01*
X119609433Y-62435996D01*
X119708876Y-62631162D01*
X119716657Y-62646433D01*
X119855483Y-62837510D01*
X120022490Y-63004517D01*
X120057127Y-63029683D01*
X120099792Y-63085013D01*
X120105771Y-63154626D01*
X120073165Y-63216421D01*
X120057130Y-63230315D01*
X120039365Y-63243222D01*
X120022488Y-63255484D01*
X119855485Y-63422487D01*
X119855485Y-63422488D01*
X119855483Y-63422490D01*
X119834371Y-63451548D01*
X119716657Y-63613566D01*
X119609433Y-63824003D01*
X119536446Y-64048631D01*
X119499500Y-64281902D01*
X119499500Y-64518097D01*
X119536446Y-64751368D01*
X119609433Y-64975996D01*
X119694928Y-65143787D01*
X119716657Y-65186433D01*
X119855483Y-65377510D01*
X120022490Y-65544517D01*
X120057127Y-65569683D01*
X120099792Y-65625013D01*
X120105771Y-65694626D01*
X120073165Y-65756421D01*
X120057130Y-65770315D01*
X120039365Y-65783222D01*
X120022488Y-65795484D01*
X119855485Y-65962487D01*
X119855485Y-65962488D01*
X119855483Y-65962490D01*
X119809971Y-66025132D01*
X119716657Y-66153566D01*
X119609433Y-66364003D01*
X119536446Y-66588631D01*
X119499500Y-66821902D01*
X119499500Y-67058097D01*
X119536446Y-67291368D01*
X119609433Y-67515996D01*
X119702934Y-67699500D01*
X119716657Y-67726433D01*
X119855483Y-67917510D01*
X120022490Y-68084517D01*
X120057127Y-68109683D01*
X120099792Y-68165013D01*
X120105771Y-68234626D01*
X120073165Y-68296421D01*
X120057130Y-68310315D01*
X120039365Y-68323222D01*
X120022488Y-68335484D01*
X119855485Y-68502487D01*
X119855485Y-68502488D01*
X119855483Y-68502490D01*
X119795862Y-68584550D01*
X119716657Y-68693566D01*
X119609433Y-68904003D01*
X119536446Y-69128631D01*
X119499500Y-69361902D01*
X119499500Y-69598097D01*
X119536446Y-69831368D01*
X119609433Y-70055996D01*
X119685466Y-70205218D01*
X119716657Y-70266433D01*
X119855483Y-70457510D01*
X120022490Y-70624517D01*
X120057127Y-70649683D01*
X120099792Y-70705013D01*
X120105771Y-70774626D01*
X120073165Y-70836421D01*
X120057130Y-70850315D01*
X120039365Y-70863222D01*
X120022488Y-70875484D01*
X119855485Y-71042487D01*
X119855485Y-71042488D01*
X119855483Y-71042490D01*
X119795862Y-71124550D01*
X119716657Y-71233566D01*
X119609433Y-71444003D01*
X119536446Y-71668631D01*
X119499500Y-71901902D01*
X119499500Y-72138097D01*
X119536446Y-72371368D01*
X119609433Y-72595996D01*
X119716657Y-72806433D01*
X119855483Y-72997510D01*
X120022490Y-73164517D01*
X120057127Y-73189683D01*
X120099792Y-73245013D01*
X120105771Y-73314626D01*
X120073165Y-73376421D01*
X120057130Y-73390315D01*
X120039365Y-73403222D01*
X120022488Y-73415484D01*
X119855485Y-73582487D01*
X119855485Y-73582488D01*
X119855483Y-73582490D01*
X119795862Y-73664550D01*
X119716657Y-73773566D01*
X119609433Y-73984003D01*
X119536446Y-74208631D01*
X119499500Y-74441902D01*
X119499500Y-74678097D01*
X119536446Y-74911368D01*
X119609433Y-75135996D01*
X119716657Y-75346433D01*
X119855483Y-75537510D01*
X120022490Y-75704517D01*
X120057127Y-75729683D01*
X120099792Y-75785013D01*
X120105771Y-75854626D01*
X120073165Y-75916421D01*
X120057130Y-75930315D01*
X120039365Y-75943222D01*
X120022488Y-75955484D01*
X119855485Y-76122487D01*
X119855485Y-76122488D01*
X119855483Y-76122490D01*
X119795862Y-76204550D01*
X119716657Y-76313566D01*
X119609433Y-76524003D01*
X119536446Y-76748631D01*
X119499500Y-76981902D01*
X119499500Y-77218097D01*
X119536446Y-77451368D01*
X119609433Y-77675996D01*
X119716657Y-77886433D01*
X119855483Y-78077510D01*
X120022490Y-78244517D01*
X120057127Y-78269683D01*
X120099792Y-78325013D01*
X120105771Y-78394626D01*
X120073165Y-78456421D01*
X120057130Y-78470315D01*
X120039365Y-78483222D01*
X120022488Y-78495484D01*
X119855485Y-78662487D01*
X119855485Y-78662488D01*
X119855483Y-78662490D01*
X119795862Y-78744550D01*
X119716657Y-78853566D01*
X119609433Y-79064003D01*
X119536446Y-79288631D01*
X119499500Y-79521902D01*
X119499500Y-79758097D01*
X119536446Y-79991368D01*
X119609433Y-80215996D01*
X119716657Y-80426433D01*
X119855483Y-80617510D01*
X120022490Y-80784517D01*
X120057127Y-80809683D01*
X120099792Y-80865013D01*
X120105771Y-80934626D01*
X120073165Y-80996421D01*
X120057130Y-81010315D01*
X120045656Y-81018652D01*
X120022488Y-81035484D01*
X119855485Y-81202487D01*
X119855485Y-81202488D01*
X119855483Y-81202490D01*
X119795862Y-81284550D01*
X119716657Y-81393566D01*
X119609433Y-81604003D01*
X119536446Y-81828631D01*
X119499500Y-82061902D01*
X119499500Y-82298097D01*
X119536446Y-82531368D01*
X119609433Y-82755996D01*
X119685230Y-82904754D01*
X119716657Y-82966433D01*
X119855483Y-83157510D01*
X120022490Y-83324517D01*
X120057127Y-83349683D01*
X120099792Y-83405013D01*
X120105771Y-83474626D01*
X120073165Y-83536421D01*
X120057130Y-83550315D01*
X120039365Y-83563222D01*
X120022488Y-83575484D01*
X119855485Y-83742487D01*
X119855485Y-83742488D01*
X119855483Y-83742490D01*
X119795862Y-83824550D01*
X119716657Y-83933566D01*
X119609433Y-84144003D01*
X119536446Y-84368631D01*
X119499500Y-84601902D01*
X119499500Y-84838097D01*
X119536446Y-85071368D01*
X119609433Y-85295996D01*
X119710956Y-85495244D01*
X119716657Y-85506433D01*
X119855483Y-85697510D01*
X120022490Y-85864517D01*
X120057127Y-85889683D01*
X120099792Y-85945013D01*
X120105771Y-86014626D01*
X120073165Y-86076421D01*
X120057130Y-86090315D01*
X120043803Y-86099998D01*
X120022488Y-86115484D01*
X119855485Y-86282487D01*
X119855485Y-86282488D01*
X119855483Y-86282490D01*
X119809016Y-86346446D01*
X119716657Y-86473566D01*
X119609433Y-86684003D01*
X119536446Y-86908631D01*
X119499500Y-87141902D01*
X119499500Y-87378097D01*
X119536446Y-87611368D01*
X119609433Y-87835996D01*
X119644468Y-87904755D01*
X119716657Y-88046433D01*
X119855483Y-88237510D01*
X120022490Y-88404517D01*
X120213567Y-88543343D01*
X120308387Y-88591656D01*
X120424003Y-88650566D01*
X120424005Y-88650566D01*
X120424008Y-88650568D01*
X120568662Y-88697569D01*
X120626337Y-88737007D01*
X120653535Y-88801366D01*
X120641620Y-88870212D01*
X120594376Y-88921688D01*
X120530343Y-88939500D01*
X120415258Y-88939500D01*
X120199474Y-88967910D01*
X120187762Y-88969452D01*
X120095456Y-88994185D01*
X119966112Y-89028842D01*
X119754123Y-89116650D01*
X119754109Y-89116657D01*
X119555382Y-89231392D01*
X119373338Y-89371081D01*
X119211081Y-89533338D01*
X119071392Y-89715382D01*
X118956657Y-89914109D01*
X118956650Y-89914123D01*
X118868842Y-90126112D01*
X118809453Y-90347759D01*
X118809451Y-90347770D01*
X118779500Y-90575258D01*
X117080000Y-90575258D01*
X117080000Y-86200000D01*
X99390000Y-86200000D01*
X99390000Y-92690000D01*
X87593850Y-92690000D01*
X87525132Y-92638558D01*
X87511762Y-92626972D01*
X87373027Y-92488237D01*
X87361441Y-92474867D01*
X87335714Y-92440500D01*
X87243849Y-92317784D01*
X87234288Y-92302904D01*
X87140259Y-92130701D01*
X87132909Y-92114609D01*
X87072091Y-91951551D01*
X87064334Y-91930755D01*
X87059355Y-91913797D01*
X87017647Y-91722063D01*
X87015130Y-91704556D01*
X87010029Y-91633238D01*
X87000816Y-91504418D01*
X87000500Y-91495572D01*
X87000500Y-89693111D01*
X88217900Y-89693111D01*
X88217900Y-89935688D01*
X88249561Y-90176185D01*
X88312347Y-90410504D01*
X88405173Y-90634605D01*
X88405176Y-90634612D01*
X88526464Y-90844689D01*
X88526466Y-90844692D01*
X88526467Y-90844693D01*
X88674133Y-91037136D01*
X88674139Y-91037143D01*
X88845656Y-91208660D01*
X88845663Y-91208666D01*
X88958721Y-91295418D01*
X89038111Y-91356336D01*
X89248188Y-91477624D01*
X89472300Y-91570454D01*
X89706611Y-91633238D01*
X89886986Y-91656984D01*
X89947111Y-91664900D01*
X89947112Y-91664900D01*
X90189689Y-91664900D01*
X90237788Y-91658567D01*
X90430189Y-91633238D01*
X90664500Y-91570454D01*
X90888612Y-91477624D01*
X91098689Y-91356336D01*
X91291138Y-91208665D01*
X91462665Y-91037138D01*
X91610336Y-90844689D01*
X91731624Y-90634612D01*
X91824454Y-90410500D01*
X91887238Y-90176189D01*
X91918900Y-89935688D01*
X91918900Y-89693112D01*
X91887238Y-89452611D01*
X91824454Y-89218300D01*
X91731624Y-88994188D01*
X91610336Y-88784111D01*
X91462665Y-88591662D01*
X91462660Y-88591656D01*
X91291143Y-88420139D01*
X91291136Y-88420133D01*
X91098693Y-88272467D01*
X91098692Y-88272466D01*
X91098689Y-88272464D01*
X90888612Y-88151176D01*
X90888605Y-88151173D01*
X90664504Y-88058347D01*
X90547344Y-88026954D01*
X90430189Y-87995562D01*
X90430188Y-87995561D01*
X90430185Y-87995561D01*
X90189689Y-87963900D01*
X90189688Y-87963900D01*
X89947112Y-87963900D01*
X89947111Y-87963900D01*
X89706614Y-87995561D01*
X89472295Y-88058347D01*
X89248194Y-88151173D01*
X89248185Y-88151177D01*
X89038106Y-88272467D01*
X88845663Y-88420133D01*
X88845656Y-88420139D01*
X88674139Y-88591656D01*
X88674133Y-88591663D01*
X88526467Y-88784106D01*
X88405177Y-88994185D01*
X88405173Y-88994194D01*
X88312347Y-89218295D01*
X88249561Y-89452614D01*
X88217900Y-89693111D01*
X87000500Y-89693111D01*
X87000500Y-50652135D01*
X94099500Y-50652135D01*
X94099500Y-52747870D01*
X94099501Y-52747876D01*
X94105908Y-52807483D01*
X94156202Y-52942328D01*
X94156206Y-52942335D01*
X94242452Y-53057544D01*
X94242455Y-53057547D01*
X94357664Y-53143793D01*
X94365454Y-53148047D01*
X94363725Y-53151211D01*
X94405915Y-53182734D01*
X94430393Y-53248175D01*
X94415604Y-53316462D01*
X94407036Y-53330021D01*
X94317084Y-53453829D01*
X94209897Y-53664197D01*
X94136934Y-53888752D01*
X94100000Y-54121947D01*
X94100000Y-54358052D01*
X94136934Y-54591247D01*
X94209897Y-54815802D01*
X94317087Y-55026174D01*
X94377338Y-55109104D01*
X94377340Y-55109105D01*
X95108871Y-54377574D01*
X95124755Y-54436853D01*
X95191898Y-54553147D01*
X95286853Y-54648102D01*
X95403147Y-54715245D01*
X95462425Y-54731128D01*
X94730893Y-55462658D01*
X94732448Y-55482405D01*
X94718084Y-55550783D01*
X94681717Y-55592451D01*
X94622490Y-55635482D01*
X94455485Y-55802487D01*
X94455485Y-55802488D01*
X94455483Y-55802490D01*
X94395862Y-55884550D01*
X94316657Y-55993566D01*
X94209433Y-56204003D01*
X94136446Y-56428631D01*
X94099500Y-56661902D01*
X94099500Y-56898097D01*
X94136446Y-57131368D01*
X94209433Y-57355996D01*
X94316657Y-57566433D01*
X94455483Y-57757510D01*
X94622490Y-57924517D01*
X94657127Y-57949683D01*
X94699792Y-58005013D01*
X94705771Y-58074626D01*
X94673165Y-58136421D01*
X94657130Y-58150315D01*
X94639365Y-58163222D01*
X94622488Y-58175484D01*
X94455485Y-58342487D01*
X94455485Y-58342488D01*
X94455483Y-58342490D01*
X94395862Y-58424550D01*
X94316657Y-58533566D01*
X94209433Y-58744003D01*
X94136446Y-58968631D01*
X94099500Y-59201902D01*
X94099500Y-59438097D01*
X94136446Y-59671368D01*
X94209433Y-59895996D01*
X94316657Y-60106433D01*
X94455483Y-60297510D01*
X94622490Y-60464517D01*
X94657127Y-60489683D01*
X94699792Y-60545013D01*
X94705771Y-60614626D01*
X94673165Y-60676421D01*
X94657130Y-60690315D01*
X94639365Y-60703222D01*
X94622488Y-60715484D01*
X94455485Y-60882487D01*
X94455485Y-60882488D01*
X94455483Y-60882490D01*
X94395862Y-60964550D01*
X94316657Y-61073566D01*
X94209433Y-61284003D01*
X94136446Y-61508631D01*
X94099500Y-61741902D01*
X94099500Y-61978097D01*
X94136446Y-62211368D01*
X94209433Y-62435996D01*
X94308876Y-62631162D01*
X94316657Y-62646433D01*
X94455483Y-62837510D01*
X94622490Y-63004517D01*
X94657127Y-63029683D01*
X94699792Y-63085013D01*
X94705771Y-63154626D01*
X94673165Y-63216421D01*
X94657130Y-63230315D01*
X94639365Y-63243222D01*
X94622488Y-63255484D01*
X94455485Y-63422487D01*
X94455485Y-63422488D01*
X94455483Y-63422490D01*
X94434371Y-63451548D01*
X94316657Y-63613566D01*
X94209433Y-63824003D01*
X94136446Y-64048631D01*
X94099500Y-64281902D01*
X94099500Y-64518097D01*
X94136446Y-64751368D01*
X94209433Y-64975996D01*
X94294928Y-65143787D01*
X94316657Y-65186433D01*
X94455483Y-65377510D01*
X94622490Y-65544517D01*
X94657127Y-65569683D01*
X94699792Y-65625013D01*
X94705771Y-65694626D01*
X94673165Y-65756421D01*
X94657130Y-65770315D01*
X94639365Y-65783222D01*
X94622488Y-65795484D01*
X94455485Y-65962487D01*
X94455485Y-65962488D01*
X94455483Y-65962490D01*
X94409971Y-66025132D01*
X94316657Y-66153566D01*
X94209433Y-66364003D01*
X94136446Y-66588631D01*
X94099500Y-66821902D01*
X94099500Y-67058097D01*
X94136446Y-67291368D01*
X94209433Y-67515996D01*
X94302934Y-67699500D01*
X94316657Y-67726433D01*
X94455483Y-67917510D01*
X94622490Y-68084517D01*
X94657127Y-68109683D01*
X94699792Y-68165013D01*
X94705771Y-68234626D01*
X94673165Y-68296421D01*
X94657130Y-68310315D01*
X94639365Y-68323222D01*
X94622488Y-68335484D01*
X94455485Y-68502487D01*
X94455485Y-68502488D01*
X94455483Y-68502490D01*
X94395862Y-68584550D01*
X94316657Y-68693566D01*
X94209433Y-68904003D01*
X94136446Y-69128631D01*
X94099500Y-69361902D01*
X94099500Y-69598097D01*
X94136446Y-69831368D01*
X94209433Y-70055996D01*
X94285466Y-70205218D01*
X94316657Y-70266433D01*
X94455483Y-70457510D01*
X94622490Y-70624517D01*
X94657127Y-70649683D01*
X94699792Y-70705013D01*
X94705771Y-70774626D01*
X94673165Y-70836421D01*
X94657130Y-70850315D01*
X94639365Y-70863222D01*
X94622488Y-70875484D01*
X94455485Y-71042487D01*
X94455485Y-71042488D01*
X94455483Y-71042490D01*
X94395862Y-71124550D01*
X94316657Y-71233566D01*
X94209433Y-71444003D01*
X94136446Y-71668631D01*
X94099500Y-71901902D01*
X94099500Y-72138097D01*
X94136446Y-72371368D01*
X94209433Y-72595996D01*
X94316657Y-72806433D01*
X94455483Y-72997510D01*
X94622490Y-73164517D01*
X94657127Y-73189683D01*
X94699792Y-73245013D01*
X94705771Y-73314626D01*
X94673165Y-73376421D01*
X94657130Y-73390315D01*
X94639365Y-73403222D01*
X94622488Y-73415484D01*
X94455485Y-73582487D01*
X94455485Y-73582488D01*
X94455483Y-73582490D01*
X94395862Y-73664550D01*
X94316657Y-73773566D01*
X94209433Y-73984003D01*
X94136446Y-74208631D01*
X94099500Y-74441902D01*
X94099500Y-74678097D01*
X94136446Y-74911368D01*
X94209433Y-75135996D01*
X94316657Y-75346433D01*
X94455483Y-75537510D01*
X94622490Y-75704517D01*
X94657127Y-75729683D01*
X94699792Y-75785013D01*
X94705771Y-75854626D01*
X94673165Y-75916421D01*
X94657130Y-75930315D01*
X94639365Y-75943222D01*
X94622488Y-75955484D01*
X94455485Y-76122487D01*
X94455485Y-76122488D01*
X94455483Y-76122490D01*
X94395862Y-76204550D01*
X94316657Y-76313566D01*
X94209433Y-76524003D01*
X94136446Y-76748631D01*
X94099500Y-76981902D01*
X94099500Y-77218097D01*
X94136446Y-77451368D01*
X94209433Y-77675996D01*
X94316657Y-77886433D01*
X94455483Y-78077510D01*
X94622490Y-78244517D01*
X94657127Y-78269683D01*
X94699792Y-78325013D01*
X94705771Y-78394626D01*
X94673165Y-78456421D01*
X94657130Y-78470315D01*
X94639365Y-78483222D01*
X94622488Y-78495484D01*
X94455485Y-78662487D01*
X94455485Y-78662488D01*
X94455483Y-78662490D01*
X94395862Y-78744550D01*
X94316657Y-78853566D01*
X94209433Y-79064003D01*
X94136446Y-79288631D01*
X94099500Y-79521902D01*
X94099500Y-79758097D01*
X94136446Y-79991368D01*
X94209433Y-80215996D01*
X94316657Y-80426433D01*
X94455483Y-80617510D01*
X94622490Y-80784517D01*
X94657127Y-80809683D01*
X94699792Y-80865013D01*
X94705771Y-80934626D01*
X94673165Y-80996421D01*
X94657130Y-81010315D01*
X94645656Y-81018652D01*
X94622488Y-81035484D01*
X94455485Y-81202487D01*
X94455485Y-81202488D01*
X94455483Y-81202490D01*
X94395862Y-81284550D01*
X94316657Y-81393566D01*
X94209433Y-81604003D01*
X94136446Y-81828631D01*
X94099500Y-82061902D01*
X94099500Y-82298097D01*
X94136446Y-82531368D01*
X94209433Y-82755996D01*
X94285230Y-82904754D01*
X94316657Y-82966433D01*
X94455483Y-83157510D01*
X94622490Y-83324517D01*
X94657127Y-83349683D01*
X94699792Y-83405013D01*
X94705771Y-83474626D01*
X94673165Y-83536421D01*
X94657130Y-83550315D01*
X94639365Y-83563222D01*
X94622488Y-83575484D01*
X94455485Y-83742487D01*
X94455485Y-83742488D01*
X94455483Y-83742490D01*
X94395862Y-83824550D01*
X94316657Y-83933566D01*
X94209433Y-84144003D01*
X94136446Y-84368631D01*
X94099500Y-84601902D01*
X94099500Y-84838097D01*
X94136446Y-85071368D01*
X94209433Y-85295996D01*
X94310956Y-85495244D01*
X94316657Y-85506433D01*
X94455483Y-85697510D01*
X94622490Y-85864517D01*
X94657127Y-85889683D01*
X94699792Y-85945013D01*
X94705771Y-86014626D01*
X94673165Y-86076421D01*
X94657130Y-86090315D01*
X94643803Y-86099998D01*
X94622488Y-86115484D01*
X94455485Y-86282487D01*
X94455485Y-86282488D01*
X94455483Y-86282490D01*
X94409016Y-86346446D01*
X94316657Y-86473566D01*
X94209433Y-86684003D01*
X94136446Y-86908631D01*
X94099500Y-87141902D01*
X94099500Y-87378097D01*
X94136446Y-87611368D01*
X94209433Y-87835996D01*
X94244468Y-87904755D01*
X94316657Y-88046433D01*
X94455483Y-88237510D01*
X94622490Y-88404517D01*
X94813567Y-88543343D01*
X94908387Y-88591656D01*
X95024003Y-88650566D01*
X95024005Y-88650566D01*
X95024008Y-88650568D01*
X95144412Y-88689689D01*
X95248631Y-88723553D01*
X95481903Y-88760500D01*
X95515708Y-88760500D01*
X95582747Y-88780185D01*
X95628502Y-88832989D01*
X95638446Y-88902147D01*
X95609421Y-88965703D01*
X95550643Y-89003477D01*
X95547835Y-89004265D01*
X95490418Y-89019649D01*
X95456112Y-89028842D01*
X95244123Y-89116650D01*
X95244109Y-89116657D01*
X95045382Y-89231392D01*
X94863338Y-89371081D01*
X94701081Y-89533338D01*
X94561392Y-89715382D01*
X94446657Y-89914109D01*
X94446650Y-89914123D01*
X94358842Y-90126112D01*
X94299453Y-90347759D01*
X94299451Y-90347770D01*
X94269500Y-90575258D01*
X94269500Y-90804741D01*
X94294446Y-90994215D01*
X94299452Y-91032238D01*
X94346724Y-91208660D01*
X94358842Y-91253887D01*
X94446650Y-91465876D01*
X94446657Y-91465890D01*
X94561392Y-91664617D01*
X94701081Y-91846661D01*
X94701089Y-91846670D01*
X94863330Y-92008911D01*
X94863338Y-92008918D01*
X95045382Y-92148607D01*
X95045385Y-92148608D01*
X95045388Y-92148611D01*
X95244112Y-92263344D01*
X95244117Y-92263346D01*
X95244123Y-92263349D01*
X95335480Y-92301190D01*
X95456113Y-92351158D01*
X95677762Y-92410548D01*
X95905266Y-92440500D01*
X95905273Y-92440500D01*
X96134727Y-92440500D01*
X96134734Y-92440500D01*
X96362238Y-92410548D01*
X96583887Y-92351158D01*
X96795888Y-92263344D01*
X96994612Y-92148611D01*
X97176661Y-92008919D01*
X97176665Y-92008914D01*
X97176670Y-92008911D01*
X97338911Y-91846670D01*
X97338914Y-91846665D01*
X97338919Y-91846661D01*
X97478611Y-91664612D01*
X97593344Y-91465888D01*
X97681158Y-91253887D01*
X97740548Y-91032238D01*
X97770500Y-90804734D01*
X97770500Y-90575266D01*
X97740548Y-90347762D01*
X97681158Y-90126113D01*
X97593344Y-89914112D01*
X97478611Y-89715388D01*
X97478608Y-89715385D01*
X97478607Y-89715382D01*
X97338918Y-89533338D01*
X97338911Y-89533330D01*
X97176670Y-89371089D01*
X97176661Y-89371081D01*
X96994617Y-89231392D01*
X96795890Y-89116657D01*
X96795876Y-89116650D01*
X96583887Y-89028842D01*
X96362238Y-88969452D01*
X96324215Y-88964446D01*
X96134741Y-88939500D01*
X96134734Y-88939500D01*
X96069657Y-88939500D01*
X96002618Y-88919815D01*
X95956863Y-88867011D01*
X95946919Y-88797853D01*
X95975944Y-88734297D01*
X96031338Y-88697569D01*
X96175992Y-88650568D01*
X96386433Y-88543343D01*
X96577510Y-88404517D01*
X96744517Y-88237510D01*
X96883343Y-88046433D01*
X96990568Y-87835992D01*
X97063553Y-87611368D01*
X97070210Y-87569336D01*
X97100500Y-87378097D01*
X97100500Y-87141902D01*
X97063553Y-86908631D01*
X97026195Y-86793656D01*
X96990568Y-86684008D01*
X96990566Y-86684005D01*
X96990566Y-86684003D01*
X96885498Y-86477797D01*
X96883343Y-86473567D01*
X96744517Y-86282490D01*
X96577510Y-86115483D01*
X96536755Y-86085872D01*
X96531230Y-86080725D01*
X96517111Y-86056911D01*
X96500207Y-86034989D01*
X96499544Y-86027279D01*
X96495599Y-86020624D01*
X96496596Y-85992954D01*
X96494228Y-85965375D01*
X96497838Y-85958532D01*
X96498117Y-85950799D01*
X96513914Y-85928063D01*
X96526833Y-85903580D01*
X96537121Y-85894665D01*
X96537986Y-85893421D01*
X96539080Y-85892968D01*
X96542873Y-85889682D01*
X96577510Y-85864517D01*
X96744517Y-85697510D01*
X96883343Y-85506433D01*
X96990568Y-85295992D01*
X97063553Y-85071368D01*
X97100500Y-84838097D01*
X97100500Y-84601902D01*
X97063553Y-84368631D01*
X97016378Y-84223443D01*
X96990568Y-84144008D01*
X96990566Y-84144005D01*
X96990566Y-84144003D01*
X96883342Y-83933566D01*
X96744517Y-83742490D01*
X96577510Y-83575483D01*
X96542872Y-83550317D01*
X96500207Y-83494989D01*
X96494228Y-83425375D01*
X96526833Y-83363580D01*
X96542873Y-83349682D01*
X96577510Y-83324517D01*
X96744517Y-83157510D01*
X96883343Y-82966433D01*
X96990568Y-82755992D01*
X97063553Y-82531368D01*
X97087272Y-82381613D01*
X97100500Y-82298097D01*
X97100500Y-82061902D01*
X97063553Y-81828631D01*
X96990566Y-81604003D01*
X96912097Y-81450000D01*
X96883343Y-81393567D01*
X96744517Y-81202490D01*
X96577510Y-81035483D01*
X96542872Y-81010317D01*
X96500207Y-80954989D01*
X96494228Y-80885375D01*
X96526833Y-80823580D01*
X96542873Y-80809682D01*
X96577510Y-80784517D01*
X96744517Y-80617510D01*
X96883343Y-80426433D01*
X96990568Y-80215992D01*
X97063553Y-79991368D01*
X97100500Y-79758097D01*
X97100500Y-79521902D01*
X97063553Y-79288631D01*
X96990566Y-79064003D01*
X96883342Y-78853566D01*
X96744517Y-78662490D01*
X96577510Y-78495483D01*
X96542872Y-78470317D01*
X96500207Y-78414989D01*
X96494228Y-78345375D01*
X96526833Y-78283580D01*
X96542873Y-78269682D01*
X96577510Y-78244517D01*
X96744517Y-78077510D01*
X96883343Y-77886433D01*
X96990568Y-77675992D01*
X97063553Y-77451368D01*
X97100500Y-77218097D01*
X97100500Y-76981902D01*
X97063553Y-76748631D01*
X96990566Y-76524003D01*
X96883342Y-76313566D01*
X96744517Y-76122490D01*
X96577510Y-75955483D01*
X96542872Y-75930317D01*
X96500207Y-75874989D01*
X96494228Y-75805375D01*
X96526833Y-75743580D01*
X96542873Y-75729682D01*
X96577510Y-75704517D01*
X96744517Y-75537510D01*
X96883343Y-75346433D01*
X96990568Y-75135992D01*
X97063553Y-74911368D01*
X97100500Y-74678097D01*
X97100500Y-74441902D01*
X97063553Y-74208631D01*
X96990566Y-73984003D01*
X96883342Y-73773566D01*
X96744517Y-73582490D01*
X96577510Y-73415483D01*
X96542872Y-73390317D01*
X96500207Y-73334989D01*
X96494228Y-73265375D01*
X96526833Y-73203580D01*
X96542873Y-73189682D01*
X96577510Y-73164517D01*
X96744517Y-72997510D01*
X96883343Y-72806433D01*
X96990568Y-72595992D01*
X97063553Y-72371368D01*
X97100500Y-72138097D01*
X97100500Y-71901902D01*
X97063553Y-71668631D01*
X96990566Y-71444003D01*
X96883342Y-71233566D01*
X96744517Y-71042490D01*
X96577510Y-70875483D01*
X96542872Y-70850317D01*
X96500207Y-70794989D01*
X96494228Y-70725375D01*
X96526833Y-70663580D01*
X96542873Y-70649682D01*
X96577510Y-70624517D01*
X96744517Y-70457510D01*
X96883343Y-70266433D01*
X96990568Y-70055992D01*
X97063553Y-69831368D01*
X97087272Y-69681613D01*
X97100500Y-69598097D01*
X97100500Y-69361902D01*
X97063553Y-69128631D01*
X96990566Y-68904003D01*
X96934002Y-68792991D01*
X96883343Y-68693567D01*
X96744517Y-68502490D01*
X96577510Y-68335483D01*
X96542872Y-68310317D01*
X96500207Y-68254989D01*
X96494228Y-68185375D01*
X96526833Y-68123580D01*
X96542873Y-68109682D01*
X96577510Y-68084517D01*
X96744517Y-67917510D01*
X96883343Y-67726433D01*
X96990568Y-67515992D01*
X97063553Y-67291368D01*
X97100500Y-67058097D01*
X97100500Y-66821902D01*
X97063553Y-66588631D01*
X96994817Y-66377085D01*
X96990568Y-66364008D01*
X96990566Y-66364005D01*
X96990566Y-66364003D01*
X96910085Y-66206052D01*
X96883343Y-66153567D01*
X96744517Y-65962490D01*
X96577510Y-65795483D01*
X96542872Y-65770317D01*
X96500207Y-65714989D01*
X96494228Y-65645375D01*
X96526833Y-65583580D01*
X96542873Y-65569682D01*
X96550230Y-65564337D01*
X96577510Y-65544517D01*
X96744517Y-65377510D01*
X96883343Y-65186433D01*
X96990568Y-64975992D01*
X97063553Y-64751368D01*
X97096250Y-64544927D01*
X97100500Y-64518097D01*
X97100500Y-64281902D01*
X97063553Y-64048631D01*
X97029689Y-63944412D01*
X96990568Y-63824008D01*
X96990566Y-63824005D01*
X96990566Y-63824003D01*
X96883342Y-63613566D01*
X96744517Y-63422490D01*
X96577510Y-63255483D01*
X96542872Y-63230317D01*
X96500207Y-63174989D01*
X96494228Y-63105375D01*
X96526833Y-63043580D01*
X96542873Y-63029682D01*
X96577510Y-63004517D01*
X96744517Y-62837510D01*
X96883343Y-62646433D01*
X96990568Y-62435992D01*
X97063553Y-62211368D01*
X97100500Y-61978097D01*
X97100500Y-61741902D01*
X97063553Y-61508631D01*
X96990566Y-61284003D01*
X96883342Y-61073566D01*
X96744517Y-60882490D01*
X96577510Y-60715483D01*
X96542872Y-60690317D01*
X96500207Y-60634989D01*
X96494228Y-60565375D01*
X96526833Y-60503580D01*
X96542873Y-60489682D01*
X96577510Y-60464517D01*
X96744517Y-60297510D01*
X96883343Y-60106433D01*
X96990568Y-59895992D01*
X97063553Y-59671368D01*
X97100500Y-59438097D01*
X97100500Y-59201902D01*
X97063553Y-58968631D01*
X96990566Y-58744003D01*
X96883342Y-58533566D01*
X96744517Y-58342490D01*
X96577510Y-58175483D01*
X96542872Y-58150317D01*
X96500207Y-58094989D01*
X96494228Y-58025375D01*
X96526833Y-57963580D01*
X96542873Y-57949682D01*
X96577510Y-57924517D01*
X96744517Y-57757510D01*
X96883343Y-57566433D01*
X96990568Y-57355992D01*
X97063553Y-57131368D01*
X97100500Y-56898097D01*
X97100500Y-56661902D01*
X97063553Y-56428631D01*
X96990566Y-56204003D01*
X96883342Y-55993566D01*
X96744517Y-55802490D01*
X96577510Y-55635483D01*
X96518282Y-55592451D01*
X96475617Y-55537122D01*
X96467550Y-55482404D01*
X96469104Y-55462657D01*
X95737574Y-54731128D01*
X95796853Y-54715245D01*
X95913147Y-54648102D01*
X96008102Y-54553147D01*
X96075245Y-54436853D01*
X96091128Y-54377575D01*
X96822658Y-55109105D01*
X96822658Y-55109104D01*
X96882914Y-55026169D01*
X96882918Y-55026163D01*
X96990102Y-54815802D01*
X97063065Y-54591247D01*
X97100000Y-54358052D01*
X97100000Y-54121947D01*
X97063065Y-53888752D01*
X96990102Y-53664197D01*
X96882914Y-53453828D01*
X96792964Y-53330023D01*
X96769484Y-53264216D01*
X96785309Y-53196162D01*
X96834640Y-53148220D01*
X96834546Y-53148047D01*
X96835169Y-53147706D01*
X96835415Y-53147468D01*
X96836480Y-53146990D01*
X96842326Y-53143797D01*
X96842331Y-53143796D01*
X96957546Y-53057546D01*
X97043796Y-52942331D01*
X97094091Y-52807483D01*
X97100500Y-52747873D01*
X97100499Y-50652128D01*
X97094091Y-50592517D01*
X97080278Y-50555483D01*
X97043797Y-50457671D01*
X97043793Y-50457664D01*
X96957547Y-50342455D01*
X96957544Y-50342452D01*
X96842335Y-50256206D01*
X96842328Y-50256202D01*
X96707482Y-50205908D01*
X96707483Y-50205908D01*
X96647883Y-50199501D01*
X96647881Y-50199500D01*
X96647873Y-50199500D01*
X96647864Y-50199500D01*
X94552129Y-50199500D01*
X94552123Y-50199501D01*
X94492516Y-50205908D01*
X94357671Y-50256202D01*
X94357664Y-50256206D01*
X94242455Y-50342452D01*
X94242452Y-50342455D01*
X94156206Y-50457664D01*
X94156202Y-50457671D01*
X94105908Y-50592517D01*
X94099501Y-50652116D01*
X94099501Y-50652123D01*
X94099500Y-50652135D01*
X87000500Y-50652135D01*
X87000500Y-44684311D01*
X88268700Y-44684311D01*
X88268700Y-44926888D01*
X88300361Y-45167385D01*
X88363147Y-45401704D01*
X88450275Y-45612049D01*
X88455976Y-45625812D01*
X88577264Y-45835889D01*
X88577266Y-45835892D01*
X88577267Y-45835893D01*
X88724933Y-46028336D01*
X88724939Y-46028343D01*
X88896456Y-46199860D01*
X88896463Y-46199866D01*
X88896648Y-46200008D01*
X89088911Y-46347536D01*
X89298988Y-46468824D01*
X89523100Y-46561654D01*
X89757411Y-46624438D01*
X89937786Y-46648184D01*
X89997911Y-46656100D01*
X89997912Y-46656100D01*
X90240489Y-46656100D01*
X90288588Y-46649767D01*
X90480989Y-46624438D01*
X90715300Y-46561654D01*
X90939412Y-46468824D01*
X91149489Y-46347536D01*
X91341938Y-46199865D01*
X91513465Y-46028338D01*
X91661136Y-45835889D01*
X91782424Y-45625812D01*
X91875254Y-45401700D01*
X91938038Y-45167389D01*
X91969700Y-44926888D01*
X91969700Y-44684312D01*
X91938038Y-44443811D01*
X91875254Y-44209500D01*
X91782424Y-43985388D01*
X91661136Y-43775311D01*
X91601202Y-43697203D01*
X91600811Y-43696693D01*
X91545997Y-43625258D01*
X94269500Y-43625258D01*
X94269500Y-43854741D01*
X94284637Y-43969711D01*
X94299452Y-44082238D01*
X94358842Y-44303887D01*
X94446650Y-44515876D01*
X94446657Y-44515890D01*
X94561392Y-44714617D01*
X94701081Y-44896661D01*
X94701089Y-44896670D01*
X94863330Y-45058911D01*
X94863338Y-45058918D01*
X94863339Y-45058919D01*
X94902153Y-45088702D01*
X95045382Y-45198607D01*
X95045385Y-45198608D01*
X95045388Y-45198611D01*
X95244112Y-45313344D01*
X95244117Y-45313346D01*
X95244123Y-45313349D01*
X95335480Y-45351190D01*
X95456113Y-45401158D01*
X95677762Y-45460548D01*
X95905266Y-45490500D01*
X95905273Y-45490500D01*
X96134727Y-45490500D01*
X96134734Y-45490500D01*
X96362238Y-45460548D01*
X96583887Y-45401158D01*
X96795888Y-45313344D01*
X96994612Y-45198611D01*
X97176661Y-45058919D01*
X97176665Y-45058914D01*
X97176670Y-45058911D01*
X97338911Y-44896670D01*
X97338914Y-44896665D01*
X97338919Y-44896661D01*
X97478611Y-44714612D01*
X97593344Y-44515888D01*
X97681158Y-44303887D01*
X97740548Y-44082238D01*
X97770500Y-43854734D01*
X97770500Y-43625266D01*
X97770499Y-43625258D01*
X118779500Y-43625258D01*
X118779500Y-43854741D01*
X118794637Y-43969711D01*
X118809452Y-44082238D01*
X118868842Y-44303887D01*
X118956650Y-44515876D01*
X118956657Y-44515890D01*
X119071392Y-44714617D01*
X119211081Y-44896661D01*
X119211089Y-44896670D01*
X119373330Y-45058911D01*
X119373338Y-45058918D01*
X119373339Y-45058919D01*
X119412153Y-45088702D01*
X119555382Y-45198607D01*
X119555385Y-45198608D01*
X119555388Y-45198611D01*
X119754112Y-45313344D01*
X119754117Y-45313346D01*
X119754123Y-45313349D01*
X119845480Y-45351190D01*
X119966113Y-45401158D01*
X120187762Y-45460548D01*
X120415266Y-45490500D01*
X120415273Y-45490500D01*
X120644727Y-45490500D01*
X120644734Y-45490500D01*
X120689282Y-45484635D01*
X125167000Y-45484635D01*
X125167000Y-48080370D01*
X125167001Y-48080376D01*
X125173408Y-48139983D01*
X125223702Y-48274828D01*
X125223706Y-48274835D01*
X125309952Y-48390044D01*
X125309955Y-48390047D01*
X125425164Y-48476293D01*
X125425171Y-48476297D01*
X125560017Y-48526591D01*
X125560016Y-48526591D01*
X125566944Y-48527335D01*
X125619627Y-48533000D01*
X127215372Y-48532999D01*
X127274983Y-48526591D01*
X127409831Y-48476296D01*
X127525046Y-48390046D01*
X127611296Y-48274831D01*
X127661591Y-48139983D01*
X127668000Y-48080373D01*
X127667999Y-48015913D01*
X127687683Y-47948877D01*
X127740486Y-47903121D01*
X127809644Y-47893177D01*
X127873200Y-47922201D01*
X127892317Y-47943029D01*
X128004055Y-48096821D01*
X128143178Y-48235944D01*
X128302356Y-48351595D01*
X128477662Y-48440918D01*
X128664783Y-48501718D01*
X128707500Y-48508484D01*
X128707500Y-47215512D01*
X128764507Y-47248425D01*
X128891674Y-47282500D01*
X129023326Y-47282500D01*
X129150493Y-47248425D01*
X129207500Y-47215512D01*
X129207500Y-48508483D01*
X129250216Y-48501718D01*
X129437337Y-48440918D01*
X129612643Y-48351595D01*
X129771821Y-48235944D01*
X129910944Y-48096821D01*
X130026597Y-47937641D01*
X130116734Y-47760736D01*
X130164708Y-47709939D01*
X130232529Y-47693144D01*
X130298664Y-47715681D01*
X130337704Y-47760735D01*
X130338615Y-47762524D01*
X130338616Y-47762525D01*
X130427976Y-47937905D01*
X130543672Y-48097146D01*
X130682854Y-48236328D01*
X130842095Y-48352024D01*
X130916714Y-48390044D01*
X131017470Y-48441382D01*
X131017472Y-48441382D01*
X131017475Y-48441384D01*
X131117817Y-48473987D01*
X131204673Y-48502209D01*
X131399078Y-48533000D01*
X131399083Y-48533000D01*
X131595922Y-48533000D01*
X131790326Y-48502209D01*
X131870074Y-48476297D01*
X131977525Y-48441384D01*
X132152905Y-48352024D01*
X132312146Y-48236328D01*
X132451328Y-48097146D01*
X132567024Y-47937905D01*
X132656384Y-47762525D01*
X132717209Y-47575326D01*
X132748000Y-47380922D01*
X132748000Y-46184077D01*
X132717209Y-45989673D01*
X132669278Y-45842159D01*
X132656384Y-45802475D01*
X132656382Y-45802472D01*
X132656382Y-45802470D01*
X132586152Y-45664637D01*
X132567024Y-45627095D01*
X132451328Y-45467854D01*
X132312146Y-45328672D01*
X132152905Y-45212976D01*
X132107023Y-45189598D01*
X131977529Y-45123617D01*
X131790326Y-45062790D01*
X131595922Y-45032000D01*
X131595917Y-45032000D01*
X131399083Y-45032000D01*
X131399078Y-45032000D01*
X131204673Y-45062790D01*
X131017470Y-45123617D01*
X130842094Y-45212976D01*
X130751241Y-45278985D01*
X130682854Y-45328672D01*
X130682852Y-45328674D01*
X130682851Y-45328674D01*
X130543674Y-45467851D01*
X130543674Y-45467852D01*
X130543672Y-45467854D01*
X130527219Y-45490500D01*
X130427976Y-45627094D01*
X130337704Y-45804264D01*
X130289729Y-45855060D01*
X130221908Y-45871855D01*
X130155774Y-45849318D01*
X130116734Y-45804264D01*
X130026595Y-45627356D01*
X129910944Y-45468178D01*
X129771821Y-45329055D01*
X129612643Y-45213404D01*
X129437335Y-45124081D01*
X129250205Y-45063278D01*
X129207500Y-45056514D01*
X129207500Y-46349488D01*
X129150493Y-46316575D01*
X129023326Y-46282500D01*
X128891674Y-46282500D01*
X128764507Y-46316575D01*
X128707500Y-46349488D01*
X128707500Y-45056514D01*
X128707499Y-45056514D01*
X128664794Y-45063278D01*
X128477664Y-45124081D01*
X128302356Y-45213404D01*
X128143178Y-45329055D01*
X128004055Y-45468178D01*
X127892317Y-45621971D01*
X127836986Y-45664637D01*
X127767373Y-45670615D01*
X127705578Y-45638009D01*
X127671221Y-45577170D01*
X127667999Y-45549085D01*
X127667999Y-45484629D01*
X127667998Y-45484623D01*
X127667997Y-45484616D01*
X127661591Y-45425017D01*
X127652894Y-45401700D01*
X127611297Y-45290171D01*
X127611293Y-45290164D01*
X127525047Y-45174955D01*
X127525044Y-45174952D01*
X127409835Y-45088706D01*
X127409828Y-45088702D01*
X127274982Y-45038408D01*
X127274983Y-45038408D01*
X127215383Y-45032001D01*
X127215381Y-45032000D01*
X127215373Y-45032000D01*
X127215364Y-45032000D01*
X125619629Y-45032000D01*
X125619623Y-45032001D01*
X125560016Y-45038408D01*
X125425171Y-45088702D01*
X125425164Y-45088706D01*
X125309955Y-45174952D01*
X125309952Y-45174955D01*
X125223706Y-45290164D01*
X125223702Y-45290171D01*
X125173408Y-45425017D01*
X125167001Y-45484616D01*
X125167001Y-45484623D01*
X125167000Y-45484635D01*
X120689282Y-45484635D01*
X120872238Y-45460548D01*
X121093887Y-45401158D01*
X121305888Y-45313344D01*
X121504612Y-45198611D01*
X121686661Y-45058919D01*
X121686665Y-45058914D01*
X121686670Y-45058911D01*
X121848910Y-44896670D01*
X121848919Y-44896661D01*
X121865183Y-44875466D01*
X137600000Y-44875466D01*
X137600000Y-45124533D01*
X137632508Y-45371463D01*
X137696973Y-45612049D01*
X137792283Y-45842148D01*
X137792288Y-45842159D01*
X137916813Y-46057841D01*
X137916819Y-46057849D01*
X137991400Y-46155045D01*
X138898958Y-45247487D01*
X138923978Y-45307890D01*
X138995112Y-45414351D01*
X139085649Y-45504888D01*
X139192110Y-45576022D01*
X139252511Y-45601041D01*
X138344953Y-46508598D01*
X138442150Y-46583180D01*
X138442158Y-46583186D01*
X138657840Y-46707711D01*
X138657851Y-46707716D01*
X138887950Y-46803026D01*
X139128536Y-46867491D01*
X139375466Y-46900000D01*
X139624534Y-46900000D01*
X139871463Y-46867491D01*
X140112049Y-46803026D01*
X140342148Y-46707716D01*
X140342159Y-46707711D01*
X140557855Y-46583178D01*
X140655045Y-46508600D01*
X140655045Y-46508597D01*
X139747488Y-45601041D01*
X139807890Y-45576022D01*
X139914351Y-45504888D01*
X140004888Y-45414351D01*
X140076022Y-45307890D01*
X140101041Y-45247489D01*
X141008597Y-46155045D01*
X141008600Y-46155045D01*
X141083178Y-46057855D01*
X141207711Y-45842159D01*
X141207716Y-45842148D01*
X141303026Y-45612049D01*
X141367491Y-45371463D01*
X141400000Y-45124533D01*
X141400000Y-44875466D01*
X141367491Y-44628536D01*
X141303026Y-44387950D01*
X141207716Y-44157851D01*
X141207711Y-44157840D01*
X141083186Y-43942158D01*
X141083174Y-43942140D01*
X141029600Y-43872322D01*
X141029599Y-43872321D01*
X141008598Y-43844953D01*
X140101041Y-44752510D01*
X140076022Y-44692110D01*
X140004888Y-44585649D01*
X139914351Y-44495112D01*
X139807890Y-44423978D01*
X139747487Y-44398957D01*
X140346461Y-43799984D01*
X142599500Y-43799984D01*
X142599500Y-46200015D01*
X142610000Y-46302795D01*
X142610001Y-46302796D01*
X142665186Y-46469335D01*
X142665187Y-46469337D01*
X142757286Y-46618651D01*
X142757289Y-46618655D01*
X142881344Y-46742710D01*
X142881348Y-46742713D01*
X143030662Y-46834812D01*
X143030664Y-46834813D01*
X143030666Y-46834814D01*
X143197203Y-46889999D01*
X143299992Y-46900500D01*
X143299997Y-46900500D01*
X145700003Y-46900500D01*
X145700008Y-46900500D01*
X145802797Y-46889999D01*
X145969334Y-46834814D01*
X146118655Y-46742711D01*
X146242711Y-46618655D01*
X146334814Y-46469334D01*
X146389999Y-46302797D01*
X146400500Y-46200008D01*
X146400500Y-44878711D01*
X150649500Y-44878711D01*
X150649500Y-45121288D01*
X150681161Y-45361785D01*
X150743947Y-45596104D01*
X150836773Y-45820205D01*
X150836777Y-45820214D01*
X150858974Y-45858661D01*
X150958064Y-46030289D01*
X150958066Y-46030292D01*
X150958067Y-46030293D01*
X151105733Y-46222736D01*
X151105739Y-46222743D01*
X151277256Y-46394260D01*
X151277262Y-46394265D01*
X151469711Y-46541936D01*
X151679788Y-46663224D01*
X151903900Y-46756054D01*
X152138211Y-46818838D01*
X152318586Y-46842584D01*
X152378711Y-46850500D01*
X152378712Y-46850500D01*
X152621289Y-46850500D01*
X152669388Y-46844167D01*
X152861789Y-46818838D01*
X153096100Y-46756054D01*
X153320212Y-46663224D01*
X153530289Y-46541936D01*
X153722738Y-46394265D01*
X153894265Y-46222738D01*
X154041936Y-46030289D01*
X154163224Y-45820212D01*
X154256054Y-45596100D01*
X154318838Y-45361789D01*
X154350500Y-45121288D01*
X154350500Y-44878712D01*
X154318838Y-44638211D01*
X154256054Y-44403900D01*
X154163224Y-44179788D01*
X154041936Y-43969711D01*
X153894265Y-43777262D01*
X153894260Y-43777256D01*
X153722743Y-43605739D01*
X153722736Y-43605733D01*
X153530293Y-43458067D01*
X153530292Y-43458066D01*
X153530289Y-43458064D01*
X153320212Y-43336776D01*
X153320205Y-43336773D01*
X153096104Y-43243947D01*
X152861785Y-43181161D01*
X152621289Y-43149500D01*
X152621288Y-43149500D01*
X152378712Y-43149500D01*
X152378711Y-43149500D01*
X152138214Y-43181161D01*
X151903895Y-43243947D01*
X151679794Y-43336773D01*
X151679785Y-43336777D01*
X151469706Y-43458067D01*
X151277263Y-43605733D01*
X151277256Y-43605739D01*
X151105739Y-43777256D01*
X151105733Y-43777263D01*
X150958067Y-43969706D01*
X150836777Y-44179785D01*
X150836773Y-44179794D01*
X150743947Y-44403895D01*
X150681161Y-44638214D01*
X150649500Y-44878711D01*
X146400500Y-44878711D01*
X146400500Y-43799992D01*
X146389999Y-43697203D01*
X146334814Y-43530666D01*
X146310594Y-43491400D01*
X146242713Y-43381348D01*
X146242710Y-43381344D01*
X146118655Y-43257289D01*
X146118651Y-43257286D01*
X145969337Y-43165187D01*
X145969335Y-43165186D01*
X145886065Y-43137593D01*
X145802797Y-43110001D01*
X145802795Y-43110000D01*
X145700015Y-43099500D01*
X145700008Y-43099500D01*
X143299992Y-43099500D01*
X143299984Y-43099500D01*
X143197204Y-43110000D01*
X143197203Y-43110001D01*
X143030664Y-43165186D01*
X143030662Y-43165187D01*
X142881348Y-43257286D01*
X142881344Y-43257289D01*
X142757289Y-43381344D01*
X142757286Y-43381348D01*
X142665187Y-43530662D01*
X142665186Y-43530664D01*
X142610001Y-43697203D01*
X142610000Y-43697204D01*
X142599500Y-43799984D01*
X140346461Y-43799984D01*
X140655045Y-43491400D01*
X140557849Y-43416819D01*
X140557841Y-43416813D01*
X140342159Y-43292288D01*
X140342148Y-43292283D01*
X140112049Y-43196973D01*
X139871463Y-43132508D01*
X139624534Y-43100000D01*
X139375466Y-43100000D01*
X139128536Y-43132508D01*
X138887950Y-43196973D01*
X138657851Y-43292283D01*
X138657847Y-43292285D01*
X138442143Y-43416823D01*
X138344953Y-43491399D01*
X138344953Y-43491400D01*
X139252511Y-44398958D01*
X139192110Y-44423978D01*
X139085649Y-44495112D01*
X138995112Y-44585649D01*
X138923978Y-44692110D01*
X138898958Y-44752511D01*
X137991400Y-43844953D01*
X137991399Y-43844953D01*
X137916823Y-43942143D01*
X137792285Y-44157847D01*
X137792283Y-44157851D01*
X137696973Y-44387950D01*
X137632508Y-44628536D01*
X137600000Y-44875466D01*
X121865183Y-44875466D01*
X121988611Y-44714612D01*
X122103344Y-44515888D01*
X122191158Y-44303887D01*
X122250548Y-44082238D01*
X122280500Y-43854734D01*
X122280500Y-43625266D01*
X122250548Y-43397762D01*
X122191158Y-43176113D01*
X122103344Y-42964112D01*
X121988611Y-42765388D01*
X121988608Y-42765385D01*
X121988607Y-42765382D01*
X121848918Y-42583338D01*
X121848911Y-42583330D01*
X121686670Y-42421089D01*
X121686661Y-42421081D01*
X121504617Y-42281392D01*
X121305890Y-42166657D01*
X121305876Y-42166650D01*
X121093887Y-42078842D01*
X120872238Y-42019452D01*
X120834215Y-42014446D01*
X120644741Y-41989500D01*
X120644734Y-41989500D01*
X120415266Y-41989500D01*
X120415258Y-41989500D01*
X120198715Y-42018009D01*
X120187762Y-42019452D01*
X120094076Y-42044554D01*
X119966112Y-42078842D01*
X119754123Y-42166650D01*
X119754109Y-42166657D01*
X119555382Y-42281392D01*
X119373338Y-42421081D01*
X119211081Y-42583338D01*
X119071392Y-42765382D01*
X118956657Y-42964109D01*
X118956650Y-42964123D01*
X118868842Y-43176112D01*
X118809453Y-43397759D01*
X118809451Y-43397770D01*
X118779500Y-43625258D01*
X97770499Y-43625258D01*
X97740548Y-43397762D01*
X97681158Y-43176113D01*
X97593344Y-42964112D01*
X97478611Y-42765388D01*
X97478608Y-42765385D01*
X97478607Y-42765382D01*
X97338918Y-42583338D01*
X97338911Y-42583330D01*
X97176670Y-42421089D01*
X97176661Y-42421081D01*
X96994617Y-42281392D01*
X96795890Y-42166657D01*
X96795876Y-42166650D01*
X96583887Y-42078842D01*
X96362238Y-42019452D01*
X96324215Y-42014446D01*
X96134741Y-41989500D01*
X96134734Y-41989500D01*
X95905266Y-41989500D01*
X95905258Y-41989500D01*
X95688715Y-42018009D01*
X95677762Y-42019452D01*
X95584076Y-42044554D01*
X95456112Y-42078842D01*
X95244123Y-42166650D01*
X95244109Y-42166657D01*
X95045382Y-42281392D01*
X94863338Y-42421081D01*
X94701081Y-42583338D01*
X94561392Y-42765382D01*
X94446657Y-42964109D01*
X94446650Y-42964123D01*
X94358842Y-43176112D01*
X94299453Y-43397759D01*
X94299451Y-43397770D01*
X94269500Y-43625258D01*
X91545997Y-43625258D01*
X91513466Y-43582863D01*
X91513460Y-43582856D01*
X91341943Y-43411339D01*
X91341936Y-43411333D01*
X91149493Y-43263667D01*
X91149492Y-43263666D01*
X91149489Y-43263664D01*
X90939412Y-43142376D01*
X90939405Y-43142373D01*
X90715304Y-43049547D01*
X90480985Y-42986761D01*
X90240489Y-42955100D01*
X90240488Y-42955100D01*
X89997912Y-42955100D01*
X89997911Y-42955100D01*
X89757414Y-42986761D01*
X89523095Y-43049547D01*
X89298994Y-43142373D01*
X89298985Y-43142377D01*
X89088906Y-43263667D01*
X88896463Y-43411333D01*
X88896456Y-43411339D01*
X88724939Y-43582856D01*
X88724933Y-43582863D01*
X88577267Y-43775306D01*
X88455977Y-43985385D01*
X88455973Y-43985394D01*
X88363147Y-44209495D01*
X88300361Y-44443814D01*
X88268700Y-44684311D01*
X87000500Y-44684311D01*
X87000500Y-42004427D01*
X87000816Y-41995581D01*
X87015130Y-41795443D01*
X87015131Y-41795434D01*
X87017646Y-41777938D01*
X87059356Y-41586199D01*
X87064333Y-41569248D01*
X87132911Y-41385385D01*
X87140259Y-41369298D01*
X87202815Y-41254734D01*
X87234291Y-41197089D01*
X87243845Y-41182221D01*
X87361448Y-41025123D01*
X87373020Y-41011769D01*
X87511769Y-40873020D01*
X87525123Y-40861448D01*
X87682221Y-40743845D01*
X87697089Y-40734291D01*
X87869298Y-40640258D01*
X87885385Y-40632911D01*
X88069248Y-40564333D01*
X88086199Y-40559356D01*
X88277938Y-40517646D01*
X88295436Y-40515130D01*
X88495582Y-40500816D01*
X88504428Y-40500500D01*
X88565892Y-40500500D01*
X154434108Y-40500500D01*
X154495572Y-40500500D01*
X154504418Y-40500816D01*
G37*
%TD.AperFunction*%
%TD*%
M02*
