%TF.GenerationSoftware,KiCad,Pcbnew,9.0.7*%
%TF.CreationDate,2026-06-16T00:02:30-07:00*%
%TF.ProjectId,Self Balancing Robot,53656c66-2042-4616-9c61-6e63696e6720,rev?*%
%TF.SameCoordinates,Original*%
%TF.FileFunction,Legend,Top*%
%TF.FilePolarity,Positive*%
%FSLAX46Y46*%
G04 Gerber Fmt 4.6, Leading zero omitted, Abs format (unit mm)*
G04 Created by KiCad (PCBNEW 9.0.7) date 2026-06-16 00:02:30*
%MOMM*%
%LPD*%
G01*
G04 APERTURE LIST*
%ADD10C,0.300000*%
%ADD11C,0.150000*%
%ADD12C,0.100000*%
%ADD13C,0.120000*%
%ADD14C,0.127000*%
%ADD15C,0.200000*%
G04 APERTURE END LIST*
D10*
X88267628Y-69966974D02*
X88267628Y-69109832D01*
X89767628Y-69538403D02*
X88267628Y-69538403D01*
X89767628Y-68609832D02*
X88767628Y-68609832D01*
X89053342Y-68609832D02*
X88910485Y-68538403D01*
X88910485Y-68538403D02*
X88839057Y-68466975D01*
X88839057Y-68466975D02*
X88767628Y-68324117D01*
X88767628Y-68324117D02*
X88767628Y-68181260D01*
X89767628Y-67038404D02*
X88981914Y-67038404D01*
X88981914Y-67038404D02*
X88839057Y-67109832D01*
X88839057Y-67109832D02*
X88767628Y-67252689D01*
X88767628Y-67252689D02*
X88767628Y-67538404D01*
X88767628Y-67538404D02*
X88839057Y-67681261D01*
X89696200Y-67038404D02*
X89767628Y-67181261D01*
X89767628Y-67181261D02*
X89767628Y-67538404D01*
X89767628Y-67538404D02*
X89696200Y-67681261D01*
X89696200Y-67681261D02*
X89553342Y-67752689D01*
X89553342Y-67752689D02*
X89410485Y-67752689D01*
X89410485Y-67752689D02*
X89267628Y-67681261D01*
X89267628Y-67681261D02*
X89196200Y-67538404D01*
X89196200Y-67538404D02*
X89196200Y-67181261D01*
X89196200Y-67181261D02*
X89124771Y-67038404D01*
X89767628Y-66324118D02*
X88767628Y-66324118D01*
X88267628Y-66324118D02*
X88339057Y-66395546D01*
X88339057Y-66395546D02*
X88410485Y-66324118D01*
X88410485Y-66324118D02*
X88339057Y-66252689D01*
X88339057Y-66252689D02*
X88267628Y-66324118D01*
X88267628Y-66324118D02*
X88410485Y-66324118D01*
X88767628Y-65609832D02*
X89767628Y-65609832D01*
X88910485Y-65609832D02*
X88839057Y-65538403D01*
X88839057Y-65538403D02*
X88767628Y-65395546D01*
X88767628Y-65395546D02*
X88767628Y-65181260D01*
X88767628Y-65181260D02*
X88839057Y-65038403D01*
X88839057Y-65038403D02*
X88981914Y-64966975D01*
X88981914Y-64966975D02*
X89767628Y-64966975D01*
X89767628Y-64252689D02*
X88767628Y-64252689D01*
X88267628Y-64252689D02*
X88339057Y-64324117D01*
X88339057Y-64324117D02*
X88410485Y-64252689D01*
X88410485Y-64252689D02*
X88339057Y-64181260D01*
X88339057Y-64181260D02*
X88267628Y-64252689D01*
X88267628Y-64252689D02*
X88410485Y-64252689D01*
X88767628Y-63538403D02*
X89767628Y-63538403D01*
X88910485Y-63538403D02*
X88839057Y-63466974D01*
X88839057Y-63466974D02*
X88767628Y-63324117D01*
X88767628Y-63324117D02*
X88767628Y-63109831D01*
X88767628Y-63109831D02*
X88839057Y-62966974D01*
X88839057Y-62966974D02*
X88981914Y-62895546D01*
X88981914Y-62895546D02*
X89767628Y-62895546D01*
X88767628Y-61538403D02*
X89981914Y-61538403D01*
X89981914Y-61538403D02*
X90124771Y-61609831D01*
X90124771Y-61609831D02*
X90196200Y-61681260D01*
X90196200Y-61681260D02*
X90267628Y-61824117D01*
X90267628Y-61824117D02*
X90267628Y-62038403D01*
X90267628Y-62038403D02*
X90196200Y-62181260D01*
X89696200Y-61538403D02*
X89767628Y-61681260D01*
X89767628Y-61681260D02*
X89767628Y-61966974D01*
X89767628Y-61966974D02*
X89696200Y-62109831D01*
X89696200Y-62109831D02*
X89624771Y-62181260D01*
X89624771Y-62181260D02*
X89481914Y-62252688D01*
X89481914Y-62252688D02*
X89053342Y-62252688D01*
X89053342Y-62252688D02*
X88910485Y-62181260D01*
X88910485Y-62181260D02*
X88839057Y-62109831D01*
X88839057Y-62109831D02*
X88767628Y-61966974D01*
X88767628Y-61966974D02*
X88767628Y-61681260D01*
X88767628Y-61681260D02*
X88839057Y-61538403D01*
X88267628Y-59824117D02*
X89767628Y-59466974D01*
X89767628Y-59466974D02*
X88696200Y-59181260D01*
X88696200Y-59181260D02*
X89767628Y-58895545D01*
X89767628Y-58895545D02*
X88267628Y-58538403D01*
X89767628Y-57966974D02*
X88267628Y-57966974D01*
X89767628Y-57324117D02*
X88981914Y-57324117D01*
X88981914Y-57324117D02*
X88839057Y-57395545D01*
X88839057Y-57395545D02*
X88767628Y-57538402D01*
X88767628Y-57538402D02*
X88767628Y-57752688D01*
X88767628Y-57752688D02*
X88839057Y-57895545D01*
X88839057Y-57895545D02*
X88910485Y-57966974D01*
X89696200Y-56038402D02*
X89767628Y-56181259D01*
X89767628Y-56181259D02*
X89767628Y-56466974D01*
X89767628Y-56466974D02*
X89696200Y-56609831D01*
X89696200Y-56609831D02*
X89553342Y-56681259D01*
X89553342Y-56681259D02*
X88981914Y-56681259D01*
X88981914Y-56681259D02*
X88839057Y-56609831D01*
X88839057Y-56609831D02*
X88767628Y-56466974D01*
X88767628Y-56466974D02*
X88767628Y-56181259D01*
X88767628Y-56181259D02*
X88839057Y-56038402D01*
X88839057Y-56038402D02*
X88981914Y-55966974D01*
X88981914Y-55966974D02*
X89124771Y-55966974D01*
X89124771Y-55966974D02*
X89267628Y-56681259D01*
X89696200Y-54752688D02*
X89767628Y-54895545D01*
X89767628Y-54895545D02*
X89767628Y-55181260D01*
X89767628Y-55181260D02*
X89696200Y-55324117D01*
X89696200Y-55324117D02*
X89553342Y-55395545D01*
X89553342Y-55395545D02*
X88981914Y-55395545D01*
X88981914Y-55395545D02*
X88839057Y-55324117D01*
X88839057Y-55324117D02*
X88767628Y-55181260D01*
X88767628Y-55181260D02*
X88767628Y-54895545D01*
X88767628Y-54895545D02*
X88839057Y-54752688D01*
X88839057Y-54752688D02*
X88981914Y-54681260D01*
X88981914Y-54681260D02*
X89124771Y-54681260D01*
X89124771Y-54681260D02*
X89267628Y-55395545D01*
X89767628Y-53824117D02*
X89696200Y-53966974D01*
X89696200Y-53966974D02*
X89553342Y-54038403D01*
X89553342Y-54038403D02*
X88267628Y-54038403D01*
X89696200Y-53324117D02*
X89767628Y-53181260D01*
X89767628Y-53181260D02*
X89767628Y-52895546D01*
X89767628Y-52895546D02*
X89696200Y-52752689D01*
X89696200Y-52752689D02*
X89553342Y-52681260D01*
X89553342Y-52681260D02*
X89481914Y-52681260D01*
X89481914Y-52681260D02*
X89339057Y-52752689D01*
X89339057Y-52752689D02*
X89267628Y-52895546D01*
X89267628Y-52895546D02*
X89267628Y-53109832D01*
X89267628Y-53109832D02*
X89196200Y-53252689D01*
X89196200Y-53252689D02*
X89053342Y-53324117D01*
X89053342Y-53324117D02*
X88981914Y-53324117D01*
X88981914Y-53324117D02*
X88839057Y-53252689D01*
X88839057Y-53252689D02*
X88767628Y-53109832D01*
X88767628Y-53109832D02*
X88767628Y-52895546D01*
X88767628Y-52895546D02*
X88839057Y-52752689D01*
X88767628Y-51038403D02*
X89767628Y-50681260D01*
X89767628Y-50681260D02*
X88767628Y-50324117D01*
X89767628Y-48966974D02*
X89767628Y-49824117D01*
X89767628Y-49395546D02*
X88267628Y-49395546D01*
X88267628Y-49395546D02*
X88481914Y-49538403D01*
X88481914Y-49538403D02*
X88624771Y-49681260D01*
X88624771Y-49681260D02*
X88696200Y-49824117D01*
D11*
X127099719Y-61677766D02*
X126623528Y-62011099D01*
X127099719Y-62249194D02*
X126099719Y-62249194D01*
X126099719Y-62249194D02*
X126099719Y-61868242D01*
X126099719Y-61868242D02*
X126147338Y-61773004D01*
X126147338Y-61773004D02*
X126194957Y-61725385D01*
X126194957Y-61725385D02*
X126290195Y-61677766D01*
X126290195Y-61677766D02*
X126433052Y-61677766D01*
X126433052Y-61677766D02*
X126528290Y-61725385D01*
X126528290Y-61725385D02*
X126575909Y-61773004D01*
X126575909Y-61773004D02*
X126623528Y-61868242D01*
X126623528Y-61868242D02*
X126623528Y-62249194D01*
X126194957Y-61296813D02*
X126147338Y-61249194D01*
X126147338Y-61249194D02*
X126099719Y-61153956D01*
X126099719Y-61153956D02*
X126099719Y-60915861D01*
X126099719Y-60915861D02*
X126147338Y-60820623D01*
X126147338Y-60820623D02*
X126194957Y-60773004D01*
X126194957Y-60773004D02*
X126290195Y-60725385D01*
X126290195Y-60725385D02*
X126385433Y-60725385D01*
X126385433Y-60725385D02*
X126528290Y-60773004D01*
X126528290Y-60773004D02*
X127099719Y-61344432D01*
X127099719Y-61344432D02*
X127099719Y-60725385D01*
X126954819Y-53166666D02*
X126478628Y-53499999D01*
X126954819Y-53738094D02*
X125954819Y-53738094D01*
X125954819Y-53738094D02*
X125954819Y-53357142D01*
X125954819Y-53357142D02*
X126002438Y-53261904D01*
X126002438Y-53261904D02*
X126050057Y-53214285D01*
X126050057Y-53214285D02*
X126145295Y-53166666D01*
X126145295Y-53166666D02*
X126288152Y-53166666D01*
X126288152Y-53166666D02*
X126383390Y-53214285D01*
X126383390Y-53214285D02*
X126431009Y-53261904D01*
X126431009Y-53261904D02*
X126478628Y-53357142D01*
X126478628Y-53357142D02*
X126478628Y-53738094D01*
X126954819Y-52214285D02*
X126954819Y-52785713D01*
X126954819Y-52499999D02*
X125954819Y-52499999D01*
X125954819Y-52499999D02*
X126097676Y-52595237D01*
X126097676Y-52595237D02*
X126192914Y-52690475D01*
X126192914Y-52690475D02*
X126240533Y-52785713D01*
X163583333Y-91459580D02*
X163535714Y-91507200D01*
X163535714Y-91507200D02*
X163392857Y-91554819D01*
X163392857Y-91554819D02*
X163297619Y-91554819D01*
X163297619Y-91554819D02*
X163154762Y-91507200D01*
X163154762Y-91507200D02*
X163059524Y-91411961D01*
X163059524Y-91411961D02*
X163011905Y-91316723D01*
X163011905Y-91316723D02*
X162964286Y-91126247D01*
X162964286Y-91126247D02*
X162964286Y-90983390D01*
X162964286Y-90983390D02*
X163011905Y-90792914D01*
X163011905Y-90792914D02*
X163059524Y-90697676D01*
X163059524Y-90697676D02*
X163154762Y-90602438D01*
X163154762Y-90602438D02*
X163297619Y-90554819D01*
X163297619Y-90554819D02*
X163392857Y-90554819D01*
X163392857Y-90554819D02*
X163535714Y-90602438D01*
X163535714Y-90602438D02*
X163583333Y-90650057D01*
X163964286Y-90650057D02*
X164011905Y-90602438D01*
X164011905Y-90602438D02*
X164107143Y-90554819D01*
X164107143Y-90554819D02*
X164345238Y-90554819D01*
X164345238Y-90554819D02*
X164440476Y-90602438D01*
X164440476Y-90602438D02*
X164488095Y-90650057D01*
X164488095Y-90650057D02*
X164535714Y-90745295D01*
X164535714Y-90745295D02*
X164535714Y-90840533D01*
X164535714Y-90840533D02*
X164488095Y-90983390D01*
X164488095Y-90983390D02*
X163916667Y-91554819D01*
X163916667Y-91554819D02*
X164535714Y-91554819D01*
X137190476Y-92454819D02*
X137190476Y-91454819D01*
X137190476Y-91454819D02*
X137523809Y-92169104D01*
X137523809Y-92169104D02*
X137857142Y-91454819D01*
X137857142Y-91454819D02*
X137857142Y-92454819D01*
X138285714Y-91550057D02*
X138333333Y-91502438D01*
X138333333Y-91502438D02*
X138428571Y-91454819D01*
X138428571Y-91454819D02*
X138666666Y-91454819D01*
X138666666Y-91454819D02*
X138761904Y-91502438D01*
X138761904Y-91502438D02*
X138809523Y-91550057D01*
X138809523Y-91550057D02*
X138857142Y-91645295D01*
X138857142Y-91645295D02*
X138857142Y-91740533D01*
X138857142Y-91740533D02*
X138809523Y-91883390D01*
X138809523Y-91883390D02*
X138238095Y-92454819D01*
X138238095Y-92454819D02*
X138857142Y-92454819D01*
X133238095Y-49454819D02*
X133238095Y-50264342D01*
X133238095Y-50264342D02*
X133285714Y-50359580D01*
X133285714Y-50359580D02*
X133333333Y-50407200D01*
X133333333Y-50407200D02*
X133428571Y-50454819D01*
X133428571Y-50454819D02*
X133619047Y-50454819D01*
X133619047Y-50454819D02*
X133714285Y-50407200D01*
X133714285Y-50407200D02*
X133761904Y-50359580D01*
X133761904Y-50359580D02*
X133809523Y-50264342D01*
X133809523Y-50264342D02*
X133809523Y-49454819D01*
X134238095Y-49550057D02*
X134285714Y-49502438D01*
X134285714Y-49502438D02*
X134380952Y-49454819D01*
X134380952Y-49454819D02*
X134619047Y-49454819D01*
X134619047Y-49454819D02*
X134714285Y-49502438D01*
X134714285Y-49502438D02*
X134761904Y-49550057D01*
X134761904Y-49550057D02*
X134809523Y-49645295D01*
X134809523Y-49645295D02*
X134809523Y-49740533D01*
X134809523Y-49740533D02*
X134761904Y-49883390D01*
X134761904Y-49883390D02*
X134190476Y-50454819D01*
X134190476Y-50454819D02*
X134809523Y-50454819D01*
X160190476Y-92454819D02*
X160190476Y-91454819D01*
X160190476Y-91454819D02*
X160523809Y-92169104D01*
X160523809Y-92169104D02*
X160857142Y-91454819D01*
X160857142Y-91454819D02*
X160857142Y-92454819D01*
X161857142Y-92454819D02*
X161285714Y-92454819D01*
X161571428Y-92454819D02*
X161571428Y-91454819D01*
X161571428Y-91454819D02*
X161476190Y-91597676D01*
X161476190Y-91597676D02*
X161380952Y-91692914D01*
X161380952Y-91692914D02*
X161285714Y-91740533D01*
X148666666Y-40954819D02*
X148666666Y-41669104D01*
X148666666Y-41669104D02*
X148619047Y-41811961D01*
X148619047Y-41811961D02*
X148523809Y-41907200D01*
X148523809Y-41907200D02*
X148380952Y-41954819D01*
X148380952Y-41954819D02*
X148285714Y-41954819D01*
X149666666Y-41954819D02*
X149095238Y-41954819D01*
X149380952Y-41954819D02*
X149380952Y-40954819D01*
X149380952Y-40954819D02*
X149285714Y-41097676D01*
X149285714Y-41097676D02*
X149190476Y-41192914D01*
X149190476Y-41192914D02*
X149095238Y-41240533D01*
X145169104Y-76214285D02*
X145169104Y-75738095D01*
X145454819Y-76309523D02*
X144454819Y-75976190D01*
X144454819Y-75976190D02*
X145454819Y-75642857D01*
X144550057Y-75357142D02*
X144502438Y-75309523D01*
X144502438Y-75309523D02*
X144454819Y-75214285D01*
X144454819Y-75214285D02*
X144454819Y-74976190D01*
X144454819Y-74976190D02*
X144502438Y-74880952D01*
X144502438Y-74880952D02*
X144550057Y-74833333D01*
X144550057Y-74833333D02*
X144645295Y-74785714D01*
X144645295Y-74785714D02*
X144740533Y-74785714D01*
X144740533Y-74785714D02*
X144883390Y-74833333D01*
X144883390Y-74833333D02*
X145454819Y-75404761D01*
X145454819Y-75404761D02*
X145454819Y-74785714D01*
X168169104Y-76064285D02*
X168169104Y-75588095D01*
X168454819Y-76159523D02*
X167454819Y-75826190D01*
X167454819Y-75826190D02*
X168454819Y-75492857D01*
X168454819Y-74635714D02*
X168454819Y-75207142D01*
X168454819Y-74921428D02*
X167454819Y-74921428D01*
X167454819Y-74921428D02*
X167597676Y-75016666D01*
X167597676Y-75016666D02*
X167692914Y-75111904D01*
X167692914Y-75111904D02*
X167740533Y-75207142D01*
X92431009Y-86142856D02*
X92431009Y-85809523D01*
X92954819Y-85666666D02*
X92954819Y-86142856D01*
X92954819Y-86142856D02*
X91954819Y-86142856D01*
X91954819Y-86142856D02*
X91954819Y-85666666D01*
X92907200Y-85285713D02*
X92954819Y-85142856D01*
X92954819Y-85142856D02*
X92954819Y-84904761D01*
X92954819Y-84904761D02*
X92907200Y-84809523D01*
X92907200Y-84809523D02*
X92859580Y-84761904D01*
X92859580Y-84761904D02*
X92764342Y-84714285D01*
X92764342Y-84714285D02*
X92669104Y-84714285D01*
X92669104Y-84714285D02*
X92573866Y-84761904D01*
X92573866Y-84761904D02*
X92526247Y-84809523D01*
X92526247Y-84809523D02*
X92478628Y-84904761D01*
X92478628Y-84904761D02*
X92431009Y-85095237D01*
X92431009Y-85095237D02*
X92383390Y-85190475D01*
X92383390Y-85190475D02*
X92335771Y-85238094D01*
X92335771Y-85238094D02*
X92240533Y-85285713D01*
X92240533Y-85285713D02*
X92145295Y-85285713D01*
X92145295Y-85285713D02*
X92050057Y-85238094D01*
X92050057Y-85238094D02*
X92002438Y-85190475D01*
X92002438Y-85190475D02*
X91954819Y-85095237D01*
X91954819Y-85095237D02*
X91954819Y-84857142D01*
X91954819Y-84857142D02*
X92002438Y-84714285D01*
X92954819Y-84285713D02*
X91954819Y-84285713D01*
X91954819Y-84285713D02*
X91954819Y-83904761D01*
X91954819Y-83904761D02*
X92002438Y-83809523D01*
X92002438Y-83809523D02*
X92050057Y-83761904D01*
X92050057Y-83761904D02*
X92145295Y-83714285D01*
X92145295Y-83714285D02*
X92288152Y-83714285D01*
X92288152Y-83714285D02*
X92383390Y-83761904D01*
X92383390Y-83761904D02*
X92431009Y-83809523D01*
X92431009Y-83809523D02*
X92478628Y-83904761D01*
X92478628Y-83904761D02*
X92478628Y-84285713D01*
X91954819Y-83380951D02*
X91954819Y-82761904D01*
X91954819Y-82761904D02*
X92335771Y-83095237D01*
X92335771Y-83095237D02*
X92335771Y-82952380D01*
X92335771Y-82952380D02*
X92383390Y-82857142D01*
X92383390Y-82857142D02*
X92431009Y-82809523D01*
X92431009Y-82809523D02*
X92526247Y-82761904D01*
X92526247Y-82761904D02*
X92764342Y-82761904D01*
X92764342Y-82761904D02*
X92859580Y-82809523D01*
X92859580Y-82809523D02*
X92907200Y-82857142D01*
X92907200Y-82857142D02*
X92954819Y-82952380D01*
X92954819Y-82952380D02*
X92954819Y-83238094D01*
X92954819Y-83238094D02*
X92907200Y-83333332D01*
X92907200Y-83333332D02*
X92859580Y-83380951D01*
X92050057Y-82380951D02*
X92002438Y-82333332D01*
X92002438Y-82333332D02*
X91954819Y-82238094D01*
X91954819Y-82238094D02*
X91954819Y-81999999D01*
X91954819Y-81999999D02*
X92002438Y-81904761D01*
X92002438Y-81904761D02*
X92050057Y-81857142D01*
X92050057Y-81857142D02*
X92145295Y-81809523D01*
X92145295Y-81809523D02*
X92240533Y-81809523D01*
X92240533Y-81809523D02*
X92383390Y-81857142D01*
X92383390Y-81857142D02*
X92954819Y-82428570D01*
X92954819Y-82428570D02*
X92954819Y-81809523D01*
D12*
X129261905Y-65957419D02*
X129261905Y-64957419D01*
X129261905Y-64957419D02*
X129500000Y-64957419D01*
X129500000Y-64957419D02*
X129642857Y-65005038D01*
X129642857Y-65005038D02*
X129738095Y-65100276D01*
X129738095Y-65100276D02*
X129785714Y-65195514D01*
X129785714Y-65195514D02*
X129833333Y-65385990D01*
X129833333Y-65385990D02*
X129833333Y-65528847D01*
X129833333Y-65528847D02*
X129785714Y-65719323D01*
X129785714Y-65719323D02*
X129738095Y-65814561D01*
X129738095Y-65814561D02*
X129642857Y-65909800D01*
X129642857Y-65909800D02*
X129500000Y-65957419D01*
X129500000Y-65957419D02*
X129261905Y-65957419D01*
X130214286Y-65052657D02*
X130261905Y-65005038D01*
X130261905Y-65005038D02*
X130357143Y-64957419D01*
X130357143Y-64957419D02*
X130595238Y-64957419D01*
X130595238Y-64957419D02*
X130690476Y-65005038D01*
X130690476Y-65005038D02*
X130738095Y-65052657D01*
X130738095Y-65052657D02*
X130785714Y-65147895D01*
X130785714Y-65147895D02*
X130785714Y-65243133D01*
X130785714Y-65243133D02*
X130738095Y-65385990D01*
X130738095Y-65385990D02*
X130166667Y-65957419D01*
X130166667Y-65957419D02*
X130785714Y-65957419D01*
X124003884Y-67091466D02*
X124765789Y-67091466D01*
X124384836Y-67472419D02*
X124384836Y-66710514D01*
D11*
X132454819Y-61761904D02*
X131454819Y-61761904D01*
X131454819Y-61761904D02*
X132169104Y-61428571D01*
X132169104Y-61428571D02*
X131454819Y-61095238D01*
X131454819Y-61095238D02*
X132454819Y-61095238D01*
X132454819Y-60619047D02*
X131454819Y-60619047D01*
X131454819Y-60619047D02*
X131454819Y-60238095D01*
X131454819Y-60238095D02*
X131502438Y-60142857D01*
X131502438Y-60142857D02*
X131550057Y-60095238D01*
X131550057Y-60095238D02*
X131645295Y-60047619D01*
X131645295Y-60047619D02*
X131788152Y-60047619D01*
X131788152Y-60047619D02*
X131883390Y-60095238D01*
X131883390Y-60095238D02*
X131931009Y-60142857D01*
X131931009Y-60142857D02*
X131978628Y-60238095D01*
X131978628Y-60238095D02*
X131978628Y-60619047D01*
X131454819Y-59619047D02*
X132264342Y-59619047D01*
X132264342Y-59619047D02*
X132359580Y-59571428D01*
X132359580Y-59571428D02*
X132407200Y-59523809D01*
X132407200Y-59523809D02*
X132454819Y-59428571D01*
X132454819Y-59428571D02*
X132454819Y-59238095D01*
X132454819Y-59238095D02*
X132407200Y-59142857D01*
X132407200Y-59142857D02*
X132359580Y-59095238D01*
X132359580Y-59095238D02*
X132264342Y-59047619D01*
X132264342Y-59047619D02*
X131454819Y-59047619D01*
X131454819Y-58142857D02*
X131454819Y-58333333D01*
X131454819Y-58333333D02*
X131502438Y-58428571D01*
X131502438Y-58428571D02*
X131550057Y-58476190D01*
X131550057Y-58476190D02*
X131692914Y-58571428D01*
X131692914Y-58571428D02*
X131883390Y-58619047D01*
X131883390Y-58619047D02*
X132264342Y-58619047D01*
X132264342Y-58619047D02*
X132359580Y-58571428D01*
X132359580Y-58571428D02*
X132407200Y-58523809D01*
X132407200Y-58523809D02*
X132454819Y-58428571D01*
X132454819Y-58428571D02*
X132454819Y-58238095D01*
X132454819Y-58238095D02*
X132407200Y-58142857D01*
X132407200Y-58142857D02*
X132359580Y-58095238D01*
X132359580Y-58095238D02*
X132264342Y-58047619D01*
X132264342Y-58047619D02*
X132026247Y-58047619D01*
X132026247Y-58047619D02*
X131931009Y-58095238D01*
X131931009Y-58095238D02*
X131883390Y-58142857D01*
X131883390Y-58142857D02*
X131835771Y-58238095D01*
X131835771Y-58238095D02*
X131835771Y-58428571D01*
X131835771Y-58428571D02*
X131883390Y-58523809D01*
X131883390Y-58523809D02*
X131931009Y-58571428D01*
X131931009Y-58571428D02*
X132026247Y-58619047D01*
X131454819Y-57428571D02*
X131454819Y-57333333D01*
X131454819Y-57333333D02*
X131502438Y-57238095D01*
X131502438Y-57238095D02*
X131550057Y-57190476D01*
X131550057Y-57190476D02*
X131645295Y-57142857D01*
X131645295Y-57142857D02*
X131835771Y-57095238D01*
X131835771Y-57095238D02*
X132073866Y-57095238D01*
X132073866Y-57095238D02*
X132264342Y-57142857D01*
X132264342Y-57142857D02*
X132359580Y-57190476D01*
X132359580Y-57190476D02*
X132407200Y-57238095D01*
X132407200Y-57238095D02*
X132454819Y-57333333D01*
X132454819Y-57333333D02*
X132454819Y-57428571D01*
X132454819Y-57428571D02*
X132407200Y-57523809D01*
X132407200Y-57523809D02*
X132359580Y-57571428D01*
X132359580Y-57571428D02*
X132264342Y-57619047D01*
X132264342Y-57619047D02*
X132073866Y-57666666D01*
X132073866Y-57666666D02*
X131835771Y-57666666D01*
X131835771Y-57666666D02*
X131645295Y-57619047D01*
X131645295Y-57619047D02*
X131550057Y-57571428D01*
X131550057Y-57571428D02*
X131502438Y-57523809D01*
X131502438Y-57523809D02*
X131454819Y-57428571D01*
X131454819Y-56190476D02*
X131454819Y-56666666D01*
X131454819Y-56666666D02*
X131931009Y-56714285D01*
X131931009Y-56714285D02*
X131883390Y-56666666D01*
X131883390Y-56666666D02*
X131835771Y-56571428D01*
X131835771Y-56571428D02*
X131835771Y-56333333D01*
X131835771Y-56333333D02*
X131883390Y-56238095D01*
X131883390Y-56238095D02*
X131931009Y-56190476D01*
X131931009Y-56190476D02*
X132026247Y-56142857D01*
X132026247Y-56142857D02*
X132264342Y-56142857D01*
X132264342Y-56142857D02*
X132359580Y-56190476D01*
X132359580Y-56190476D02*
X132407200Y-56238095D01*
X132407200Y-56238095D02*
X132454819Y-56333333D01*
X132454819Y-56333333D02*
X132454819Y-56571428D01*
X132454819Y-56571428D02*
X132407200Y-56666666D01*
X132407200Y-56666666D02*
X132359580Y-56714285D01*
X131454819Y-55523809D02*
X131454819Y-55428571D01*
X131454819Y-55428571D02*
X131502438Y-55333333D01*
X131502438Y-55333333D02*
X131550057Y-55285714D01*
X131550057Y-55285714D02*
X131645295Y-55238095D01*
X131645295Y-55238095D02*
X131835771Y-55190476D01*
X131835771Y-55190476D02*
X132073866Y-55190476D01*
X132073866Y-55190476D02*
X132264342Y-55238095D01*
X132264342Y-55238095D02*
X132359580Y-55285714D01*
X132359580Y-55285714D02*
X132407200Y-55333333D01*
X132407200Y-55333333D02*
X132454819Y-55428571D01*
X132454819Y-55428571D02*
X132454819Y-55523809D01*
X132454819Y-55523809D02*
X132407200Y-55619047D01*
X132407200Y-55619047D02*
X132359580Y-55666666D01*
X132359580Y-55666666D02*
X132264342Y-55714285D01*
X132264342Y-55714285D02*
X132073866Y-55761904D01*
X132073866Y-55761904D02*
X131835771Y-55761904D01*
X131835771Y-55761904D02*
X131645295Y-55714285D01*
X131645295Y-55714285D02*
X131550057Y-55666666D01*
X131550057Y-55666666D02*
X131502438Y-55619047D01*
X131502438Y-55619047D02*
X131454819Y-55523809D01*
X140833333Y-91359580D02*
X140785714Y-91407200D01*
X140785714Y-91407200D02*
X140642857Y-91454819D01*
X140642857Y-91454819D02*
X140547619Y-91454819D01*
X140547619Y-91454819D02*
X140404762Y-91407200D01*
X140404762Y-91407200D02*
X140309524Y-91311961D01*
X140309524Y-91311961D02*
X140261905Y-91216723D01*
X140261905Y-91216723D02*
X140214286Y-91026247D01*
X140214286Y-91026247D02*
X140214286Y-90883390D01*
X140214286Y-90883390D02*
X140261905Y-90692914D01*
X140261905Y-90692914D02*
X140309524Y-90597676D01*
X140309524Y-90597676D02*
X140404762Y-90502438D01*
X140404762Y-90502438D02*
X140547619Y-90454819D01*
X140547619Y-90454819D02*
X140642857Y-90454819D01*
X140642857Y-90454819D02*
X140785714Y-90502438D01*
X140785714Y-90502438D02*
X140833333Y-90550057D01*
X141785714Y-91454819D02*
X141214286Y-91454819D01*
X141500000Y-91454819D02*
X141500000Y-90454819D01*
X141500000Y-90454819D02*
X141404762Y-90597676D01*
X141404762Y-90597676D02*
X141309524Y-90692914D01*
X141309524Y-90692914D02*
X141214286Y-90740533D01*
D12*
X129261905Y-57457419D02*
X129261905Y-56457419D01*
X129261905Y-56457419D02*
X129500000Y-56457419D01*
X129500000Y-56457419D02*
X129642857Y-56505038D01*
X129642857Y-56505038D02*
X129738095Y-56600276D01*
X129738095Y-56600276D02*
X129785714Y-56695514D01*
X129785714Y-56695514D02*
X129833333Y-56885990D01*
X129833333Y-56885990D02*
X129833333Y-57028847D01*
X129833333Y-57028847D02*
X129785714Y-57219323D01*
X129785714Y-57219323D02*
X129738095Y-57314561D01*
X129738095Y-57314561D02*
X129642857Y-57409800D01*
X129642857Y-57409800D02*
X129500000Y-57457419D01*
X129500000Y-57457419D02*
X129261905Y-57457419D01*
X130785714Y-57457419D02*
X130214286Y-57457419D01*
X130500000Y-57457419D02*
X130500000Y-56457419D01*
X130500000Y-56457419D02*
X130404762Y-56600276D01*
X130404762Y-56600276D02*
X130309524Y-56695514D01*
X130309524Y-56695514D02*
X130214286Y-56743133D01*
X124003884Y-58591466D02*
X124765789Y-58591466D01*
X124384836Y-58972419D02*
X124384836Y-58210514D01*
D13*
%TO.C,R2*%
X123644100Y-60768836D02*
X123644100Y-62222964D01*
X125464100Y-60768836D02*
X125464100Y-62222964D01*
%TO.C,R1*%
X123550000Y-52511336D02*
X123550000Y-53965464D01*
X125370000Y-52511336D02*
X125370000Y-53965464D01*
%TO.C,C2*%
X160510000Y-87102000D02*
X160510000Y-86298000D01*
X160550000Y-87333000D02*
X160550000Y-86067000D01*
X160590000Y-87501000D02*
X160590000Y-85899000D01*
X160630000Y-87639000D02*
X160630000Y-85761000D01*
X160670000Y-87758000D02*
X160670000Y-85642000D01*
X160710000Y-87865000D02*
X160710000Y-85535000D01*
X160750000Y-87961000D02*
X160750000Y-85439000D01*
X160790000Y-88050000D02*
X160790000Y-85350000D01*
X160830000Y-88132000D02*
X160830000Y-85268000D01*
X160870000Y-88209000D02*
X160870000Y-85191000D01*
X160910000Y-88281000D02*
X160910000Y-85119000D01*
X160950000Y-88349000D02*
X160950000Y-85051000D01*
X160990000Y-88414000D02*
X160990000Y-84986000D01*
X161030000Y-88475000D02*
X161030000Y-84925000D01*
X161070000Y-88534000D02*
X161070000Y-84866000D01*
X161110000Y-88590000D02*
X161110000Y-84810000D01*
X161150000Y-88643000D02*
X161150000Y-84757000D01*
X161190000Y-88695000D02*
X161190000Y-84705000D01*
X161230000Y-88744000D02*
X161230000Y-84656000D01*
X161270000Y-88791000D02*
X161270000Y-84609000D01*
X161310000Y-88837000D02*
X161310000Y-84563000D01*
X161350000Y-88881000D02*
X161350000Y-84519000D01*
X161390000Y-88923000D02*
X161390000Y-84477000D01*
X161430000Y-88964000D02*
X161430000Y-84436000D01*
X161470000Y-85660000D02*
X161470000Y-84396000D01*
X161470000Y-89004000D02*
X161470000Y-87740000D01*
X161510000Y-85660000D02*
X161510000Y-84358000D01*
X161510000Y-89042000D02*
X161510000Y-87740000D01*
X161550000Y-85660000D02*
X161550000Y-84321000D01*
X161550000Y-89079000D02*
X161550000Y-87740000D01*
X161590000Y-85660000D02*
X161590000Y-84285000D01*
X161590000Y-89115000D02*
X161590000Y-87740000D01*
X161630000Y-85660000D02*
X161630000Y-84250000D01*
X161630000Y-89150000D02*
X161630000Y-87740000D01*
X161670000Y-85660000D02*
X161670000Y-84217000D01*
X161670000Y-89183000D02*
X161670000Y-87740000D01*
X161710000Y-85660000D02*
X161710000Y-84184000D01*
X161710000Y-89216000D02*
X161710000Y-87740000D01*
X161750000Y-85660000D02*
X161750000Y-84153000D01*
X161750000Y-89247000D02*
X161750000Y-87740000D01*
X161790000Y-85660000D02*
X161790000Y-84123000D01*
X161790000Y-89277000D02*
X161790000Y-87740000D01*
X161830000Y-85660000D02*
X161830000Y-84093000D01*
X161830000Y-89307000D02*
X161830000Y-87740000D01*
X161870000Y-85660000D02*
X161870000Y-84064000D01*
X161870000Y-89336000D02*
X161870000Y-87740000D01*
X161910000Y-85660000D02*
X161910000Y-84037000D01*
X161910000Y-89363000D02*
X161910000Y-87740000D01*
X161950000Y-85660000D02*
X161950000Y-84010000D01*
X161950000Y-89390000D02*
X161950000Y-87740000D01*
X161990000Y-85660000D02*
X161990000Y-83984000D01*
X161990000Y-89416000D02*
X161990000Y-87740000D01*
X162030000Y-85660000D02*
X162030000Y-83959000D01*
X162030000Y-89441000D02*
X162030000Y-87740000D01*
X162070000Y-85660000D02*
X162070000Y-83935000D01*
X162070000Y-89465000D02*
X162070000Y-87740000D01*
X162110000Y-85660000D02*
X162110000Y-83911000D01*
X162110000Y-89489000D02*
X162110000Y-87740000D01*
X162150000Y-85660000D02*
X162150000Y-83888000D01*
X162150000Y-89512000D02*
X162150000Y-87740000D01*
X162190000Y-85660000D02*
X162190000Y-83866000D01*
X162190000Y-89534000D02*
X162190000Y-87740000D01*
X162230000Y-85660000D02*
X162230000Y-83845000D01*
X162230000Y-89555000D02*
X162230000Y-87740000D01*
X162270000Y-85660000D02*
X162270000Y-83824000D01*
X162270000Y-89576000D02*
X162270000Y-87740000D01*
X162310000Y-85660000D02*
X162310000Y-83804000D01*
X162310000Y-89596000D02*
X162310000Y-87740000D01*
X162350000Y-85660000D02*
X162350000Y-83785000D01*
X162350000Y-89615000D02*
X162350000Y-87740000D01*
X162390000Y-85660000D02*
X162390000Y-83766000D01*
X162390000Y-89634000D02*
X162390000Y-87740000D01*
X162430000Y-85660000D02*
X162430000Y-83748000D01*
X162430000Y-89652000D02*
X162430000Y-87740000D01*
X162470000Y-85660000D02*
X162470000Y-83731000D01*
X162470000Y-89669000D02*
X162470000Y-87740000D01*
X162510000Y-85660000D02*
X162510000Y-83714000D01*
X162510000Y-89686000D02*
X162510000Y-87740000D01*
X162550000Y-85660000D02*
X162550000Y-83698000D01*
X162550000Y-89702000D02*
X162550000Y-87740000D01*
X162590000Y-85660000D02*
X162590000Y-83683000D01*
X162590000Y-89717000D02*
X162590000Y-87740000D01*
X162630000Y-85660000D02*
X162630000Y-83668000D01*
X162630000Y-89732000D02*
X162630000Y-87740000D01*
X162670000Y-85660000D02*
X162670000Y-83653000D01*
X162670000Y-89747000D02*
X162670000Y-87740000D01*
X162710000Y-85660000D02*
X162710000Y-83640000D01*
X162710000Y-89760000D02*
X162710000Y-87740000D01*
X162750000Y-85660000D02*
X162750000Y-83627000D01*
X162750000Y-89773000D02*
X162750000Y-87740000D01*
X162790000Y-85660000D02*
X162790000Y-83614000D01*
X162790000Y-89786000D02*
X162790000Y-87740000D01*
X162830000Y-85660000D02*
X162830000Y-83602000D01*
X162830000Y-89798000D02*
X162830000Y-87740000D01*
X162870000Y-85660000D02*
X162870000Y-83591000D01*
X162870000Y-89809000D02*
X162870000Y-87740000D01*
X162910000Y-85660000D02*
X162910000Y-83580000D01*
X162910000Y-89820000D02*
X162910000Y-87740000D01*
X162950000Y-85660000D02*
X162950000Y-83569000D01*
X162950000Y-89831000D02*
X162950000Y-87740000D01*
X162990000Y-85660000D02*
X162990000Y-83560000D01*
X162990000Y-89840000D02*
X162990000Y-87740000D01*
X163030000Y-85660000D02*
X163030000Y-83550000D01*
X163030000Y-89850000D02*
X163030000Y-87740000D01*
X163070000Y-85660000D02*
X163070000Y-83541000D01*
X163070000Y-89859000D02*
X163070000Y-87740000D01*
X163110000Y-85660000D02*
X163110000Y-83533000D01*
X163110000Y-89867000D02*
X163110000Y-87740000D01*
X163150000Y-85660000D02*
X163150000Y-83526000D01*
X163150000Y-89874000D02*
X163150000Y-87740000D01*
X163190000Y-85660000D02*
X163190000Y-83518000D01*
X163190000Y-89882000D02*
X163190000Y-87740000D01*
X163230000Y-85660000D02*
X163230000Y-83512000D01*
X163230000Y-89888000D02*
X163230000Y-87740000D01*
X163270000Y-85660000D02*
X163270000Y-83505000D01*
X163270000Y-89895000D02*
X163270000Y-87740000D01*
X163310000Y-85660000D02*
X163310000Y-83500000D01*
X163310000Y-89900000D02*
X163310000Y-87740000D01*
X163350000Y-85660000D02*
X163350000Y-83495000D01*
X163350000Y-89905000D02*
X163350000Y-87740000D01*
X163390000Y-85660000D02*
X163390000Y-83490000D01*
X163390000Y-89910000D02*
X163390000Y-87740000D01*
X163430000Y-85660000D02*
X163430000Y-83486000D01*
X163430000Y-89914000D02*
X163430000Y-87740000D01*
X163470000Y-85660000D02*
X163470000Y-83482000D01*
X163470000Y-89918000D02*
X163470000Y-87740000D01*
X163510000Y-85660000D02*
X163510000Y-83479000D01*
X163510000Y-89921000D02*
X163510000Y-87740000D01*
X163550000Y-89924000D02*
X163550000Y-83476000D01*
X163590000Y-89926000D02*
X163590000Y-83474000D01*
X163630000Y-89928000D02*
X163630000Y-83472000D01*
X163670000Y-89929000D02*
X163670000Y-83471000D01*
X163710000Y-89930000D02*
X163710000Y-83470000D01*
X163750000Y-89930000D02*
X163750000Y-83470000D01*
X166935241Y-88854000D02*
X166935241Y-88224000D01*
X167250241Y-88539000D02*
X166620241Y-88539000D01*
X167020000Y-86700000D02*
G75*
G02*
X160480000Y-86700000I-3270000J0D01*
G01*
X160480000Y-86700000D02*
G75*
G02*
X167020000Y-86700000I3270000J0D01*
G01*
%TO.C,M2*%
X123690000Y-83990000D02*
X124910000Y-83990000D01*
X123690000Y-91190000D02*
X124910000Y-91190000D01*
X123690000Y-92410000D02*
X123690000Y-83990000D01*
X124910000Y-83990000D02*
X124910000Y-86190000D01*
X124910000Y-86190000D02*
X123690000Y-86190000D01*
X124910000Y-91190000D02*
X124910000Y-86190000D01*
X125980000Y-87190000D02*
X126300000Y-87190000D01*
X125980000Y-90610000D02*
X125980000Y-87190000D01*
X126300000Y-87190000D02*
X126620000Y-87190000D01*
X126300000Y-90690000D02*
X125980000Y-90610000D01*
X126620000Y-87190000D02*
X126620000Y-90610000D01*
X126620000Y-90610000D02*
X126300000Y-90690000D01*
X127630000Y-86190000D02*
X127470000Y-86190000D01*
X128480000Y-87190000D02*
X128800000Y-87190000D01*
X128480000Y-90610000D02*
X128480000Y-87190000D01*
X128800000Y-87190000D02*
X129120000Y-87190000D01*
X128800000Y-90690000D02*
X128480000Y-90610000D01*
X129120000Y-87190000D02*
X129120000Y-90610000D01*
X129120000Y-90610000D02*
X128800000Y-90690000D01*
X130130000Y-86190000D02*
X129970000Y-86190000D01*
X130980000Y-87190000D02*
X131300000Y-87190000D01*
X130980000Y-90610000D02*
X130980000Y-87190000D01*
X131300000Y-87190000D02*
X131620000Y-87190000D01*
X131300000Y-90690000D02*
X130980000Y-90610000D01*
X131620000Y-87190000D02*
X131620000Y-90610000D01*
X131620000Y-90610000D02*
X131300000Y-90690000D01*
X132630000Y-86190000D02*
X132470000Y-86190000D01*
X133480000Y-87190000D02*
X133800000Y-87190000D01*
X133480000Y-90610000D02*
X133480000Y-87190000D01*
X133500000Y-83500000D02*
X133800000Y-84100000D01*
X133800000Y-84100000D02*
X134100000Y-83500000D01*
X133800000Y-87190000D02*
X134120000Y-87190000D01*
X133800000Y-90690000D02*
X133480000Y-90610000D01*
X134100000Y-83500000D02*
X133500000Y-83500000D01*
X134120000Y-87190000D02*
X134120000Y-90610000D01*
X134120000Y-90610000D02*
X133800000Y-90690000D01*
X135190000Y-83990000D02*
X136410000Y-83990000D01*
X135190000Y-86190000D02*
X135190000Y-83990000D01*
X135190000Y-86190000D02*
X136410000Y-86190000D01*
X135190000Y-87190000D02*
X124910000Y-87190000D01*
X135190000Y-91190000D02*
X135190000Y-86190000D01*
X136410000Y-83990000D02*
X136410000Y-92410000D01*
X136410000Y-91190000D02*
X135190000Y-91190000D01*
X136410000Y-92410000D02*
X123690000Y-92410000D01*
%TO.C,U2*%
X122667500Y-46782500D02*
X122667500Y-49232500D01*
X122667500Y-49232500D02*
X124997500Y-49232500D01*
X122997500Y-41052500D02*
X134937500Y-41052500D01*
X122997500Y-48902500D02*
X122997500Y-41052500D01*
X134937500Y-41052500D02*
X134937500Y-48902500D01*
X134937500Y-48902500D02*
X122997500Y-48902500D01*
%TO.C,M1*%
X146740000Y-83990000D02*
X147960000Y-83990000D01*
X146740000Y-91190000D02*
X147960000Y-91190000D01*
X146740000Y-92410000D02*
X146740000Y-83990000D01*
X147960000Y-83990000D02*
X147960000Y-86190000D01*
X147960000Y-86190000D02*
X146740000Y-86190000D01*
X147960000Y-91190000D02*
X147960000Y-86190000D01*
X149030000Y-87190000D02*
X149350000Y-87190000D01*
X149030000Y-90610000D02*
X149030000Y-87190000D01*
X149350000Y-87190000D02*
X149670000Y-87190000D01*
X149350000Y-90690000D02*
X149030000Y-90610000D01*
X149670000Y-87190000D02*
X149670000Y-90610000D01*
X149670000Y-90610000D02*
X149350000Y-90690000D01*
X150680000Y-86190000D02*
X150520000Y-86190000D01*
X151530000Y-87190000D02*
X151850000Y-87190000D01*
X151530000Y-90610000D02*
X151530000Y-87190000D01*
X151850000Y-87190000D02*
X152170000Y-87190000D01*
X151850000Y-90690000D02*
X151530000Y-90610000D01*
X152170000Y-87190000D02*
X152170000Y-90610000D01*
X152170000Y-90610000D02*
X151850000Y-90690000D01*
X153180000Y-86190000D02*
X153020000Y-86190000D01*
X154030000Y-87190000D02*
X154350000Y-87190000D01*
X154030000Y-90610000D02*
X154030000Y-87190000D01*
X154350000Y-87190000D02*
X154670000Y-87190000D01*
X154350000Y-90690000D02*
X154030000Y-90610000D01*
X154670000Y-87190000D02*
X154670000Y-90610000D01*
X154670000Y-90610000D02*
X154350000Y-90690000D01*
X155680000Y-86190000D02*
X155520000Y-86190000D01*
X156530000Y-87190000D02*
X156850000Y-87190000D01*
X156530000Y-90610000D02*
X156530000Y-87190000D01*
X156550000Y-83500000D02*
X156850000Y-84100000D01*
X156850000Y-84100000D02*
X157150000Y-83500000D01*
X156850000Y-87190000D02*
X157170000Y-87190000D01*
X156850000Y-90690000D02*
X156530000Y-90610000D01*
X157150000Y-83500000D02*
X156550000Y-83500000D01*
X157170000Y-87190000D02*
X157170000Y-90610000D01*
X157170000Y-90610000D02*
X156850000Y-90690000D01*
X158240000Y-83990000D02*
X159460000Y-83990000D01*
X158240000Y-86190000D02*
X158240000Y-83990000D01*
X158240000Y-86190000D02*
X159460000Y-86190000D01*
X158240000Y-87190000D02*
X147960000Y-87190000D01*
X158240000Y-91190000D02*
X158240000Y-86190000D01*
X159460000Y-83990000D02*
X159460000Y-92410000D01*
X159460000Y-91190000D02*
X158240000Y-91190000D01*
X159460000Y-92410000D02*
X146740000Y-92410000D01*
%TO.C,J1*%
X136880000Y-41080000D02*
X144200000Y-41080000D01*
X136880000Y-49120000D02*
X136880000Y-41080000D01*
X137688000Y-44500000D02*
X136880000Y-44500000D01*
X137688000Y-45500000D02*
X136880000Y-45500000D01*
X138957000Y-43200000D02*
X136880000Y-43200000D01*
X142620000Y-43200000D02*
X140043000Y-43200000D01*
X142620000Y-44500000D02*
X141312000Y-44500000D01*
X142620000Y-45500000D02*
X141312000Y-45500000D01*
X144800000Y-41080000D02*
X147620000Y-41080000D01*
X147620000Y-41080000D02*
X147620000Y-49120000D01*
X147620000Y-43200000D02*
X146380000Y-43200000D01*
X147620000Y-44500000D02*
X146380000Y-44500000D01*
X147620000Y-45500000D02*
X146380000Y-45500000D01*
X147620000Y-49120000D02*
X136880000Y-49120000D01*
X144500000Y-41080000D02*
X144060000Y-40470000D01*
X144940000Y-40470000D01*
X144500000Y-41080000D01*
G36*
X144500000Y-41080000D02*
G01*
X144060000Y-40470000D01*
X144940000Y-40470000D01*
X144500000Y-41080000D01*
G37*
%TO.C,A2*%
X123400000Y-67600000D02*
X123400000Y-80430000D01*
X123400000Y-70270000D02*
X143980000Y-70270000D01*
X123400000Y-80430000D02*
X126070000Y-80430000D01*
X123400000Y-81700000D02*
X123400000Y-83100000D01*
X123400000Y-83100000D02*
X124800000Y-83100000D01*
X126070000Y-80430000D02*
X126070000Y-83100000D01*
X126070000Y-80430000D02*
X143980000Y-80430000D01*
X126070000Y-83100000D02*
X143980000Y-83100000D01*
X143980000Y-67600000D02*
X123400000Y-67600000D01*
X143980000Y-83100000D02*
X143980000Y-67600000D01*
%TO.C,A1*%
X146460000Y-67600000D02*
X146460000Y-80430000D01*
X146460000Y-70270000D02*
X167040000Y-70270000D01*
X146460000Y-80430000D02*
X149130000Y-80430000D01*
X146460000Y-81700000D02*
X146460000Y-83100000D01*
X146460000Y-83100000D02*
X147860000Y-83100000D01*
X149130000Y-80430000D02*
X149130000Y-83100000D01*
X149130000Y-80430000D02*
X167040000Y-80430000D01*
X149130000Y-83100000D02*
X167040000Y-83100000D01*
X167040000Y-67600000D02*
X146460000Y-67600000D01*
X167040000Y-83100000D02*
X167040000Y-67600000D01*
D14*
%TO.C,ESP32*%
X94020000Y-41740000D02*
X105089000Y-41740000D01*
X94020000Y-41740000D02*
X122530000Y-41740000D01*
X94020000Y-92690000D02*
X94020000Y-41740000D01*
X94020000Y-92690000D02*
X94020000Y-41740000D01*
X94020000Y-92690000D02*
X99390000Y-92690000D01*
X99390000Y-92690000D02*
X117080000Y-92690000D01*
X105089000Y-41740000D02*
X111800000Y-41740000D01*
X111800000Y-41740000D02*
X122530000Y-41740000D01*
X117080000Y-92690000D02*
X122530000Y-92690000D01*
X122530000Y-41740000D02*
X122530000Y-92690000D01*
X122530000Y-41740000D02*
X122530000Y-92690000D01*
X122530000Y-92690000D02*
X94020000Y-92690000D01*
D15*
X93550000Y-51700000D02*
G75*
G02*
X93350000Y-51700000I-100000J0D01*
G01*
X93350000Y-51700000D02*
G75*
G02*
X93550000Y-51700000I100000J0D01*
G01*
D12*
%TO.C,D2*%
X123400000Y-64500000D02*
X123400000Y-66500000D01*
X123400000Y-64500000D02*
X128000000Y-64500000D01*
X123400000Y-66500000D02*
X128000000Y-66500000D01*
D14*
%TO.C,MPU6050*%
X133040000Y-51170000D02*
X153340000Y-51170000D01*
X133040000Y-66870000D02*
X133040000Y-53962500D01*
X153340000Y-53962500D02*
X153340000Y-66870000D01*
X153340000Y-66870000D02*
X133040000Y-66870000D01*
D13*
%TO.C,C1*%
X137460000Y-87102000D02*
X137460000Y-86298000D01*
X137500000Y-87333000D02*
X137500000Y-86067000D01*
X137540000Y-87501000D02*
X137540000Y-85899000D01*
X137580000Y-87639000D02*
X137580000Y-85761000D01*
X137620000Y-87758000D02*
X137620000Y-85642000D01*
X137660000Y-87865000D02*
X137660000Y-85535000D01*
X137700000Y-87961000D02*
X137700000Y-85439000D01*
X137740000Y-88050000D02*
X137740000Y-85350000D01*
X137780000Y-88132000D02*
X137780000Y-85268000D01*
X137820000Y-88209000D02*
X137820000Y-85191000D01*
X137860000Y-88281000D02*
X137860000Y-85119000D01*
X137900000Y-88349000D02*
X137900000Y-85051000D01*
X137940000Y-88414000D02*
X137940000Y-84986000D01*
X137980000Y-88475000D02*
X137980000Y-84925000D01*
X138020000Y-88534000D02*
X138020000Y-84866000D01*
X138060000Y-88590000D02*
X138060000Y-84810000D01*
X138100000Y-88643000D02*
X138100000Y-84757000D01*
X138140000Y-88695000D02*
X138140000Y-84705000D01*
X138180000Y-88744000D02*
X138180000Y-84656000D01*
X138220000Y-88791000D02*
X138220000Y-84609000D01*
X138260000Y-88837000D02*
X138260000Y-84563000D01*
X138300000Y-88881000D02*
X138300000Y-84519000D01*
X138340000Y-88923000D02*
X138340000Y-84477000D01*
X138380000Y-88964000D02*
X138380000Y-84436000D01*
X138420000Y-85660000D02*
X138420000Y-84396000D01*
X138420000Y-89004000D02*
X138420000Y-87740000D01*
X138460000Y-85660000D02*
X138460000Y-84358000D01*
X138460000Y-89042000D02*
X138460000Y-87740000D01*
X138500000Y-85660000D02*
X138500000Y-84321000D01*
X138500000Y-89079000D02*
X138500000Y-87740000D01*
X138540000Y-85660000D02*
X138540000Y-84285000D01*
X138540000Y-89115000D02*
X138540000Y-87740000D01*
X138580000Y-85660000D02*
X138580000Y-84250000D01*
X138580000Y-89150000D02*
X138580000Y-87740000D01*
X138620000Y-85660000D02*
X138620000Y-84217000D01*
X138620000Y-89183000D02*
X138620000Y-87740000D01*
X138660000Y-85660000D02*
X138660000Y-84184000D01*
X138660000Y-89216000D02*
X138660000Y-87740000D01*
X138700000Y-85660000D02*
X138700000Y-84153000D01*
X138700000Y-89247000D02*
X138700000Y-87740000D01*
X138740000Y-85660000D02*
X138740000Y-84123000D01*
X138740000Y-89277000D02*
X138740000Y-87740000D01*
X138780000Y-85660000D02*
X138780000Y-84093000D01*
X138780000Y-89307000D02*
X138780000Y-87740000D01*
X138820000Y-85660000D02*
X138820000Y-84064000D01*
X138820000Y-89336000D02*
X138820000Y-87740000D01*
X138860000Y-85660000D02*
X138860000Y-84037000D01*
X138860000Y-89363000D02*
X138860000Y-87740000D01*
X138900000Y-85660000D02*
X138900000Y-84010000D01*
X138900000Y-89390000D02*
X138900000Y-87740000D01*
X138940000Y-85660000D02*
X138940000Y-83984000D01*
X138940000Y-89416000D02*
X138940000Y-87740000D01*
X138980000Y-85660000D02*
X138980000Y-83959000D01*
X138980000Y-89441000D02*
X138980000Y-87740000D01*
X139020000Y-85660000D02*
X139020000Y-83935000D01*
X139020000Y-89465000D02*
X139020000Y-87740000D01*
X139060000Y-85660000D02*
X139060000Y-83911000D01*
X139060000Y-89489000D02*
X139060000Y-87740000D01*
X139100000Y-85660000D02*
X139100000Y-83888000D01*
X139100000Y-89512000D02*
X139100000Y-87740000D01*
X139140000Y-85660000D02*
X139140000Y-83866000D01*
X139140000Y-89534000D02*
X139140000Y-87740000D01*
X139180000Y-85660000D02*
X139180000Y-83845000D01*
X139180000Y-89555000D02*
X139180000Y-87740000D01*
X139220000Y-85660000D02*
X139220000Y-83824000D01*
X139220000Y-89576000D02*
X139220000Y-87740000D01*
X139260000Y-85660000D02*
X139260000Y-83804000D01*
X139260000Y-89596000D02*
X139260000Y-87740000D01*
X139300000Y-85660000D02*
X139300000Y-83785000D01*
X139300000Y-89615000D02*
X139300000Y-87740000D01*
X139340000Y-85660000D02*
X139340000Y-83766000D01*
X139340000Y-89634000D02*
X139340000Y-87740000D01*
X139380000Y-85660000D02*
X139380000Y-83748000D01*
X139380000Y-89652000D02*
X139380000Y-87740000D01*
X139420000Y-85660000D02*
X139420000Y-83731000D01*
X139420000Y-89669000D02*
X139420000Y-87740000D01*
X139460000Y-85660000D02*
X139460000Y-83714000D01*
X139460000Y-89686000D02*
X139460000Y-87740000D01*
X139500000Y-85660000D02*
X139500000Y-83698000D01*
X139500000Y-89702000D02*
X139500000Y-87740000D01*
X139540000Y-85660000D02*
X139540000Y-83683000D01*
X139540000Y-89717000D02*
X139540000Y-87740000D01*
X139580000Y-85660000D02*
X139580000Y-83668000D01*
X139580000Y-89732000D02*
X139580000Y-87740000D01*
X139620000Y-85660000D02*
X139620000Y-83653000D01*
X139620000Y-89747000D02*
X139620000Y-87740000D01*
X139660000Y-85660000D02*
X139660000Y-83640000D01*
X139660000Y-89760000D02*
X139660000Y-87740000D01*
X139700000Y-85660000D02*
X139700000Y-83627000D01*
X139700000Y-89773000D02*
X139700000Y-87740000D01*
X139740000Y-85660000D02*
X139740000Y-83614000D01*
X139740000Y-89786000D02*
X139740000Y-87740000D01*
X139780000Y-85660000D02*
X139780000Y-83602000D01*
X139780000Y-89798000D02*
X139780000Y-87740000D01*
X139820000Y-85660000D02*
X139820000Y-83591000D01*
X139820000Y-89809000D02*
X139820000Y-87740000D01*
X139860000Y-85660000D02*
X139860000Y-83580000D01*
X139860000Y-89820000D02*
X139860000Y-87740000D01*
X139900000Y-85660000D02*
X139900000Y-83569000D01*
X139900000Y-89831000D02*
X139900000Y-87740000D01*
X139940000Y-85660000D02*
X139940000Y-83560000D01*
X139940000Y-89840000D02*
X139940000Y-87740000D01*
X139980000Y-85660000D02*
X139980000Y-83550000D01*
X139980000Y-89850000D02*
X139980000Y-87740000D01*
X140020000Y-85660000D02*
X140020000Y-83541000D01*
X140020000Y-89859000D02*
X140020000Y-87740000D01*
X140060000Y-85660000D02*
X140060000Y-83533000D01*
X140060000Y-89867000D02*
X140060000Y-87740000D01*
X140100000Y-85660000D02*
X140100000Y-83526000D01*
X140100000Y-89874000D02*
X140100000Y-87740000D01*
X140140000Y-85660000D02*
X140140000Y-83518000D01*
X140140000Y-89882000D02*
X140140000Y-87740000D01*
X140180000Y-85660000D02*
X140180000Y-83512000D01*
X140180000Y-89888000D02*
X140180000Y-87740000D01*
X140220000Y-85660000D02*
X140220000Y-83505000D01*
X140220000Y-89895000D02*
X140220000Y-87740000D01*
X140260000Y-85660000D02*
X140260000Y-83500000D01*
X140260000Y-89900000D02*
X140260000Y-87740000D01*
X140300000Y-85660000D02*
X140300000Y-83495000D01*
X140300000Y-89905000D02*
X140300000Y-87740000D01*
X140340000Y-85660000D02*
X140340000Y-83490000D01*
X140340000Y-89910000D02*
X140340000Y-87740000D01*
X140380000Y-85660000D02*
X140380000Y-83486000D01*
X140380000Y-89914000D02*
X140380000Y-87740000D01*
X140420000Y-85660000D02*
X140420000Y-83482000D01*
X140420000Y-89918000D02*
X140420000Y-87740000D01*
X140460000Y-85660000D02*
X140460000Y-83479000D01*
X140460000Y-89921000D02*
X140460000Y-87740000D01*
X140500000Y-89924000D02*
X140500000Y-83476000D01*
X140540000Y-89926000D02*
X140540000Y-83474000D01*
X140580000Y-89928000D02*
X140580000Y-83472000D01*
X140620000Y-89929000D02*
X140620000Y-83471000D01*
X140660000Y-89930000D02*
X140660000Y-83470000D01*
X140700000Y-89930000D02*
X140700000Y-83470000D01*
X143885241Y-88854000D02*
X143885241Y-88224000D01*
X144200241Y-88539000D02*
X143570241Y-88539000D01*
X143970000Y-86700000D02*
G75*
G02*
X137430000Y-86700000I-3270000J0D01*
G01*
X137430000Y-86700000D02*
G75*
G02*
X143970000Y-86700000I3270000J0D01*
G01*
D12*
%TO.C,D1*%
X123400000Y-56000000D02*
X123400000Y-58000000D01*
X123400000Y-56000000D02*
X128000000Y-56000000D01*
X123400000Y-58000000D02*
X128000000Y-58000000D01*
%TD*%
M02*
