M48
; DRILL file {KiCad 9.0.7} date 2026-06-13T12:35:53-0700
; FORMAT={-:-/ absolute / metric / decimal}
; #@! TF.CreationDate,2026-06-13T12:35:53-07:00
; #@! TF.GenerationSoftware,Kicad,Pcbnew,9.0.7
; #@! TF.FileFunction,Plated,1,2,PTH
FMAT,2
METRIC
; #@! TA.AperFunction,Plated,PTH,ViaDrill
T1C0.300
; #@! TA.AperFunction,Plated,PTH,ComponentDrill
T2C0.800
; #@! TA.AperFunction,Plated,PTH,ComponentDrill
T3C0.950
; #@! TA.AperFunction,Plated,PTH,ComponentDrill
T4C1.000
; #@! TA.AperFunction,Plated,PTH,ComponentDrill
T5C1.020
; #@! TA.AperFunction,Plated,PTH,ComponentDrill
T6C1.270
; #@! TA.AperFunction,Plated,PTH,ComponentDrill
T7C1.300
%
G90
G05
T1
X127.482Y-56.947
X127.627Y-65.484
T2
X124.8Y-69.0
X124.8Y-81.7
X127.34Y-69.0
X127.34Y-81.7
X129.88Y-69.0
X129.88Y-81.7
X132.42Y-69.0
X132.42Y-81.7
X134.96Y-69.0
X134.96Y-81.7
X137.5Y-69.0
X137.5Y-81.7
X139.45Y-86.7
X140.04Y-69.0
X140.04Y-81.7
X141.95Y-86.7
X142.58Y-69.0
X142.58Y-81.7
X147.86Y-69.0
X147.86Y-81.7
X150.4Y-69.0
X150.4Y-81.7
X152.94Y-69.0
X152.94Y-81.7
X155.48Y-69.0
X155.48Y-81.7
X158.02Y-69.0
X158.02Y-81.7
X160.56Y-69.0
X160.56Y-81.7
X162.5Y-86.7
X163.1Y-69.0
X163.1Y-81.7
X165.0Y-86.7
X165.64Y-69.0
X165.64Y-81.7
T3
X126.3Y-85.6
X128.8Y-85.6
X131.3Y-85.6
X133.8Y-85.6
X149.35Y-85.6
X151.85Y-85.6
X154.35Y-85.6
X156.85Y-85.6
T4
X126.417Y-46.782
X128.957Y-46.782
X131.498Y-46.782
T5
X95.6Y-51.7
X95.6Y-54.24
X95.6Y-56.78
X95.6Y-59.32
X95.6Y-61.86
X95.6Y-64.4
X95.6Y-66.94
X95.6Y-69.48
X95.6Y-72.02
X95.6Y-74.56
X95.6Y-77.1
X95.6Y-79.64
X95.6Y-82.18
X95.6Y-84.72
X95.6Y-87.26
X121.0Y-51.7
X121.0Y-54.24
X121.0Y-56.78
X121.0Y-59.32
X121.0Y-61.86
X121.0Y-64.4
X121.0Y-66.94
X121.0Y-69.48
X121.0Y-72.02
X121.0Y-74.56
X121.0Y-77.1
X121.0Y-79.64
X121.0Y-82.18
X121.0Y-84.72
X121.0Y-87.26
T6
X134.3Y-52.69
X136.84Y-52.69
X139.38Y-52.69
X141.92Y-52.69
X144.46Y-52.69
X147.0Y-52.69
X149.54Y-52.69
X152.08Y-52.69
T7
X139.5Y-45.0
X144.5Y-45.0
M30
