%TF.GenerationSoftware,KiCad,Pcbnew,9.0.7*%
%TF.CreationDate,2026-06-13T12:35:25-07:00*%
%TF.ProjectId,Self Balancing Robot,53656c66-2042-4616-9c61-6e63696e6720,rev?*%
%TF.SameCoordinates,Original*%
%TF.FileFunction,Soldermask,Bot*%
%TF.FilePolarity,Negative*%
%FSLAX46Y46*%
G04 Gerber Fmt 4.6, Leading zero omitted, Abs format (unit mm)*
G04 Created by KiCad (PCBNEW 9.0.7) date 2026-06-13 12:35:25*
%MOMM*%
%LPD*%
G01*
G04 APERTURE LIST*
G04 Aperture macros list*
%AMRoundRect*
0 Rectangle with rounded corners*
0 $1 Rounding radius*
0 $2 $3 $4 $5 $6 $7 $8 $9 X,Y pos of 4 corners*
0 Add a 4 corners polygon primitive as box body*
4,1,4,$2,$3,$4,$5,$6,$7,$8,$9,$2,$3,0*
0 Add four circle primitives for the rounded corners*
1,1,$1+$1,$2,$3*
1,1,$1+$1,$4,$5*
1,1,$1+$1,$6,$7*
1,1,$1+$1,$8,$9*
0 Add four rect primitives between the rounded corners*
20,1,$1+$1,$2,$3,$4,$5,0*
20,1,$1+$1,$4,$5,$6,$7,0*
20,1,$1+$1,$6,$7,$8,$9,0*
20,1,$1+$1,$8,$9,$2,$3,0*%
G04 Aperture macros list end*
%ADD10C,3.200000*%
%ADD11C,1.600000*%
%ADD12RoundRect,0.250000X0.550000X0.550000X-0.550000X0.550000X-0.550000X-0.550000X0.550000X-0.550000X0*%
%ADD13RoundRect,0.250000X0.600000X0.725000X-0.600000X0.725000X-0.600000X-0.725000X0.600000X-0.725000X0*%
%ADD14O,1.700000X1.950000*%
%ADD15R,1.500000X2.500000*%
%ADD16O,1.500000X2.500000*%
%ADD17RoundRect,0.250001X1.149999X1.149999X-1.149999X1.149999X-1.149999X-1.149999X1.149999X-1.149999X0*%
%ADD18C,2.800000*%
%ADD19R,1.600000X1.600000*%
%ADD20O,1.600000X1.600000*%
%ADD21C,3.000000*%
%ADD22RoundRect,0.102000X-1.000000X-1.000000X1.000000X-1.000000X1.000000X1.000000X-1.000000X1.000000X0*%
%ADD23C,2.204000*%
%ADD24C,2.109000*%
G04 APERTURE END LIST*
D10*
%TO.C,REF\u002A\u002A*%
X90068400Y-89814400D03*
%TD*%
D11*
%TO.C,C2*%
X162500000Y-86700000D03*
D12*
X165000000Y-86700000D03*
%TD*%
D13*
%TO.C,M2*%
X133800000Y-85600000D03*
D14*
X131300000Y-85600000D03*
X128800000Y-85600000D03*
X126300000Y-85600000D03*
%TD*%
D15*
%TO.C,U2*%
X126417500Y-46782500D03*
D16*
X128957500Y-46782500D03*
X131497500Y-46782500D03*
%TD*%
D13*
%TO.C,M1*%
X156850000Y-85600000D03*
D14*
X154350000Y-85600000D03*
X151850000Y-85600000D03*
X149350000Y-85600000D03*
%TD*%
D17*
%TO.C,J1*%
X144500000Y-45000000D03*
D18*
X139500000Y-45000000D03*
%TD*%
D19*
%TO.C,A2*%
X124800000Y-81700000D03*
D20*
X127340000Y-81700000D03*
X129880000Y-81700000D03*
X132420000Y-81700000D03*
X134960000Y-81700000D03*
X137500000Y-81700000D03*
X140040000Y-81700000D03*
X142580000Y-81700000D03*
X142580000Y-69000000D03*
X140040000Y-69000000D03*
X137500000Y-69000000D03*
X134960000Y-69000000D03*
X132420000Y-69000000D03*
X129880000Y-69000000D03*
X127340000Y-69000000D03*
X124800000Y-69000000D03*
%TD*%
D19*
%TO.C,A1*%
X147860000Y-81700000D03*
D20*
X150400000Y-81700000D03*
X152940000Y-81700000D03*
X155480000Y-81700000D03*
X158020000Y-81700000D03*
X160560000Y-81700000D03*
X163100000Y-81700000D03*
X165640000Y-81700000D03*
X165640000Y-69000000D03*
X163100000Y-69000000D03*
X160560000Y-69000000D03*
X158020000Y-69000000D03*
X155480000Y-69000000D03*
X152940000Y-69000000D03*
X150400000Y-69000000D03*
X147860000Y-69000000D03*
%TD*%
D21*
%TO.C,ESP32*%
X96020000Y-43740000D03*
X96020000Y-90690000D03*
X120530000Y-43740000D03*
X120530000Y-90690000D03*
D22*
X95600000Y-51700000D03*
D23*
X95600000Y-54240000D03*
X95600000Y-56780000D03*
X95600000Y-59320000D03*
X95600000Y-61860000D03*
X95600000Y-64400000D03*
X95600000Y-66940000D03*
X95600000Y-69480000D03*
X95600000Y-72020000D03*
X95600000Y-74560000D03*
X95600000Y-77100000D03*
X95600000Y-79640000D03*
X95600000Y-82180000D03*
X95600000Y-84720000D03*
X95600000Y-87260000D03*
X121000000Y-87260000D03*
X121000000Y-84720000D03*
X121000000Y-82180000D03*
X121000000Y-79640000D03*
X121000000Y-77100000D03*
X121000000Y-74560000D03*
X121000000Y-72020000D03*
X121000000Y-69480000D03*
X121000000Y-66940000D03*
X121000000Y-64400000D03*
X121000000Y-61860000D03*
X121000000Y-59320000D03*
X121000000Y-56780000D03*
X121000000Y-54240000D03*
X121000000Y-51700000D03*
%TD*%
D10*
%TO.C,MPU6050*%
X151250000Y-64450000D03*
X135130000Y-64450000D03*
D24*
X152080000Y-52690000D03*
X149540000Y-52690000D03*
X147000000Y-52690000D03*
X144460000Y-52690000D03*
X141920000Y-52690000D03*
X139380000Y-52690000D03*
X136840000Y-52690000D03*
X134300000Y-52690000D03*
%TD*%
D11*
%TO.C,C1*%
X139450000Y-86700000D03*
D12*
X141950000Y-86700000D03*
%TD*%
D10*
%TO.C,REF\u002A\u002A*%
X152500000Y-45000000D03*
%TD*%
%TO.C,REF\u002A\u002A*%
X90119200Y-44805600D03*
%TD*%
M02*
