%TF.GenerationSoftware,KiCad,Pcbnew,9.0.7*%
%TF.CreationDate,2026-06-13T12:35:25-07:00*%
%TF.ProjectId,Self Balancing Robot,53656c66-2042-4616-9c61-6e63696e6720,rev?*%
%TF.SameCoordinates,Original*%
%TF.FileFunction,Copper,L1,Top*%
%TF.FilePolarity,Positive*%
%FSLAX46Y46*%
G04 Gerber Fmt 4.6, Leading zero omitted, Abs format (unit mm)*
G04 Created by KiCad (PCBNEW 9.0.7) date 2026-06-13 12:35:25*
%MOMM*%
%LPD*%
G01*
G04 APERTURE LIST*
G04 Aperture macros list*
%AMRoundRect*
0 Rectangle with rounded corners*
0 $1 Rounding radius*
0 $2 $3 $4 $5 $6 $7 $8 $9 X,Y pos of 4 corners*
0 Add a 4 corners polygon primitive as box body*
4,1,4,$2,$3,$4,$5,$6,$7,$8,$9,$2,$3,0*
0 Add four circle primitives for the rounded corners*
1,1,$1+$1,$2,$3*
1,1,$1+$1,$4,$5*
1,1,$1+$1,$6,$7*
1,1,$1+$1,$8,$9*
0 Add four rect primitives between the rounded corners*
20,1,$1+$1,$2,$3,$4,$5,0*
20,1,$1+$1,$4,$5,$6,$7,0*
20,1,$1+$1,$6,$7,$8,$9,0*
20,1,$1+$1,$8,$9,$2,$3,0*%
G04 Aperture macros list end*
%TA.AperFunction,SMDPad,CuDef*%
%ADD10RoundRect,0.250000X-0.625000X0.400000X-0.625000X-0.400000X0.625000X-0.400000X0.625000X0.400000X0*%
%TD*%
%TA.AperFunction,ComponentPad*%
%ADD11C,1.600000*%
%TD*%
%TA.AperFunction,ComponentPad*%
%ADD12RoundRect,0.250000X0.550000X0.550000X-0.550000X0.550000X-0.550000X-0.550000X0.550000X-0.550000X0*%
%TD*%
%TA.AperFunction,ComponentPad*%
%ADD13RoundRect,0.250000X0.600000X0.725000X-0.600000X0.725000X-0.600000X-0.725000X0.600000X-0.725000X0*%
%TD*%
%TA.AperFunction,ComponentPad*%
%ADD14O,1.700000X1.950000*%
%TD*%
%TA.AperFunction,ComponentPad*%
%ADD15R,1.500000X2.500000*%
%TD*%
%TA.AperFunction,ComponentPad*%
%ADD16O,1.500000X2.500000*%
%TD*%
%TA.AperFunction,ComponentPad*%
%ADD17RoundRect,0.250001X1.149999X1.149999X-1.149999X1.149999X-1.149999X-1.149999X1.149999X-1.149999X0*%
%TD*%
%TA.AperFunction,ComponentPad*%
%ADD18C,2.800000*%
%TD*%
%TA.AperFunction,ComponentPad*%
%ADD19R,1.600000X1.600000*%
%TD*%
%TA.AperFunction,ComponentPad*%
%ADD20O,1.600000X1.600000*%
%TD*%
%TA.AperFunction,ComponentPad*%
%ADD21R,2.000000X2.000000*%
%TD*%
%TA.AperFunction,ComponentPad*%
%ADD22C,2.000000*%
%TD*%
%TA.AperFunction,SMDPad,CuDef*%
%ADD23R,1.500000X1.500000*%
%TD*%
%TA.AperFunction,SMDPad,CuDef*%
%ADD24RoundRect,0.147638X-0.602362X-0.602362X0.602362X-0.602362X0.602362X0.602362X-0.602362X0.602362X0*%
%TD*%
%TA.AperFunction,ComponentPad*%
%ADD25C,1.905000*%
%TD*%
%TA.AperFunction,ViaPad*%
%ADD26C,0.600000*%
%TD*%
%TA.AperFunction,Conductor*%
%ADD27C,0.200000*%
%TD*%
%TA.AperFunction,Conductor*%
%ADD28C,1.000000*%
%TD*%
%TA.AperFunction,Conductor*%
%ADD29C,0.500000*%
%TD*%
G04 APERTURE END LIST*
D10*
%TO.P,R2,1*%
%TO.N,/D27*%
X124554100Y-59945900D03*
%TO.P,R2,2*%
%TO.N,Net-(D2-K)*%
X124554100Y-63045900D03*
%TD*%
%TO.P,R1,1*%
%TO.N,VDD*%
X124460000Y-51688400D03*
%TO.P,R1,2*%
%TO.N,Net-(D1-K)*%
X124460000Y-54788400D03*
%TD*%
D11*
%TO.P,C2,N*%
%TO.N,GND*%
X162500000Y-86700000D03*
D12*
%TO.P,C2,P*%
%TO.N,+12V*%
X165000000Y-86700000D03*
%TD*%
D13*
%TO.P,M2,1*%
%TO.N,/R_2B*%
X133800000Y-85600000D03*
D14*
%TO.P,M2,2,-*%
%TO.N,/R_2A*%
X131300000Y-85600000D03*
%TO.P,M2,3*%
%TO.N,/R_1A*%
X128800000Y-85600000D03*
%TO.P,M2,4*%
%TO.N,/R_1B*%
X126300000Y-85600000D03*
%TD*%
D15*
%TO.P,U2,1,Vin*%
%TO.N,+12V*%
X126417500Y-46782500D03*
D16*
%TO.P,U2,2,GND*%
%TO.N,GND*%
X128957500Y-46782500D03*
%TO.P,U2,3,Vout*%
%TO.N,VDD*%
X131497500Y-46782500D03*
%TD*%
D13*
%TO.P,M1,1*%
%TO.N,/L_2B*%
X156850000Y-85600000D03*
D14*
%TO.P,M1,2,-*%
%TO.N,/L_2A*%
X154350000Y-85600000D03*
%TO.P,M1,3*%
%TO.N,/L_1A*%
X151850000Y-85600000D03*
%TO.P,M1,4*%
%TO.N,/L_1B*%
X149350000Y-85600000D03*
%TD*%
D17*
%TO.P,J1,1,Pin_1*%
%TO.N,+12V*%
X144500000Y-45000000D03*
D18*
%TO.P,J1,2,Pin_2*%
%TO.N,GND*%
X139500000Y-45000000D03*
%TD*%
D19*
%TO.P,A2,1,GND*%
%TO.N,GND*%
X124800000Y-81700000D03*
D20*
%TO.P,A2,2,VDD*%
%TO.N,VDD*%
X127340000Y-81700000D03*
%TO.P,A2,3,1B*%
%TO.N,/R_1B*%
X129880000Y-81700000D03*
%TO.P,A2,4,1A*%
%TO.N,/R_1A*%
X132420000Y-81700000D03*
%TO.P,A2,5,2A*%
%TO.N,/R_2A*%
X134960000Y-81700000D03*
%TO.P,A2,6,2B*%
%TO.N,/R_2B*%
X137500000Y-81700000D03*
%TO.P,A2,7,GND*%
%TO.N,GND*%
X140040000Y-81700000D03*
%TO.P,A2,8,VMOT*%
%TO.N,+12V*%
X142580000Y-81700000D03*
%TO.P,A2,9,~{ENABLE}*%
%TO.N,unconnected-(A2-~{ENABLE}-Pad9)*%
X142580000Y-69000000D03*
%TO.P,A2,10,MS1*%
%TO.N,VDD*%
X140040000Y-69000000D03*
%TO.P,A2,11,MS2*%
X137500000Y-69000000D03*
%TO.P,A2,12,MS3*%
X134960000Y-69000000D03*
%TO.P,A2,13,~{RESET}*%
X132420000Y-69000000D03*
%TO.P,A2,14,~{SLEEP}*%
X129880000Y-69000000D03*
%TO.P,A2,15,STEP*%
%TO.N,/Step2*%
X127340000Y-69000000D03*
%TO.P,A2,16,DIR*%
%TO.N,/Direc2*%
X124800000Y-69000000D03*
%TD*%
D19*
%TO.P,A1,1,GND*%
%TO.N,GND*%
X147860000Y-81700000D03*
D20*
%TO.P,A1,2,VDD*%
%TO.N,VDD*%
X150400000Y-81700000D03*
%TO.P,A1,3,1B*%
%TO.N,/L_1B*%
X152940000Y-81700000D03*
%TO.P,A1,4,1A*%
%TO.N,/L_1A*%
X155480000Y-81700000D03*
%TO.P,A1,5,2A*%
%TO.N,/L_2A*%
X158020000Y-81700000D03*
%TO.P,A1,6,2B*%
%TO.N,/L_2B*%
X160560000Y-81700000D03*
%TO.P,A1,7,GND*%
%TO.N,GND*%
X163100000Y-81700000D03*
%TO.P,A1,8,VMOT*%
%TO.N,+12V*%
X165640000Y-81700000D03*
%TO.P,A1,9,~{ENABLE}*%
%TO.N,unconnected-(A1-~{ENABLE}-Pad9)*%
X165640000Y-69000000D03*
%TO.P,A1,10,MS1*%
%TO.N,VDD*%
X163100000Y-69000000D03*
%TO.P,A1,11,MS2*%
X160560000Y-69000000D03*
%TO.P,A1,12,MS3*%
X158020000Y-69000000D03*
%TO.P,A1,13,~{RESET}*%
X155480000Y-69000000D03*
%TO.P,A1,14,~{SLEEP}*%
X152940000Y-69000000D03*
%TO.P,A1,15,STEP*%
%TO.N,/Step1*%
X150400000Y-69000000D03*
%TO.P,A1,16,DIR*%
%TO.N,/Direc1*%
X147860000Y-69000000D03*
%TD*%
D21*
%TO.P,ESP32,1,3V3*%
%TO.N,unconnected-(U1-3V3-Pad1)*%
X95600000Y-51700000D03*
D22*
%TO.P,ESP32,2,GND*%
%TO.N,GND*%
X95600000Y-54240000D03*
%TO.P,ESP32,3,D15*%
%TO.N,unconnected-(U1-D15-Pad3)*%
X95600000Y-56780000D03*
%TO.P,ESP32,4,D2*%
%TO.N,unconnected-(U1-D2-Pad4)*%
X95600000Y-59320000D03*
%TO.P,ESP32,5,D4*%
%TO.N,unconnected-(U1-D4-Pad5)*%
X95600000Y-61860000D03*
%TO.P,ESP32,6,RX2*%
%TO.N,unconnected-(U1-RX2-Pad6)*%
X95600000Y-64400000D03*
%TO.P,ESP32,7,TX2*%
%TO.N,unconnected-(U1-TX2-Pad7)*%
X95600000Y-66940000D03*
%TO.P,ESP32,8,D5*%
%TO.N,unconnected-(U1-D5-Pad8)*%
X95600000Y-69480000D03*
%TO.P,ESP32,9,D18*%
%TO.N,/Step1*%
X95600000Y-72020000D03*
%TO.P,ESP32,10,D19*%
%TO.N,/Direc1*%
X95600000Y-74560000D03*
%TO.P,ESP32,11,D21*%
%TO.N,/SDA*%
X95600000Y-77100000D03*
%TO.P,ESP32,12,RX0*%
%TO.N,unconnected-(U1-RX0-Pad12)*%
X95600000Y-79640000D03*
%TO.P,ESP32,13,TX0*%
%TO.N,unconnected-(U1-TX0-Pad13)*%
X95600000Y-82180000D03*
%TO.P,ESP32,14,D22*%
%TO.N,/SCL*%
X95600000Y-84720000D03*
%TO.P,ESP32,15,D23*%
%TO.N,unconnected-(U1-D23-Pad15)*%
X95600000Y-87260000D03*
%TO.P,ESP32,16,EN*%
%TO.N,unconnected-(U1-EN-Pad16)*%
X121000000Y-87260000D03*
%TO.P,ESP32,17,VP*%
%TO.N,unconnected-(U1-VP-Pad17)*%
X121000000Y-84720000D03*
%TO.P,ESP32,18,VN*%
%TO.N,unconnected-(U1-VN-Pad18)*%
X121000000Y-82180000D03*
%TO.P,ESP32,19,D34*%
%TO.N,unconnected-(U1-D34-Pad19)*%
X121000000Y-79640000D03*
%TO.P,ESP32,20,D35*%
%TO.N,unconnected-(U1-D35-Pad20)*%
X121000000Y-77100000D03*
%TO.P,ESP32,21,D32*%
%TO.N,unconnected-(U1-D32-Pad21)*%
X121000000Y-74560000D03*
%TO.P,ESP32,22,D33*%
%TO.N,unconnected-(U1-D33-Pad22)*%
X121000000Y-72020000D03*
%TO.P,ESP32,23,D25*%
%TO.N,/Step2*%
X121000000Y-69480000D03*
%TO.P,ESP32,24,D26*%
%TO.N,/Direc2*%
X121000000Y-66940000D03*
%TO.P,ESP32,25,D27*%
%TO.N,/D27*%
X121000000Y-64400000D03*
%TO.P,ESP32,26,D14*%
%TO.N,unconnected-(U1-D14-Pad26)*%
X121000000Y-61860000D03*
%TO.P,ESP32,27,D12*%
%TO.N,unconnected-(U1-D12-Pad27)*%
X121000000Y-59320000D03*
%TO.P,ESP32,28,D13*%
%TO.N,unconnected-(U1-D13-Pad28)*%
X121000000Y-56780000D03*
%TO.P,ESP32,29,GND*%
%TO.N,GND*%
X121000000Y-54240000D03*
%TO.P,ESP32,30,VIN*%
%TO.N,VDD*%
X121000000Y-51700000D03*
%TD*%
D23*
%TO.P,D2,1,K*%
%TO.N,Net-(D2-K)*%
X124400000Y-65500000D03*
D24*
%TO.P,D2,2,A*%
%TO.N,GND*%
X127600000Y-65500000D03*
%TD*%
D25*
%TO.P,MPU6050,1,VCC*%
%TO.N,VDD*%
X152080000Y-52690000D03*
%TO.P,MPU6050,2,GND*%
%TO.N,GND*%
X149540000Y-52690000D03*
%TO.P,MPU6050,3,SCL*%
%TO.N,/SCL*%
X147000000Y-52690000D03*
%TO.P,MPU6050,4,SDA*%
%TO.N,/SDA*%
X144460000Y-52690000D03*
%TO.P,MPU6050,5,XDA*%
%TO.N,unconnected-(MPU1-XDA-Pad5)*%
X141920000Y-52690000D03*
%TO.P,MPU6050,6,XCL*%
%TO.N,unconnected-(MPU1-XCL-Pad6)*%
X139380000Y-52690000D03*
%TO.P,MPU6050,7,ADO*%
%TO.N,unconnected-(MPU1-ADO-Pad7)*%
X136840000Y-52690000D03*
%TO.P,MPU6050,8,INT*%
%TO.N,unconnected-(MPU1-INT-Pad8)*%
X134300000Y-52690000D03*
%TD*%
D11*
%TO.P,C1,N*%
%TO.N,GND*%
X139450000Y-86700000D03*
D12*
%TO.P,C1,P*%
%TO.N,+12V*%
X141950000Y-86700000D03*
%TD*%
D23*
%TO.P,D1,1,K*%
%TO.N,Net-(D1-K)*%
X124400000Y-57000000D03*
D24*
%TO.P,D1,2,A*%
%TO.N,GND*%
X127600000Y-57000000D03*
%TD*%
D26*
%TO.N,GND*%
X127627300Y-65484300D03*
X127482400Y-56946800D03*
%TD*%
D27*
%TO.N,/L_1A*%
X151850000Y-85330000D02*
X151850000Y-85600000D01*
X155480000Y-81700000D02*
X151850000Y-85330000D01*
%TO.N,/Step1*%
X164584160Y-89002000D02*
X167942000Y-85644160D01*
X124500000Y-46000000D02*
X128899000Y-41601000D01*
X141141000Y-78259000D02*
X141141000Y-82156050D01*
X130846400Y-53943500D02*
X147519217Y-53943500D01*
X141141000Y-82156050D02*
X138349000Y-84948050D01*
X155899000Y-65248942D02*
X155899000Y-52399000D01*
X167942000Y-85644160D02*
X167942000Y-67495215D01*
X150400000Y-69000000D02*
X141141000Y-78259000D01*
X138349000Y-84948050D02*
X138349000Y-87156050D01*
X148253500Y-53209217D02*
X148253500Y-51253500D01*
X117221000Y-50399000D02*
X127301900Y-50399000D01*
X128899000Y-41601000D02*
X145101000Y-41601000D01*
X167942000Y-67495215D02*
X166549386Y-66102600D01*
X95600000Y-72020000D02*
X117221000Y-50399000D01*
X138349000Y-87156050D02*
X140194950Y-89002000D01*
X147519217Y-53943500D02*
X148253500Y-53209217D01*
X166549386Y-66102600D02*
X156752658Y-66102600D01*
X148253500Y-51253500D02*
X145925800Y-48925800D01*
X155899000Y-52399000D02*
X145101000Y-41601000D01*
X127301900Y-50399000D02*
X130846400Y-53943500D01*
X156752658Y-66102600D02*
X155899000Y-65248942D01*
X145925800Y-48925800D02*
X125425800Y-48925800D01*
X140194950Y-89002000D02*
X164584160Y-89002000D01*
X124500000Y-48000000D02*
X124500000Y-46000000D01*
X125425800Y-48925800D02*
X124500000Y-48000000D01*
D28*
%TO.N,+12V*%
X144500000Y-45000000D02*
X142000000Y-42500000D01*
X126417500Y-45582500D02*
X126417500Y-46782500D01*
X167141000Y-84559000D02*
X167141000Y-67827000D01*
X146728403Y-45000000D02*
X144500000Y-45000000D01*
X165000000Y-86700000D02*
X165000000Y-82340000D01*
X154635200Y-65735199D02*
X154635200Y-52906797D01*
X165000000Y-82340000D02*
X165640000Y-81700000D01*
X166217600Y-66903600D02*
X155803601Y-66903600D01*
X141950000Y-82330000D02*
X142580000Y-81700000D01*
X143451000Y-88201000D02*
X141950000Y-86700000D01*
X141950000Y-86700000D02*
X141950000Y-82330000D01*
X155803601Y-66903600D02*
X154635200Y-65735199D01*
X165000000Y-86700000D02*
X163499000Y-88201000D01*
X165000000Y-86700000D02*
X167141000Y-84559000D01*
X167141000Y-67827000D02*
X166217600Y-66903600D01*
X163499000Y-88201000D02*
X143451000Y-88201000D01*
X129500000Y-42500000D02*
X126417500Y-45582500D01*
X142000000Y-42500000D02*
X129500000Y-42500000D01*
X154635200Y-52906797D02*
X146728403Y-45000000D01*
D27*
%TO.N,/L_2A*%
X158020000Y-81700000D02*
X154350000Y-85370000D01*
X154350000Y-85370000D02*
X154350000Y-85600000D01*
%TO.N,/L_1B*%
X149350000Y-85290000D02*
X149350000Y-85600000D01*
X152940000Y-81700000D02*
X149350000Y-85290000D01*
D29*
%TO.N,VDD*%
X121000000Y-51700000D02*
X124448400Y-51700000D01*
X127500000Y-81540000D02*
X127340000Y-81700000D01*
X127500000Y-80500000D02*
X127500000Y-81540000D01*
X147390000Y-48000000D02*
X132715000Y-48000000D01*
X152940000Y-65731263D02*
X152940000Y-69000000D01*
X152940000Y-69000000D02*
X152940000Y-79160000D01*
X150270000Y-54500000D02*
X127271600Y-54500000D01*
X127271600Y-54500000D02*
X124460000Y-51688400D01*
X132715000Y-48000000D02*
X131497500Y-46782500D01*
X141540000Y-67500000D02*
X140040000Y-69000000D01*
X152940000Y-79160000D02*
X150400000Y-81700000D01*
X153351000Y-65320263D02*
X152940000Y-65731263D01*
X153351000Y-63579737D02*
X153351000Y-65320263D01*
X129880000Y-69000000D02*
X129880000Y-78120000D01*
X152940000Y-63168737D02*
X153351000Y-63579737D01*
X129880000Y-78120000D02*
X127500000Y-80500000D01*
X152080000Y-52690000D02*
X147390000Y-48000000D01*
X152080000Y-52690000D02*
X152940000Y-53550000D01*
X152080000Y-52690000D02*
X150270000Y-54500000D01*
X124448400Y-51700000D02*
X124460000Y-51688400D01*
X152940000Y-69000000D02*
X163100000Y-69000000D01*
X152940000Y-69000000D02*
X151440000Y-67500000D01*
X140040000Y-69000000D02*
X129880000Y-69000000D01*
X152940000Y-53550000D02*
X152940000Y-63168737D01*
X151440000Y-67500000D02*
X141540000Y-67500000D01*
D27*
%TO.N,/L_2B*%
X156850000Y-85410000D02*
X156850000Y-85600000D01*
X160560000Y-81700000D02*
X156850000Y-85410000D01*
%TO.N,GND*%
X139450000Y-86700000D02*
X139450000Y-86152800D01*
X138500000Y-44250000D02*
X138449000Y-44199000D01*
X139450000Y-86152800D02*
X139547600Y-86055200D01*
%TO.N,/Direc1*%
X121538892Y-88561000D02*
X119583836Y-88561000D01*
X105582836Y-74560000D02*
X95600000Y-74560000D01*
X128441000Y-82156050D02*
X127796050Y-82801000D01*
X147860000Y-69000000D02*
X137533900Y-79326100D01*
X119583836Y-88561000D02*
X105582836Y-74560000D01*
X130358850Y-79326100D02*
X128441000Y-81243950D01*
X127298892Y-82801000D02*
X121538892Y-88561000D01*
X128441000Y-81243950D02*
X128441000Y-82156050D01*
X137533900Y-79326100D02*
X130358850Y-79326100D01*
X127796050Y-82801000D02*
X127298892Y-82801000D01*
%TO.N,/Step2*%
X127340000Y-69000000D02*
X126239000Y-70101000D01*
X126239000Y-70101000D02*
X121621000Y-70101000D01*
X121621000Y-70101000D02*
X121000000Y-69480000D01*
%TO.N,/R_1B*%
X126300000Y-85280000D02*
X126300000Y-85600000D01*
X129880000Y-81700000D02*
X126300000Y-85280000D01*
%TO.N,/R_1A*%
X128800000Y-85320000D02*
X128800000Y-85600000D01*
X132420000Y-81700000D02*
X128800000Y-85320000D01*
%TO.N,/R_2B*%
X137500000Y-81700000D02*
X133800000Y-85400000D01*
X133800000Y-85400000D02*
X133800000Y-85600000D01*
%TO.N,/R_2A*%
X131300000Y-85360000D02*
X131300000Y-85600000D01*
X134960000Y-81700000D02*
X131300000Y-85360000D01*
%TO.N,/Direc2*%
X124800000Y-69000000D02*
X123060000Y-69000000D01*
X123060000Y-69000000D02*
X121000000Y-66940000D01*
%TO.N,/SDA*%
X93771400Y-50926600D02*
X93771400Y-75271400D01*
X94970200Y-49727800D02*
X127197800Y-49727800D01*
X94970200Y-49727800D02*
X93771400Y-50926600D01*
X142976400Y-51206400D02*
X144460000Y-52690000D01*
X127197800Y-49727800D02*
X128676400Y-51206400D01*
X128676400Y-51206400D02*
X142976400Y-51206400D01*
X93771400Y-75271400D02*
X95600000Y-77100000D01*
%TO.N,/SCL*%
X93370400Y-50760500D02*
X93370400Y-82490400D01*
X128981200Y-50805400D02*
X145115400Y-50805400D01*
X93370400Y-82490400D02*
X95600000Y-84720000D01*
X94804100Y-49326800D02*
X127502600Y-49326800D01*
X145115400Y-50805400D02*
X147000000Y-52690000D01*
X127502600Y-49326800D02*
X128981200Y-50805400D01*
X94804100Y-49326800D02*
X93370400Y-50760500D01*
%TO.N,Net-(D1-K)*%
X124282400Y-54966000D02*
X124460000Y-54788400D01*
X124282400Y-56946800D02*
X124282400Y-54966000D01*
%TO.N,/D27*%
X121000000Y-64400000D02*
X122301000Y-63099000D01*
X122301000Y-63099000D02*
X122301000Y-62199000D01*
X122301000Y-62199000D02*
X124554100Y-59945900D01*
%TO.N,Net-(D2-K)*%
X124554100Y-63045900D02*
X124554100Y-65357500D01*
X124554100Y-65357500D02*
X124427300Y-65484300D01*
%TD*%
M02*
