# OBJ generated by ONSHAPE BY PTC INC, 1.215 Units = meters
mtllib Chassis V3.mtl
g Part 1
v 0.0036 0.0814627 0.05 
v 0.0036 0.0814627 0 
v 0.0036 0.123737 0 
v 0.0036 0.123737 0.05 
v 0.00705898 0.127579 0 
v 0.00746274 0.1276 0 
v 0.00746274 0.1276 0.05 
v 0.00665963 0.127516 0 
v 0.00705898 0.127579 0.05 
v 0.00626909 0.127411 0 
v 0.00665963 0.127516 0.05 
v 0.00589162 0.127266 0 
v 0.00626909 0.127411 0.05 
v 0.00553137 0.127082 0 
v 0.00589162 0.127266 0.05 
v 0.00519228 0.126862 0 
v 0.00553137 0.127082 0.05 
v 0.00487806 0.126608 0 
v 0.00519228 0.126862 0.05 
v 0.00459217 0.126322 0 
v 0.00487806 0.126608 0.05 
v 0.00433772 0.126008 0 
v 0.00459217 0.126322 0.05 
v 0.00411751 0.125669 0 
v 0.00433772 0.126008 0.05 
v 0.00393395 0.125308 0 
v 0.00411751 0.125669 0.05 
v 0.00378906 0.124931 0 
v 0.00393395 0.125308 0.05 
v 0.00368441 0.12454 0 
v 0.00378906 0.124931 0.05 
v 0.00362116 0.124141 0 
v 0.00368441 0.12454 0.05 
v 0.00362116 0.124141 0.05 
v 0.0897373 0.1276 0 
v 0.0897373 0.1276 0.05 
v 0.090141 0.127579 0.05 
v 0.0905404 0.127516 0.05 
v 0.090141 0.127579 0 
v 0.0909309 0.127411 0.05 
v 0.0905404 0.127516 0 
v 0.0913084 0.127266 0.05 
v 0.0909309 0.127411 0 
v 0.0916686 0.127082 0.05 
v 0.0913084 0.127266 0 
v 0.0920077 0.126862 0.05 
v 0.0916686 0.127082 0 
v 0.0923219 0.126608 0.05 
v 0.0920077 0.126862 0 
v 0.0926078 0.126322 0.05 
v 0.0923219 0.126608 0 
v 0.0928623 0.126008 0.05 
v 0.0926078 0.126322 0 
v 0.0930825 0.125669 0.05 
v 0.0928623 0.126008 0 
v 0.093266 0.125308 0.05 
v 0.0930825 0.125669 0 
v 0.0934109 0.124931 0.05 
v 0.093266 0.125308 0 
v 0.0935156 0.12454 0.05 
v 0.0934109 0.124931 0 
v 0.0935788 0.124141 0.05 
v 0.0935156 0.12454 0 
v 0.0936 0.123737 0.05 
v 0.0935788 0.124141 0 
v 0.0936 0.123737 0 
v 0.0936 0.0814627 0 
v 0.0936 0.0814627 0.05 
v 0.00362116 0.081059 0 
v 0.00368441 0.0806596 0 
v 0.00362116 0.081059 0.05 
v 0.00378906 0.0802691 0 
v 0.00368441 0.0806596 0.05 
v 0.00393395 0.0798916 0 
v 0.00378906 0.0802691 0.05 
v 0.00411751 0.0795314 0 
v 0.00393395 0.0798916 0.05 
v 0.00433772 0.0791923 0 
v 0.00411751 0.0795314 0.05 
v 0.00459217 0.0788781 0 
v 0.00433772 0.0791923 0.05 
v 0.00487806 0.0785922 0 
v 0.00459217 0.0788781 0.05 
v 0.00519228 0.0783377 0 
v 0.00487806 0.0785922 0.05 
v 0.00553137 0.0781175 0 
v 0.00519228 0.0783377 0.05 
v 0.00589162 0.077934 0 
v 0.00553137 0.0781175 0.05 
v 0.00626909 0.0777891 0 
v 0.00589162 0.077934 0.05 
v 0.00665963 0.0776844 0 
v 0.00626909 0.0777891 0.05 
v 0.00705898 0.0776212 0 
v 0.00665963 0.0776844 0.05 
v 0.00746274 0.0776 0 
v 0.00705898 0.0776212 0.05 
v 0.00746274 0.0776 0.05 
v 0.0897373 0.0776 0.05 
v 0.0897373 0.0776 0 
v 0.0935788 0.081059 0.05 
v 0.0935156 0.0806596 0.05 
v 0.0935788 0.081059 0 
v 0.0934109 0.0802691 0.05 
v 0.0935156 0.0806596 0 
v 0.093266 0.0798916 0.05 
v 0.0934109 0.0802691 0 
v 0.0930825 0.0795314 0.05 
v 0.093266 0.0798916 0 
v 0.0928623 0.0791923 0.05 
v 0.0930825 0.0795314 0 
v 0.0926078 0.0788781 0.05 
v 0.0928623 0.0791923 0 
v 0.0923219 0.0785922 0.05 
v 0.0926078 0.0788781 0 
v 0.0920077 0.0783377 0.05 
v 0.0923219 0.0785922 0 
v 0.0916686 0.0781175 0.05 
v 0.0920077 0.0783377 0 
v 0.0913084 0.077934 0.05 
v 0.0916686 0.0781175 0 
v 0.0909309 0.0777891 0.05 
v 0.0913084 0.077934 0 
v 0.0905404 0.0776844 0.05 
v 0.0909309 0.0777891 0 
v 0.090141 0.0776212 0.05 
v 0.0905404 0.0776844 0 
v 0.090141 0.0776212 0 
v 0.00746274 0.0276 0.05 
v 0.00746274 0.024 0.05 
v 0.0897373 0.024 0.05 
v 0.090141 0.0239788 0.05 
v 0.090141 0.0276212 0.05 
v 0.0897373 0.0276 0.05 
v 0.00705898 0.0276212 0.05 
v 0.00705898 0.0239788 0.05 
v 0.00665963 0.0239156 0.05 
v 0 0.015 0.05 
v 0.00368441 0.0209404 0.05 
v 0.00378906 0.0213309 0.05 
v 0.0905404 0.0276844 0.05 
v 0.0913084 0.027934 0.05 
v 0.0909309 0.0277891 0.05 
v 0.0926078 0.0227219 0.05 
v 0.00487806 0.0230078 0.05 
v 0.00519228 0.0232623 0.05 
v 0.00368441 0.0306596 0.05 
v 0.0036 0.0701373 0.05 
v 0.0036 0.0314627 0.05 
v 0.0905404 0.0239156 0.05 
v 0.0928623 0.0224077 0.05 
v 0.00487806 0.0730078 0.05 
v 0.00519228 0.0732623 0.05 
v 0.00362116 0.031059 0.05 
v 0.00411751 0.0220686 0.05 
v 0.00433772 0.0224077 0.05 
v 0.00393395 0.0217084 0.05 
v 0.00665963 0.0276844 0.05 
v 0.00626909 0.0238109 0.05 
v 0.0930825 0.0220686 0.05 
v 0.0916686 0.0281175 0.05 
v 0.00553137 0.0734825 0.05 
v 0.00589162 0.073666 0.05 
v 0.00459217 0.0227219 0.05 
v 0.00362116 0.070541 0.05 
v 0.0897373 0.1312 0.05 
v 0.00746274 0.1312 0.05 
v 0.093266 0.0217084 0.05 
v 0.0923219 0.0285922 0.05 
v 0.0920077 0.0283377 0.05 
v 0.00433772 0.0724077 0.05 
v 0.00459217 0.0727219 0.05 
v 0.00393395 0.0717084 0.05 
v 0.00411751 0.0720686 0.05 
v 0.00368441 0.0709404 0.05 
v 0.00378906 0.0713309 0.05 
v 0.0036 0.015 0.05 
v 0.0036 0.0201373 0.05 
v 0.00705898 0.131221 0.05 
v 0.090141 0.131221 0.05 
v 0.00626909 0.0277891 0.05 
v 0.00553137 0.0234825 0.05 
v 0.00589162 0.023666 0.05 
v 0.0913084 0.023666 0.05 
v 0.0916686 0.0234825 0.05 
v 0.0909309 0.0238109 0.05 
v 0.093266 0.0298916 0.05 
v 0.0930825 0.0295314 0.05 
v 0.00626909 0.0738109 0.05 
v 0.00665963 0.0739156 0.05 
v 0 0.137269 0.05 
v 0.00362116 0.020541 0.05 
v 0.0956057 0.13917 0.05 
v 0.0954 0.139196 0.05 
v 0.0951943 0.13917 0.05 
v 0.0936111 0.137476 0.05 
v 0.0965306 0.138731 0.05 
v 0.0963667 0.138857 0.05 
v 0.00459217 0.0288781 0.05 
v 0.00433772 0.0291923 0.05 
v 0.00519228 0.0283377 0.05 
v 0.00487806 0.0285922 0.05 
v 0.00589162 0.027934 0.05 
v 0.00553137 0.0281175 0.05 
v 0.0920077 0.0232623 0.05 
v 0.0923219 0.0230078 0.05 
v 0.0926078 0.0288781 0.05 
v 0.0928623 0.0291923 0.05 
v 0.0958075 0.139123 0.05 
v 0.0949925 0.139123 0.05 
v 0.0947969 0.139055 0.05 
v 0.09668 0.138587 0.05 
v 0.0905404 0.131284 0.05 
v 0.00393395 0.0298916 0.05 
v 0.00378906 0.0302691 0.05 
v 0.0961902 0.138966 0.05 
v 0.0937753 0.138073 0.05 
v 0.0936993 0.13788 0.05 
v 0.0939869 0.138428 0.05 
v 0.0938715 0.138256 0.05 
v 0.0946098 0.138966 0.05 
v 0.0944333 0.138857 0.05 
v 0.0960031 0.139055 0.05 
v 0.0968131 0.138428 0.05 
v 0.0970247 0.138073 0.05 
v 0.0969285 0.138256 0.05 
v 0.0971557 0.13768 0.05 
v 0.0971007 0.13788 0.05 
v 0.00705898 0.0739788 0.05 
v 0.00746274 0.074 0.05 
v 0.0897373 0.074 0.05 
v 0.00411751 0.0295314 0.05 
v 4.43333e-05 0.13768 0.05 
v 0.000271537 0.138256 0.05 
v 0.000175298 0.138073 0.05 
v 0.00200568 0.13917 0.05 
v 0.0018 0.139196 0.05 
v 0.0936443 0.13768 0.05 
v 0.09412 0.138587 0.05 
v 0.0942694 0.138731 0.05 
v 0.0971889 0.137476 0.05 
v 0.00665963 0.131284 0.05 
v 0.090141 0.0739788 0.05 
v 0.000386881 0.138428 0.05 
v 1.11153e-05 0.137476 0.05 
v 0.00159432 0.13917 0.05 
v 0.00355567 0.13768 0.05 
v 0.00350073 0.13788 0.05 
v 0.0972 0.015 0.05 
v 0.0934109 0.0213309 0.05 
v 0.0972 0.137269 0.05 
v 9.92715e-05 0.13788 0.05 
v 0.00066937 0.138731 0.05 
v 0.000520003 0.138587 0.05 
v 0.00139253 0.139123 0.05 
v 0.00119694 0.139055 0.05 
v 0.00220747 0.139123 0.05 
v 0.00332846 0.138256 0.05 
v 0.00321312 0.138428 0.05 
v 0.0034247 0.138073 0.05 
v 0.0909309 0.131389 0.05 
v 0.0936 0.0701373 0.05 
v 0.0930825 0.0720686 0.05 
v 0.0010098 0.138966 0.05 
v 0.000833263 0.138857 0.05 
v 0.0025902 0.138966 0.05 
v 0.00240306 0.139055 0.05 
v 0.00293063 0.138731 0.05 
v 0.00276674 0.138857 0.05 
v 0.0036 0.137269 0.05 
v 0.00358888 0.137476 0.05 
v 0.093266 0.133492 0.05 
v 0.0930825 0.133131 0.05 
v 0.00589162 0.131534 0.05 
v 0.00553137 0.131718 0.05 
v 0.00626909 0.131389 0.05 
v 0.0905404 0.0739156 0.05 
v 0.0935156 0.0306596 0.05 
v 0.0934109 0.0302691 0.05 
v 0.0936 0.0314627 0.05 
v 0.0916686 0.0734825 0.05 
v 0.00308 0.138587 0.05 
v 0.0928623 0.132792 0.05 
v 0.0926078 0.132478 0.05 
v 0.0913084 0.131534 0.05 
v 0.0909309 0.0738109 0.05 
v 0.0935788 0.020541 0.05 
v 0.0936 0.0201373 0.05 
v 0.0935788 0.031059 0.05 
v 0.0926078 0.0727219 0.05 
v 0.0928623 0.0724077 0.05 
v 0.00393395 0.133492 0.05 
v 0.00378906 0.133869 0.05 
v 0.00411751 0.133131 0.05 
v 0.0934109 0.133869 0.05 
v 0.0936 0.137269 0.05 
v 0.00519228 0.131938 0.05 
v 0.0920077 0.131938 0.05 
v 0.0916686 0.131718 0.05 
v 0.0935156 0.0209404 0.05 
v 0.0913084 0.073666 0.05 
v 0.00368441 0.13426 0.05 
v 0.00433772 0.132792 0.05 
v 0.00487806 0.132192 0.05 
v 0.0936 0.135063 0.05 
v 0.0923219 0.132192 0.05 
v 0.0923219 0.0730078 0.05 
v 0.0920077 0.0732623 0.05 
v 0.0036 0.135063 0.05 
v 0.00459217 0.132478 0.05 
v 0.0935156 0.13426 0.05 
v 0.0935788 0.134659 0.05 
v 0.0936 0.015 0.05 
v 0.093266 0.0717084 0.05 
v 0.0934109 0.0713309 0.05 
v 0.00362116 0.134659 0.05 
v 0.0935156 0.0709404 0.05 
v 0.0935788 0.070541 0.05 
v 0.00746274 0.024 0 
v 0.0897373 0.024 0 
v 0.0936 0.135063 0 
v 0.0936 0.137269 0 
v 0.00746274 0.1312 0 
v 0.0897373 0.1312 0 
v 0.0036 0.135063 0 
v 0.0036 0.137269 0 
v 0.0897373 0.074 0 
v 0.00746274 0.074 0 
v 0.0936 0.0314627 0 
v 0.0936 0.0701373 0 
v 0.0897373 0.0276 0 
v 0.00746274 0.0276 0 
v 0.0036 0.0314627 0 
v 0.0036 0.0701373 0 
v 0.0935788 0.134659 0 
v 0.0935156 0.13426 0 
v 0.0934109 0.133869 0 
v 0.093266 0.133492 0 
v 0.0930825 0.133131 0 
v 0.0928623 0.132792 0 
v 0.0926078 0.132478 0 
v 0.0923219 0.132192 0 
v 0.0920077 0.131938 0 
v 0.0916686 0.131718 0 
v 0.0913084 0.131534 0 
v 0.0909309 0.131389 0 
v 0.0905404 0.131284 0 
v 0.090141 0.131221 0 
v 0.00705898 0.131221 0 
v 0.00665963 0.131284 0 
v 0.00626909 0.131389 0 
v 0.00589162 0.131534 0 
v 0.00553137 0.131718 0 
v 0.00519228 0.131938 0 
v 0.00487806 0.132192 0 
v 0.00459217 0.132478 0 
v 0.00433772 0.132792 0 
v 0.00411751 0.133131 0 
v 0.00393395 0.133492 0 
v 0.00378906 0.133869 0 
v 0.00368441 0.13426 0 
v 0.00362116 0.134659 0 
v 0.00362116 0.070541 0 
v 0.00368441 0.0709404 0 
v 0.00378906 0.0713309 0 
v 0.00393395 0.0717084 0 
v 0.00411751 0.0720686 0 
v 0.00433772 0.0724077 0 
v 0.00459217 0.0727219 0 
v 0.00487806 0.0730078 0 
v 0.00519228 0.0732623 0 
v 0.00553137 0.0734825 0 
v 0.00589162 0.073666 0 
v 0.00626909 0.0738109 0 
v 0.00665963 0.0739156 0 
v 0.00705898 0.0739788 0 
v 0.090141 0.0739788 0 
v 0.0905404 0.0739156 0 
v 0.0909309 0.0738109 0 
v 0.0913084 0.073666 0 
v 0.0916686 0.0734825 0 
v 0.0920077 0.0732623 0 
v 0.0923219 0.0730078 0 
v 0.0926078 0.0727219 0 
v 0.0928623 0.0724077 0 
v 0.0930825 0.0720686 0 
v 0.093266 0.0717084 0 
v 0.0934109 0.0713309 0 
v 0.0935156 0.0709404 0 
v 0.0935788 0.070541 0 
v 0.0935788 0.020541 0 
v 0.0936 0.0201373 0 
v 0.0935156 0.0209404 0 
v 0.0934109 0.0213309 0 
v 0.093266 0.0217084 0 
v 0.0930825 0.0220686 0 
v 0.0928623 0.0224077 0 
v 0.0926078 0.0227219 0 
v 0.0923219 0.0230078 0 
v 0.0920077 0.0232623 0 
v 0.0916686 0.0234825 0 
v 0.0913084 0.023666 0 
v 0.0909309 0.0238109 0 
v 0.0905404 0.0239156 0 
v 0.090141 0.0239788 0 
v 0.00705898 0.0239788 0 
v 0.00665963 0.0239156 0 
v 0.00626909 0.0238109 0 
v 0.00589162 0.023666 0 
v 0.00553137 0.0234825 0 
v 0.00519228 0.0232623 0 
v 0.00487806 0.0230078 0 
v 0.00459217 0.0227219 0 
v 0.00433772 0.0224077 0 
v 0.00411751 0.0220686 0 
v 0.00393395 0.0217084 0 
v 0.00378906 0.0213309 0 
v 0.00368441 0.0209404 0 
v 0.00362116 0.020541 0 
v 0.0036 0.0201373 0 
v 0.00705898 0.0276212 0 
v 0.00665963 0.0276844 0 
v 0.00626909 0.0277891 0 
v 0.00589162 0.027934 0 
v 0.00553137 0.0281175 0 
v 0.00519228 0.0283377 0 
v 0.00487806 0.0285922 0 
v 0.00459217 0.0288781 0 
v 0.00433772 0.0291923 0 
v 0.00411751 0.0295314 0 
v 0.00393395 0.0298916 0 
v 0.00378906 0.0302691 0 
v 0.00368441 0.0306596 0 
v 0.00362116 0.031059 0 
v 0.0935788 0.031059 0 
v 0.0935156 0.0306596 0 
v 0.0934109 0.0302691 0 
v 0.093266 0.0298916 0 
v 0.0930825 0.0295314 0 
v 0.0928623 0.0291923 0 
v 0.0926078 0.0288781 0 
v 0.0923219 0.0285922 0 
v 0.0920077 0.0283377 0 
v 0.0916686 0.0281175 0 
v 0.0913084 0.027934 0 
v 0.0909309 0.0277891 0 
v 0.0905404 0.0276844 0 
v 0.090141 0.0276212 0 
v 0.0954 0.139196 0 
v 0.0956057 0.13917 0 
v 0.0958075 0.139123 0 
v 0.0960031 0.139055 0 
v 0.0961902 0.138966 0 
v 0.0963667 0.138857 0 
v 0.0965306 0.138731 0 
v 0.09668 0.138587 0 
v 0.0968131 0.138428 0 
v 0.0969285 0.138256 0 
v 0.0970247 0.138073 0 
v 0.0971007 0.13788 0 
v 0.0971557 0.13768 0 
v 0.0971889 0.137476 0 
v 0.0972 0.137269 0 
v 0.0936111 0.137476 0 
v 0.0936443 0.13768 0 
v 0.0936993 0.13788 0 
v 0.0937753 0.138073 0 
v 0.0938715 0.138256 0 
v 0.0939869 0.138428 0 
v 0.09412 0.138587 0 
v 0.0942694 0.138731 0 
v 0.0944333 0.138857 0 
v 0.0946098 0.138966 0 
v 0.0947969 0.139055 0 
v 0.0949925 0.139123 0 
v 0.0951943 0.13917 0 
v 0 0.137269 0 
v 1.11153e-05 0.137476 0 
v 4.43333e-05 0.13768 0 
v 9.92715e-05 0.13788 0 
v 0.000175298 0.138073 0 
v 0.000271537 0.138256 0 
v 0.000386881 0.138428 0 
v 0.000520003 0.138587 0 
v 0.00066937 0.138731 0 
v 0.000833263 0.138857 0 
v 0.0010098 0.138966 0 
v 0.00119694 0.139055 0 
v 0.00139253 0.139123 0 
v 0.00159432 0.13917 0 
v 0.0018 0.139196 0 
v 0.00200568 0.13917 0 
v 0.00220747 0.139123 0 
v 0.00240306 0.139055 0 
v 0.0025902 0.138966 0 
v 0.00276674 0.138857 0 
v 0.00293063 0.138731 0 
v 0.00308 0.138587 0 
v 0.00321312 0.138428 0 
v 0.00332846 0.138256 0 
v 0.0034247 0.138073 0 
v 0.00350073 0.13788 0 
v 0.00355567 0.13768 0 
v 0.00358888 0.137476 0 
v 0.0936 0.00319938 0.0381994 
v 0.0972 0.00319938 0.0381994 
v 0 0.00319938 0.0381994 
v 0.0036 0.00319938 0.0381994 
v 0.0936 0.00247949 0.0374051 
v 0.0972 0.00247949 0.0374051 
v 0.0936 0.00184092 0.0365441 
v 0.0972 0.00184092 0.0365441 
v 0.0936 0.00128982 0.0356246 
v 0.0972 0.00128982 0.0356246 
v 0.0936 0.000831492 0.0346556 
v 0.0972 0.000831492 0.0346556 
v 0.0936 0.000470356 0.0336463 
v 0.0972 0.000470356 0.0336463 
v 0.0936 0.000209889 0.0326064 
v 0.0972 0.000209889 0.0326064 
v 0.0936 5.2599e-05 0.0315461 
v 0.0972 5.2599e-05 0.0315461 
v 0.0936 1.04083e-17 0.0304754 
v 0.0972 0 0.0304754 
v 0.0936 1.04083e-17 0.0195246 
v 0.0972 0 0.0195246 
v 0.0936 5.2599e-05 0.0184539 
v 0.0972 5.2599e-05 0.0184539 
v 0.0936 0.000209889 0.0173936 
v 0.0972 0.000209889 0.0173936 
v 0.0936 0.000470356 0.0163537 
v 0.0972 0.000470356 0.0163537 
v 0.0936 0.000831492 0.0153444 
v 0.0972 0.000831492 0.0153444 
v 0.0936 0.00128982 0.0143754 
v 0.0972 0.00128982 0.0143754 
v 0.0936 0.00184092 0.0134559 
v 0.0972 0.00184092 0.0134559 
v 0.0936 0.00247949 0.0125949 
v 0.0972 0.00247949 0.0125949 
v 0.0936 0.00319938 0.0118006 
v 0.0972 0.00319938 0.0118006 
v 0.0936 0.015 0 
v 0.0972 0.015 0 
v 0 0.015 0 
v 0.0036 0.015 0 
v 0.0036 0.00319938 0.0118006 
v 0 0.00319938 0.0118006 
v 0 0.00247949 0.0374051 
v 0.0036 0.00247949 0.0374051 
v 0 0.00184092 0.0365441 
v 0.0036 0.00184092 0.0365441 
v 0 0.00128982 0.0356246 
v 0.0036 0.00128982 0.0356246 
v 0 0.000831492 0.0346556 
v 0.0036 0.000831492 0.0346556 
v 0 0.000470356 0.0336463 
v 0.0036 0.000470356 0.0336463 
v 0 0.000209889 0.0326064 
v 0.0036 0.000209889 0.0326064 
v 0 5.2599e-05 0.0315461 
v 0.0036 5.2599e-05 0.0315461 
v 0 0 0.0304754 
v 0.0036 0 0.0304754 
v 0 0 0.0195246 
v 0.0036 0 0.0195246 
v 0 5.2599e-05 0.0184539 
v 0.0036 5.2599e-05 0.0184539 
v 0 0.000209889 0.0173936 
v 0.0036 0.000209889 0.0173936 
v 0 0.000470356 0.0163537 
v 0.0036 0.000470356 0.0163537 
v 0 0.000831492 0.0153444 
v 0.0036 0.000831492 0.0153444 
v 0 0.00128982 0.0143754 
v 0.0036 0.00128982 0.0143754 
v 0 0.00184092 0.0134559 
v 0.0036 0.00184092 0.0134559 
v 0 0.00247949 0.0125949 
v 0.0036 0.00247949 0.0125949 
v 0 0.012 0.0320008 
v 0 0.0085528 0.0278925 
v 9.16274e-19 0.0129648 0.0206047 
v 7.29505e-19 0.0134332 0.0207343 
v 1.30104e-18 0.012 0.0205 
v 1.10753e-18 0.0124853 0.0205262 
v 1.87258e-18 0.0105668 0.0207343 
v 1.68581e-18 0.0110352 0.0206047 
v 2.22402e-18 0.00968554 0.0211408 
v 2.05268e-18 0.0101152 0.0209137 
v 2.79211e-18 0.00826099 0.027504 
v -1.90028e-19 0.015739 0.027504 
v 0 0.0154472 0.0278925 
v -2.8901e-19 0.0159872 0.0270862 
v 2.66611e-18 0.00857696 0.0220789 
v -4.30406e-19 0.0163418 0.0261827 
v -3.69449e-19 0.0161889 0.026644 
v 1.49456e-18 0.0115147 0.0205262 
v 2.53253e-18 0.00891191 0.0217268 
v 2.8911e-18 0.00801278 0.0270862 
v -4.91268e-19 0.0164944 0.0252243 
v -4.71171e-19 0.016444 0.0257076 
v -4.68765e-19 0.016438 0.0242554 
v -4.90463e-19 0.0164924 0.0247383 
v -4.26427e-19 0.0163318 0.0237812 
v 2.17491e-19 0.0147171 0.0214129 
v 6.95535e-20 0.0150881 0.0217268 
v 5.49402e-19 0.0138848 0.0209137 
v 3.78064e-19 0.0143145 0.0211408 
v 2.38459e-18 0.00928288 0.0214129 
v 2.78376e-18 0.00828193 0.0224651 
v 2.88413e-18 0.00803025 0.0228808 
v 3.09255e-18 0.00750761 0.0247383 
v 3.07085e-18 0.00756202 0.0242554 
v 3.09335e-18 0.00750559 0.0252243 
v 2.97153e-18 0.00781107 0.026644 
v 3.02851e-18 0.00766819 0.0237812 
v 2.96603e-18 0.00782488 0.0233212 
v 3.03249e-18 0.00765821 0.0261827 
v 3.07326e-18 0.00755599 0.0257076 
v -2.82041e-19 0.0159697 0.0228808 
v -3.63942e-19 0.0161751 0.0233212 
v -6.40217e-20 0.015423 0.0220789 
v -1.81677e-19 0.0157181 0.0224651 
v 0.0036 0.012 0.0320008 
v 0.0036 0.0085528 0.0278925 
v 0.0036 0.00928288 0.0214129 
v 0.0036 0.00891191 0.0217268 
v 0.0036 0.00826099 0.027504 
v 0.0036 0.00803025 0.0228808 
v 0.0036 0.00782488 0.0233212 
v 0.0036 0.00828193 0.0224651 
v 0.0036 0.00968554 0.0211408 
v 0.0036 0.00801278 0.0270862 
v 0.0036 0.00750761 0.0247383 
v 0.0036 0.00750559 0.0252243 
v 0.0036 0.00766819 0.0237812 
v 0.0036 0.00756202 0.0242554 
v 0.0036 0.00857696 0.0220789 
v 0.0036 0.00781107 0.026644 
v 0.0036 0.00755599 0.0257076 
v 0.0036 0.00765821 0.0261827 
v 0.0036 0.0129648 0.0206047 
v 0.0036 0.0124853 0.0205262 
v 0.0036 0.0101152 0.0209137 
v 0.0036 0.0110352 0.0206047 
v 0.0036 0.012 0.0205 
v 0.0036 0.0134332 0.0207343 
v 0.0036 0.0105668 0.0207343 
v 0.0036 0.0147171 0.0214129 
v 0.0036 0.0143145 0.0211408 
v 0.0036 0.0159697 0.0228808 
v 0.0036 0.0157181 0.0224651 
v 0.0036 0.0115147 0.0205262 
v 0.0036 0.0138848 0.0209137 
v 0.0036 0.0150881 0.0217268 
v 0.0036 0.015423 0.0220789 
v 0.0036 0.0163318 0.0237812 
v 0.0036 0.0161751 0.0233212 
v 0.0036 0.0163418 0.0261827 
v 0.0036 0.016444 0.0257076 
v 0.0036 0.0164924 0.0247383 
v 0.0036 0.016438 0.0242554 
v 0.0036 0.0161889 0.026644 
v 0.0036 0.0154472 0.0278925 
v 0.0036 0.0159872 0.0270862 
v 0.0036 0.015739 0.027504 
v 0.0036 0.0164944 0.0252243 
v 0.0936 0.012 0.0320008 
v 0.0936 0.0085528 0.0278925 
v 0.0936 0.00826099 0.027504 
v 0.0936 0.012 0.0205 
v 0.0936 0.0124853 0.0205262 
v 0.0936 0.00750559 0.0252243 
v 0.0936 0.00801278 0.0270862 
v 0.0936 0.0129648 0.0206047 
v 0.0936 0.0115147 0.0205262 
v 0.0936 0.00928288 0.0214129 
v 0.0936 0.00857696 0.0220789 
v 0.0936 0.00828193 0.0224651 
v 0.0936 0.00803025 0.0228808 
v 0.0936 0.00755599 0.0257076 
v 0.0936 0.00781107 0.026644 
v 0.0936 0.00765821 0.0261827 
v 0.0936 0.0147171 0.0214129 
v 0.0936 0.0150881 0.0217268 
v 0.0936 0.0138848 0.0209137 
v 0.0936 0.0143145 0.0211408 
v 0.0936 0.00968554 0.0211408 
v 0.0936 0.00782488 0.0233212 
v 0.0936 0.0164924 0.0247383 
v 0.0936 0.0164944 0.0252243 
v 0.0936 0.0134332 0.0207343 
v 0.0936 0.0105668 0.0207343 
v 0.0936 0.0110352 0.0206047 
v 0.0936 0.00891191 0.0217268 
v 0.0936 0.00750761 0.0247383 
v 0.0936 0.00756202 0.0242554 
v 0.0936 0.016444 0.0257076 
v 0.0936 0.0163418 0.0261827 
v 0.0936 0.016438 0.0242554 
v 0.0936 0.015423 0.0220789 
v 0.0936 0.0157181 0.0224651 
v 0.0936 0.0101152 0.0209137 
v 0.0936 0.00766819 0.0237812 
v 0.0936 0.0161889 0.026644 
v 0.0936 0.0159697 0.0228808 
v 0.0936 0.0161751 0.0233212 
v 0.0936 0.0154472 0.0278925 
v 0.0936 0.0163318 0.0237812 
v 0.0936 0.015739 0.027504 
v 0.0936 0.0159872 0.0270862 
v 0.0972 0.00928288 0.0214129 
v 0.0972 0.00891191 0.0217268 
v 0.0972 0.00857696 0.0220789 
v 0.0972 0.0129648 0.0206047 
v 0.0972 0.0124853 0.0205262 
v 0.0972 0.00803025 0.0228808 
v 0.0972 0.00782488 0.0233212 
v 0.0972 0.00828193 0.0224651 
v 0.0972 0.00968554 0.0211408 
v 0.0972 0.0110352 0.0206047 
v 0.0972 0.012 0.0205 
v 0.0972 0.012 0.0320008 
v 0.0972 0.0105668 0.0207343 
v 0.0972 0.0134332 0.0207343 
v 0.0972 0.0101152 0.0209137 
v 0.0972 0.0115147 0.0205262 
v 0.0972 0.0138848 0.0209137 
v 0.0972 0.0147171 0.0214129 
v 0.0972 0.0143145 0.0211408 
v 0.0972 0.0085528 0.0278925 
v 0.0972 0.00766819 0.0237812 
v 0.0972 0.015423 0.0220789 
v 0.0972 0.0150881 0.0217268 
v 0.0972 0.00750761 0.0247383 
v 0.0972 0.00750559 0.0252243 
v 0.0972 0.00756202 0.0242554 
v 0.0972 0.0161751 0.0233212 
v 0.0972 0.0159697 0.0228808 
v 0.0972 0.00826099 0.027504 
v 0.0972 0.0157181 0.0224651 
v 0.0972 0.0164944 0.0252243 
v 0.0972 0.0154472 0.0278925 
v 0.0972 0.00801278 0.0270862 
v 0.0972 0.016438 0.0242554 
v 0.0972 0.0163318 0.0237812 
v 0.0972 0.0164924 0.0247383 
v 0.0972 0.0159872 0.0270862 
v 0.0972 0.0161889 0.026644 
v 0.0972 0.015739 0.027504 
v 0.0972 0.00781107 0.026644 
v 0.0972 0.00755599 0.0257076 
v 0.0972 0.00765821 0.0261827 
v 0.0972 0.0163418 0.0261827 
v 0.0972 0.016444 0.0257076 
vn 1 1.21431e-16 0 
vn 0.104528 -0.994522 0 
vn 2.44929e-16 -1 0 
vn 0.207912 -0.978148 0 
vn 0.104528 -0.994522 0 
vn 0.309017 -0.951057 0 
vn 0.207912 -0.978148 0 
vn 0.406737 -0.913545 0 
vn 0.309017 -0.951057 0 
vn 0.5 -0.866025 0 
vn 0.406737 -0.913545 0 
vn 0.587785 -0.809017 0 
vn 0.5 -0.866025 0 
vn 0.669131 -0.743145 0 
vn 0.587785 -0.809017 0 
vn 0.743145 -0.669131 0 
vn 0.669131 -0.743145 0 
vn 0.809017 -0.587785 0 
vn 0.743145 -0.669131 0 
vn 0.866025 -0.5 0 
vn 0.809017 -0.587785 0 
vn 0.913545 -0.406737 0 
vn 0.866025 -0.5 0 
vn 0.951057 -0.309017 0 
vn 0.913545 -0.406737 0 
vn 0.978148 -0.207912 0 
vn 0.951057 -0.309017 0 
vn 0.994522 -0.104528 0 
vn 0.978148 -0.207912 0 
vn 1 1.83697e-16 0 
vn 0.994522 -0.104528 0 
vn 6.16791e-16 -1 0 
vn -0.104528 -0.994522 0 
vn -0.207912 -0.978148 0 
vn -0.309017 -0.951057 0 
vn -0.406737 -0.913545 0 
vn -0.5 -0.866025 0 
vn -0.587785 -0.809017 0 
vn -0.669131 -0.743145 0 
vn -0.743145 -0.669131 0 
vn -0.809017 -0.587785 0 
vn -0.866025 -0.5 0 
vn -0.913545 -0.406737 0 
vn -0.951057 -0.309017 0 
vn -0.978148 -0.207912 0 
vn -0.994522 -0.104528 0 
vn -1 6.12323e-17 0 
vn 0.994522 0.104528 0 
vn 1 1.83697e-16 0 
vn 0.978148 0.207912 0 
vn 0.994522 0.104528 0 
vn 0.951057 0.309017 0 
vn 0.978148 0.207912 0 
vn 0.913545 0.406737 0 
vn 0.951057 0.309017 0 
vn 0.866025 0.5 0 
vn 0.913545 0.406737 0 
vn 0.809017 0.587785 0 
vn 0.866025 0.5 0 
vn 0.743145 0.669131 0 
vn 0.809017 0.587785 0 
vn 0.669131 0.743145 0 
vn 0.743145 0.669131 0 
vn 0.587785 0.809017 0 
vn 0.669131 0.743145 0 
vn 0.5 0.866025 0 
vn 0.587785 0.809017 0 
vn 0.406737 0.913545 0 
vn 0.5 0.866025 0 
vn 0.309017 0.951057 0 
vn 0.406737 0.913545 0 
vn 0.207912 0.978148 0 
vn 0.309017 0.951057 0 
vn 0.104528 0.994522 0 
vn 0.207912 0.978148 0 
vn -1.22465e-16 1 0 
vn 0.104528 0.994522 0 
vn -0.994522 0.104528 0 
vn -1 6.12323e-17 0 
vn -0.978148 0.207912 0 
vn -0.994522 0.104528 0 
vn -0.951057 0.309017 0 
vn -0.978148 0.207912 0 
vn -0.913545 0.406737 0 
vn -0.951057 0.309017 0 
vn -0.866025 0.5 0 
vn -0.913545 0.406737 0 
vn -0.809017 0.587785 0 
vn -0.866025 0.5 0 
vn -0.743145 0.669131 0 
vn -0.809017 0.587785 0 
vn -0.669131 0.743145 0 
vn -0.743145 0.669131 0 
vn -0.587785 0.809017 0 
vn -0.669131 0.743145 0 
vn -0.5 0.866025 0 
vn -0.587785 0.809017 0 
vn -0.406737 0.913545 0 
vn -0.5 0.866025 0 
vn -0.309017 0.951057 0 
vn -0.406737 0.913545 0 
vn -0.207912 0.978148 0 
vn -0.309017 0.951057 0 
vn -0.104528 0.994522 0 
vn -0.207912 0.978148 0 
vn 0 1 0 
vn -0.104528 0.994522 0 
vn 0 0 1 
vn 7.70988e-16 -1 0 
vn -1 0 0 
vn -6.16791e-16 1 0 
vn 1 1.0842e-16 0 
vn 7.70988e-16 -1 0 
vn -1 0 0 
vn -7.70988e-16 1 0 
vn 1 8.59884e-16 0 
vn -0.994522 0.104528 0 
vn -1 6.12323e-17 0 
vn -0.978148 0.207912 0 
vn -0.994522 0.104528 0 
vn -0.951057 0.309017 0 
vn -0.978148 0.207912 0 
vn -0.913545 0.406737 0 
vn -0.951057 0.309017 0 
vn -0.866025 0.5 0 
vn -0.913545 0.406737 0 
vn -0.809017 0.587785 0 
vn -0.866025 0.5 0 
vn -0.743145 0.669131 0 
vn -0.809017 0.587785 0 
vn -0.669131 0.743145 0 
vn -0.743145 0.669131 0 
vn -0.587785 0.809017 0 
vn -0.669131 0.743145 0 
vn -0.5 0.866025 0 
vn -0.587785 0.809017 0 
vn -0.406737 0.913545 0 
vn -0.5 0.866025 0 
vn -0.309017 0.951057 0 
vn -0.406737 0.913545 0 
vn -0.207912 0.978148 0 
vn -0.309017 0.951057 0 
vn -0.104528 0.994522 0 
vn -0.207912 0.978148 0 
vn 0 1 0 
vn -0.104528 0.994522 0 
vn 0.104528 0.994522 0 
vn 2.44929e-16 1 0 
vn 0.207912 0.978148 0 
vn 0.104528 0.994522 0 
vn 0.309017 0.951057 0 
vn 0.207912 0.978148 0 
vn 0.406737 0.913545 0 
vn 0.309017 0.951057 0 
vn 0.5 0.866025 0 
vn 0.406737 0.913545 0 
vn 0.587785 0.809017 0 
vn 0.5 0.866025 0 
vn 0.669131 0.743145 0 
vn 0.587785 0.809017 0 
vn 0.743145 0.669131 0 
vn 0.669131 0.743145 0 
vn 0.809017 0.587785 0 
vn 0.743145 0.669131 0 
vn 0.866025 0.5 0 
vn 0.809017 0.587785 0 
vn 0.913545 0.406737 0 
vn 0.866025 0.5 0 
vn 0.951057 0.309017 0 
vn 0.913545 0.406737 0 
vn 0.978148 0.207912 0 
vn 0.951057 0.309017 0 
vn 0.994522 0.104528 0 
vn 0.978148 0.207912 0 
vn 1 -1.83697e-16 0 
vn 0.994522 0.104528 0 
vn 0.994522 -0.104528 0 
vn 1 -1.83697e-16 0 
vn 0.978148 -0.207912 0 
vn 0.994522 -0.104528 0 
vn 0.951057 -0.309017 0 
vn 0.978148 -0.207912 0 
vn 0.913545 -0.406737 0 
vn 0.951057 -0.309017 0 
vn 0.866025 -0.5 0 
vn 0.913545 -0.406737 0 
vn 0.809017 -0.587785 0 
vn 0.866025 -0.5 0 
vn 0.743145 -0.669131 0 
vn 0.809017 -0.587785 0 
vn 0.669131 -0.743145 0 
vn 0.743145 -0.669131 0 
vn 0.587785 -0.809017 0 
vn 0.669131 -0.743145 0 
vn 0.5 -0.866025 0 
vn 0.587785 -0.809017 0 
vn 0.406737 -0.913545 0 
vn 0.5 -0.866025 0 
vn 0.309017 -0.951057 0 
vn 0.406737 -0.913545 0 
vn 0.207912 -0.978148 0 
vn 0.309017 -0.951057 0 
vn 0.104528 -0.994522 0 
vn 0.207912 -0.978148 0 
vn -1.22465e-16 -1 0 
vn 0.104528 -0.994522 0 
vn -0.104528 -0.994522 0 
vn -1.22465e-16 -1 0 
vn -0.207912 -0.978148 0 
vn -0.104528 -0.994522 0 
vn -0.309017 -0.951057 0 
vn -0.207912 -0.978148 0 
vn -0.406737 -0.913545 0 
vn -0.309017 -0.951057 0 
vn -0.5 -0.866025 0 
vn -0.406737 -0.913545 0 
vn -0.587785 -0.809017 0 
vn -0.5 -0.866025 0 
vn -0.669131 -0.743145 0 
vn -0.587785 -0.809017 0 
vn -0.743145 -0.669131 0 
vn -0.669131 -0.743145 0 
vn -0.809017 -0.587785 0 
vn -0.743145 -0.669131 0 
vn -0.866025 -0.5 0 
vn -0.809017 -0.587785 0 
vn -0.913545 -0.406737 0 
vn -0.866025 -0.5 0 
vn -0.951057 -0.309017 0 
vn -0.913545 -0.406737 0 
vn -0.978148 -0.207912 0 
vn -0.951057 -0.309017 0 
vn -0.994522 -0.104528 0 
vn -0.978148 -0.207912 0 
vn -1 6.12323e-17 0 
vn -0.994522 -0.104528 0 
vn -0.978148 -0.207912 0 
vn -0.951057 -0.309017 0 
vn -0.913545 -0.406737 0 
vn -0.866025 -0.5 0 
vn -0.809017 -0.587785 0 
vn -0.743145 -0.669131 0 
vn -0.669131 -0.743145 0 
vn -0.587785 -0.809017 0 
vn -0.5 -0.866025 0 
vn -0.406737 -0.913545 0 
vn -0.309017 -0.951057 0 
vn -0.207912 -0.978148 0 
vn -0.104528 -0.994522 0 
vn 0 -1 0 
vn 0.104528 -0.994522 0 
vn 0.207912 -0.978148 0 
vn 0.309017 -0.951057 0 
vn 0.406737 -0.913545 0 
vn 0.5 -0.866025 0 
vn 0.587785 -0.809017 0 
vn 0.669131 -0.743145 0 
vn 0.743145 -0.669131 0 
vn 0.809017 -0.587785 0 
vn 0.866025 -0.5 0 
vn 0.913545 -0.406737 0 
vn 0.951057 -0.309017 0 
vn 0.978148 -0.207912 0 
vn 0.994522 -0.104528 0 
vn 1 1.83697e-16 0 
vn 0.104528 0.994522 0 
vn -2.41961e-15 1 0 
vn 0.207912 0.978148 0 
vn 0.104528 0.994522 0 
vn 0.309017 0.951057 0 
vn 0.207912 0.978148 0 
vn 0.406737 0.913545 0 
vn 0.309017 0.951057 0 
vn 0.5 0.866025 0 
vn 0.406737 0.913545 0 
vn 0.587785 0.809017 0 
vn 0.5 0.866025 0 
vn 0.669131 0.743145 0 
vn 0.587785 0.809017 0 
vn 0.743145 0.669131 0 
vn 0.669131 0.743145 0 
vn 0.809017 0.587785 0 
vn 0.743145 0.669131 0 
vn 0.866025 0.5 0 
vn 0.809017 0.587785 0 
vn 0.913545 0.406737 0 
vn 0.866025 0.5 0 
vn 0.951057 0.309017 0 
vn 0.913545 0.406737 0 
vn 0.978148 0.207912 0 
vn 0.951057 0.309017 0 
vn 0.994522 0.104528 0 
vn 0.978148 0.207912 0 
vn 1 -1.83697e-16 0 
vn 0.994522 0.104528 0 
vn -0.994522 0.104528 0 
vn -1 6.12323e-17 0 
vn -0.978148 0.207912 0 
vn -0.994522 0.104528 0 
vn -0.951057 0.309017 0 
vn -0.978148 0.207912 0 
vn -0.913545 0.406737 0 
vn -0.951057 0.309017 0 
vn -0.866025 0.5 0 
vn -0.913545 0.406737 0 
vn -0.809017 0.587785 0 
vn -0.866025 0.5 0 
vn -0.743145 0.669131 0 
vn -0.809017 0.587785 0 
vn -0.669131 0.743145 0 
vn -0.743145 0.669131 0 
vn -0.587785 0.809017 0 
vn -0.669131 0.743145 0 
vn -0.5 0.866025 0 
vn -0.587785 0.809017 0 
vn -0.406737 0.913545 0 
vn -0.5 0.866025 0 
vn -0.309017 0.951057 0 
vn -0.406737 0.913545 0 
vn -0.207912 0.978148 0 
vn -0.309017 0.951057 0 
vn -0.104528 0.994522 0 
vn -0.207912 0.978148 0 
vn 0 1 0 
vn -0.104528 0.994522 0 
vn 0.0680195 0.997684 0 
vn 0.174511 0.984655 0 
vn 0.278995 0.960293 0 
vn 0.380266 0.924877 0 
vn 0.477161 0.878816 0 
vn 0.568564 0.822639 0 
vn 0.653422 0.756993 0 
vn 0.73076 0.682635 0 
vn 0.799686 0.600419 0 
vn 0.859407 0.511292 0 
vn 0.909237 0.41628 0 
vn 0.9486 0.316476 0 
vn 0.977046 0.21303 0 
vn 0.994245 0.107131 0 
vn 1 6.12323e-17 0 
vn -1 -1.83697e-16 0 
vn -0.994245 0.107131 0 
vn -0.977046 0.21303 0 
vn -0.9486 0.316476 0 
vn -0.909237 0.41628 0 
vn -0.859407 0.511292 0 
vn -0.799686 0.600419 0 
vn -0.73076 0.682635 0 
vn -0.653422 0.756993 0 
vn -0.568564 0.822639 0 
vn -0.477161 0.878816 0 
vn -0.380266 0.924877 0 
vn -0.278995 0.960293 0 
vn -0.174511 0.984655 0 
vn -0.0680195 0.997684 0 
vn -1 -1.83697e-16 0 
vn -0.994245 0.107131 0 
vn -0.977046 0.21303 0 
vn -0.9486 0.316476 0 
vn -0.909237 0.41628 0 
vn -0.859407 0.511292 0 
vn -0.799686 0.600419 0 
vn -0.73076 0.682635 0 
vn -0.653422 0.756993 0 
vn -0.568564 0.822639 0 
vn -0.477161 0.878816 0 
vn -0.380266 0.924877 0 
vn -0.278995 0.960293 0 
vn -0.174511 0.984655 0 
vn -0.0680195 0.997684 0 
vn 0.0680195 0.997684 0 
vn 0.174511 0.984655 0 
vn 0.278995 0.960293 0 
vn 0.380266 0.924877 0 
vn 0.477161 0.878816 0 
vn 0.568564 0.822639 0 
vn 0.653422 0.756993 0 
vn 0.73076 0.682635 0 
vn 0.799686 0.600419 0 
vn 0.859407 0.511292 0 
vn 0.909237 0.41628 0 
vn 0.9486 0.316476 0 
vn 0.977046 0.21303 0 
vn 0.994245 0.107131 0 
vn 1 6.12323e-17 0 
vn 0 -0.707107 0.707107 
vn 0 -0.77301 0.634393 
vn 0 -0.83147 0.55557 
vn 0 -0.881921 0.471397 
vn 0 -0.92388 0.382683 
vn 0 -0.95694 0.290285 
vn 0 -0.980785 0.19509 
vn 0 -0.995185 0.0980171 
vn 0 -1 2.44929e-16 
vn 0 -0.995185 -0.0980171 
vn 0 -0.980785 -0.19509 
vn 0 -0.95694 -0.290285 
vn 0 -0.92388 -0.382683 
vn 0 -0.881921 -0.471397 
vn 0 -0.83147 -0.55557 
vn 0 -0.77301 -0.634393 
vn 0 -0.707107 -0.707107 
vn 0 0 -1 
vn 0 -0.707107 0.707107 
vn 0 -0.77301 0.634393 
vn 0 -0.83147 0.55557 
vn 0 -0.881921 0.471397 
vn 0 -0.92388 0.382683 
vn 0 -0.95694 0.290285 
vn 0 -0.980785 0.19509 
vn 0 -0.995185 0.0980171 
vn 0 -1 2.44929e-16 
vn 0 -0.995185 -0.0980171 
vn 0 -0.980785 -0.19509 
vn 0 -0.95694 -0.290285 
vn 0 -0.92388 -0.382683 
vn 0 -0.881921 -0.471397 
vn 0 -0.83147 -0.55557 
vn 0 -0.77301 -0.634393 
vn 0 -0.707107 -0.707107 
vn -1 0 0 
vn 1 8.49292e-16 0 
vn -3.05489e-16 0.766044 -0.642788 
vn 3.31349e-16 -0.830892 -0.556434 
vn 3.05489e-16 -0.766044 -0.642788 
vn 3.53345e-16 -0.88605 -0.463591 
vn 3.31349e-16 -0.830892 -0.556434 
vn 3.7122e-16 -0.930874 -0.365341 
vn 3.53345e-16 -0.88605 -0.463591 
vn 3.84766e-16 -0.964842 -0.262831 
vn 3.7122e-16 -0.930874 -0.365341 
vn 3.93825e-16 -0.987558 -0.157255 
vn 3.84766e-16 -0.964842 -0.262831 
vn 3.98291e-16 -0.998757 -0.0498459 
vn 3.93825e-16 -0.987558 -0.157255 
vn 3.98112e-16 -0.998308 0.0581448 
vn 3.98291e-16 -0.998757 -0.0498459 
vn 3.9329e-16 -0.986217 0.165457 
vn 3.98112e-16 -0.998308 0.0581448 
vn 3.83882e-16 -0.962624 0.27084 
vn 3.9329e-16 -0.986217 0.165457 
vn 3.69997e-16 -0.927805 0.373065 
vn 3.83882e-16 -0.962624 0.27084 
vn 3.51796e-16 -0.882166 0.470939 
vn 3.69997e-16 -0.927805 0.373065 
vn 3.29493e-16 -0.826239 0.56332 
vn 3.51796e-16 -0.882166 0.470939 
vn 3.03348e-16 -0.760676 0.649132 
vn 3.29493e-16 -0.826239 0.56332 
vn 2.73664e-16 -0.686242 0.727374 
vn 3.03348e-16 -0.760676 0.649132 
vn 2.40789e-16 -0.603804 0.797133 
vn 2.73664e-16 -0.686242 0.727374 
vn 2.05106e-16 -0.514325 0.857595 
vn 2.40789e-16 -0.603804 0.797133 
vn 1.67031e-16 -0.418848 0.908056 
vn 2.05106e-16 -0.514325 0.857595 
vn 1.27008e-16 -0.318487 0.947927 
vn 1.67031e-16 -0.418848 0.908056 
vn 8.55042e-17 -0.214411 0.976744 
vn 1.27008e-16 -0.318487 0.947927 
vn 4.30028e-17 -0.107834 0.994169 
vn 8.55042e-17 -0.214411 0.976744 
vn -8.30481e-31 2.08252e-15 1 
vn 4.30028e-17 -0.107834 0.994169 
vn -4.30028e-17 0.107834 0.994169 
vn -8.30481e-31 2.08252e-15 1 
vn -8.55042e-17 0.214411 0.976744 
vn -4.30028e-17 0.107834 0.994169 
vn -1.27008e-16 0.318487 0.947927 
vn -8.55042e-17 0.214411 0.976744 
vn -1.67031e-16 0.418848 0.908056 
vn -1.27008e-16 0.318487 0.947927 
vn -2.05106e-16 0.514325 0.857595 
vn -1.67031e-16 0.418848 0.908056 
vn -2.40789e-16 0.603804 0.797133 
vn -2.05106e-16 0.514325 0.857595 
vn -2.73664e-16 0.686242 0.727374 
vn -2.40789e-16 0.603804 0.797133 
vn -3.03348e-16 0.760676 0.649132 
vn -2.73664e-16 0.686242 0.727374 
vn -3.29493e-16 0.826239 0.56332 
vn -3.03348e-16 0.760676 0.649132 
vn -3.51796e-16 0.882166 0.470939 
vn -3.29493e-16 0.826239 0.56332 
vn -3.69997e-16 0.927805 0.373065 
vn -3.51796e-16 0.882166 0.470939 
vn -3.83882e-16 0.962624 0.27084 
vn -3.69997e-16 0.927805 0.373065 
vn -3.9329e-16 0.986217 0.165457 
vn -3.83882e-16 0.962624 0.27084 
vn -3.98112e-16 0.998308 0.0581448 
vn -3.9329e-16 0.986217 0.165457 
vn -3.98291e-16 0.998757 -0.0498459 
vn -3.98112e-16 0.998308 0.0581448 
vn -3.93825e-16 0.987558 -0.157255 
vn -3.98291e-16 0.998757 -0.0498459 
vn -3.84766e-16 0.964842 -0.262831 
vn -3.93825e-16 0.987558 -0.157255 
vn -3.7122e-16 0.930874 -0.365341 
vn -3.84766e-16 0.964842 -0.262831 
vn -3.53345e-16 0.88605 -0.463591 
vn -3.7122e-16 0.930874 -0.365341 
vn -3.31349e-16 0.830892 -0.556434 
vn -3.53345e-16 0.88605 -0.463591 
vn -3.05489e-16 0.766044 -0.642788 
vn -3.31349e-16 0.830892 -0.556434 
vn 3.05489e-16 -0.766044 -0.642788 
vn -1 0 0 
vn 1 3.98787e-16 0 
vn 3.05489e-16 -0.766044 -0.642788 
vn 3.31349e-16 -0.830892 -0.556434 
vn 3.53345e-16 -0.88605 -0.463591 
vn 3.7122e-16 -0.930874 -0.365341 
vn 3.84766e-16 -0.964842 -0.262831 
vn 3.93825e-16 -0.987558 -0.157255 
vn 3.98291e-16 -0.998757 -0.0498459 
vn 3.98112e-16 -0.998308 0.0581448 
vn 3.9329e-16 -0.986217 0.165457 
vn 3.83882e-16 -0.962624 0.27084 
vn 3.69997e-16 -0.927805 0.373065 
vn 3.51796e-16 -0.882166 0.470939 
vn 3.29493e-16 -0.826239 0.56332 
vn 3.03348e-16 -0.760676 0.649132 
vn 2.73664e-16 -0.686242 0.727374 
vn 2.40789e-16 -0.603804 0.797133 
vn 2.05106e-16 -0.514325 0.857595 
vn 1.67031e-16 -0.418848 0.908056 
vn 1.27008e-16 -0.318487 0.947927 
vn 8.55042e-17 -0.214411 0.976744 
vn 4.30028e-17 -0.107834 0.994169 
vn -8.30481e-31 2.08252e-15 1 
vn -4.30028e-17 0.107834 0.994169 
vn -8.55042e-17 0.214411 0.976744 
vn -1.27008e-16 0.318487 0.947927 
vn -1.67031e-16 0.418848 0.908056 
vn -2.05106e-16 0.514325 0.857595 
vn -2.40789e-16 0.603804 0.797133 
vn -2.73664e-16 0.686242 0.727374 
vn -3.03348e-16 0.760676 0.649132 
vn -3.29493e-16 0.826239 0.56332 
vn -3.51796e-16 0.882166 0.470939 
vn -3.69997e-16 0.927805 0.373065 
vn -3.83882e-16 0.962624 0.27084 
vn -3.9329e-16 0.986217 0.165457 
vn -3.98112e-16 0.998308 0.0581448 
vn -3.98291e-16 0.998757 -0.0498459 
vn -3.93825e-16 0.987558 -0.157255 
vn -3.84766e-16 0.964842 -0.262831 
vn -3.7122e-16 0.930874 -0.365341 
vn -3.53345e-16 0.88605 -0.463591 
vn -3.31349e-16 0.830892 -0.556434 
vn -3.05489e-16 0.766044 -0.642788 
usemtl 0.615686_0.811765_0.929412_0.000000_0.000000
o mesh0
f 1//1 2//1 3//1 
f 3//1 4//1 1//1 
o mesh1
f 5//2 6//3 7//3 
f 8//4 5//2 9//5 
f 10//6 8//4 11//7 
f 12//8 10//6 13//9 
f 14//10 12//8 15//11 
f 16//12 14//10 17//13 
f 18//14 16//12 19//15 
f 20//16 18//14 21//17 
f 22//18 20//16 23//19 
f 24//20 22//18 25//21 
f 26//22 24//20 27//23 
f 28//24 26//22 29//25 
f 30//26 28//24 31//27 
f 32//28 30//26 33//29 
f 3//30 32//28 34//31 
f 34//31 4//30 3//30 
f 33//29 34//31 32//28 
f 31//27 33//29 30//26 
f 29//25 31//27 28//24 
f 27//23 29//25 26//22 
f 25//21 27//23 24//20 
f 23//19 25//21 22//18 
f 21//17 23//19 20//16 
f 19//15 21//17 18//14 
f 17//13 19//15 16//12 
f 15//11 17//13 14//10 
f 13//9 15//11 12//8 
f 11//7 13//9 10//6 
f 9//5 11//7 8//4 
f 7//3 9//5 5//2 
o mesh2
f 7//32 6//32 35//32 
f 35//32 36//32 7//32 
o mesh3
f 37//33 36//32 35//32 
f 38//34 37//33 39//33 
f 40//35 38//34 41//34 
f 42//36 40//35 43//35 
f 44//37 42//36 45//36 
f 46//38 44//37 47//37 
f 48//39 46//38 49//38 
f 50//40 48//39 51//39 
f 52//41 50//40 53//40 
f 54//42 52//41 55//41 
f 56//43 54//42 57//42 
f 58//44 56//43 59//43 
f 60//45 58//44 61//44 
f 62//46 60//45 63//45 
f 64//47 62//46 65//46 
f 65//46 66//47 64//47 
f 63//45 65//46 62//46 
f 61//44 63//45 60//45 
f 59//43 61//44 58//44 
f 57//42 59//43 56//43 
f 55//41 57//42 54//42 
f 53//40 55//41 52//41 
f 51//39 53//40 50//40 
f 49//38 51//39 48//39 
f 47//37 49//38 46//38 
f 45//36 47//37 44//37 
f 43//35 45//36 42//36 
f 41//34 43//35 40//35 
f 39//33 41//34 38//34 
f 35//32 39//33 37//33 
o mesh4
f 67//47 68//47 64//47 
f 64//47 66//47 67//47 
o mesh5
f 69//48 2//49 1//49 
f 70//50 69//48 71//51 
f 72//52 70//50 73//53 
f 74//54 72//52 75//55 
f 76//56 74//54 77//57 
f 78//58 76//56 79//59 
f 80//60 78//58 81//61 
f 82//62 80//60 83//63 
f 84//64 82//62 85//65 
f 86//66 84//64 87//67 
f 88//68 86//66 89//69 
f 90//70 88//68 91//71 
f 92//72 90//70 93//73 
f 94//74 92//72 95//75 
f 96//76 94//74 97//77 
f 97//77 98//76 96//76 
f 95//75 97//77 94//74 
f 93//73 95//75 92//72 
f 91//71 93//73 90//70 
f 89//69 91//71 88//68 
f 87//67 89//69 86//66 
f 85//65 87//67 84//64 
f 83//63 85//65 82//62 
f 81//61 83//63 80//60 
f 79//59 81//61 78//58 
f 77//57 79//59 76//56 
f 75//55 77//57 74//54 
f 73//53 75//55 72//52 
f 71//51 73//53 70//50 
f 1//49 71//51 69//48 
o mesh6
f 99//76 100//76 96//76 
f 96//76 98//76 99//76 
o mesh7
f 101//78 68//79 67//79 
f 102//80 101//78 103//81 
f 104//82 102//80 105//83 
f 106//84 104//82 107//85 
f 108//86 106//84 109//87 
f 110//88 108//86 111//89 
f 112//90 110//88 113//91 
f 114//92 112//90 115//93 
f 116//94 114//92 117//95 
f 118//96 116//94 119//97 
f 120//98 118//96 121//99 
f 122//100 120//98 123//101 
f 124//102 122//100 125//103 
f 126//104 124//102 127//105 
f 99//106 126//104 128//107 
f 128//107 100//106 99//106 
f 127//105 128//107 126//104 
f 125//103 127//105 124//102 
f 123//101 125//103 122//100 
f 121//99 123//101 120//98 
f 119//97 121//99 118//96 
f 117//95 119//97 116//94 
f 115//93 117//95 114//92 
f 113//91 115//93 112//90 
f 111//89 113//91 110//88 
f 109//87 111//89 108//86 
f 107//85 109//87 106//84 
f 105//83 107//85 104//82 
f 103//81 105//83 102//80 
f 67//79 103//81 101//78 
o mesh8
f 129//108 130//108 131//108 
f 132//108 133//108 134//108 
f 134//108 131//108 132//108 
f 135//108 136//108 130//108 
f 130//108 129//108 135//108 
f 135//108 137//108 136//108 
f 138//108 139//108 140//108 
f 132//108 141//108 133//108 
f 142//108 143//108 144//108 
f 145//108 146//108 147//108 
f 71//108 138//108 148//108 
f 140//108 149//108 138//108 
f 150//108 143//108 141//108 
f 131//108 134//108 129//108 
f 144//108 151//108 142//108 
f 152//108 153//108 73//108 
f 147//108 154//108 145//108 
f 154//108 155//108 156//108 
f 157//108 155//108 154//108 
f 149//108 148//108 138//108 
f 141//108 132//108 150//108 
f 158//108 159//108 137//108 
f 160//108 161//108 142//108 
f 162//108 163//108 75//108 
f 73//108 71//108 152//108 
f 154//108 164//108 145//108 
f 154//108 149//108 157//108 
f 148//108 165//108 71//108 
f 166//108 167//108 7//108 
f 9//108 7//108 167//108 
f 135//108 158//108 137//108 
f 151//108 160//108 142//108 
f 168//108 169//108 170//108 
f 153//108 162//108 73//108 
f 71//108 171//108 172//108 
f 71//108 173//108 174//108 
f 71//108 175//108 176//108 
f 156//108 164//108 154//108 
f 140//108 157//108 149//108 
f 138//108 177//108 178//108 
f 167//108 179//108 9//108 
f 37//108 180//108 166//108 
f 181//108 182//108 183//108 
f 143//108 184//108 185//108 
f 150//108 186//108 143//108 
f 170//108 161//108 168//108 
f 168//108 187//108 188//108 
f 189//108 190//108 91//108 
f 191//108 31//108 29//108 
f 191//108 34//108 33//108 
f 191//108 1//108 4//108 
f 138//108 71//108 1//108 
f 172//108 152//108 71//108 
f 176//108 173//108 71//108 
f 165//108 175//108 71//108 
f 178//108 192//108 138//108 
f 193//108 194//108 195//108 
f 196//108 197//108 198//108 
f 166//108 36//108 37//108 
f 182//108 199//108 200//108 
f 182//108 201//108 202//108 
f 182//108 203//108 204//108 
f 183//108 158//108 181//108 
f 143//108 205//108 206//108 
f 186//108 184//108 143//108 
f 168//108 207//108 169//108 
f 188//108 208//108 168//108 
f 163//108 83//108 81//108 
f 89//108 163//108 189//108 
f 191//108 27//108 25//108 
f 33//108 31//108 191//108 
f 1//108 191//108 138//108 
f 174//108 171//108 71//108 
f 192//108 139//108 138//108 
f 209//108 210//108 211//108 
f 210//108 209//108 193//108 
f 196//108 212//108 197//108 
f 37//108 213//108 180//108 
f 182//108 214//108 215//108 
f 202//108 199//108 182//108 
f 181//108 203//108 182//108 
f 185//108 205//108 143//108 
f 208//108 207//108 168//108 
f 163//108 79//108 77//108 
f 163//108 85//108 83//108 
f 91//108 89//108 189//108 
f 191//108 21//108 19//108 
f 25//108 23//108 191//108 
f 4//108 34//108 191//108 
f 146//108 182//108 147//108 
f 216//108 217//108 218//108 
f 216//108 219//108 220//108 
f 216//108 221//108 222//108 
f 195//108 210//108 193//108 
f 221//108 216//108 223//108 
f 196//108 224//108 212//108 
f 196//108 225//108 226//108 
f 196//108 227//108 228//108 
f 7//108 36//108 166//108 
f 97//108 229//108 230//108 
f 231//108 99//108 98//108 
f 182//108 232//108 214//108 
f 204//108 201//108 182//108 
f 160//108 168//108 161//108 
f 81//108 79//108 163//108 
f 89//108 87//108 163//108 
f 23//108 21//108 191//108 
f 75//108 73//108 162//108 
f 233//108 234//108 235//108 
f 191//108 236//108 237//108 
f 218//108 238//108 216//108 
f 216//108 239//108 219//108 
f 222//108 240//108 216//108 
f 223//108 209//108 221//108 
f 226//108 224//108 196//108 
f 196//108 241//108 227//108 
f 242//108 11//108 9//108 
f 98//108 230//108 231//108 
f 243//108 126//108 99//108 
f 200//108 232//108 182//108 
f 158//108 183//108 159//108 
f 87//108 85//108 163//108 
f 29//108 27//108 191//108 
f 244//108 233//108 245//108 
f 233//108 244//108 234//108 
f 237//108 246//108 191//108 
f 191//108 247//108 248//108 
f 220//108 217//108 216//108 
f 211//108 221//108 209//108 
f 228//108 225//108 196//108 
f 242//108 13//108 11//108 
f 99//108 231//108 243//108 
f 249//108 187//108 250//108 
f 206//108 144//108 143//108 
f 19//108 17//108 191//108 
f 251//108 68//108 101//108 
f 235//108 252//108 233//108 
f 191//108 253//108 254//108 
f 191//108 255//108 256//108 
f 191//108 257//108 236//108 
f 191//108 258//108 259//108 
f 248//108 260//108 191//108 
f 240//108 239//108 216//108 
f 196//108 251//108 241//108 
f 38//108 261//108 213//108 
f 179//108 242//108 9//108 
f 243//108 124//108 126//108 
f 187//108 168//108 250//108 
f 77//108 75//108 163//108 
f 249//108 251//108 262//108 
f 101//108 263//108 251//108 
f 254//108 244//108 191//108 
f 191//108 264//108 265//108 
f 246//108 255//108 191//108 
f 191//108 266//108 267//108 
f 191//108 268//108 269//108 
f 260//108 258//108 191//108 
f 191//108 270//108 271//108 
f 251//108 272//108 273//108 
f 198//108 216//108 196//108 
f 213//108 37//108 38//108 
f 13//108 274//108 275//108 
f 242//108 276//108 13//108 
f 124//108 243//108 277//108 
f 97//108 190//108 229//108 
f 215//108 147//108 182//108 
f 249//108 278//108 279//108 
f 262//108 280//108 249//108 
f 281//108 114//108 116//108 
f 281//108 108//108 110//108 
f 251//108 64//108 68//108 
f 265//108 253//108 191//108 
f 267//108 257//108 191//108 
f 191//108 282//108 268//108 
f 271//108 247//108 191//108 
f 42//108 283//108 284//108 
f 273//108 44//108 251//108 
f 238//108 196//108 216//108 
f 40//108 285//108 261//108 
f 276//108 274//108 13//108 
f 277//108 286//108 124//108 
f 230//108 98//108 97//108 
f 249//108 287//108 288//108 
f 279//108 187//108 249//108 
f 280//108 289//108 249//108 
f 116//108 118//108 281//108 
f 281//108 106//108 108//108 
f 281//108 102//108 104//108 
f 101//108 290//108 291//108 
f 256//108 264//108 191//108 
f 259//108 282//108 191//108 
f 191//108 292//108 293//108 
f 191//108 17//108 294//108 
f 284//108 40//108 42//108 
f 251//108 295//108 272//108 
f 196//108 296//108 251//108 
f 275//108 297//108 13//108 
f 40//108 298//108 299//108 
f 190//108 95//108 93//108 
f 97//108 95//108 190//108 
f 249//108 300//108 287//108 
f 289//108 278//108 249//108 
f 122//108 124//108 301//108 
f 281//108 112//108 114//108 
f 104//108 106//108 281//108 
f 101//108 291//108 263//108 
f 290//108 101//108 102//108 
f 251//108 50//108 52//108 
f 269//108 266//108 191//108 
f 293//108 302//108 191//108 
f 17//108 303//108 294//108 
f 17//108 297//108 304//108 
f 273//108 283//108 44//108 
f 296//108 305//108 251//108 
f 299//108 285//108 40//108 
f 40//108 284//108 306//108 
f 286//108 301//108 124//108 
f 250//108 300//108 249//108 
f 281//108 120//108 122//108 
f 110//108 112//108 281//108 
f 102//108 307//108 290//108 
f 102//108 281//108 308//108 
f 251//108 48//108 50//108 
f 191//108 309//108 270//108 
f 294//108 292//108 191//108 
f 304//108 310//108 17//108 
f 251//108 311//108 295//108 
f 305//108 312//108 251//108 
f 306//108 298//108 40//108 
f 297//108 17//108 15//108 
f 288//108 313//108 249//108 
f 118//108 120//108 281//108 
f 251//108 314//108 315//108 
f 308//108 307//108 102//108 
f 251//108 56//108 58//108 
f 52//108 54//108 251//108 
f 191//108 316//108 309//108 
f 310//108 303//108 17//108 
f 312//108 311//108 251//108 
f 15//108 13//108 297//108 
f 301//108 281//108 122//108 
f 263//108 314//108 251//108 
f 251//108 60//108 62//108 
f 54//108 56//108 251//108 
f 302//108 316//108 191//108 
f 38//108 40//108 261//108 
f 251//108 317//108 318//108 
f 315//108 317//108 251//108 
f 58//108 60//108 251//108 
f 251//108 44//108 46//108 
f 42//108 44//108 283//108 
f 93//108 91//108 190//108 
f 46//108 48//108 251//108 
f 318//108 262//108 251//108 
f 245//108 191//108 244//108 
f 62//108 64//108 251//108 
o mesh9
f 130//109 319//109 320//109 
f 320//109 131//109 130//109 
o mesh10
f 321//110 305//110 296//110 
f 296//110 322//110 321//110 
o mesh11
f 323//111 167//111 166//111 
f 166//111 324//111 323//111 
o mesh12
f 309//112 325//112 326//112 
f 326//112 270//112 309//112 
o mesh13
f 327//113 231//113 230//113 
f 230//113 328//113 327//113 
o mesh14
f 329//114 280//114 262//114 
f 262//114 330//114 329//114 
o mesh15
f 134//115 331//115 332//115 
f 332//115 129//115 134//115 
o mesh16
f 149//116 333//116 334//116 
f 334//116 148//116 149//116 
o mesh17
f 312//117 305//118 321//118 
f 311//119 312//117 335//120 
f 295//121 311//119 336//122 
f 272//123 295//121 337//124 
f 273//125 272//123 338//126 
f 283//127 273//125 339//128 
f 284//129 283//127 340//130 
f 306//131 284//129 341//132 
f 298//133 306//131 342//134 
f 299//135 298//133 343//136 
f 285//137 299//135 344//138 
f 261//139 285//137 345//140 
f 213//141 261//139 346//142 
f 180//143 213//141 347//144 
f 166//145 180//143 348//146 
f 348//146 324//145 166//145 
f 347//144 348//146 180//143 
f 346//142 347//144 213//141 
f 345//140 346//142 261//139 
f 344//138 345//140 285//137 
f 343//136 344//138 299//135 
f 342//134 343//136 298//133 
f 341//132 342//134 306//131 
f 340//130 341//132 284//129 
f 339//128 340//130 283//127 
f 338//126 339//128 273//125 
f 337//124 338//126 272//123 
f 336//122 337//124 295//121 
f 335//120 336//122 311//119 
f 321//118 335//120 312//117 
o mesh18
f 179//147 167//148 323//148 
f 242//149 179//147 349//150 
f 276//151 242//149 350//152 
f 274//153 276//151 351//154 
f 275//155 274//153 352//156 
f 297//157 275//155 353//158 
f 304//159 297//157 354//160 
f 310//161 304//159 355//162 
f 303//163 310//161 356//164 
f 294//165 303//163 357//166 
f 292//167 294//165 358//168 
f 293//169 292//167 359//170 
f 302//171 293//169 360//172 
f 316//173 302//171 361//174 
f 309//175 316//173 362//176 
f 362//176 325//175 309//175 
f 361//174 362//176 316//173 
f 360//172 361//174 302//171 
f 359//170 360//172 293//169 
f 358//168 359//170 292//167 
f 357//166 358//168 294//165 
f 356//164 357//166 303//163 
f 355//162 356//164 310//161 
f 354//160 355//162 304//159 
f 353//158 354//160 297//157 
f 352//156 353//158 275//155 
f 351//154 352//156 274//153 
f 350//152 351//154 276//151 
f 349//150 350//152 242//149 
f 323//148 349//150 179//147 
o mesh19
f 165//177 148//178 334//178 
f 175//179 165//177 363//180 
f 176//181 175//179 364//182 
f 173//183 176//181 365//184 
f 174//185 173//183 366//186 
f 171//187 174//185 367//188 
f 172//189 171//187 368//190 
f 152//191 172//189 369//192 
f 153//193 152//191 370//194 
f 162//195 153//193 371//196 
f 163//197 162//195 372//198 
f 189//199 163//197 373//200 
f 190//201 189//199 374//202 
f 229//203 190//201 375//204 
f 230//205 229//203 376//206 
f 376//206 328//205 230//205 
f 375//204 376//206 229//203 
f 374//202 375//204 190//201 
f 373//200 374//202 189//199 
f 372//198 373//200 163//197 
f 371//196 372//198 162//195 
f 370//194 371//196 153//193 
f 369//192 370//194 152//191 
f 368//190 369//192 172//189 
f 367//188 368//190 171//187 
f 366//186 367//188 174//185 
f 365//184 366//186 173//183 
f 364//182 365//184 176//181 
f 363//180 364//182 175//179 
f 334//178 363//180 165//177 
o mesh20
f 243//207 231//208 327//208 
f 277//209 243//207 377//210 
f 286//211 277//209 378//212 
f 301//213 286//211 379//214 
f 281//215 301//213 380//216 
f 308//217 281//215 381//218 
f 307//219 308//217 382//220 
f 290//221 307//219 383//222 
f 291//223 290//221 384//224 
f 263//225 291//223 385//226 
f 314//227 263//225 386//228 
f 315//229 314//227 387//230 
f 317//231 315//229 388//232 
f 318//233 317//231 389//234 
f 262//235 318//233 390//236 
f 390//236 330//235 262//235 
f 389//234 390//236 318//233 
f 388//232 389//234 317//231 
f 387//230 388//232 315//229 
f 386//228 387//230 314//227 
f 385//226 386//228 263//225 
f 384//224 385//226 291//223 
f 383//222 384//224 290//221 
f 382//220 383//222 307//219 
f 381//218 382//220 308//217 
f 380//216 381//218 281//215 
f 379//214 380//216 301//213 
f 378//212 379//214 286//211 
f 377//210 378//212 277//209 
f 327//208 377//210 243//207 
o mesh21
f 391//236 392//235 288//235 
f 393//237 391//236 287//236 
f 394//238 393//237 300//237 
f 395//239 394//238 250//238 
f 396//240 395//239 168//239 
f 397//241 396//240 160//240 
f 398//242 397//241 151//241 
f 399//243 398//242 144//242 
f 400//244 399//243 206//243 
f 401//245 400//244 205//244 
f 402//246 401//245 185//245 
f 403//247 402//246 184//246 
f 404//248 403//247 186//247 
f 405//249 404//248 150//248 
f 320//250 405//249 132//249 
f 132//249 131//250 320//250 
f 150//248 132//249 405//249 
f 186//247 150//248 404//248 
f 184//246 186//247 403//247 
f 185//245 184//246 402//246 
f 205//244 185//245 401//245 
f 206//243 205//244 400//244 
f 144//242 206//243 399//243 
f 151//241 144//242 398//242 
f 160//240 151//241 397//241 
f 168//239 160//240 396//240 
f 250//238 168//239 395//239 
f 300//237 250//238 394//238 
f 287//236 300//237 393//237 
f 288//235 287//236 391//236 
o mesh22
f 406//251 319//250 130//250 
f 407//252 406//251 136//251 
f 408//253 407//252 137//252 
f 409//254 408//253 159//253 
f 410//255 409//254 183//254 
f 411//256 410//255 182//255 
f 412//257 411//256 146//256 
f 413//258 412//257 145//257 
f 414//259 413//258 164//258 
f 415//260 414//259 156//259 
f 416//261 415//260 155//260 
f 417//262 416//261 157//261 
f 418//263 417//262 140//262 
f 419//264 418//263 139//263 
f 420//265 419//264 192//264 
f 192//264 178//265 420//265 
f 139//263 192//264 419//264 
f 140//262 139//263 418//263 
f 157//261 140//262 417//262 
f 155//260 157//261 416//261 
f 156//259 155//260 415//260 
f 164//258 156//259 414//259 
f 145//257 164//258 413//258 
f 146//256 145//257 412//257 
f 182//255 146//256 411//256 
f 183//254 182//255 410//255 
f 159//253 183//254 409//254 
f 137//252 159//253 408//253 
f 136//251 137//252 407//252 
f 130//250 136//251 406//251 
o mesh23
f 135//266 129//267 332//267 
f 158//268 135//266 421//269 
f 181//270 158//268 422//271 
f 203//272 181//270 423//273 
f 204//274 203//272 424//275 
f 201//276 204//274 425//277 
f 202//278 201//276 426//279 
f 199//280 202//278 427//281 
f 200//282 199//280 428//283 
f 232//284 200//282 429//285 
f 214//286 232//284 430//287 
f 215//288 214//286 431//289 
f 147//290 215//288 432//291 
f 154//292 147//290 433//293 
f 149//294 154//292 434//295 
f 434//295 333//294 149//294 
f 433//293 434//295 154//292 
f 432//291 433//293 147//290 
f 431//289 432//291 215//288 
f 430//287 431//289 214//286 
f 429//285 430//287 232//284 
f 428//283 429//285 200//282 
f 427//281 428//283 199//280 
f 426//279 427//281 202//278 
f 425//277 426//279 201//276 
f 424//275 425//277 204//274 
f 423//273 424//275 203//272 
f 422//271 423//273 181//270 
f 421//269 422//271 158//268 
f 332//267 421//269 135//266 
o mesh24
f 289//296 280//297 329//297 
f 278//298 289//296 435//299 
f 279//300 278//298 436//301 
f 187//302 279//300 437//303 
f 188//304 187//302 438//305 
f 208//306 188//304 439//307 
f 207//308 208//306 440//309 
f 169//310 207//308 441//311 
f 170//312 169//310 442//313 
f 161//314 170//312 443//315 
f 142//316 161//314 444//317 
f 143//318 142//316 445//319 
f 141//320 143//318 446//321 
f 133//322 141//320 447//323 
f 134//324 133//322 448//325 
f 448//325 331//324 134//324 
f 447//323 448//325 133//322 
f 446//321 447//323 141//320 
f 445//319 446//321 143//318 
f 444//317 445//319 142//316 
f 443//315 444//317 161//314 
f 442//313 443//315 170//312 
f 441//311 442//313 169//310 
f 440//309 441//311 207//308 
f 439//307 440//309 208//306 
f 438//305 439//307 188//304 
f 437//303 438//305 187//302 
f 436//301 437//303 279//300 
f 435//299 436//301 278//298 
f 329//297 435//299 289//296 
o mesh25
f 449//326 194//326 193//327 
f 450//327 193//327 209//328 
f 451//328 209//328 223//329 
f 452//329 223//329 216//330 
f 453//330 216//330 198//331 
f 454//331 198//331 197//332 
f 455//332 197//332 212//333 
f 456//333 212//333 224//334 
f 457//334 224//334 226//335 
f 458//335 226//335 225//336 
f 459//336 225//336 228//337 
f 460//337 228//337 227//338 
f 461//338 227//338 241//339 
f 462//339 241//339 251//340 
f 251//340 463//340 462//339 
f 241//339 462//339 461//338 
f 227//338 461//338 460//337 
f 228//337 460//337 459//336 
f 225//336 459//336 458//335 
f 226//335 458//335 457//334 
f 224//334 457//334 456//333 
f 212//333 456//333 455//332 
f 197//332 455//332 454//331 
f 198//331 454//331 453//330 
f 216//330 453//330 452//329 
f 223//329 452//329 451//328 
f 209//328 451//328 450//327 
f 193//327 450//327 449//326 
o mesh26
f 322//341 296//341 196//342 
f 464//342 196//342 238//343 
f 465//343 238//343 218//344 
f 466//344 218//344 217//345 
f 467//345 217//345 220//346 
f 468//346 220//346 219//347 
f 469//347 219//347 239//348 
f 470//348 239//348 240//349 
f 471//349 240//349 222//350 
f 472//350 222//350 221//351 
f 473//351 221//351 211//352 
f 474//352 211//352 210//353 
f 475//353 210//353 195//354 
f 476//354 195//354 194//355 
f 194//355 449//355 476//354 
f 195//354 476//354 475//353 
f 210//353 475//353 474//352 
f 211//352 474//352 473//351 
f 221//351 473//351 472//350 
f 222//350 472//350 471//349 
f 240//349 471//349 470//348 
f 239//348 470//348 469//347 
f 219//347 469//347 468//346 
f 220//346 468//346 467//345 
f 217//345 467//345 466//344 
f 218//344 466//344 465//343 
f 238//343 465//343 464//342 
f 196//342 464//342 322//341 
o mesh27
f 477//356 191//356 245//357 
f 478//357 245//357 233//358 
f 479//358 233//358 252//359 
f 480//359 252//359 235//360 
f 481//360 235//360 234//361 
f 482//361 234//361 244//362 
f 483//362 244//362 254//363 
f 484//363 254//363 253//364 
f 485//364 253//364 265//365 
f 486//365 265//365 264//366 
f 487//366 264//366 256//367 
f 488//367 256//367 255//368 
f 489//368 255//368 246//369 
f 490//369 246//369 237//370 
f 237//370 491//370 490//369 
f 246//369 490//369 489//368 
f 255//368 489//368 488//367 
f 256//367 488//367 487//366 
f 264//366 487//366 486//365 
f 265//365 486//365 485//364 
f 253//364 485//364 484//363 
f 254//363 484//363 483//362 
f 244//362 483//362 482//361 
f 234//361 482//361 481//360 
f 235//360 481//360 480//359 
f 252//359 480//359 479//358 
f 233//358 479//358 478//357 
f 245//357 478//357 477//356 
o mesh28
f 491//371 237//371 236//372 
f 492//372 236//372 257//373 
f 493//373 257//373 267//374 
f 494//374 267//374 266//375 
f 495//375 266//375 269//376 
f 496//376 269//376 268//377 
f 497//377 268//377 282//378 
f 498//378 282//378 259//379 
f 499//379 259//379 258//380 
f 500//380 258//380 260//381 
f 501//381 260//381 248//382 
f 502//382 248//382 247//383 
f 503//383 247//383 271//384 
f 504//384 271//384 270//385 
f 270//385 326//385 504//384 
f 271//384 504//384 503//383 
f 247//383 503//383 502//382 
f 248//382 502//382 501//381 
f 260//381 501//381 500//380 
f 258//380 500//380 499//379 
f 259//379 499//379 498//378 
f 282//378 498//378 497//377 
f 268//377 497//377 496//376 
f 269//376 496//376 495//375 
f 266//375 495//375 494//374 
f 267//374 494//374 493//373 
f 257//373 493//373 492//372 
f 236//372 492//372 491//371 
o mesh29
f 249//386 313//386 505//386 
f 505//386 506//386 249//386 
o mesh30
f 177//386 138//386 507//386 
f 507//386 508//386 177//386 
o mesh31
f 506//386 505//386 509//387 
f 510//387 509//387 511//388 
f 512//388 511//388 513//389 
f 514//389 513//389 515//390 
f 516//390 515//390 517//391 
f 518//391 517//391 519//392 
f 520//392 519//392 521//393 
f 522//393 521//393 523//394 
f 523//394 524//394 522//393 
f 521//393 522//393 520//392 
f 519//392 520//392 518//391 
f 517//391 518//391 516//390 
f 515//390 516//390 514//389 
f 513//389 514//389 512//388 
f 511//388 512//388 510//387 
f 509//387 510//387 506//386 
o mesh32
f 524//394 523//394 525//394 
f 525//394 526//394 524//394 
o mesh33
f 526//394 525//394 527//395 
f 528//395 527//395 529//396 
f 530//396 529//396 531//397 
f 532//397 531//397 533//398 
f 534//398 533//398 535//399 
f 536//399 535//399 537//400 
f 538//400 537//400 539//401 
f 540//401 539//401 541//402 
f 541//402 542//402 540//401 
f 539//401 540//401 538//400 
f 537//400 538//400 536//399 
f 535//399 536//399 534//398 
f 533//398 534//398 532//397 
f 531//397 532//397 530//396 
f 529//396 530//396 528//395 
f 527//395 528//395 526//394 
o mesh34
f 543//402 544//402 542//402 
f 542//402 541//402 543//402 
o mesh35
f 487//403 501//403 502//403 
f 504//403 479//403 480//403 
f 476//403 449//403 450//403 
f 487//403 500//403 501//403 
f 487//403 498//403 499//403 
f 490//403 491//403 492//403 
f 480//403 481//403 504//403 
f 445//403 397//403 398//403 
f 39//403 35//403 324//403 
f 35//403 6//403 323//403 
f 475//403 451//403 452//403 
f 451//403 475//403 476//403 
f 453//403 465//403 466//403 
f 499//403 500//403 487//403 
f 487//403 495//403 496//403 
f 489//403 493//403 494//403 
f 493//403 489//403 490//403 
f 481//403 482//403 504//403 
f 504//403 477//403 478//403 
f 445//403 396//403 397//403 
f 323//403 324//403 35//403 
f 5//403 349//403 323//403 
f 322//403 459//403 460//403 
f 322//403 457//403 458//403 
f 322//403 453//403 454//403 
f 450//403 451//403 476//403 
f 453//403 473//403 474//403 
f 453//403 471//403 472//403 
f 453//403 467//403 468//403 
f 453//403 464//403 465//403 
f 502//403 503//403 487//403 
f 496//403 497//403 487//403 
f 492//403 493//403 490//403 
f 495//403 487//403 488//403 
f 504//403 483//403 484//403 
f 478//403 479//403 504//403 
f 378//403 377//403 127//403 
f 398//403 446//403 445//403 
f 404//403 405//403 447//403 
f 323//403 6//403 5//403 
f 41//403 39//403 347//403 
f 460//403 461//403 322//403 
f 322//403 456//403 457//403 
f 454//403 455//403 322//403 
f 474//403 475//403 453//403 
f 453//403 470//403 471//403 
f 468//403 469//403 453//403 
f 453//403 322//403 464//403 
f 497//403 498//403 487//403 
f 488//403 489//403 495//403 
f 504//403 485//403 486//403 
f 482//403 483//403 504//403 
f 127//403 125//403 378//403 
f 395//403 444//403 443//403 
f 444//403 395//403 396//403 
f 446//403 403//403 404//403 
f 8//403 351//403 350//403 
f 5//403 350//403 349//403 
f 346//403 43//403 41//403 
f 461//403 462//403 322//403 
f 455//403 456//403 322//403 
f 472//403 473//403 453//403 
f 466//403 467//403 453//403 
f 494//403 495//403 489//403 
f 484//403 485//403 504//403 
f 387//403 115//403 113//403 
f 123//403 379//403 378//403 
f 123//403 383//403 382//403 
f 395//403 440//403 439//403 
f 445//403 444//403 396//403 
f 446//403 402//403 403//403 
f 446//403 400//403 401//403 
f 350//403 5//403 8//403 
f 324//403 348//403 39//403 
f 347//403 346//403 41//403 
f 458//403 459//403 322//403 
f 469//403 470//403 453//403 
f 463//403 47//403 339//403 
f 486//403 487//403 504//403 
f 387//403 109//403 107//403 
f 113//403 111//403 387//403 
f 123//403 380//403 379//403 
f 382//403 381//403 123//403 
f 544//403 329//403 330//403 
f 395//403 441//403 440//403 
f 443//403 442//403 395//403 
f 401//403 402//403 446//403 
f 446//403 398//403 399//403 
f 86//403 88//403 365//403 
f 364//403 76//403 78//403 
f 10//403 352//403 351//403 
f 10//403 354//403 353//403 
f 43//403 345//403 344//403 
f 346//403 345//403 43//403 
f 452//403 453//403 475//403 
f 47//403 340//403 339//403 
f 45//403 43//403 341//403 
f 503//403 504//403 487//403 
f 463//403 57//403 55//403 
f 463//403 67//403 66//403 
f 389//403 103//403 67//403 
f 111//403 109//403 387//403 
f 387//403 121//403 119//403 
f 381//403 380//403 123//403 
f 123//403 386//403 385//403 
f 544//403 435//403 329//403 
f 442//403 441//403 395//403 
f 399//403 400//403 446//403 
f 90//403 92//403 373//403 
f 364//403 84//403 86//403 
f 78//403 80//403 364//403 
f 364//403 72//403 74//403 
f 421//403 332//403 319//403 
f 332//403 331//403 320//403 
f 353//403 352//403 10//403 
f 348//403 347//403 39//403 
f 463//403 321//403 322//403 
f 339//403 338//403 463//403 
f 340//403 47//403 45//403 
f 477//403 361//403 360//403 
f 504//403 326//403 477//403 
f 55//403 53//403 463//403 
f 67//403 463//403 389//403 
f 387//403 117//403 115//403 
f 387//403 123//403 121//403 
f 123//403 384//403 383//403 
f 123//403 387//403 386//403 
f 330//403 463//403 544//403 
f 395//403 438//403 437//403 
f 447//403 446//403 404//403 
f 544//403 393//403 394//403 
f 88//403 372//403 371//403 
f 372//403 88//403 90//403 
f 364//403 82//403 84//403 
f 74//403 76//403 364//403 
f 363//403 477//403 2//403 
f 405//403 320//403 331//403 
f 320//403 319//403 332//403 
f 423//403 422//403 409//403 
f 477//403 20//403 22//403 
f 43//403 343//403 342//403 
f 344//403 343//403 43//403 
f 463//403 335//403 321//403 
f 341//403 340//403 45//403 
f 477//403 359//403 358//403 
f 477//403 362//403 361//403 
f 326//403 325//403 477//403 
f 463//403 59//403 57//403 
f 463//403 63//403 61//403 
f 389//403 105//403 103//403 
f 119//403 117//403 387//403 
f 385//403 384//403 123//403 
f 330//403 390//403 463//403 
f 439//403 438//403 395//403 
f 394//403 436//403 544//403 
f 88//403 368//403 367//403 
f 88//403 370//403 369//403 
f 373//403 372//403 90//403 
f 80//403 82//403 364//403 
f 363//403 69//403 70//403 
f 477//403 3//403 2//403 
f 417//403 477//403 333//403 
f 416//403 333//403 434//403 
f 434//403 413//403 414//403 
f 413//403 434//403 433//403 
f 433//403 410//403 411//403 
f 319//403 406//403 421//403 
f 410//403 424//403 423//403 
f 410//403 426//403 425//403 
f 410//403 428//403 427//403 
f 410//403 430//403 429//403 
f 477//403 28//403 30//403 
f 477//403 24//403 26//403 
f 477//403 18//403 20//403 
f 477//403 14//403 16//403 
f 354//403 10//403 12//403 
f 8//403 10//403 351//403 
f 463//403 336//403 335//403 
f 338//403 337//403 463//403 
f 14//403 356//403 355//403 
f 358//403 14//403 477//403 
f 325//403 362//403 477//403 
f 61//403 59//403 463//403 
f 66//403 65//403 463//403 
f 125//403 123//403 378//403 
f 105//403 389//403 388//403 
f 544//403 436//403 435//403 
f 394//403 395//403 436//403 
f 544//403 543//403 392//403 
f 94//403 96//403 328//403 
f 327//403 328//403 96//403 
f 367//403 366//403 88//403 
f 371//403 370//403 88//403 
f 365//403 364//403 86//403 
f 2//403 69//403 363//403 
f 477//403 417//403 418//403 
f 477//403 334//403 333//403 
f 414//403 415//403 434//403 
f 411//403 412//403 433//403 
f 422//403 406//403 407//403 
f 406//403 422//403 421//403 
f 425//403 424//403 410//403 
f 429//403 428//403 410//403 
f 410//403 433//403 432//403 
f 26//403 28//403 477//403 
f 16//403 18//403 477//403 
f 342//403 341//403 43//403 
f 337//403 336//403 463//403 
f 14//403 357//403 356//403 
f 360//403 359//403 477//403 
f 65//403 63//403 463//403 
f 388//403 387//403 105//403 
f 437//403 436//403 395//403 
f 392//403 391//403 544//403 
f 377//403 327//403 100//403 
f 96//403 100//403 327//403 
f 369//403 368//403 88//403 
f 70//403 72//403 363//403 
f 545//403 419//403 420//403 
f 333//403 416//403 417//403 
f 433//403 412//403 413//403 
f 407//403 408//403 422//403 
f 331//403 448//403 405//403 
f 427//403 426//403 410//403 
f 432//403 431//403 410//403 
f 22//403 24//403 477//403 
f 462//403 463//403 322//403 
f 358//403 357//403 14//403 
f 107//403 105//403 387//403 
f 391//403 393//403 544//403 
f 328//403 376//403 94//403 
f 92//403 94//403 375//403 
f 364//403 363//403 72//403 
f 545//403 418//403 419//403 
f 434//403 415//403 416//403 
f 448//403 447//403 405//403 
f 431//403 430//403 410//403 
f 30//403 32//403 477//403 
f 355//403 354//403 14//403 
f 463//403 51//403 49//403 
f 390//403 389//403 463//403 
f 100//403 128//403 377//403 
f 375//403 374//403 92//403 
f 366//403 365//403 88//403 
f 418//403 545//403 477//403 
f 409//403 410//403 423//403 
f 12//403 14//403 354//403 
f 53//403 51//403 463//403 
f 128//403 127//403 377//403 
f 363//403 334//403 477//403 
f 408//403 409//403 422//403 
f 49//403 47//403 463//403 
f 374//403 373//403 92//403 
f 32//403 3//403 477//403 
f 420//403 546//403 545//403 
f 376//403 375//403 94//403 
o mesh36
f 545//402 546//402 547//402 
f 547//402 548//402 545//402 
o mesh37
f 508//404 507//404 549//405 
f 550//405 549//405 551//406 
f 552//406 551//406 553//407 
f 554//407 553//407 555//408 
f 556//408 555//408 557//409 
f 558//409 557//409 559//410 
f 560//410 559//410 561//411 
f 562//411 561//411 563//412 
f 563//412 564//412 562//411 
f 561//411 562//411 560//410 
f 559//410 560//410 558//409 
f 557//409 558//409 556//408 
f 555//408 556//408 554//407 
f 553//407 554//407 552//406 
f 551//406 552//406 550//405 
f 549//405 550//405 508//404 
o mesh38
f 565//412 566//412 564//412 
f 564//412 563//412 565//412 
o mesh39
f 566//412 565//412 567//413 
f 568//413 567//413 569//414 
f 570//414 569//414 571//415 
f 572//415 571//415 573//416 
f 574//416 573//416 575//417 
f 576//417 575//417 577//418 
f 578//418 577//418 579//419 
f 580//419 579//419 548//420 
f 548//420 547//420 580//419 
f 579//419 580//419 578//418 
f 577//418 578//418 576//417 
f 575//417 576//417 574//416 
f 573//416 574//416 572//415 
f 571//415 572//415 570//414 
f 569//414 570//414 568//413 
f 567//413 568//413 566//412 
o mesh40
f 581//421 551//421 549//421 
f 581//421 553//421 551//421 
f 581//421 582//421 555//421 
f 545//421 583//421 584//421 
f 545//421 585//421 586//421 
f 548//421 587//421 588//421 
f 548//421 589//421 590//421 
f 582//421 591//421 559//421 
f 555//421 553//421 581//421 
f 138//421 592//421 593//421 
f 191//421 594//421 592//421 
f 586//421 583//421 545//421 
f 590//421 587//421 548//421 
f 595//421 571//421 569//421 
f 559//421 557//421 582//421 
f 549//421 507//421 581//421 
f 592//421 138//421 191//421 
f 191//421 596//421 597//421 
f 545//421 598//421 585//421 
f 588//421 545//421 548//421 
f 599//421 575//421 573//421 
f 595//421 573//421 571//421 
f 591//421 600//421 561//421 
f 507//421 138//421 581//421 
f 597//421 594//421 191//421 
f 191//421 601//421 602//421 
f 191//421 603//421 604//421 
f 477//421 605//421 603//421 
f 545//421 606//421 607//421 
f 545//421 608//421 609//421 
f 588//421 598//421 545//421 
f 610//421 577//421 575//421 
f 569//421 611//421 595//421 
f 611//421 569//421 567//421 
f 612//421 567//421 565//421 
f 565//421 613//421 614//421 
f 565//421 563//421 615//421 
f 600//421 616//421 563//421 
f 557//421 555//421 582//421 
f 602//421 596//421 191//421 
f 603//421 191//421 477//421 
f 607//421 477//421 545//421 
f 584//421 608//421 545//421 
f 589//421 548//421 579//421 
f 610//421 579//421 577//421 
f 567//421 612//421 611//421 
f 565//421 617//421 618//421 
f 615//421 613//421 565//421 
f 563//421 619//421 620//421 
f 561//421 559//421 591//421 
f 604//421 601//421 191//421 
f 477//421 621//421 622//421 
f 477//421 623//421 624//421 
f 609//421 606//421 545//421 
f 575//421 599//421 610//421 
f 565//421 618//421 612//421 
f 620//421 615//421 563//421 
f 563//421 561//421 600//421 
f 622//421 605//421 477//421 
f 607//421 623//421 477//421 
f 573//421 595//421 599//421 
f 616//421 619//421 563//421 
f 624//421 621//421 477//421 
f 614//421 617//421 565//421 
f 579//421 610//421 589//421 
f 593//421 581//421 138//421 
o mesh41
f 625//422 554//422 556//422 
f 625//422 552//422 554//422 
f 625//422 508//422 550//422 
f 550//422 552//422 625//422 
f 626//422 558//422 560//422 
f 625//422 177//422 508//422 
f 626//422 556//422 558//422 
f 627//422 628//422 576//422 
f 560//422 629//422 626//422 
f 629//422 560//422 562//422 
f 630//422 631//422 566//422 
f 632//422 630//422 568//422 
f 576//422 578//422 627//422 
f 633//422 627//422 580//422 
f 562//422 634//422 629//422 
f 634//422 562//422 564//422 
f 566//422 635//422 636//422 
f 566//422 637//422 638//422 
f 568//422 570//422 632//422 
f 639//422 632//422 570//422 
f 628//422 639//422 574//422 
f 580//422 547//422 633//422 
f 564//422 640//422 634//422 
f 564//422 641//422 642//422 
f 638//422 635//422 566//422 
f 566//422 568//422 630//422 
f 570//422 572//422 639//422 
f 578//422 580//422 627//422 
f 546//422 643//422 644//422 
f 642//422 640//422 564//422 
f 636//422 564//422 566//422 
f 572//422 574//422 639//422 
f 547//422 645//422 633//422 
f 547//422 546//422 646//422 
f 644//422 647//422 546//422 
f 420//422 648//422 643//422 
f 636//422 641//422 564//422 
f 574//422 576//422 628//422 
f 646//422 649//422 547//422 
f 643//422 546//422 420//422 
f 420//422 650//422 651//422 
f 420//422 652//422 653//422 
f 631//422 637//422 566//422 
f 546//422 654//422 646//422 
f 420//422 655//422 648//422 
f 420//422 656//422 650//422 
f 653//422 657//422 420//422 
f 420//422 658//422 659//422 
f 178//422 660//422 661//422 
f 178//422 177//422 625//422 
f 649//422 645//422 547//422 
f 651//422 655//422 420//422 
f 659//422 652//422 420//422 
f 420//422 662//422 663//422 
f 178//422 664//422 660//422 
f 625//422 665//422 178//422 
f 647//422 654//422 546//422 
f 663//422 658//422 420//422 
f 178//422 666//422 664//422 
f 665//422 667//422 178//422 
f 657//422 656//422 420//422 
f 420//422 178//422 668//422 
f 667//422 666//422 178//422 
f 668//422 662//422 420//422 
f 556//422 626//422 625//422 
f 661//422 668//422 178//422 
o mesh42
f 581//423 625//423 626//423 
f 626//423 582//423 581//423 
o mesh43
f 667//424 665//425 593//425 
f 666//426 667//424 592//427 
f 664//428 666//426 594//429 
f 660//430 664//428 597//431 
f 661//432 660//430 596//433 
f 668//434 661//432 602//435 
f 662//436 668//434 601//437 
f 663//438 662//436 604//439 
f 658//440 663//438 603//441 
f 659//442 658//440 605//443 
f 652//444 659//442 622//445 
f 653//446 652//444 621//447 
f 657//448 653//446 624//449 
f 656//450 657//448 623//451 
f 650//452 656//450 607//453 
f 651//454 650//452 606//455 
f 655//456 651//454 609//457 
f 648//458 655//456 608//459 
f 643//460 648//458 584//461 
f 644//462 643//460 583//463 
f 647//464 644//462 586//465 
f 654//466 647//464 585//467 
f 646//468 654//466 598//469 
f 649//470 646//468 588//471 
f 645//472 649//470 587//473 
f 633//474 645//472 590//475 
f 627//476 633//474 589//477 
f 628//478 627//476 610//479 
f 639//480 628//478 599//481 
f 632//482 639//480 595//483 
f 630//484 632//482 611//485 
f 631//486 630//484 612//487 
f 637//488 631//486 618//489 
f 638//490 637//488 617//491 
f 635//492 638//490 614//493 
f 636//494 635//492 613//495 
f 641//496 636//494 615//497 
f 642//498 641//496 620//499 
f 640//500 642//498 619//501 
f 634//502 640//500 616//503 
f 629//504 634//502 600//505 
f 626//506 629//504 591//507 
f 591//507 582//506 626//506 
f 600//505 591//507 629//504 
f 616//503 600//505 634//502 
f 619//501 616//503 640//500 
f 620//499 619//501 642//498 
f 615//497 620//499 641//496 
f 613//495 615//497 636//494 
f 614//493 613//495 635//492 
f 617//491 614//493 638//490 
f 618//489 617//491 637//488 
f 612//487 618//489 631//486 
f 611//485 612//487 630//484 
f 595//483 611//485 632//482 
f 599//481 595//483 639//480 
f 610//479 599//481 628//478 
f 589//477 610//479 627//476 
f 590//475 589//477 633//474 
f 587//473 590//475 645//472 
f 588//471 587//473 649//470 
f 598//469 588//471 646//468 
f 585//467 598//469 654//466 
f 586//465 585//467 647//464 
f 583//463 586//465 644//462 
f 584//461 583//463 643//460 
f 608//459 584//461 648//458 
f 609//457 608//459 655//456 
f 606//455 609//457 651//454 
f 607//453 606//455 650//452 
f 623//451 607//453 656//450 
f 624//449 623//451 657//448 
f 621//447 624//449 653//446 
f 622//445 621//447 652//444 
f 605//443 622//445 659//442 
f 603//441 605//443 658//440 
f 604//439 603//441 663//438 
f 601//437 604//439 662//436 
f 602//435 601//437 668//434 
f 596//433 602//435 661//432 
f 597//431 596//433 660//430 
f 594//429 597//431 664//428 
f 592//427 594//429 666//426 
f 593//425 592//427 667//424 
o mesh44
f 593//508 665//508 625//508 
f 625//508 581//508 593//508 
o mesh45
f 669//509 670//509 515//509 
f 669//509 511//509 509//509 
f 515//509 513//509 669//509 
f 670//509 671//509 519//509 
f 513//509 511//509 669//509 
f 519//509 517//509 670//509 
f 509//509 505//509 669//509 
f 543//509 672//509 673//509 
f 525//509 523//509 674//509 
f 671//509 675//509 521//509 
f 505//509 313//509 669//509 
f 392//509 543//509 676//509 
f 543//509 677//509 672//509 
f 678//509 537//509 535//509 
f 679//509 531//509 529//509 
f 680//509 529//509 527//509 
f 681//509 527//509 525//509 
f 523//509 682//509 674//509 
f 523//509 683//509 684//509 
f 675//509 683//509 523//509 
f 517//509 515//509 670//509 
f 392//509 685//509 686//509 
f 392//509 687//509 688//509 
f 673//509 676//509 543//509 
f 689//509 541//509 539//509 
f 678//509 539//509 537//509 
f 679//509 533//509 531//509 
f 525//509 690//509 681//509 
f 684//509 682//509 523//509 
f 521//509 519//509 671//509 
f 392//509 691//509 692//509 
f 688//509 685//509 392//509 
f 676//509 693//509 392//509 
f 541//509 694//509 695//509 
f 535//509 696//509 678//509 
f 696//509 535//509 533//509 
f 527//509 681//509 680//509 
f 525//509 697//509 698//509 
f 523//509 521//509 675//509 
f 288//509 699//509 700//509 
f 392//509 701//509 691//509 
f 392//509 702//509 703//509 
f 693//509 687//509 392//509 
f 541//509 704//509 694//509 
f 533//509 679//509 696//509 
f 525//509 705//509 690//509 
f 674//509 697//509 525//509 
f 700//509 706//509 288//509 
f 692//509 288//509 392//509 
f 392//509 707//509 708//509 
f 686//509 702//509 392//509 
f 695//509 543//509 541//509 
f 539//509 678//509 689//509 
f 698//509 705//509 525//509 
f 288//509 709//509 669//509 
f 692//509 699//509 288//509 
f 708//509 710//509 392//509 
f 695//509 677//509 543//509 
f 529//509 680//509 679//509 
f 288//509 711//509 709//509 
f 710//509 701//509 392//509 
f 689//509 704//509 541//509 
f 288//509 712//509 711//509 
f 703//509 707//509 392//509 
f 706//509 712//509 288//509 
f 669//509 313//509 288//509 
o mesh46
f 713//510 714//510 536//510 
f 714//510 715//510 534//510 
f 536//510 538//510 713//510 
f 544//510 716//510 717//510 
f 718//510 719//510 526//510 
f 720//510 718//510 528//510 
f 538//510 540//510 713//510 
f 721//510 713//510 540//510 
f 542//510 544//510 722//510 
f 717//510 723//510 544//510 
f 724//510 506//510 510//510 
f 528//510 530//510 720//510 
f 540//510 542//510 721//510 
f 722//510 725//510 542//510 
f 544//510 726//510 716//510 
f 724//510 514//510 516//510 
f 510//510 512//510 724//510 
f 526//510 528//510 718//510 
f 542//510 727//510 721//510 
f 544//510 728//510 722//510 
f 544//510 729//510 726//510 
f 544//510 730//510 731//510 
f 512//510 514//510 724//510 
f 732//510 518//510 520//510 
f 719//510 733//510 526//510 
f 715//510 720//510 530//510 
f 725//510 727//510 542//510 
f 731//510 729//510 544//510 
f 463//510 734//510 735//510 
f 724//510 249//510 506//510 
f 732//510 516//510 518//510 
f 526//510 736//510 737//510 
f 733//510 738//510 526//510 
f 530//510 532//510 715//510 
f 723//510 728//510 544//510 
f 735//510 544//510 463//510 
f 463//510 739//510 740//510 
f 251//510 249//510 724//510 
f 520//510 741//510 732//510 
f 741//510 520//510 522//510 
f 737//510 524//510 526//510 
f 532//510 534//510 715//510 
f 735//510 730//510 544//510 
f 740//510 742//510 463//510 
f 463//510 251//510 743//510 
f 724//510 744//510 251//510 
f 522//510 745//510 741//510 
f 745//510 522//510 524//510 
f 738//510 736//510 526//510 
f 742//510 734//510 463//510 
f 463//510 746//510 747//510 
f 743//510 748//510 463//510 
f 251//510 749//510 750//510 
f 744//510 751//510 251//510 
f 524//510 752//510 745//510 
f 524//510 753//510 754//510 
f 534//510 536//510 714//510 
f 748//510 746//510 463//510 
f 251//510 755//510 756//510 
f 751//510 749//510 251//510 
f 754//510 752//510 524//510 
f 747//510 739//510 463//510 
f 750//510 755//510 251//510 
f 737//510 753//510 524//510 
f 516//510 732//510 724//510 
f 756//510 743//510 251//510 
o mesh47
f 669//511 709//511 744//511 
f 744//511 724//511 669//511 
o mesh48
f 751//512 744//511 709//511 
f 749//513 751//512 711//512 
f 750//514 749//513 712//513 
f 755//515 750//514 706//514 
f 756//516 755//515 700//515 
f 743//517 756//516 699//516 
f 748//518 743//517 692//517 
f 746//519 748//518 691//518 
f 747//520 746//519 701//519 
f 739//521 747//520 710//520 
f 740//522 739//521 708//521 
f 742//523 740//522 707//522 
f 734//524 742//523 703//523 
f 735//525 734//524 702//524 
f 730//526 735//525 686//525 
f 731//527 730//526 685//526 
f 729//528 731//527 688//527 
f 726//529 729//528 687//528 
f 716//530 726//529 693//529 
f 717//531 716//530 676//530 
f 723//532 717//531 673//531 
f 728//533 723//532 672//532 
f 722//534 728//533 677//533 
f 725//535 722//534 695//534 
f 727//536 725//535 694//535 
f 721//537 727//536 704//536 
f 713//538 721//537 689//537 
f 714//539 713//538 678//538 
f 715//540 714//539 696//539 
f 720//541 715//540 679//540 
f 718//542 720//541 680//541 
f 719//543 718//542 681//542 
f 733//544 719//543 690//543 
f 738//545 733//544 705//544 
f 736//546 738//545 698//545 
f 737//547 736//546 697//546 
f 753//548 737//547 674//547 
f 754//549 753//548 682//548 
f 752//550 754//549 684//549 
f 745//551 752//550 683//550 
f 741//552 745//551 675//551 
f 732//553 741//552 671//552 
f 671//552 670//553 732//553 
f 675//551 671//552 741//552 
f 683//550 675//551 745//551 
f 684//549 683//550 752//550 
f 682//548 684//549 754//549 
f 674//547 682//548 753//548 
f 697//546 674//547 737//547 
f 698//545 697//546 736//546 
f 705//544 698//545 738//545 
f 690//543 705//544 733//544 
f 681//542 690//543 719//543 
f 680//541 681//542 718//542 
f 679//540 680//541 720//541 
f 696//539 679//540 715//540 
f 678//538 696//539 714//539 
f 689//537 678//538 713//538 
f 704//536 689//537 721//537 
f 694//535 704//536 727//536 
f 695//534 694//535 725//535 
f 677//533 695//534 722//534 
f 672//532 677//533 728//533 
f 673//531 672//532 723//532 
f 676//530 673//531 717//531 
f 693//529 676//530 716//530 
f 687//528 693//529 726//529 
f 688//527 687//528 729//528 
f 685//526 688//527 731//527 
f 686//525 685//526 730//526 
f 702//524 686//525 735//525 
f 703//523 702//524 734//524 
f 707//522 703//523 742//523 
f 708//521 707//522 740//522 
f 710//520 708//521 739//521 
f 701//519 710//520 747//520 
f 691//518 701//519 746//519 
f 692//517 691//518 748//518 
f 699//516 692//517 743//517 
f 700//515 699//516 756//516 
f 706//514 700//515 755//515 
f 712//513 706//514 750//514 
f 711//512 712//513 749//513 
f 709//511 711//512 751//512 
o mesh49
f 669//553 724//553 732//553 
f 732//553 670//553 669//553 
